<?xml version="1.0" encoding="utf-8"?>
<svg viewBox="22.264 11.32 79 79" xmlns="http://www.w3.org/2000/svg">
  <path d="M 34.702 66.321 C 34.419 49.684 41.499 40.06 41.499 40.06 C 44.568 54.78 50.271 54.839 50.271 54.839 C 50.271 54.839 47.184 49.355 47.375 40.434 C 47.597 30.052 56.778 12.01 68.817 11.64 C 66.513 14.846 65.539 18.036 65.539 22.726 C 65.539 39.806 88.834 44.71 88.834 66.71 C 88.834 86.374 72.701 90.001 61.261 90.001 C 49.813 90.001 34.986 82.958 34.702 66.321 Z M 44.993 70.51 C 44.993 78.965 54.709 83.717 62.678 83.609 C 70.805 83.497 71.645 81.957 71.944 82.141 C 74.822 83.861 79.142 82.978 79.142 82.978 C 79.142 82.978 76.343 81.653 77.055 78.769 C 77.143 78.412 80.305 76.675 80.363 70.51 C 80.44 62.056 70.648 57.41 62.678 57.41 C 54.705 57.41 44.993 62.056 44.993 70.51 Z" style="fill: rgb(222, 92, 63);"/>
</svg>