<svg xmlns="http://www.w3.org/2000/svg" viewBox="0 0 1500 600">
  <defs>
    <linearGradient id="ab3" x1="750.2" x2="750.2" y1="-5.1" y2="501.8" gradientTransform="matrix(1.15554 0 0 1.1519 -117 1)" gradientUnits="userSpaceOnUse">
      <stop offset="0" stop-color="#542f77"/>
      <stop offset=".6" stop-color="#763494"/>
    </linearGradient>
    <linearGradient id="bb3" x1="939.7" x2="939.7" y1="241.5" y2="591" gradientTransform="matrix(1.03499 0 0 1.03173 -27 -35)" gradientUnits="userSpaceOnUse">
      <stop offset="0" stop-color="#6a225d"/>
      <stop offset="1" stop-color="#952568"/>
    </linearGradient>
  </defs>
  <path fill="url(#ab3)" d="M-2-5h1505l17 3632-1551-5L-2-5z"/>
  <g transform="rotate(11 733 397) scale(.84644)">
    <path fill="#d8d8d8" fill-opacity=".3" d="M1071 41l-6 1v5l-3-5-5 1 3-4-2-4 5 2 3-4v5zM1150 141l-3-4-5 2 3-5-3-4 5 2 3-5v6l5 1-5 2zM1100 91l-6-4-5 5 1-7-6-4h7l1-7 4 6h6l-4 4zM999 23l-6-4-5 5 1-7-6-4h6l2-7 3 6h7l-5 4zM1129 208l5-5-1-6 5 4 6-4-2 6 6 4h-7l-3 7-2-6zM1244 239l-7-2-4 6v-7l-7-2 6-2v-7l4 5 7-2-4 6zM1265 185l-5-8-8 2 5-7-4-8 8 4 6-7v9l7 5-8 1z"/>
  </g>
  <path fill="url(#bb3)" d="M1519 226s-55-3-81 4c-39 11-76 32-116 41-43 11-95 4-140 7-66 6-131 30-198 38-42 5-94 2-136-2-49-5-92 12-139 16-26 2-55 3-81 11-20 6-32 25-50 34-42 18-90 21-131 42-22 12-157 71-180 82-16 7-174 39-184 53 0 1-76 7-98 35-9 12-17 3034-17 3034l1560 7-9-3402z"/>
</svg>
