<svg xmlns="http://www.w3.org/2000/svg" viewBox="0 0 1500 600">
  <defs>
    <linearGradient id="afw" x1="98.7" x2="98.7" y1="-83.9" y2="484.8" gradientTransform="matrix(1 .00346 -.00265 .76638 355 11)" gradientUnits="userSpaceOnUse">
      <stop offset="0" stop-color="#4f2466"/>
      <stop offset="1" stop-color="#842261"/>
    </linearGradient>
    <linearGradient id="bfw" x1="801.9" x2="801.9" y1="481.1" y2="623.7" gradientTransform="matrix(.7555 -.06992 .08712 1.64108 -173 -571)" gradientUnits="userSpaceOnUse">
      <stop offset="0" stop-color="#bc4770"/>
      <stop offset="1" stop-color="#d8486c"/>
    </linearGradient>
    <linearGradient id="cfw" x1="786.9" x2="786.9" y1="287.6" y2="664.2" gradientTransform="matrix(.97273 .23192 -.05423 .22744 397 104)" gradientUnits="userSpaceOnUse" spreadMethod="pad">
      <stop offset="0" stop-color="#992b79"/>
      <stop offset="1" stop-color="#bc3780"/>
    </linearGradient>
    <linearGradient id="dfw" x1="98.7" x2="98.7" y1="-83.9" y2="484.8" gradientTransform="matrix(1.14695 .0039 -.00304 .86355 -65 27)" gradientUnits="userSpaceOnUse">
      <stop offset="0" stop-color="#4f2466"/>
      <stop offset="1" stop-color="#842261"/>
    </linearGradient>
    <linearGradient id="efw" x1="801.9" x2="801.9" y1="481.1" y2="623.7" gradientTransform="matrix(.7555 -.06992 .08712 1.64108 -570 -496)" gradientUnits="userSpaceOnUse">
      <stop offset="0" stop-color="#bc4770"/>
      <stop offset="1" stop-color="#d8486c"/>
    </linearGradient>
    <linearGradient id="ffw" x1="98.7" x2="98.7" y1="-83.9" y2="484.8" gradientTransform="matrix(1 .00346 -.00265 .76638 137 21)" gradientUnits="userSpaceOnUse">
      <stop offset="0" stop-color="#4f2466"/>
      <stop offset="1" stop-color="#842261"/>
    </linearGradient>
    <linearGradient id="gfw" x1="801.9" x2="801.9" y1="481.1" y2="623.7" gradientTransform="matrix(.7555 -.06992 .08712 1.64108 -390 -553)" gradientUnits="userSpaceOnUse">
      <stop offset="0" stop-color="#bc4770"/>
      <stop offset="1" stop-color="#d8486c"/>
    </linearGradient>
    <linearGradient id="hfw" x1="98.7" x2="98.7" y1="-83.9" y2="484.8" gradientTransform="matrix(.70242 .00346 -.00186 .76638 273 -38)" gradientUnits="userSpaceOnUse">
      <stop offset="0" stop-color="#4f2466"/>
      <stop offset="1" stop-color="#842261"/>
    </linearGradient>
    <linearGradient id="ifw" x1="801.9" x2="801.9" y1="481.1" y2="623.7" gradientTransform="matrix(.7555 -.06992 .08712 1.64108 -297 -619)" gradientUnits="userSpaceOnUse">
      <stop offset="0" stop-color="#bc4770"/>
      <stop offset="1" stop-color="#d8486c"/>
    </linearGradient>
    <linearGradient id="jfw" x1="98.7" x2="98.7" y1="-83.9" y2="484.8" gradientTransform="matrix(1.00002 .00346 -.00222 .76636 1245 1)" gradientUnits="userSpaceOnUse">
      <stop offset="0" stop-color="#4f2466"/>
      <stop offset="1" stop-color="#842261"/>
    </linearGradient>
    <linearGradient id="kfw" x1="801.9" x2="801.9" y1="481.1" y2="623.7" gradientTransform="matrix(.7555 -.06992 .08712 1.64108 666 -474)" gradientUnits="userSpaceOnUse">
      <stop offset="0" stop-color="#bc4770"/>
      <stop offset="1" stop-color="#d8486c"/>
    </linearGradient>
    <linearGradient id="lfw" x1="649.6" x2="649.6" y1="-44.1" y2="341.2" gradientTransform="matrix(.988 .15444 -.13818 .88398 -24 -63)" gradientUnits="userSpaceOnUse">
      <stop offset="0" stop-color="#d8d8d8" stop-opacity="0"/>
      <stop offset="1" stop-color="#d8d8d8"/>
    </linearGradient>
    <linearGradient id="mfw" x1="566.6" x2="566.6" y1="263.3" y2="412.4" gradientTransform="matrix(.99835 .02634 .01214 -.46142 -6 439)" gradientUnits="userSpaceOnUse">
      <stop offset="0" stop-color="#eb4c64"/>
      <stop offset="1" stop-color="#ec8f43"/>
    </linearGradient>
    <linearGradient id="nfw" x1="801.9" x2="801.9" y1="481.1" y2="623.7" gradientTransform="matrix(.31984 .0803 .00361 .0938 248 289)" gradientUnits="userSpaceOnUse">
      <stop offset="0" stop-color="#bc4770"/>
      <stop offset="1" stop-color="#d8486c"/>
    </linearGradient>
    <linearGradient id="ofw" x1="801.9" x2="801.9" y1="481.1" y2="623.7" gradientTransform="matrix(.31942 .08042 .00368 .09394 279 305)" gradientUnits="userSpaceOnUse">
      <stop offset="0" stop-color="#bc4770"/>
      <stop offset="1" stop-color="#d8486c"/>
    </linearGradient>
    <linearGradient id="pfw" x1="801.9" x2="801.9" y1="481.1" y2="623.7" gradientTransform="matrix(.31902 .0804 .0031 .09391 330 303)" gradientUnits="userSpaceOnUse">
      <stop offset="0" stop-color="#bc4770"/>
      <stop offset="1" stop-color="#d8486c"/>
    </linearGradient>
    <linearGradient id="qfw" x1="801.9" x2="801.9" y1="481.1" y2="623.7" gradientTransform="matrix(.32941 .00256 .03008 .10711 342 342)" gradientUnits="userSpaceOnUse">
      <stop offset="0" stop-color="#bc4770"/>
      <stop offset="1" stop-color="#d8486c"/>
    </linearGradient>
    <linearGradient id="rfw" x1="442.8" x2="442.8" y1="333.5" y2="375.8" gradientTransform="matrix(.05127 -.99869 .09068 .00466 386 796)" gradientUnits="userSpaceOnUse">
      <stop offset="0" stop-color="#d2476c"/>
      <stop offset="1" stop-color="#5b184b"/>
    </linearGradient>
    <linearGradient id="sfw" x1="801.9" x2="801.9" y1="481.1" y2="623.7" gradientTransform="matrix(.56538 -.0055 .0652 .12896 -32 294)" gradientUnits="userSpaceOnUse">
      <stop offset="0" stop-color="#bc4770"/>
      <stop offset="1" stop-color="#d8486c"/>
    </linearGradient>
    <linearGradient id="tfw" x1="98.7" x2="98.7" y1="-83.9" y2="484.8" gradientTransform="matrix(1 .00346 -.00265 .76638 786 -31)" gradientUnits="userSpaceOnUse">
      <stop offset="0" stop-color="#4f2466"/>
      <stop offset="1" stop-color="#842261"/>
    </linearGradient>
    <linearGradient id="ufw" x1="801.9" x2="801.9" y1="481.1" y2="623.7" gradientTransform="matrix(.6744 .06992 .07777 -1.64108 270 1036)" gradientUnits="userSpaceOnUse">
      <stop offset="0" stop-color="#bc4770"/>
      <stop offset="1" stop-color="#d8486c"/>
    </linearGradient>
    <linearGradient id="vfw" x1="63" x2="63" y1="38.7" y2="149.7" gradientTransform="matrix(.1396 .99021 -.99779 .14066 143 45)" gradientUnits="userSpaceOnUse">
      <stop offset="0" stop-color="#762363"/>
      <stop offset="1" stop-color="#500e40"/>
    </linearGradient>
    <linearGradient id="wfw" x1="98.7" x2="98.7" y1="-83.9" y2="484.8" gradientTransform="matrix(1.00002 .00346 -.00222 .76636 1245 1)" gradientUnits="userSpaceOnUse">
      <stop offset="0" stop-color="#4f2466"/>
      <stop offset="1" stop-color="#842261"/>
    </linearGradient>
    <linearGradient id="xfw" x1="801.9" x2="801.9" y1="481.1" y2="623.7" gradientTransform="matrix(.7555 -.06992 .08712 1.64108 666 -474)" gradientUnits="userSpaceOnUse">
      <stop offset="0" stop-color="#bc4770"/>
      <stop offset="1" stop-color="#d8486c"/>
    </linearGradient>
  </defs>
  <g>
    <g>
      <path fill="url(#afw)" d="M 423.045 -89.86 L 449.671 -86.727 L 464.819 57.576 L 597.631 -31.688 L 606.426 -28.323 L 469.28 100.078 L 502.893 420.285 L 432.126 424.362 Z"/>
      <path fill="url(#bfw)" d="M 470.972 123.583 L 490.887 308.55 L 481.42 309.151 L 470.972 123.583 Z"/>
    </g>
    <path fill="url(#cfw)" d="M -18.541 432.399 C -18.541 432.399 107.1 426.348 166.503 408.558 C 240.263 386.468 305.309 336.926 380.352 321.781 C 454.372 306.843 530.307 308.635 604.908 296.152 C 714.259 277.853 825.895 293.027 934.326 307.811 C 964.589 311.938 994.245 322.373 1024.663 326.32 C 1059.368 330.823 1094.585 325.758 1129.416 328.244 C 1183.057 332.073 1239.913 343.79 1292.554 355.483 C 1347.938 367.786 1401.864 385.666 1456.931 400.181 C 1478.24 405.798 1517.85 421.647 1517.85 421.647 L 1529.087 3646.353 L -41.962 3629.779 C -34.809 3312.911 -18.541 432.399 -18.541 432.399 Z"/>
    <g>
      <path fill="url(#dfw)" d="M 13.496 -86.727 L 44.035 -83.197 L 105.077 488.097 L 23.912 492.691 L 13.496 -86.727 Z"/>
      <path fill="url(#efw)" d="M 60.384 69.317 L 104.3 487.09 L 78.469 489.251 Z M 52.122 360.437 L 66.354 490.259 L 49.266 491.516 Z"/>
      <g transform="translate(-824 74)">
        <g>
          <path fill="#711e54" d="M 72.002 71.025 C 68.146 73.23 54.328 73.23 49.014 73.23 C 47.202 73.23 56.886 73.526 55.377 73.505 C 51.437 73.45 47.715 73.4 44.225 73.4 C 42.099 73.4 40.273 73.42 38.646 73.459 C 36.248 73.518 25.746 73.698 24.11 73.698 C 11.653 73.698 9.741 72.634 9.527 72.146 C 9.578 71.931 14.756 50.671 29.519 50.671 C 32.785 50.671 36.346 51.705 40.102 53.743 C 40.375 53.89 40.704 53.897 40.979 53.759 C 41.257 53.621 41.45 53.357 41.497 53.051 C 43.68 38.805 56.122 26.308 68.121 26.308 C 72.651 26.308 76.661 28.042 80.039 31.461 C 84.934 36.414 72.215 46.978 72.002 71.025 Z" transform="matrix(1.28131 0 0 .9962 823 355)"/>
          <path fill="#8d266e" d="M 96.209 99.995 C 96.209 99.995 78.535 102.2 73.221 102.2 C 71.409 102.2 69.557 102.187 67.698 102.169 C 70.806 93.911 72.91 85.617 74.25 79.263 L 79.921 75.533 C 80.36 75.244 80.482 74.654 80.192 74.215 C 79.903 73.775 79.312 73.654 78.874 73.943 L 74.784 76.633 C 75.804 71.422 76.227 68.037 76.237 67.96 C 76.3 67.438 75.929 66.963 75.407 66.9 C 74.882 66.833 74.41 67.208 74.346 67.73 C 74.327 67.88 72.702 80.843 68.075 95.285 L 64.871 91.122 C 64.551 90.707 63.954 90.627 63.535 90.948 C 63.119 91.269 63.041 91.867 63.361 92.284 L 67.355 97.473 C 66.829 99.026 66.267 100.588 65.669 102.149 C 64.139 102.13 62.608 102.111 61.099 102.09 C 57.159 102.035 53.437 101.985 49.947 101.985 C 47.821 101.985 45.995 102.005 44.368 102.044 C 41.97 102.103 39.611 102.157 37.334 102.2 C 34.911 99.055 30.178 91.289 30.129 91.208 C 29.856 90.76 29.27 90.617 28.821 90.89 C 28.372 91.163 28.229 91.749 28.502 92.199 C 28.594 92.349 29.604 94.008 30.912 96.074 L 27.652 96.074 C 27.126 96.074 26.7 96.501 26.7 97.026 C 26.7 97.551 27.126 97.978 27.652 97.978 L 32.13 97.978 C 33.096 99.473 34.114 101.005 34.995 102.24 C 33.198 102.267 31.468 102.283 29.832 102.283 C 17.375 102.283 15.463 101.219 15.249 100.731 C 15.3 100.516 20.478 79.256 35.241 79.256 C 38.507 79.256 42.068 80.29 45.824 82.328 C 46.097 82.475 46.426 82.482 46.701 82.344 C 46.979 82.206 47.172 81.942 47.219 81.636 C 49.402 67.39 61.844 54.893 73.843 54.893 C 78.373 54.893 82.383 56.627 85.761 60.046 C 88.846 63.168 92.277 68.671 94.339 78.334 C 94.477 78.983 95.423 82.78 95.548 83.617 C 95.938 86.221 100.812 78.745 106.361 80.362 C 122.25 84.993 120.772 99.02 120.772 99.02 L 96.209 99.995 Z" transform="matrix(1.28131 0 0 .9962 816 325)"/>
        </g>
      </g>
    </g>
    <g>
      <path fill="url(#ffw)" d="M 205.01 -79.953 L 231.636 -76.82 L 246.784 67.483 L 283.184 -49.979 L 296.421 -32.24 L 251.245 109.985 L 284.858 430.192 L 214.091 434.269 L 207.753 75.389 L 133.996 -26.218 L 152.153 -25.777 L 207.186 43.281 L 205.01 -79.953 Z"/>
      <path fill="url(#gfw)" d="M 250.785 119.03 L 284.038 430.082 L 267.221 430.731 L 250.785 119.03 Z M 253.597 263.15 L 262.478 431.52 L 252.119 432.18 L 253.597 263.15 Z"/>
      <g transform="matrix(.98852 -.05467 .06887 .69936 -659 187)">
        <g>
          <path fill="#711e54" d="M 90.487 71.41 C 86.631 73.615 72.813 73.615 67.499 73.615 C 65.687 73.615 56.886 73.526 55.377 73.505 C 51.437 73.45 47.715 73.4 44.225 73.4 C 42.099 73.4 40.273 73.42 38.646 73.459 C 36.248 73.518 25.746 73.698 24.11 73.698 C 11.653 73.698 9.741 72.634 9.527 72.146 C 9.578 71.931 14.756 50.671 29.519 50.671 C 32.785 50.671 36.346 51.705 40.102 53.743 C 40.375 53.89 40.704 53.897 40.979 53.759 C 41.257 53.621 41.45 53.357 41.497 53.051 C 43.68 38.805 56.122 26.308 68.121 26.308 C 72.651 26.308 76.661 28.042 80.039 31.461 C 84.934 36.414 90.7 47.363 90.487 71.41 Z" transform="matrix(1.28131 0 0 .9962 823 355)"/>
          <path fill="#8d266e" d="M 96.209 99.995 C 92.353 102.2 78.535 102.2 73.221 102.2 C 71.409 102.2 69.557 102.187 67.698 102.169 C 70.806 93.911 72.91 85.617 74.25 79.263 L 79.921 75.533 C 80.36 75.244 80.482 74.654 80.192 74.215 C 79.903 73.775 79.312 73.654 78.874 73.943 L 74.784 76.633 C 75.804 71.422 76.227 68.037 76.237 67.96 C 76.3 67.438 75.929 66.963 75.407 66.9 C 74.882 66.833 74.41 67.208 74.346 67.73 C 74.327 67.88 72.702 80.843 68.075 95.285 L 64.871 91.122 C 64.551 90.707 63.954 90.627 63.535 90.948 C 63.119 91.269 63.041 91.867 63.361 92.284 L 67.355 97.473 C 66.829 99.026 66.267 100.588 65.669 102.149 C 64.139 102.13 62.608 102.111 61.099 102.09 C 57.159 102.035 53.437 101.985 49.947 101.985 C 47.821 101.985 45.995 102.005 44.368 102.044 C 41.97 102.103 39.611 102.157 37.334 102.2 C 34.911 99.055 30.178 91.289 30.129 91.208 C 29.856 90.76 29.27 90.617 28.821 90.89 C 28.372 91.163 28.229 91.749 28.502 92.199 C 28.594 92.349 29.604 94.008 30.912 96.074 L 27.652 96.074 C 27.126 96.074 26.7 96.501 26.7 97.026 C 26.7 97.551 27.126 97.978 27.652 97.978 L 32.13 97.978 C 33.096 99.473 34.114 101.005 34.995 102.24 C 33.198 102.267 31.468 102.283 29.832 102.283 C 17.375 102.283 15.463 101.219 15.249 100.731 C 15.3 100.516 20.478 79.256 35.241 79.256 C 38.507 79.256 42.068 80.29 45.824 82.328 C 46.097 82.475 46.426 82.482 46.701 82.344 C 46.979 82.206 47.172 81.942 47.219 81.636 C 49.402 67.39 61.844 54.893 73.843 54.893 C 78.373 54.893 82.383 56.627 85.761 60.046 C 90.656 64.999 96.422 75.948 96.209 99.995 Z" transform="matrix(1.28131 0 0 .9962 816 325)"/>
        </g>
      </g>
    </g>
    <g>
      <path fill="url(#hfw)" d="M 320.686 -139.197 L 339.389 -136.064 L 376.773 370.948 L 327.065 375.025 L 320.686 -139.197 Z"/>
      <path fill="url(#ifw)" d="M 352.953 54.69 L 377.142 370.727 L 364.76 370.989 L 352.953 54.69 Z M 361.173 348.113 L 362.029 371.852 L 357.875 372.193 L 361.173 348.113 Z"/>
      <g transform="matrix(-.66106 .0727 -.00713 .63284 945 49)">
        <g>
          <path fill="#711e54" d="M 90.487 71.41 C 86.631 73.615 72.813 73.615 67.499 73.615 C 65.687 73.615 56.886 73.526 55.377 73.505 C 51.437 73.45 47.715 73.4 44.225 73.4 C 42.099 73.4 40.273 73.42 38.646 73.459 C 36.248 73.518 25.746 73.698 24.11 73.698 C 11.653 73.698 9.741 72.634 9.527 72.146 C 9.578 71.931 14.756 50.671 29.519 50.671 C 32.785 50.671 36.346 51.705 40.102 53.743 C 40.375 53.89 40.704 53.897 40.979 53.759 C 41.257 53.621 41.45 53.357 41.497 53.051 C 43.68 38.805 56.122 26.308 68.121 26.308 C 72.651 26.308 76.661 28.042 80.039 31.461 C 84.934 36.414 90.7 47.363 90.487 71.41 Z" transform="matrix(1.28131 0 0 .9962 823 355)"/>
          <path fill="#8d266e" d="M 96.209 99.995 C 92.353 102.2 78.535 102.2 73.221 102.2 C 71.409 102.2 69.557 102.187 67.698 102.169 C 70.806 93.911 72.91 85.617 74.25 79.263 L 79.921 75.533 C 80.36 75.244 80.482 74.654 80.192 74.215 C 79.903 73.775 79.312 73.654 78.874 73.943 L 74.784 76.633 C 75.804 71.422 76.227 68.037 76.237 67.96 C 76.3 67.438 75.929 66.963 75.407 66.9 C 74.882 66.833 74.41 67.208 74.346 67.73 C 74.327 67.88 72.702 80.843 68.075 95.285 L 64.871 91.122 C 64.551 90.707 63.954 90.627 63.535 90.948 C 63.119 91.269 63.041 91.867 63.361 92.284 L 67.355 97.473 C 66.829 99.026 66.267 100.588 65.669 102.149 C 64.139 102.13 62.608 102.111 61.099 102.09 C 57.159 102.035 53.437 101.985 49.947 101.985 C 47.821 101.985 45.995 102.005 44.368 102.044 C 41.97 102.103 39.611 102.157 37.334 102.2 C 34.911 99.055 30.178 91.289 30.129 91.208 C 29.856 90.76 29.27 90.617 28.821 90.89 C 28.372 91.163 28.229 91.749 28.502 92.199 C 28.594 92.349 29.604 94.008 30.912 96.074 L 27.652 96.074 C 27.126 96.074 26.7 96.501 26.7 97.026 C 26.7 97.551 27.126 97.978 27.652 97.978 L 32.13 97.978 C 33.096 99.473 34.114 101.005 34.995 102.24 C 33.198 102.267 31.468 102.283 29.832 102.283 C 17.375 102.283 15.463 101.219 15.249 100.731 C 15.3 100.516 20.478 79.256 35.241 79.256 C 38.507 79.256 42.068 80.29 45.824 82.328 C 46.097 82.475 46.426 82.482 46.701 82.344 C 46.979 82.206 47.172 81.942 47.219 81.636 C 49.402 67.39 61.844 54.893 73.843 54.893 C 78.373 54.893 82.383 56.627 85.761 60.046 C 90.656 64.999 96.422 75.948 96.209 99.995 Z" transform="matrix(1.28131 0 0 .9962 816 325)"/>
        </g>
      </g>
    </g>
    <g transform="translate(-179 7)">
      <path fill="url(#jfw)" d="M 1313.102 -100.788 L 1339.73 -97.656 L 1354.96 46.644 L 1391.294 -70.815 L 1404.541 -53.077 L 1359.445 89.145 L 1393.24 409.344 L 1322.474 413.421 L 1315.933 54.55 L 1242.116 -47.055 L 1260.274 -46.614 L 1315.348 22.442 L 1313.102 -100.788 Z" transform="matrix(.99594 .08968 -.09025 .99594 19 -118)"/>
      <path fill="url(#kfw)" d="M 1309.632 270.735 L 1305.945 411.724 L 1299.611 411.226 L 1309.632 270.735 Z"/>
      <g transform="translate(447 -3)">
        <g>
          <path fill="#711e54" d="M 90.487 71.41 C 86.631 73.615 72.813 73.615 67.499 73.615 C 65.687 73.615 56.886 73.526 55.377 73.505 C 51.437 73.45 47.715 73.4 44.225 73.4 C 42.099 73.4 40.273 73.42 38.646 73.459 C 36.248 73.518 25.746 73.698 24.11 73.698 C 11.653 73.698 9.741 72.634 9.527 72.146 C 9.578 71.931 14.756 50.671 29.519 50.671 C 32.785 50.671 36.346 51.705 40.102 53.743 C 40.375 53.89 40.704 53.897 40.979 53.759 C 41.257 53.621 41.45 53.357 41.497 53.051 C 43.68 38.805 56.122 26.308 68.121 26.308 C 72.651 26.308 76.661 28.042 80.039 31.461 C 84.934 36.414 90.7 47.363 90.487 71.41 Z" transform="matrix(1.28131 0 0 .9962 823 355)"/>
          <path fill="#8d266e" d="M 96.209 99.995 C 92.353 102.2 78.535 102.2 73.221 102.2 C 71.409 102.2 69.557 102.187 67.698 102.169 C 70.806 93.911 72.91 85.617 74.25 79.263 L 79.921 75.533 C 80.36 75.244 80.482 74.654 80.192 74.215 C 79.903 73.775 79.312 73.654 78.874 73.943 L 74.784 76.633 C 75.804 71.422 76.227 68.037 76.237 67.96 C 76.3 67.438 75.929 66.963 75.407 66.9 C 74.882 66.833 74.41 67.208 74.346 67.73 C 74.327 67.88 72.702 80.843 68.075 95.285 L 64.871 91.122 C 64.551 90.707 63.954 90.627 63.535 90.948 C 63.119 91.269 63.041 91.867 63.361 92.284 L 67.355 97.473 C 66.829 99.026 66.267 100.588 65.669 102.149 C 64.139 102.13 62.608 102.111 61.099 102.09 C 57.159 102.035 53.437 101.985 49.947 101.985 C 47.821 101.985 45.995 102.005 44.368 102.044 C 41.97 102.103 39.611 102.157 37.334 102.2 C 34.911 99.055 30.178 91.289 30.129 91.208 C 29.856 90.76 29.27 90.617 28.821 90.89 C 28.372 91.163 28.229 91.749 28.502 92.199 C 28.594 92.349 29.604 94.008 30.912 96.074 L 27.652 96.074 C 27.126 96.074 26.7 96.501 26.7 97.026 C 26.7 97.551 27.126 97.978 27.652 97.978 L 32.13 97.978 C 33.096 99.473 34.114 101.005 34.995 102.24 C 33.198 102.267 31.468 102.283 29.832 102.283 C 17.375 102.283 15.463 101.219 15.249 100.731 C 15.3 100.516 20.478 79.256 35.241 79.256 C 38.507 79.256 42.068 80.29 45.824 82.328 C 46.097 82.475 46.426 82.482 46.701 82.344 C 46.979 82.206 47.172 81.942 47.219 81.636 C 49.402 67.39 61.844 54.893 73.843 54.893 C 78.373 54.893 82.383 56.627 85.761 60.046 C 90.656 64.999 96.422 75.948 96.209 99.995 Z" transform="matrix(1.28131 0 0 .9962 816 325)"/>
        </g>
      </g>
    </g>
    <g>
      <path fill="url(#lfw)" fill-opacity=".2" d="M 533.027 334.969 C 526.701 308.304 556.247 283.253 555.414 255.861 C 554.764 234.5 528.424 218.878 528.846 197.511 C 529.368 171.071 549.923 148.909 558.024 123.735 C 559.299 119.773 557.329 115.427 556.577 111.334 C 555.137 103.496 554.563 95.319 551.456 87.98 C 544.132 70.678 525.479 56.731 525.508 37.943 C 525.552 9.815 539.253 -17.042 551.66 -42.286 C 553.612 -46.258 757.915 -14.33 750.024 -7.348 C 732.165 8.455 709.435 18.215 691.944 34.424 C 679.395 46.053 670.957 61.455 660.868 75.272 C 657.452 79.95 651.306 84.088 651.455 89.878 C 651.877 106.293 666.355 121.935 662.477 137.891 C 656.816 161.182 631.646 176.194 624.886 199.19 C 619.33 218.09 629.974 238.76 627.096 258.248 C 626.115 264.894 617.702 267.945 613.914 273.493 C 606.81 283.9 599.611 294.416 594.533 305.948 C 589.924 316.415 591.323 329.341 585.097 338.934 C 583.146 341.94 578.16 336.95 574.587 336.678 C 560.762 335.625 536.228 348.46 533.027 334.969 Z"/>
      <path fill="url(#mfw)" d="M 624.953 321.285 C 624.64 341.429 611.532 347.334 611.532 347.334 C 611.532 347.334 616.43 339.733 612.968 334.652 C 608.649 328.305 604.472 329.459 604.472 329.459 C 604.472 329.459 608.622 336.576 605.336 351.386 C 602.167 365.667 586.68 373.454 586.68 373.454 C 586.68 373.454 590.641 365.52 589.625 359.13 C 588.316 350.916 581.684 349.256 581.684 349.256 C 581.684 349.256 584.236 373.983 573.193 391.762 C 561.181 411.1 538.961 413.151 538.961 413.151 C 538.961 413.151 555.132 399.419 555.938 371.469 C 556.444 353.95 545.839 339.061 533.754 340.756 C 520.059 342.675 527.901 356.475 528.822 366.261 C 529.578 374.3 524.713 379.147 524.713 379.147 C 524.713 379.147 524.836 370.247 520.059 361.049 C 514.693 350.717 505.172 338.655 504.72 323.204 C 503.908 295.112 521.396 263.97 561.416 263.97 C 608.718 263.97 625.321 297.734 624.953 321.285 Z M 561.689 268.632 C 528.822 265.341 534.301 311.138 534.301 311.138 C 534.301 311.138 541.423 295.779 555.938 302.087 C 570.45 308.394 566.071 340.478 566.071 340.478 C 566.071 340.478 575.468 323.594 579.936 309.285 C 585.928 290.115 585.303 270.995 561.689 268.632 Z" transform="rotate(180 565 339)"/>
      <path fill="#792262" d="M 607.356 401.55 C 601.877 405.833 594.844 408.182 594.844 408.182 C 594.844 408.182 637.807 429.337 642.022 430.736 C 646.237 432.135 646.558 430.563 649.307 430.05 C 657.639 428.488 661.92 422.085 660.359 413.757 C 659.087 406.969 659.461 406.877 654.014 403.034 C 644.155 396.079 618.246 387.21 618.246 387.21 C 618.246 387.21 613.237 396.953 607.356 401.55 Z M 635.21 418.405 C 634.04 412.158 638.155 406.142 644.403 404.972 C 650.652 403.802 656.666 407.919 657.838 414.165 C 659.008 420.414 654.891 426.426 648.645 427.596 C 642.394 428.77 636.379 424.653 635.21 418.405 Z M 575.591 414.172 C 568.735 415.313 562.045 415.025 562.045 415.025 C 562.045 415.025 588.636 447.624 595.347 452.828 C 602.058 458.032 599.32 454.231 602.053 454.819 C 610.339 456.598 617.691 452.788 619.475 444.504 C 620.924 437.751 618.133 435.403 615.136 429.74 C 613.766 427.151 593.749 408.999 593.749 408.999 C 593.749 408.999 583.294 412.886 575.591 414.172 Z M 593.921 438.943 C 595.259 432.727 601.379 428.774 607.592 430.11 C 613.808 431.448 617.761 437.57 616.427 443.783 C 615.089 449.999 608.965 453.95 602.752 452.616 C 596.538 451.28 592.583 445.159 593.921 438.943 Z M 511.755 385.503 C 511.755 385.503 477.928 400.492 475.849 402.549 C 471.438 406.913 470.688 406.173 469.245 412.929 C 467.475 421.217 472.255 426.111 480.543 427.882 C 483.276 428.466 484.894 431.057 487.375 430.253 C 489.855 429.446 532.388 407.045 532.388 407.045 C 532.388 407.045 526.541 404.047 522.265 399.629 C 517.225 394.421 511.755 385.503 511.755 385.503 Z M 480.38 427.128 C 474.164 425.801 470.2 419.686 471.527 413.47 C 472.856 407.252 478.972 403.291 485.189 404.616 C 491.405 405.943 495.369 412.06 494.04 418.276 C 492.713 424.494 486.595 428.455 480.38 427.128 Z M 532.704 407.472 C 532.704 407.472 513.24 423.276 508.588 433.421 C 505.966 439.139 502.085 441.951 504.024 448.578 C 506.403 456.713 514.925 461.379 523.063 459 C 525.743 458.215 528.05 456.764 529.849 454.875 C 531.651 452.988 560.912 415.006 560.912 415.006 C 560.912 415.006 552.805 414.144 546.107 412.279 C 538.881 410.265 532.704 407.472 532.704 407.472 Z M 521.983 455.316 C 515.883 457.1 509.49 453.602 507.706 447.502 C 505.922 441.4 509.42 435.008 515.522 433.221 C 521.624 431.437 528.015 434.938 529.801 441.037 C 531.585 447.137 528.085 453.53 521.983 455.316 Z"/>
      <path fill="url(#nfw)" d="M 507.391 394.021 L 510.292 412.987 L 507.215 413.65 L 507.391 394.021 Z M 506.311 386.388 L 506.008 414.083 L 502.35 415.323 L 506.311 386.388 Z" transform="matrix(-.38436 -.92028 .9261 -.38436 330 1021)"/>
      <circle cx="482.7" cy="416.3" r="12.2" fill="#9d2b6a" transform="matrix(-1.1646 -.40546 .4059 -1.16588 876 1097)"/>
      <path fill="url(#ofw)" d="M 539.207 408.391 L 541.01 428.937 L 537.325 429.843 L 539.207 408.391 Z M 536.553 422.795 L 536.148 430.561 L 534.003 431.395 L 536.553 422.795 Z" transform="matrix(-.79335 -.60685 .61069 -.79335 708 1079)"/>
      <circle cx="482.7" cy="416.3" r="12.2" fill="#9d2b6a" transform="matrix(-1.1646 -.40546 .4059 -1.16588 911 1127)"/>
      <path fill="url(#pfw)" d="M 589.338 424.324 L 592.797 433.318 L 588.909 430.987 L 589.338 424.324 Z M 586.327 407.941 L 587.558 430.349 L 583.639 428.324 L 586.327 407.941 Z" transform="matrix(-.73064 .68062 -.68492 -.73064 1306 328)"/>
      <circle cx="482.7" cy="416.3" r="12.2" fill="#9d2b6a" transform="matrix(-1.1646 -.40546 .4059 -1.16588 999 1123)"/>
      <path fill="url(#qfw)" d="M 617.479 391.968 L 626.795 413.745 L 621.602 413.459 L 617.479 391.968 Z" transform="matrix(-.63605 .76922 -.77408 -.63605 1330 181)"/>
      <circle cx="482.7" cy="416.3" r="12.2" fill="#9d2b6a" transform="matrix(-1.1646 -.40546 .4059 -1.16588 1040 1097)"/>
      <g transform="translate(522 242)">
        <path fill="#eb8c44" d="M111.122-48.487C105.622-42.187 104.822-42.387 102.222-50.287 104.922-42.387 104.422-41.787 96.222-43.487 104.422-41.787 104.622-41.087 99.122-34.887 104.622-41.187 105.322-40.987 108.022-33.087 105.322-40.987 105.822-41.587 114.022-39.887 105.822-41.487 105.522-42.187 111.122-48.487zM78.667 9.819C70.867 12.919 70.267 12.419 71.567 4.119 70.367 12.419 69.667 12.619 63.067 7.419 69.567 12.619 69.467 13.319 61.767 16.419 69.567 13.319 70.167 13.819 68.867 22.119 70.067 13.819 70.767 13.619 77.367 18.819 70.867 13.619 70.967 12.919 78.667 9.819zM33.786-26.444C30.286-25.044 30.086-25.244 30.586-28.944 29.986-25.244 29.686-25.144 26.786-27.444 29.686-25.144 29.686-24.744 26.186-23.444 29.686-24.844 29.886-24.644 29.386-20.944 29.986-24.644 30.286-24.744 33.186-22.444 30.186-24.744 30.286-25.044 33.786-26.444zM87.456 26.361C84.056 27.761 83.756 27.561 84.356 23.761 83.756 27.461 83.456 27.561 80.556 25.261 83.456 27.561 83.456 27.961 79.956 29.261 83.456 27.861 83.656 28.061 83.156 31.761 83.756 28.061 84.056 27.961 86.956 30.261 83.956 28.061 84.056 27.761 87.456 26.361zM8.347 52.289C4.847 53.689 4.647 53.489 5.147 49.789 4.547 53.489 4.247 53.589 1.347 51.289 4.247 53.589 4.247 53.989.747 55.289 4.247 53.889 4.447 54.089 3.947 57.789 4.547 54.089 4.847 53.989 7.747 56.289 4.847 53.989 4.847 53.689 8.347 52.289zM109.91 29.893C106.41 31.293 106.21 31.093 106.71 27.393 106.11 31.093 105.81 31.193 102.91 28.893 105.81 31.193 105.81 31.593 102.31 32.893 105.81 31.493 106.01 31.693 105.51 35.393 106.11 31.693 106.41 31.593 109.31 33.893 106.41 31.593 106.41 31.293 109.91 29.893zM63.278-8.403C59.778-7.003 59.578-7.203 60.078-10.903 59.478-7.203 59.178-7.103 56.278-9.403 59.178-7.103 59.178-6.703 55.678-5.403 59.178-6.803 59.378-6.603 58.878-2.903 59.478-6.603 59.778-6.703 62.678-4.403 59.778-6.703 59.778-7.003 63.278-8.403zM53.269 6.32C43.569 10.32 42.869 9.72 44.269-.68 42.869 9.72 41.969 10.02 33.769 3.62 42.069 10.02 41.869 10.92 32.269 14.92 41.969 10.92 42.669 11.52 41.269 21.92 42.669 11.62 43.469 11.22 51.769 17.62 43.469 11.22 43.569 10.32 53.269 6.32zM138.352-32.939C130.052-28.139 127.852-28.639 123.052-36.939 127.852-28.639 127.352-26.439 119.052-21.639 127.352-26.439 129.552-25.939 134.352-17.639 129.552-25.939 130.052-28.139 138.352-32.939zM20.669 24.125C16.969 29.625 15.469 29.825 10.069 25.625 15.469 29.825 15.769 31.425 12.069 36.925 15.769 31.425 17.269 31.225 22.669 35.425 17.269 31.225 16.969 29.625 20.669 24.125zM95.809-9.844C98.609-.944 97.609.956 88.709 3.756 97.609.956 99.509 1.956 102.309 10.856 99.509 2.056 100.509.056 109.409-2.644 100.509.056 98.609-.944 95.809-9.844zM6.681-14.433C5.881-5.133 4.181-3.733-5.119-4.533 4.181-3.733 5.581-2.033 4.781 7.267 5.581-2.033 7.281-3.433 16.581-2.633 7.281-3.533 5.881-5.233 6.681-14.433zM52.41-65.374C49.21-64.174 48.51-64.474 47.31-67.674 48.51-64.474 48.21-63.774 45.01-62.574 48.21-63.774 48.91-63.474 50.11-60.274 48.91-63.374 49.21-64.174 52.41-65.374zM63.406 62.848C60.206 64.048 59.506 63.748 58.306 60.548 59.506 63.748 59.206 64.448 56.006 65.648 59.206 64.448 59.906 64.748 61.106 67.948 60.006 64.748 60.306 64.048 63.406 62.848zM5.444-60.765C2.244-59.565 1.544-59.865.344-63.065 1.544-59.865 1.244-59.165-1.956-57.965 1.244-59.165 1.944-58.865 3.144-55.665 1.944-58.765 2.244-59.565 5.444-60.765zM117.942-7.54C119.142-4.34 118.842-3.64 115.642-2.44 118.842-3.64 119.542-3.34 120.742-.14 119.542-3.34 119.842-4.04 123.042-5.24 119.842-4.04 119.142-4.34 117.942-7.54zM83.879-30.955C85.079-27.755 84.779-27.055 81.579-25.855 84.779-27.055 85.479-26.755 86.679-23.555 85.479-26.755 85.779-27.455 88.979-28.655 85.879-27.455 85.179-27.755 83.879-30.955zM92.327-104.258C93.527-101.058 93.227-100.358 90.027-99.158 93.227-100.358 93.927-100.058 95.127-96.858 93.927-100.058 94.227-100.758 97.427-101.958 94.327-100.758 93.627-101.058 92.327-104.258zM21.867-117.001C23.067-113.801 22.767-113.101 19.567-111.901 22.767-113.101 23.467-112.801 24.667-109.601 23.467-112.801 23.767-113.501 26.967-114.701 23.867-113.501 23.167-113.801 21.867-117.001zM124.583-147.311C125.783-144.111 125.483-143.411 122.283-142.211 125.483-143.411 126.183-143.111 127.383-139.911 126.183-143.111 126.483-143.811 129.683-145.011 126.583-143.811 125.883-144.111 124.583-147.311zM3.44-163.896C4.64-160.696 4.34-159.996 1.14-158.796 4.34-159.996 5.04-159.696 6.24-156.496 5.04-159.696 5.34-160.396 8.54-161.596 5.44-160.396 4.74-160.696 3.44-163.896z"/>
      </g>
    </g>
    <g transform="translate(8 7) scale(.98627)">
      <ellipse cx="566.5" cy="385.9" fill="#eb4c64" rx="29" ry="21.1"/>
      <path fill="#ef9c5c" d="M 529.082 378.469 C 528.711 356.64 538.001 344.011 538.001 344.011 C 542.029 363.326 549.512 363.404 549.512 363.404 C 549.512 363.404 545.461 356.208 545.712 344.502 C 546.003 330.88 558.05 307.205 573.847 306.72 C 570.823 310.927 569.546 315.112 569.546 321.267 C 569.546 343.679 600.112 350.113 600.112 378.98 C 600.112 404.782 578.943 409.542 563.932 409.542 C 548.911 409.542 529.455 400.3 529.082 378.469 Z M 542.585 383.966 C 542.585 395.061 555.334 401.297 565.792 401.155 C 576.456 401.008 577.557 398.987 577.95 399.229 C 581.726 401.485 587.395 400.327 587.395 400.327 C 587.395 400.327 583.721 398.587 584.656 394.804 C 584.772 394.336 588.92 392.056 588.997 383.966 C 589.098 372.873 576.25 366.777 565.792 366.777 C 555.329 366.777 542.585 372.873 542.585 383.966 Z"/>
    </g>
    <g transform="matrix(1 0 1.01303 .64976 -378 130)">
      <path fill="#922963" d="M 424.429 333.716 L 424.52 371.305 C 424.52 371.305 431.806 375.636 443.227 375.761 C 455.712 375.897 462.877 373.325 462.877 373.325 L 466.652 337.431 L 446.724 334.1 L 424.429 333.716 Z"/>
      <path fill="#922963" d="M 441.186 337.558 L 439.017 375.406 L 442.718 375.759 L 444.634 339.702 L 446.576 333.456 L 441.186 337.558 Z"/>
      <path fill="#922963" d="M 468.383 427.77 A 84.634 84.634 0 1 1 454.02 426.542 L 454.02 511.176 Z" transform="matrix(-.24935 -.02275 .01125 -.0502 553 372)"/>
      <rect width="7.4" height="8.8" x="447" y="223" fill="#922963" rx="1" ry="1" transform="rotate(-47 539 142) skewX(-14)"/>
      <g fill="#922963">
        <path d="M461.885 308.311L449.158 311.312C449.158 311.312 457.861 331.094 491.02 331.143 493.531 331.143 492.581 331.512 495.215 331.318 498.685 331.06 498.882 330.165 498.626 326.695 498.369 323.223 499.432 325.264 495.96 325.519 493.635 325.69 495.879 323.806 493.679 323.806 479.16 323.808 461.885 308.311 461.885 308.311zM480.017 380.098C479.937 379.907 479.195 378.207 477.868 377.886 476.834 377.638 473.429 377.533 472.703 377.51 470.898 376.925 466.318 375.288 465.319 374.319 464.32 373.349 463.636 370.731 463.448 369.802 463.375 369.482 463.03 369.281 462.685 369.353L457.109 370.961C456.896 371.013 456.453 371.897 456.389 372.091L454.833 377.592C454.824 377.623 454.787 378.647 454.783 378.678 454.707 379.168 453.926 379.675 454.093 380.145L454.114 380.712 453.931 381.68C453.922 381.8 453.566 382.056 453.635 382.159L452.922 382.663C453.03 382.821 453.961 382.732 454.163 382.746 454.644 382.772 460.329 383.348 466.649 383.348 469.963 383.348 472.903 383.237 474.24 382.899 476.194 382.453 479.542 381.553 480.01 380.522 480.07 380.387 480.072 380.236 480.017 380.098z" transform="translate(5 -14)"/>
        <path d="M 460.458 377.503 L 495.98 342.795 C 498.916 339.718 498.725 337.558 496.72 333.806 C 494.716 330.055 492.005 328.659 487.814 329.392 L 460.777 330.227 C 460.96 322.753 462.24 315.09 463.574 308.262 C 454.027 308.376 446.956 312.572 445.405 311.454 L 443.277 313.67 C 443.277 313.67 436.756 317.444 433.514 334.017 C 429.735 346.428 444.209 351.559 451.429 351.468 C 453.741 351.439 455.641 351.338 457.137 350.855 L 469.821 349.176 L 457.343 367.496 C 455.765 372.759 459.708 375.238 460.53 378.853 C 461.115 381.424 458.524 379.529 460.458 377.503 Z" transform="translate(5 -14)"/>
      </g>
      <path fill="#922963" d="M 457.664 343.511 L 467.644 371.01 C 467.644 371.01 466.907 371.867 464.538 373.646 C 462.169 375.425 461.214 376.009 461.214 376.009 C 461.214 376.009 461.015 361.233 459.027 355.291 C 457.19 349.801 457.664 343.511 457.664 343.511 Z M 452.892 363.293 C 452.892 363.293 455.971 368.144 457.404 370.596 C 458.519 372.503 460.537 376.371 460.537 376.371 C 460.537 376.371 460.745 376.496 457.795 378.228 C 453.57 380.708 454.791 379.656 454.791 379.656 C 454.791 379.656 453.744 374.817 453.378 372.371 C 452.738 368.094 452.892 363.293 452.892 363.293 Z" transform="rotate(26 460 362)"/>
    </g>
    <g>
      <path fill="#762363" d="M 424.429 333.716 L 424.52 371.305 C 424.52 371.305 431.806 375.636 443.227 375.761 C 455.712 375.897 462.877 373.325 462.877 373.325 L 466.652 337.431 L 446.724 334.1 L 424.429 333.716 Z"/>
      <path fill="url(#rfw)" d="M 441.186 337.558 L 439.017 375.406 L 442.718 375.759 L 444.634 339.702 L 446.576 333.456 L 441.186 337.558 Z"/>
      <path fill="#b9396e" d="M 468.383 427.77 A 84.634 84.634 0 1 1 454.02 426.542 L 454.02 511.176 Z" transform="matrix(-.24935 -.02275 .01125 -.0502 553 372)"/>
      <rect width="7.4" height="8.8" x="447" y="223" fill="#e3469d" rx="1" ry="1" transform="rotate(-47 539 142) skewX(-14)"/>
      <g fill="#601b50">
        <path d="M462.358 287.732C462.1 287.559 460.094 287.403 460.075 287.389 457.289 285.303 449.662 285.832 447.575 288.616 445.487 291.401 448.326 300.716 451.11 302.806 451.723 303.235 457.861 331.094 491.02 331.143 493.531 331.143 492.581 331.512 495.215 331.318 498.685 331.06 498.882 330.165 498.626 326.695 498.369 323.223 499.432 325.264 495.96 325.519 493.635 325.69 495.879 323.806 493.679 323.806 479.16 323.808 468.658 310.439 464.56 303.048 462.384 299.123 465.711 291.513 464.497 289.339 464.293 288.974 462.874 288.079 462.358 287.732zM480.017 380.098C479.937 379.907 479.195 378.207 477.868 377.886 476.834 377.638 473.429 377.533 472.703 377.51 470.898 376.925 466.318 375.288 465.319 374.319 464.32 373.349 463.636 370.731 463.448 369.802 463.375 369.482 463.03 369.281 462.685 369.353L457.109 370.961C456.896 371.013 456.453 371.897 456.389 372.091L454.833 377.592C454.824 377.623 454.787 378.647 454.783 378.678 454.707 379.168 453.926 379.675 454.093 380.145L454.114 380.712 453.931 381.68C453.922 381.8 453.566 382.056 453.635 382.159L452.922 382.663C453.03 382.821 453.961 382.732 454.163 382.746 454.644 382.772 460.329 383.348 466.649 383.348 469.963 383.348 472.903 383.237 474.24 382.899 476.194 382.453 479.542 381.553 480.01 380.522 480.07 380.387 480.072 380.236 480.017 380.098z" transform="translate(5 -14)"/>
        <path d="M 481.315 263.117 C 480.465 264.625 480.459 267.007 483 269.178 C 485.793 271.565 487.76 274.392 487.76 279.066 C 487.76 282.071 486.584 285.391 484.24 287.739 C 482.556 289.426 479.564 291.442 474.879 291.442 C 472.691 291.442 470.126 290.841 467.745 289.624 C 466.275 289.533 463.804 289.4 461.665 287.38 C 462.126 287.442 462.673 287.492 463.073 287.536 C 462.384 287.206 461.682 286.434 461.281 285.909 C 461.281 285.909 462.555 286.191 463.404 286.335 C 461.399 284.124 460.038 281.184 460.038 277.457 C 460.038 276.426 460.618 276.063 461.081 275.77 C 461.428 275.553 461.624 275.417 461.624 275.131 C 461.624 274.639 460.932 273.755 460.322 272.976 C 459.746 272.24 459.2 271.544 459.122 271.074 C 458.995 270.313 459.635 270.069 460.146 269.87 C 460.564 269.711 460.818 269.597 460.818 269.365 C 460.818 268.996 460.648 268.823 460.466 268.636 C 460.306 268.471 460.124 268.284 460.124 267.974 C 460.124 267.592 460.525 267.487 460.847 267.405 C 461.219 267.31 461.395 267.244 461.395 267.06 C 461.395 266.902 461.219 266.847 460.802 266.777 C 460.416 266.712 459.937 266.633 459.937 266.188 C 459.937 265.763 460.261 265.599 460.52 265.469 C 460.749 265.354 460.888 265.277 460.91 265.112 C 460.942 264.876 460.941 264.597 460.94 264.304 C 460.934 263.247 460.928 261.933 462.536 261.749 C 463.317 261.663 464.56 262.135 465.76 262.597 C 466.753 262.98 467.779 263.373 468.395 263.373 C 468.604 263.373 468.746 263.33 468.833 263.239 C 468.928 263.137 468.961 262.957 468.929 262.706 C 468.763 261.39 468.833 258.851 467.678 258.466 C 466.843 258.187 485.421 256.045 485.421 256.045 L 484.428 257.184 C 484.538 257.706 483.136 260.463 482.394 261.175 C 481.83 261.712 481.684 262.462 481.315 263.117 Z" transform="rotate(-162 469 266)"/>
        <path d="M 460.458 377.503 L 495.98 342.795 C 498.916 339.718 498.725 337.558 496.72 333.806 C 494.716 330.055 492.005 328.659 487.814 329.392 L 460.777 330.227 C 460.96 322.753 462.24 315.09 463.574 308.262 C 456.853 305.168 452.514 302.224 450.963 301.106 L 450.945 301.091 L 450.87 301.038 C 449.186 299.776 448.095 297.933 447.797 295.849 C 447.5 293.767 448.03 291.693 449.294 290.008 C 450.772 288.033 453.13 286.856 455.6 286.856 C 457.314 286.856 458.946 287.399 460.322 288.429 L 460.397 288.483 C 460.51 288.564 460.68 288.684 460.919 288.844 C 461.613 289.314 458.693 290.116 459.535 290.618 C 460.286 291.065 463.282 290.146 464.394 290.737 C 463.848 285.232 462.643 281.485 457.969 280.318 C 451.243 278.642 442.137 281.502 439.486 293.409 C 435.878 309.612 435.911 316.608 433.514 334.017 C 429.735 346.428 444.209 351.559 451.429 351.468 C 453.741 351.439 455.641 351.338 457.137 350.855 L 469.821 349.176 L 457.343 367.496 C 455.765 372.759 459.708 375.238 460.53 378.853 C 461.115 381.424 458.524 379.529 460.458 377.503 Z" transform="translate(5 -14)"/>
      </g>
      <path fill="url(#sfw)" d="M 457.664 343.511 L 467.644 371.01 C 467.644 371.01 466.907 371.867 464.538 373.646 C 462.169 375.425 461.214 376.009 461.214 376.009 C 461.214 376.009 461.015 361.233 459.027 355.291 C 457.19 349.801 457.664 343.511 457.664 343.511 Z M 452.892 363.293 C 452.892 363.293 455.971 368.144 457.404 370.596 C 458.519 372.503 460.537 376.371 460.537 376.371 C 460.537 376.371 460.745 376.496 457.795 378.228 C 453.57 380.708 454.791 379.656 454.791 379.656 C 454.791 379.656 453.744 374.817 453.378 372.371 C 452.738 368.094 452.892 363.293 452.892 363.293 Z" transform="rotate(26 460 362)"/>
    </g>
    <g transform="matrix(1.25327 .12653 -2.39697 1.20392 659 231)">
      <path fill="#922963" d="M 199.257 68.084 L 208.843 60.397 C 208.843 60.397 210.159 58.845 212.938 60.382 C 215.717 61.919 215.153 63.892 215.153 63.892 C 215.153 63.892 213.07 70.441 211.069 73.805 C 209.463 76.504 206.977 78.612 204.827 80.513 C 201.994 83.017 198.434 83.494 194.999 84.086 C 188.334 85.235 181.34 85.273 174.71 83.936 C 171.437 83.276 169.894 81.523 167.117 79.67 C 165.018 78.269 163.732 75.464 162.4 73.321 C 160.483 70.238 156.591 64.455 156.591 64.455 C 156.591 64.455 156.314 61.191 158.405 59.817 C 160.306 58.568 163.23 60.066 163.23 60.066 L 174.719 68.52 C 174.719 68.52 175.621 63.224 175.416 57.329 C 175.256 52.716 173.974 47.736 174.003 44.639 C 174.046 40.065 182.577 38.158 182.577 38.158 C 182.577 38.158 186.122 39.148 188.793 39.333 C 192.552 39.593 196.098 38.831 196.098 38.831 C 196.098 38.831 204.155 41.605 204.707 45.646 C 205.106 48.565 201.118 52.167 200.078 55.997 C 198.431 62.069 199.257 68.084 199.257 68.084 Z"/>
      <path fill="#922963" d="M201.818 42.541C206.497 43.15 212.044 54.655 211.687 55.562 210.335 59.002 190.718 64.029 190.718 64.029L189.386 61.533 203.559 53.743 197.157 49.57C197.157 49.57 198.936 42.166 201.818 42.541zM177.295 41.136C172.912 40.23 169.908 52.825 169.908 52.825 169.908 52.825 167.131 44.091 167.227 43.66 167.353 43.094 170.24 41.84 170.116 41.059 170.065 40.736 169.686 40.473 169.329 40.147 169.095 39.933 168.736 39.807 168.476 39.597 168.217 39.39 168.057 39.099 167.766 38.956 167.21 38.683 166.758 38.401 166.415 38.53 165.085 39.031 164.582 42.587 164.582 42.587L164.818 43.202C164.818 43.202 165.542 54.029 167.654 58.913 168.117 59.984 169.515 61.065 170.546 60.627 173.511 59.368 178.066 53.004 178.066 53.004 178.066 53.004 181.169 41.937 177.295 41.136z"/>
      <path fill="#922963" d="M 178.915 46.616 C 178.915 46.616 181.431 43.244 184.785 46.616 L 185.873 47.606 C 185.873 47.606 186.667 48.896 189.618 49.05 C 192.569 49.205 195.308 50.483 196 53.36 C 196 53.36 196.8 55.866 194.726 58.673 C 194.726 58.673 193.024 61.341 191.091 62.293 C 191.091 62.293 189.065 63.407 186.618 62.687 C 186.618 62.687 184.561 62.266 183.139 59.551 C 183.139 59.551 181.865 56.887 181.097 56.423 C 181.097 56.423 179.927 55.641 179.14 55.309 C 178.451 55.019 176.205 53.836 176.158 52.154 C 176.158 52.154 176.103 50.901 176.677 49.834 L 164.648 41.035 C 164.648 41.035 164.374 40.977 164.287 40.797 C 164.287 40.797 163.303 40.136 162.989 40.078 C 162.674 40.02 162.105 39.97 161.698 39.772 C 161.698 39.772 161.217 39.471 160.549 39.049 L 160.445 39.197 C 160.359 39.123 160.254 39.045 160.13 38.98 C 160.254 39.046 160.36 39.124 160.445 39.198 L 160.433 39.215 L 160.437 39.218 L 160.453 39.195 C 160.629 39.346 160.723 39.484 160.725 39.487 L 160.734 39.499 L 160.351 40.093 L 160.337 40.091 C 160.33 40.09 159.647 39.982 159.261 39.415 L 159.253 39.403 L 159.634 38.808 L 159.649 38.81 C 159.806 38.835 159.946 38.883 160.071 38.943 L 160.165 38.807 C 159.625 38.466 159.01 38.077 158.44 37.714 L 158.342 37.854 C 158.256 37.78 158.151 37.702 158.027 37.637 C 158.151 37.703 158.257 37.781 158.342 37.855 L 158.33 37.872 L 158.334 37.875 L 158.35 37.852 C 158.526 38.003 158.62 38.141 158.622 38.144 L 158.631 38.156 L 158.248 38.75 L 158.234 38.748 C 158.227 38.747 157.544 38.639 157.158 38.072 L 157.15 38.06 L 157.531 37.465 L 157.546 37.467 C 157.703 37.492 157.843 37.54 157.968 37.6 L 158.057 37.471 C 157.472 37.097 156.97 36.774 156.704 36.594 C 156.704 36.594 156.639 36.513 156.79 36.293 C 156.942 36.072 157.357 35.055 157.345 34.637 C 157.333 34.22 157.311 33.976 158.138 33.617 C 158.138 33.617 159.022 32.886 159.233 32.538 C 159.233 32.538 159.363 32.204 159.681 32.462 L 160.786 33.316 L 160.876 33.186 C 160.963 33.26 161.068 33.337 161.192 33.402 C 161.068 33.336 160.962 33.259 160.876 33.185 L 160.888 33.168 L 160.884 33.165 L 160.868 33.188 C 160.692 33.038 160.597 32.901 160.595 32.898 L 160.586 32.886 L 160.966 32.29 L 160.98 32.292 C 160.987 32.293 161.67 32.397 162.059 32.962 L 162.067 32.974 L 161.689 33.571 L 161.674 33.569 C 161.517 33.545 161.377 33.498 161.252 33.438 L 161.145 33.594 L 162.893 34.944 L 162.968 34.835 C 163.055 34.909 163.16 34.986 163.284 35.051 C 163.16 34.985 163.054 34.908 162.968 34.834 L 162.98 34.817 L 162.976 34.814 L 162.96 34.837 C 162.784 34.687 162.689 34.55 162.687 34.547 L 162.678 34.535 L 163.058 33.939 L 163.072 33.941 C 163.079 33.942 163.762 34.046 164.151 34.611 L 164.159 34.623 L 163.781 35.22 L 163.766 35.218 C 163.609 35.194 163.469 35.147 163.344 35.087 L 163.251 35.222 L 163.846 35.681 C 163.846 35.681 164.777 36.609 164.999 37.003 C 164.999 37.003 165.267 37.56 166.047 38.233 C 166.047 38.233 166.285 38.334 166.365 38.5 Z M 159.656 38.857 L 159.306 39.401 L 159.657 38.857 Z M 160.328 40.044 C 160.293 40.036 160.198 40.016 160.076 39.971 C 160.199 40.017 160.293 40.037 160.328 40.044 Z M 157.553 37.514 L 157.203 38.058 L 157.554 37.514 Z M 158.225 38.701 C 158.19 38.693 158.095 38.673 157.973 38.628 C 158.096 38.674 158.19 38.694 158.225 38.701 Z M 161.667 33.522 L 162.014 32.976 L 161.666 33.522 Z M 160.989 32.339 C 161.025 32.346 161.12 32.366 161.244 32.411 C 161.12 32.365 161.024 32.345 160.989 32.339 Z M 163.759 35.171 L 164.106 34.625 L 163.758 35.171 Z M 163.081 33.988 C 163.117 33.995 163.212 34.015 163.336 34.06 C 163.212 34.014 163.116 33.994 163.081 33.988 Z"/>
      <path fill="#922963" d="M74 19H81.8V19.1H74z" transform="matrix(-.2205 .3259 .32725 .2196 177 11)"/>
      <path fill="#922963" d="M75 18H82.9V18.1H75z" transform="scale(-.3946 .39297) rotate(56 -249 -412)"/>
      <circle cx="88.7" cy="15" r=".7" fill="#922963" transform="matrix(-.3946 0 0 .39297 197 33)"/>
      <circle cx="85.4" cy="10" r=".7" fill="#922963" transform="matrix(-.3946 0 0 .39297 197 33)"/>
      <circle cx="91.7" cy="5.1" r=".7" fill="#922963" transform="matrix(-.3946 0 0 .39297 197 33)"/>
      <circle cx="95.4" cy="10.5" r=".7" fill="#922963" transform="matrix(-.3946 0 0 .39297 197 33)"/>
      <path fill="#922963" d="M39.292,50.25c0,0.104-0.002,0.208-0.008,0.31l-8.339,6.097c-1.03-0.274-1.964-0.791-2.731-1.485 l10.57-7.472C39.112,48.485,39.292,49.346,39.292,50.25z" transform="matrix(-.3946 0 0 .39297 197 33)"/>
      <path fill="#922963" d="M30.945 56.656l8.339-6.097c-.162 3.52-3.063 6.322-6.623 6.322C32.065 56.881 31.492 56.802 30.945 56.656zM38.784 47.699l-10.57 7.472c-.631-.569-1.152-1.262-1.527-2.035l10.783-7.449C38.021 46.267 38.47 46.948 38.784 47.699zM37.47 45.686l-10.783 7.449c-.412-.851-.645-1.802-.656-2.807l9.259-6.169C36.116 44.517 36.857 45.041 37.47 45.686z" transform="matrix(-.3946 0 0 .39297 197 33)"/>
      <path fill="#922963" d="M35.289,44.16l-9.259,6.169c0-0.027-0.002-0.054-0.002-0.079c0-3.663,2.969-6.633,6.633-6.633 C33.593,43.617,34.481,43.812,35.289,44.16z" transform="matrix(-.3946 0 0 .39297 197 33)"/>
      <g>
        <path fill="#922963" d="M18 46H18.4V64.3H18z" transform="scale(-.3946 .39297) rotate(56 -308 -371)"/>
        <path fill="#922963" d="M30 42H30.5V53.1H30z" transform="scale(-.39462 .393) rotate(56 -296 -378)"/>
        <path fill="#922963" d="M60 -3H60.4V57.7H60z" transform="scale(-.39461 .39298) rotate(56 -266 -398)"/>
        <path fill="#922963" d="M32 43H32.5V56.1H32z" transform="scale(-.3946 .39297) rotate(55 -296 -385)"/>
        <path fill="#922963" d="M38 46L37 46 78 18 92 5 92 6 78 18z" transform="matrix(-.3946 0 0 .39297 197 33)"/>
        <path fill="#922963" d="M19 49H19.4V66.3H19z" transform="matrix(-.22366 .32377 .32512 .22274 174 36)"/>
        <path fill="#922963" d="M33 45H33.5V57.9H33z" transform="matrix(-.2271 .32137 .32271 .22616 174 30)"/>
        <path fill="#922963" d="M39 48L39 48 78 19 78 19 95 10 95 10 79 20z" transform="matrix(-.3946 0 0 .39297 197 33)"/>
        <path fill="#922963" d="M21 52H21.4V69H21z" transform="scale(-.3946 .39296) rotate(55 -307 -377)"/>
        <path fill="#922963" d="M23 53H23.4V71.4H23z" transform="matrix(-.23416 .3163 .31762 .23319 173 35)"/>
        <path fill="#922963" d="M35 48H35.5V58.3H35z" transform="scale(-.39459 .39295) rotate(54 -296 -397)"/>
        <path fill="#922963" d="M39 51L39 50 80 21 88 14 88 15 80 21z" transform="matrix(-.3946 0 0 .39297 197 33)"/>
      </g>
      <path fill="#922963" d="M 137.443 58.348 C 137.383 58.348 137.324 58.375 137.285 58.427 L 134.325 62.383 C 134.26 62.47 134.279 62.593 134.366 62.658 C 134.453 62.722 134.576 62.705 134.642 62.617 L 137.602 58.661 C 137.667 58.574 137.649 58.451 137.561 58.386 C 137.526 58.36 137.484 58.348 137.443 58.348 Z" transform="rotate(180 163 59)"/>
      <path fill="#922963" d="M 186.584 32.415 C 186.584 32.415 185.974 31.417 187.393 34.177 C 187.668 34.712 187.298 35.439 187.254 35.917 C 186.967 39.042 186.796 40.632 182.926 43.355 C 180.429 45.112 195.251 46.477 193.271 43.728 C 191.628 41.447 192.093 39.84 192.042 37.369 C 192.023 36.454 191.947 35.386 192.695 34.858 C 193.441 34.331 193.509 35.783 194.236 35.151 C 196.136 33.499 197.473 32.365 197.473 32.365 L 186.584 32.415 Z"/>
      <path fill="#922963" d="M 183.376 27.034 L 200.299 25.189 C 200.299 25.189 200.071 23.911 199.667 22.802 C 200.311 20.206 200.407 17.256 197.076 17.123 C 196.946 17.12 196.834 17.227 196.831 17.364 C 196.828 17.467 196.886 17.561 196.973 17.6 C 197.865 18.006 198.104 18.703 197.977 19.651 C 197.227 17.935 196.05 17.983 194.481 17.661 C 194.185 17.6 194.085 18.074 194.382 18.149 C 195.312 18.45 196.313 18.703 196.366 19.901 C 195.694 18.944 195.037 18.814 193.973 18.509 C 193.732 18.441 193.552 18.762 193.785 18.96 C 195.532 20.459 195.024 22.069 194.593 24.055 C 194.581 24.117 194.59 24.178 194.618 24.23 C 194.877 24.772 195.403 25.836 195.403 25.836 L 186.051 26.792 C 186.051 26.792 186.921 24.135 187.968 24.227 C 188.092 24.24 188.2 24.149 188.222 24.026 C 188.659 22.325 188.138 18.441 187.93 16.549 C 187.902 16.298 187.577 16.246 187.478 16.474 L 186.694 17.928 L 186.765 17.568 C 186.815 17.312 186.502 17.162 186.347 17.364 L 185.984 17.775 L 186.115 17.474 C 186.214 17.243 185.956 17.026 185.761 17.169 C 184.236 18.194 183.149 20.174 183.378 22.102 L 182.163 21.611 C 181.921 21.514 181.726 21.806 181.943 22.056 C 183.128 23.413 183.376 27.034 183.376 27.034 Z" class="fil0" transform="rotate(-173 191 29)"/>
      <path fill="#922963" d="M 167.595 58.891 C 168.058 59.962 169.849 52.803 169.849 52.803 C 169.849 52.803 167.072 44.069 167.168 43.638 C 167.294 43.072 170.181 41.818 170.057 41.037 C 170.006 40.714 169.627 40.451 169.27 40.125 C 169.036 39.911 168.677 39.785 168.417 39.575 C 168.158 39.368 167.998 39.077 167.707 38.934 C 167.151 38.661 166.699 38.379 166.356 38.508 C 165.026 39.009 164.523 42.565 164.523 42.565 L 164.759 43.18 C 164.759 43.18 165.483 54.007 167.595 58.891 Z"/>
    </g>
    <g transform="matrix(1.88912 0 0 1.88912 346 197)">
      <path fill="#601b50" d="M 199.257 68.084 L 208.843 60.397 C 208.843 60.397 210.159 58.845 212.938 60.382 C 215.717 61.919 215.153 63.892 215.153 63.892 C 215.153 63.892 213.07 70.441 211.069 73.805 C 209.463 76.504 206.977 78.612 204.827 80.513 C 201.994 83.017 198.434 83.494 194.999 84.086 C 188.334 85.235 181.34 85.273 174.71 83.936 C 171.437 83.276 169.894 81.523 167.117 79.67 C 165.018 78.269 163.732 75.464 162.4 73.321 C 160.483 70.238 156.591 64.455 156.591 64.455 C 156.591 64.455 156.314 61.191 158.405 59.817 C 160.306 58.568 163.23 60.066 163.23 60.066 L 174.719 68.52 C 174.719 68.52 175.621 63.224 175.416 57.329 C 175.256 52.716 173.974 47.736 174.003 44.639 C 174.046 40.065 182.577 38.158 182.577 38.158 C 182.577 38.158 186.122 39.148 188.793 39.333 C 192.552 39.593 196.098 38.831 196.098 38.831 C 196.098 38.831 204.155 41.605 204.707 45.646 C 205.106 48.565 201.118 52.167 200.078 55.997 C 198.431 62.069 199.257 68.084 199.257 68.084 Z"/>
      <path fill="#601b50" d="M201.818 42.541C206.497 43.15 212.044 54.655 211.687 55.562 210.335 59.002 190.718 64.029 190.718 64.029L189.386 61.533 203.559 53.743 197.157 49.57C197.157 49.57 198.936 42.166 201.818 42.541zM177.295 41.136C172.912 40.23 169.908 52.825 169.908 52.825 169.908 52.825 167.131 44.091 167.227 43.66 167.353 43.094 170.24 41.84 170.116 41.059 170.065 40.736 169.686 40.473 169.329 40.147 169.095 39.933 168.736 39.807 168.476 39.597 168.217 39.39 168.057 39.099 167.766 38.956 167.21 38.683 166.758 38.401 166.415 38.53 165.085 39.031 164.582 42.587 164.582 42.587L164.818 43.202C164.818 43.202 165.542 54.029 167.654 58.913 168.117 59.984 169.515 61.065 170.546 60.627 173.511 59.368 178.066 53.004 178.066 53.004 178.066 53.004 181.169 41.937 177.295 41.136z"/>
      <path fill="#601b50" d="M 178.915 46.616 C 178.915 46.616 181.431 43.244 184.785 46.616 L 185.873 47.606 C 185.873 47.606 186.667 48.896 189.618 49.05 C 192.569 49.205 195.308 50.483 196 53.36 C 196 53.36 196.8 55.866 194.726 58.673 C 194.726 58.673 193.024 61.341 191.091 62.293 C 191.091 62.293 189.065 63.407 186.618 62.687 C 186.618 62.687 184.561 62.266 183.139 59.551 C 183.139 59.551 181.865 56.887 181.097 56.423 C 181.097 56.423 179.927 55.641 179.14 55.309 C 178.451 55.019 176.205 53.836 176.158 52.154 C 176.158 52.154 176.103 50.901 176.677 49.834 L 164.648 41.035 C 164.648 41.035 164.374 40.977 164.287 40.797 C 164.287 40.797 163.303 40.136 162.989 40.078 C 162.674 40.02 162.105 39.97 161.698 39.772 C 161.698 39.772 161.217 39.471 160.549 39.049 L 160.445 39.197 C 160.359 39.123 160.254 39.045 160.13 38.98 C 160.254 39.046 160.36 39.124 160.445 39.198 L 160.433 39.215 L 160.437 39.218 L 160.453 39.195 C 160.629 39.346 160.723 39.484 160.725 39.487 L 160.734 39.499 L 160.351 40.093 L 160.337 40.091 C 160.33 40.09 159.647 39.982 159.261 39.415 L 159.253 39.403 L 159.634 38.808 L 159.649 38.81 C 159.806 38.835 159.946 38.883 160.071 38.943 L 160.165 38.807 C 159.625 38.466 159.01 38.077 158.44 37.714 L 158.342 37.854 C 158.256 37.78 158.151 37.702 158.027 37.637 C 158.151 37.703 158.257 37.781 158.342 37.855 L 158.33 37.872 L 158.334 37.875 L 158.35 37.852 C 158.526 38.003 158.62 38.141 158.622 38.144 L 158.631 38.156 L 158.248 38.75 L 158.234 38.748 C 158.227 38.747 157.544 38.639 157.158 38.072 L 157.15 38.06 L 157.531 37.465 L 157.546 37.467 C 157.703 37.492 157.843 37.54 157.968 37.6 L 158.057 37.471 C 157.472 37.097 156.97 36.774 156.704 36.594 C 156.704 36.594 156.639 36.513 156.79 36.293 C 156.942 36.072 157.357 35.055 157.345 34.637 C 157.333 34.22 157.311 33.976 158.138 33.617 C 158.138 33.617 159.022 32.886 159.233 32.538 C 159.233 32.538 159.363 32.204 159.681 32.462 L 160.786 33.316 L 160.876 33.186 C 160.963 33.26 161.068 33.337 161.192 33.402 C 161.068 33.336 160.962 33.259 160.876 33.185 L 160.888 33.168 L 160.884 33.165 L 160.868 33.188 C 160.692 33.038 160.597 32.901 160.595 32.898 L 160.586 32.886 L 160.966 32.29 L 160.98 32.292 C 160.987 32.293 161.67 32.397 162.059 32.962 L 162.067 32.974 L 161.689 33.571 L 161.674 33.569 C 161.517 33.545 161.377 33.498 161.252 33.438 L 161.145 33.594 L 162.893 34.944 L 162.968 34.835 C 163.055 34.909 163.16 34.986 163.284 35.051 C 163.16 34.985 163.054 34.908 162.968 34.834 L 162.98 34.817 L 162.976 34.814 L 162.96 34.837 C 162.784 34.687 162.689 34.55 162.687 34.547 L 162.678 34.535 L 163.058 33.939 L 163.072 33.941 C 163.079 33.942 163.762 34.046 164.151 34.611 L 164.159 34.623 L 163.781 35.22 L 163.766 35.218 C 163.609 35.194 163.469 35.147 163.344 35.087 L 163.251 35.222 L 163.846 35.681 C 163.846 35.681 164.777 36.609 164.999 37.003 C 164.999 37.003 165.267 37.56 166.047 38.233 C 166.047 38.233 166.285 38.334 166.365 38.5 Z M 159.656 38.857 L 159.306 39.401 L 159.657 38.857 Z M 160.328 40.044 C 160.293 40.036 160.198 40.016 160.076 39.971 C 160.199 40.017 160.293 40.037 160.328 40.044 Z M 157.553 37.514 L 157.203 38.058 L 157.554 37.514 Z M 158.225 38.701 C 158.19 38.693 158.095 38.673 157.973 38.628 C 158.096 38.674 158.19 38.694 158.225 38.701 Z M 161.667 33.522 L 162.014 32.976 L 161.666 33.522 Z M 160.989 32.339 C 161.025 32.346 161.12 32.366 161.244 32.411 C 161.12 32.365 161.024 32.345 160.989 32.339 Z M 163.759 35.171 L 164.106 34.625 L 163.758 35.171 Z M 163.081 33.988 C 163.117 33.995 163.212 34.015 163.336 34.06 C 163.212 34.014 163.116 33.994 163.081 33.988 Z"/>
      <path fill="#601b50" d="M74 19H81.8V19.1H74z" transform="matrix(-.2205 .3259 .32725 .2196 177 11)"/>
      <path fill="#601b50" d="M75 18H82.9V18.1H75z" transform="scale(-.3946 .39297) rotate(56 -249 -412)"/>
      <circle cx="88.7" cy="15" r=".7" fill="#601b50" transform="matrix(-.3946 0 0 .39297 197 33)"/>
      <circle cx="85.4" cy="10" r=".7" fill="#601b50" transform="matrix(-.3946 0 0 .39297 197 33)"/>
      <circle cx="91.7" cy="5.1" r=".7" fill="#601b50" transform="matrix(-.3946 0 0 .39297 197 33)"/>
      <circle cx="95.4" cy="10.5" r=".7" fill="#601b50" transform="matrix(-.3946 0 0 .39297 197 33)"/>
      <path fill="#601b50" d="M39.292,50.25c0,0.104-0.002,0.208-0.008,0.31l-8.339,6.097c-1.03-0.274-1.964-0.791-2.731-1.485 l10.57-7.472C39.112,48.485,39.292,49.346,39.292,50.25z" transform="matrix(-.3946 0 0 .39297 197 33)"/>
      <path fill="#601b50" d="M30.945 56.656l8.339-6.097c-.162 3.52-3.063 6.322-6.623 6.322C32.065 56.881 31.492 56.802 30.945 56.656zM38.784 47.699l-10.57 7.472c-.631-.569-1.152-1.262-1.527-2.035l10.783-7.449C38.021 46.267 38.47 46.948 38.784 47.699zM37.47 45.686l-10.783 7.449c-.412-.851-.645-1.802-.656-2.807l9.259-6.169C36.116 44.517 36.857 45.041 37.47 45.686z" transform="matrix(-.3946 0 0 .39297 197 33)"/>
      <path fill="#601b50" d="M35.289,44.16l-9.259,6.169c0-0.027-0.002-0.054-0.002-0.079c0-3.663,2.969-6.633,6.633-6.633 C33.593,43.617,34.481,43.812,35.289,44.16z" transform="matrix(-.3946 0 0 .39297 197 33)"/>
      <g>
        <path fill="#601b50" d="M18 46H18.4V64.3H18z" transform="scale(-.3946 .39297) rotate(56 -308 -371)"/>
        <path fill="#601b50" d="M30 42H30.5V53.1H30z" transform="scale(-.39462 .393) rotate(56 -296 -378)"/>
        <path fill="#601b50" d="M60 -3H60.4V57.7H60z" transform="scale(-.39461 .39298) rotate(56 -266 -398)"/>
        <path fill="#601b50" d="M32 43H32.5V56.1H32z" transform="scale(-.3946 .39297) rotate(55 -296 -385)"/>
        <path fill="#601b50" d="M38 46L37 46 78 18 92 5 92 6 78 18z" transform="matrix(-.3946 0 0 .39297 197 33)"/>
        <path fill="#601b50" d="M19 49H19.4V66.3H19z" transform="matrix(-.22366 .32377 .32512 .22274 174 36)"/>
        <path fill="#601b50" d="M33 45H33.5V57.9H33z" transform="matrix(-.2271 .32137 .32271 .22616 174 30)"/>
        <path fill="#601b50" d="M39 48L39 48 78 19 78 19 95 10 95 10 79 20z" transform="matrix(-.3946 0 0 .39297 197 33)"/>
        <path fill="#601b50" d="M21 52H21.4V69H21z" transform="scale(-.3946 .39296) rotate(55 -307 -377)"/>
        <path fill="#601b50" d="M23 53H23.4V71.4H23z" transform="matrix(-.23416 .3163 .31762 .23319 173 35)"/>
        <path fill="#601b50" d="M35 48H35.5V58.3H35z" transform="scale(-.39459 .39295) rotate(54 -296 -397)"/>
        <path fill="#601b50" d="M39 51L39 50 80 21 88 14 88 15 80 21z" transform="matrix(-.3946 0 0 .39297 197 33)"/>
      </g>
      <path fill="#601b50" d="M 137.443 58.348 C 137.383 58.348 137.324 58.375 137.285 58.427 L 134.325 62.383 C 134.26 62.47 134.279 62.593 134.366 62.658 C 134.453 62.722 134.576 62.705 134.642 62.617 L 137.602 58.661 C 137.667 58.574 137.649 58.451 137.561 58.386 C 137.526 58.36 137.484 58.348 137.443 58.348 Z" transform="rotate(180 163 59)"/>
      <path fill="#601b50" d="M 184.413 28.511 C 184.413 28.511 185.974 31.417 187.393 34.177 C 187.668 34.712 187.298 35.439 187.254 35.917 C 186.967 39.042 186.796 40.632 182.926 43.355 C 180.429 45.112 195.251 46.477 193.271 43.728 C 191.628 41.447 192.093 39.84 192.042 37.369 C 192.023 36.454 191.947 35.386 192.695 34.858 C 193.441 34.331 193.509 35.783 194.236 35.151 C 196.136 33.499 198.178 27.157 198.178 27.157 L 197.176 22.894 L 189.128 22.17 L 184.661 24.012 L 184.413 28.511 Z"/>
      <path fill="#601b50" d="M 200.075 26.641 C 200.345 25.902 200.571 25.285 199.667 22.802 C 200.311 20.206 200.407 17.256 197.076 17.123 C 196.946 17.12 196.834 17.227 196.831 17.364 C 196.828 17.467 196.886 17.561 196.973 17.6 C 197.865 18.006 198.104 18.703 197.977 19.651 C 197.227 17.935 196.05 17.983 194.481 17.661 C 194.185 17.6 194.085 18.074 194.382 18.149 C 195.312 18.45 196.313 18.703 196.366 19.901 C 195.694 18.944 195.037 18.814 193.973 18.509 C 193.732 18.441 193.552 18.762 193.785 18.96 C 195.532 20.459 195.024 22.069 194.593 24.055 C 194.581 24.117 194.59 24.178 194.618 24.23 C 195.663 26.414 196.926 28.439 196.235 31.007 C 195.173 34.952 189.446 31.802 186.164 35.523 C 186.217 35.41 185.832 33.009 185.808 32.613 C 185.684 30.802 185.485 24.009 187.968 24.227 C 188.092 24.24 188.2 24.149 188.222 24.026 C 188.659 22.325 188.138 18.441 187.93 16.549 C 187.902 16.298 187.577 16.246 187.478 16.474 L 186.694 17.928 L 186.765 17.568 C 186.815 17.312 186.502 17.162 186.347 17.364 L 185.984 17.775 L 186.115 17.474 C 186.214 17.243 185.956 17.026 185.761 17.169 C 184.236 18.194 183.149 20.174 183.378 22.102 L 182.163 21.611 C 181.921 21.514 181.726 21.806 181.943 22.056 C 183.62 23.977 183.447 26.661 183.264 29.442 C 182.275 44.672 198.56 45.123 200.038 37.295 C 200.751 33.514 199.17 29.131 200.075 26.641 Z" class="fil0" transform="rotate(-173 191 29)"/>
      <path fill="#601b50" d="M 167.595 58.891 C 168.058 59.962 169.849 52.803 169.849 52.803 C 169.849 52.803 167.072 44.069 167.168 43.638 C 167.294 43.072 170.181 41.818 170.057 41.037 C 170.006 40.714 169.627 40.451 169.27 40.125 C 169.036 39.911 168.677 39.785 168.417 39.575 C 168.158 39.368 167.998 39.077 167.707 38.934 C 167.151 38.661 166.699 38.379 166.356 38.508 C 165.026 39.009 164.523 42.565 164.523 42.565 L 164.759 43.18 C 164.759 43.18 165.483 54.007 167.595 58.891 Z"/>
    </g>
    <g transform="translate(-68 -4)">
      <g transform="matrix(1 0 -1.58219 .48401 630 205)">
        <g>
          <path style="fill:rgb(146, 41, 99);fill-opacity:0.7" fill="#922963" fill-opacity=".7" d="M 25.804 92.557 L 70.002 87.131 L 88.645 -48.875 L 38.058 -44.822 L 25.804 92.557 Z" transform="matrix(1.46696 .081 .16491 -.90047 802 338)"/>
        </g>
      </g>
      <path fill="url(#tfw)" d="M 854.541 -132.611 L 881.167 -129.478 L 896.315 14.825 L 932.715 -102.637 L 945.952 -84.898 L 900.776 57.327 L 934.389 377.534 L 863.622 381.611 L 857.284 22.731 L 783.527 -78.876 L 801.684 -78.435 L 856.717 -9.377 L 854.541 -132.611 Z" transform="rotate(3 865 124)"/>
      <path fill="url(#ufw)" d="M 865.584 381.036 L 878.149 47.406 L 865.842 47.215 L 865.584 381.036 Z M 859.315 144.935 L 859.775 47.653 L 849.753 47.76 L 859.315 144.935 Z" transform="rotate(180 864 214)"/>
      <g>
        <path fill="#711e54" d="M 90.487 71.41 C 86.631 73.615 72.813 73.615 67.499 73.615 C 65.687 73.615 56.886 73.526 55.377 73.505 C 51.437 73.45 47.715 73.4 44.225 73.4 C 42.099 73.4 40.273 73.42 38.646 73.459 C 36.248 73.518 25.746 73.698 24.11 73.698 C 11.653 73.698 9.741 72.634 9.527 72.146 C 9.578 71.931 14.756 50.671 29.519 50.671 C 32.785 50.671 36.346 51.705 40.102 53.743 C 40.375 53.89 40.704 53.897 40.979 53.759 C 41.257 53.621 41.45 53.357 41.497 53.051 C 43.68 38.805 56.122 26.308 68.121 26.308 C 72.651 26.308 76.661 28.042 80.039 31.461 C 84.934 36.414 90.7 47.363 90.487 71.41 Z" transform="matrix(-1.33939 0 0 .9962 954 326)"/>
        <path fill="#8d266e" d="M 96.209 99.995 C 92.353 102.2 78.535 102.2 73.221 102.2 C 71.409 102.2 69.557 102.187 67.698 102.169 C 70.806 93.911 72.91 85.617 74.25 79.263 L 79.921 75.533 C 80.36 75.244 80.482 74.654 80.192 74.215 C 79.903 73.775 79.312 73.654 78.874 73.943 L 74.784 76.633 C 75.804 71.422 76.227 68.037 76.237 67.96 C 76.3 67.438 75.929 66.963 75.407 66.9 C 74.882 66.833 74.41 67.208 74.346 67.73 C 74.327 67.88 72.702 80.843 68.075 95.285 L 64.871 91.122 C 64.551 90.707 63.954 90.627 63.535 90.948 C 63.119 91.269 63.041 91.867 63.361 92.284 L 67.355 97.473 C 66.829 99.026 66.267 100.588 65.669 102.149 C 64.139 102.13 62.608 102.111 61.099 102.09 C 57.159 102.035 53.437 101.985 49.947 101.985 C 47.821 101.985 45.995 102.005 44.368 102.044 C 41.97 102.103 39.611 102.157 37.334 102.2 C 34.911 99.055 30.178 91.289 30.129 91.208 C 29.856 90.76 29.27 90.617 28.821 90.89 C 28.372 91.163 28.229 91.749 28.502 92.199 C 28.594 92.349 29.604 94.008 30.912 96.074 L 27.652 96.074 C 27.126 96.074 26.7 96.501 26.7 97.026 C 26.7 97.551 27.126 97.978 27.652 97.978 L 32.13 97.978 C 33.096 99.473 34.114 101.005 34.995 102.24 C 33.198 102.267 31.468 102.283 29.832 102.283 C 17.375 102.283 15.463 101.219 15.249 100.731 C 15.3 100.516 20.478 79.256 35.241 79.256 C 38.507 79.256 42.068 80.29 45.824 82.328 C 46.097 82.475 46.426 82.482 46.701 82.344 C 46.979 82.206 47.172 81.942 47.219 81.636 C 49.402 67.39 61.844 54.893 73.843 54.893 C 78.373 54.893 82.383 56.627 85.761 60.046 C 90.656 64.999 96.422 75.948 96.209 99.995 Z" transform="matrix(-1.33939 0 0 .9962 962 297)"/>
      </g>
    </g>
    <g>
      <g transform="matrix(1 0 1.8687 -.9751 -853 902)">
        <g fill="#a43070">
          <path d="M 102.277 94.319 C 110.125 96.629 116.612 104.303 121.33 112.913 C 124.695 119.113 127.118 125.806 128.231 131.606 C 131.554 130.55 134.424 128.129 135.923 124.68 L 135.921 124.678 L 146.94 100.135 L 153.707 125.836 C 155.06 131.594 155.416 128.886 159.751 131.878 C 160.53 132.416 161.308 131.84 162.111 131.262 C 164.935 129.229 163.724 127.214 164.693 120.711 L 163.058 82.622 C 162.787 82.839 162.506 83.045 162.211 83.236 C 149.988 91.17 138.08 95.192 126.815 95.192 L 126.711 95.192 C 111.47 95.192 100.854 87.641 95.883 83.142 C 90.153 77.985 87.037 72.973 85.965 71.06 C 84.647 68.622 84.367 65.918 85.131 63.358 C 85.894 60.8 87.61 58.691 89.96 57.421 C 91.418 56.632 93.059 56.215 94.707 56.215 C 98.389 56.215 101.761 58.227 103.51 61.464 C 103.526 61.485 103.592 61.597 103.69 61.754 C 103.999 62.247 104.348 62.761 104.723 63.271 C 105.631 64.514 107.143 66.38 109.239 68.259 C 110.253 69.157 111.292 69.94 112.344 70.661 C 111.426 68.332 110.553 66.096 109.721 64.025 C 106.717 54.111 97.088 46.156 88.769 49.011 C 83.251 50.905 77.939 56.214 76.072 63.955 C 77.938 71.427 80.175 77.17 83.167 81.585 C 87.447 87.89 93.232 91.694 102.277 94.319 Z" transform="translate(287 323)"/>
          <path d="M 156.668 69.178 C 157.403 69.178 159.479 68.509 160.179 68.661 C 158.868 63.524 153.232 56.204 147.934 55.731 C 142.559 55.251 137.504 58.252 135.355 63.204 L 128.603 78.857 C 135.047 78.083 144.793 77.31 152.366 72.417 C 153.989 71.367 154.741 69.178 156.668 69.178 Z" transform="translate(287 323)"/>
          <path d="M 106.311 63.741 C 105.79 62.984 104.057 61.786 103.829 61.398 C 103.715 61.202 104.595 60.367 104.556 60.293 L 103.24 60.925 C 101.138 56.776 93.25 54.03 89.363 56.271 C 85.474 58.512 83.179 67.032 85.281 71.18 C 85.572 71.73 89.767 77.503 96.063 83.55 C 102.283 89.554 113.43 95.53 126.715 95.531 C 126.734 95.531 126.752 95.531 126.771 95.531 C 136.874 95.542 148.443 97.388 161.137 88.599 C 164.845 86.037 165.895 75.272 163.492 71.317 C 161.092 67.36 156.137 66.229 152.431 68.794 C 141.669 76.21 133.272 78.451 126.77 78.462 C 118.277 78.442 115.441 73.349 111.096 69.239 C 108.959 67.196 107.35 65.258 106.311 63.741 Z" transform="translate(287 323)"/>
          <path d="M 6.764 131.28 C 9.606 133.518 13.877 135.355 19.129 136.741 C 29.636 139.53 44.004 140.562 58.783 140.558 C 81.781 140.56 105.828 138.087 118.326 136.153 C 122.465 135.519 125.417 134.903 126.338 134.563 C 126.908 134.352 127.363 133.92 127.775 132.956 C 128.168 132.005 128.405 130.586 128.401 128.857 C 128.42 122.887 125.682 113.465 121.18 105.229 C 116.699 96.954 110.41 89.904 103.93 88.082 C 94.475 85.377 87.842 81.098 83.164 74.149 C 78.484 67.211 75.721 57.813 73.369 44.741 C 72.281 38.75 69.894 35.082 66.842 32.807 C 63.786 30.536 59.92 29.625 55.752 29.625 C 46.811 29.599 36.721 33.942 32.465 36.588 C 30.869 37.49 27.874 41.635 24.844 47.581 C 21.758 53.543 18.403 61.373 15.252 69.99 C 8.951 87.22 3.484 107.661 2.506 122.756 C 2.492 122.965 2.483 123.184 2.483 123.4 C 2.503 126.533 3.918 129.017 6.764 131.28 Z" transform="translate(287 323)"/>
        </g>
        <path fill="#a43070" d="M 396.576 353.213 L 394.511 347.975 C 394.569 347.068 394.597 346.175 394.597 345.303 C 394.608 342.009 393.875 338.755 392.453 335.785 C 396.128 334.021 396.514 328.941 393.149 326.64 C 392.267 326.037 391.222 325.715 390.153 325.717 L 390.06 325.717 C 389.12 322.843 385.964 321.343 383.143 322.43 C 380.946 319.631 376.668 319.757 374.64 322.68 C 371.034 320.792 366.736 323.515 366.903 327.581 C 366.913 327.831 366.941 328.079 366.987 328.325 C 364.353 328.673 362.384 330.92 362.385 333.577 C 362.385 333.577 362.385 333.642 362.385 333.677 C 358.73 334.384 356.93 338.547 358.92 341.694 C 356.017 343.386 355.406 347.321 357.662 349.812 C 355.855 353.336 358.417 357.524 362.378 357.522 L 362.378 357.522 C 362.721 360.916 366.142 363.101 369.367 361.987 C 369.363 363.551 369.112 365.104 368.623 366.589 C 367.609 369.24 364.2 374.478 363.457 374.956 C 362.714 375.435 373.461 383.445 382.571 376.893 C 382.571 376.893 380.27 369.697 380.871 362.916 C 382.25 363.631 383.507 364.31 384.543 364.967 C 387.809 367.054 390.446 364.253 392.196 359.658 C 392.501 359.574 392.747 359.352 392.861 359.058 C 392.918 358.786 392.853 358.504 392.682 358.286 C 393.27 358.13 393.482 357.404 393.068 356.957 C 393.261 356.243 393.432 355.528 393.59 354.813 C 394.569 354.949 395.826 355.006 396.255 354.678 C 396.905 354.235 396.576 353.213 396.576 353.213 Z" transform="rotate(-12 376 353)"/>
        <path fill="#a43070" d="M 474.956 452.135 C 474.85 451.854 473.856 449.37 472.076 448.901 C 470.69 448.538 466.124 448.385 465.152 448.351 C 462.732 447.497 456.593 445.104 455.253 443.687 C 453.913 442.271 452.996 438.444 452.744 437.087 C 452.646 436.62 452.185 436.324 451.72 436.43 L 439.774 439.455 C 439.487 439.532 439.261 439.751 439.176 440.035 L 436.416 449.703 C 436.403 449.748 436.395 449.794 436.39 449.84 C 436.287 450.556 436.35 451.286 436.574 451.973 L 436.574 452.438 L 436.356 454.571 C 436.345 454.747 436.388 454.921 436.48 455.071 L 436.962 455.856 C 437.106 456.086 437.352 456.233 437.623 456.253 C 438.267 456.291 448.563 456.884 457.036 456.884 C 461.478 456.884 465.42 456.722 467.212 456.227 C 469.832 455.574 474.321 454.26 474.948 452.754 C 475.028 452.556 475.031 452.335 474.956 452.135 Z"/>
      </g>
      <g>
        <path fill="#601b50" d="M 102.277 94.319 C 110.125 96.629 116.612 104.303 121.33 112.913 C 124.695 119.113 127.118 125.806 128.231 131.606 C 131.554 130.55 134.424 128.129 135.923 124.68 L 135.921 124.678 L 146.94 100.135 L 153.707 125.836 C 155.06 131.594 155.416 128.886 159.751 131.878 C 160.53 132.416 161.308 131.84 162.111 131.262 C 164.935 129.229 163.724 127.214 164.693 120.711 L 163.058 82.622 C 162.787 82.839 162.506 83.045 162.211 83.236 C 149.988 91.17 138.08 95.192 126.815 95.192 L 126.711 95.192 C 111.47 95.192 100.854 87.641 95.883 83.142 C 90.153 77.985 87.037 72.973 85.965 71.06 C 84.647 68.622 84.367 65.918 85.131 63.358 C 85.894 60.8 87.61 58.691 89.96 57.421 C 91.418 56.632 93.059 56.215 94.707 56.215 C 98.389 56.215 101.761 58.227 103.51 61.464 C 103.526 61.485 103.592 61.597 103.69 61.754 C 103.999 62.247 104.348 62.761 104.723 63.271 C 105.631 64.514 107.143 66.38 109.239 68.259 C 110.253 69.157 111.292 69.94 112.344 70.661 C 111.426 68.332 110.553 66.096 109.721 64.025 C 106.717 54.111 97.088 46.156 88.769 49.011 C 83.251 50.905 77.939 56.214 76.072 63.955 C 77.938 71.427 80.175 77.17 83.167 81.585 C 87.447 87.89 93.232 91.694 102.277 94.319 Z" transform="translate(287 323)"/>
        <path fill="#601b50" d="M 156.668 69.178 C 157.403 69.178 159.479 68.509 160.179 68.661 C 158.868 63.524 153.232 56.204 147.934 55.731 C 142.559 55.251 137.504 58.252 135.355 63.204 L 128.603 78.857 C 135.047 78.083 144.793 77.31 152.366 72.417 C 153.989 71.367 154.741 69.178 156.668 69.178 Z" transform="translate(287 323)"/>
        <path fill="#601b50" d="M 106.311 63.741 C 105.79 62.984 104.057 61.786 103.829 61.398 C 103.715 61.202 104.595 60.367 104.556 60.293 L 103.24 60.925 C 101.138 56.776 93.25 54.03 89.363 56.271 C 85.474 58.512 83.179 67.032 85.281 71.18 C 85.572 71.73 89.767 77.503 96.063 83.55 C 102.283 89.554 113.43 95.53 126.715 95.531 C 126.734 95.531 126.752 95.531 126.771 95.531 C 136.874 95.542 148.433 91.909 161.127 83.12 C 164.835 80.558 165.895 75.272 163.492 71.317 C 161.092 67.36 156.137 66.229 152.431 68.794 C 141.669 76.21 133.272 78.451 126.77 78.462 C 118.277 78.442 115.441 73.349 111.096 69.239 C 108.959 67.196 107.35 65.258 106.311 63.741 Z" transform="translate(287 323)"/>
        <path fill="url(#vfw)" d="M 7.051 137.999 C 9.893 140.237 14.164 142.074 19.416 143.46 C 29.923 146.249 44.291 147.281 59.07 147.277 C 82.068 147.279 106.115 144.806 118.613 142.872 C 122.752 142.238 125.704 141.622 126.625 141.282 C 127.195 141.071 127.65 140.639 128.062 139.675 C 128.455 138.724 128.692 137.305 128.688 135.576 C 128.707 129.606 125.969 120.184 121.467 111.948 C 116.986 103.673 110.697 96.623 104.217 94.801 C 94.762 92.096 88.129 87.817 83.451 80.868 C 78.771 73.93 76.008 64.532 73.656 51.46 C 72.568 45.469 70.181 41.801 67.129 39.526 C 64.073 37.255 60.207 36.344 56.039 36.344 C 47.098 36.318 37.008 40.661 32.752 43.307 C 31.156 44.209 28.161 48.354 25.131 54.3 C 22.045 60.262 18.69 68.092 15.539 76.709 C 9.238 93.939 3.771 114.38 2.793 129.475 C 2.779 129.684 2.77 129.903 2.77 130.119 C 2.79 133.252 4.205 135.736 7.051 137.999 Z" transform="translate(287 323)"/>
        <path fill="#601b50" d="M 396.576 353.213 L 394.511 347.975 C 394.569 347.068 394.597 346.175 394.597 345.303 C 394.608 342.009 393.875 338.755 392.453 335.785 C 396.128 334.021 396.514 328.941 393.149 326.64 C 392.267 326.037 391.222 325.715 390.153 325.717 L 390.06 325.717 C 389.12 322.843 385.964 321.343 383.143 322.43 C 380.946 319.631 376.668 319.757 374.64 322.68 C 371.034 320.792 366.736 323.515 366.903 327.581 C 366.913 327.831 366.941 328.079 366.987 328.325 C 364.353 328.673 362.384 330.92 362.385 333.577 C 362.385 333.577 362.385 333.642 362.385 333.677 C 358.73 334.384 356.93 338.547 358.92 341.694 C 356.017 343.386 355.406 347.321 357.662 349.812 C 355.855 353.336 358.417 357.524 362.378 357.522 L 362.378 357.522 C 362.721 360.916 366.142 363.101 369.367 361.987 C 369.363 363.551 369.112 365.104 368.623 366.589 C 367.609 369.24 364.2 374.478 363.457 374.956 C 362.714 375.435 373.461 383.445 382.571 376.893 C 382.571 376.893 380.27 369.697 380.871 362.916 C 382.25 363.631 383.507 364.31 384.543 364.967 C 387.809 367.054 390.446 364.253 392.196 359.658 C 392.501 359.574 392.747 359.352 392.861 359.058 C 392.918 358.786 392.853 358.504 392.682 358.286 C 393.27 358.13 393.482 357.404 393.068 356.957 C 393.261 356.243 393.432 355.528 393.59 354.813 C 394.569 354.949 395.826 355.006 396.255 354.678 C 396.905 354.235 396.576 353.213 396.576 353.213 Z" transform="rotate(-12 376 353)"/>
        <path fill="#601b50" d="M 474.956 452.135 C 474.85 451.854 473.856 449.37 472.076 448.901 C 470.69 448.538 466.124 448.385 465.152 448.351 C 462.732 447.497 456.593 445.104 455.253 443.687 C 453.913 442.271 452.996 438.444 452.744 437.087 C 452.646 436.62 452.185 436.324 451.72 436.43 L 439.774 439.455 C 439.487 439.532 439.261 439.751 439.176 440.035 L 436.416 449.703 C 436.403 449.748 436.395 449.794 436.39 449.84 C 436.287 450.556 436.35 451.286 436.574 451.973 L 436.574 452.438 L 436.356 454.571 C 436.345 454.747 436.388 454.921 436.48 455.071 L 436.962 455.856 C 437.106 456.086 437.352 456.233 437.623 456.253 C 438.267 456.291 448.563 456.884 457.036 456.884 C 461.478 456.884 465.42 456.722 467.212 456.227 C 469.832 455.574 474.321 454.26 474.948 452.754 C 475.028 452.556 475.031 452.335 474.956 452.135 Z"/>
      </g>
    </g>
    <g>
      <g transform="matrix(.77147 -.1001 -3.9117 -.96112 2042 1007)">
        <path fill="#a43070" d="M 832.607 461.928 C 832.559 464.599 833.51 467.13 835.282 469.054 C 837.102 471.03 839.552 472.119 842.179 472.119 C 844.666 472.119 847.021 471.128 848.814 469.328 L 868.302 449.727 L 879.027 472.798 C 880.05 474.345 881.245 474.328 880.607 476.365 C 879.837 478.823 877.853 479.852 877.853 479.852 C 878.67 481.407 866.746 460.54 866.746 460.54 L 855.663 469.647 C 855.357 470.925 854.931 472.131 854.394 473.231 C 850.564 481.065 838.647 482.03 829.986 476.986 C 817.532 471.152 817.116 455.717 797.157 460.262 C 782.644 463.567 773.372 458.261 770.111 451.678 L 699.277 456.937 C 692.669 456.955 676.578 453.503 683.475 453.831 C 690.249 454.153 690.177 446.258 696.785 446.241 C 696.785 446.241 726.157 438.246 740.958 434.702 C 766.553 428.573 793.036 432.632 794.28 432.679 C 815.55 435.182 826.678 432.892 844.016 444.079 C 844.487 444.387 844.936 444.704 845.377 445.024 L 835.543 454.915 C 833.699 456.768 832.658 459.258 832.607 461.928 Z" transform="rotate(180 781 456)"/>
        <path fill="#a43070" d="M 729.919 481.88 C 728.423 481.88 729.539 483.601 727.136 479.967 L 716.783 456.787 L 699.945 479.984 C 696.897 483.047 684.812 481.874 681.882 478.688 C 678.949 475.505 677.342 469.429 682.989 464.098 C 678.825 461.249 712.383 440.32 712.383 440.32 C 713.814 438.882 713.618 438.787 716.96 438.061 C 717.209 438.007 719.764 438.208 720.013 438.276 C 723.345 439.179 724.018 441.352 725.293 443.28 L 731.773 476.168 C 732.294 480.399 731.415 481.88 729.919 481.88 Z" transform="rotate(180 706 460)"/>
        <path fill="#a43070" d="M 896.607 455.06 C 896.495 455.324 895.453 457.65 893.589 458.09 C 892.135 458.43 887.35 458.574 886.331 458.606 C 883.795 459.405 877.36 461.648 875.956 462.975 C 874.552 464.302 873.591 467.888 873.327 469.159 C 873.224 469.596 872.741 469.873 872.254 469.774 L 859.733 466.94 C 859.432 466.869 859.195 466.663 859.107 466.397 L 856.213 457.339 C 856.2 457.296 856.191 457.254 856.187 457.211 C 856.079 456.54 856.144 455.857 856.379 455.212 L 856.379 454.776 L 856.151 452.777 C 856.139 452.614 856.184 452.45 856.28 452.31 L 856.785 451.574 C 856.937 451.359 857.195 451.221 857.479 451.203 C 858.154 451.167 868.944 450.611 877.825 450.611 C 882.48 450.611 886.612 450.763 888.49 451.226 C 891.236 451.838 895.941 453.069 896.598 454.481 C 896.682 454.666 896.685 454.873 896.607 455.06 Z" transform="rotate(39 876 460)"/>
        <path fill="#a43070" d="M 717.011 425.515 C 716.985 425.652 716.925 425.781 716.835 425.895 C 716.702 426.966 716.494 428.03 716.211 429.081 C 719.587 430.834 721.67 433.208 721.67 435.877 C 721.677 441.27 713.136 445.591 702.603 445.591 C 692.069 445.591 683.53 441.27 683.53 435.91 C 683.565 434.374 684.222 432.896 685.387 431.728 C 684.147 428.954 683.517 426.005 683.53 423.033 C 683.53 418.582 683.724 415.886 687.55 413.183 C 687.822 410.431 686.926 408.335 684.532 406.875 C 677.718 402.719 676.354 403.761 671.857 402.256 C 675.743 399.803 685.229 392.024 689.875 393.321 C 693.487 394.329 703.313 402.257 703.027 406.146 C 704.124 405.692 705.093 405.305 705.804 405.004 C 709.191 403.504 712.048 406.489 714.034 410.652 C 714.883 410.748 715.457 411.444 715.283 412.165 C 715.62 412.267 715.904 412.468 716.083 412.736 C 716.493 413.353 716.247 414.141 715.531 414.497 C 715.81 415.378 716.052 416.264 716.251 417.139 L 718.484 416.816 C 719.731 417.013 720.556 418.04 720.333 419.112 L 717.011 425.515 Z" transform="rotate(170 697 419)"/>
        <path fill="#a43070" d="M 880.33 434.499 C 880.223 434.762 879.233 437.082 877.463 437.521 C 876.082 437.86 871.536 438.004 870.568 438.036 C 868.159 438.833 862.046 441.07 860.713 442.394 C 859.379 443.717 858.466 447.294 858.215 448.562 C 858.118 448.998 857.659 449.274 857.196 449.175 L 845.302 446.349 C 845.016 446.278 844.791 446.072 844.708 445.807 L 841.959 436.772 C 841.946 436.729 841.938 436.687 841.934 436.644 C 841.831 435.975 841.893 435.294 842.116 434.65 L 842.116 434.216 L 841.9 432.222 C 841.888 432.059 841.931 431.896 842.022 431.756 L 842.502 431.022 C 842.646 430.807 842.891 430.67 843.161 430.652 C 843.802 430.616 854.052 430.061 862.488 430.061 C 866.91 430.061 870.835 430.213 872.619 430.675 C 875.228 431.285 879.697 432.513 880.321 433.921 C 880.401 434.106 880.404 434.312 880.33 434.499 Z" transform="rotate(32 861 440)"/>
        <path fill="#a43070" d="M847 436L780 457 791 475 854 442M676.381 443.557C672.158 442.04 671.706 439.956 673.071 437.46 674.07 435.635 671.792 434.084 674.377 432.905 675.627 432.333 678.693 430.098 680.764 431.027 688.297 434.405 688.295 443.014 678.744 443.014 677.975 443.021 677.098 443.546 676.252 443.546z"/>
      </g>
      <g transform="translate(0 -5)">
        <path fill="#601b50" d="M 832.607 461.928 C 832.559 464.599 833.51 467.13 835.282 469.054 C 837.102 471.03 839.552 472.119 842.179 472.119 C 844.666 472.119 847.021 471.128 848.814 469.328 L 868.302 449.727 L 879.027 472.798 C 880.05 474.345 881.245 474.328 880.607 476.365 C 879.837 478.823 877.853 479.852 877.853 479.852 C 878.67 481.407 866.746 460.54 866.746 460.54 L 855.663 469.647 C 855.357 470.925 854.931 472.131 854.394 473.231 C 850.564 481.065 838.647 482.03 829.986 476.986 C 817.532 471.152 817.116 455.717 797.157 460.262 C 782.644 463.567 773.372 458.261 770.111 451.678 L 699.277 456.937 C 692.669 456.955 676.578 453.503 683.475 453.831 C 690.249 454.153 690.177 446.258 696.785 446.241 C 696.785 446.241 726.157 438.246 740.958 434.702 C 766.553 428.573 793.036 432.632 794.28 432.679 C 815.55 435.182 826.678 432.892 844.016 444.079 C 844.487 444.387 844.936 444.704 845.377 445.024 L 835.543 454.915 C 833.699 456.768 832.658 459.258 832.607 461.928 Z" transform="rotate(180 781 456)"/>
        <path fill="#601b50" d="M 729.919 481.88 C 728.423 481.88 729.539 483.601 727.136 479.967 L 716.783 456.787 L 699.945 479.984 C 696.897 483.047 684.812 481.874 681.882 478.688 C 678.949 475.505 677.342 469.429 682.989 464.098 C 678.825 461.249 712.383 440.32 712.383 440.32 C 713.814 438.882 713.618 438.787 716.96 438.061 C 717.209 438.007 719.764 438.208 720.013 438.276 C 723.345 439.179 724.018 441.352 725.293 443.28 L 731.773 476.168 C 732.294 480.399 731.415 481.88 729.919 481.88 Z" transform="rotate(180 706 460)"/>
        <path fill="#601b50" d="M 896.607 455.06 C 896.495 455.324 895.453 457.65 893.589 458.09 C 892.135 458.43 887.35 458.574 886.331 458.606 C 883.795 459.405 877.36 461.648 875.956 462.975 C 874.552 464.302 873.591 467.888 873.327 469.159 C 873.224 469.596 872.741 469.873 872.254 469.774 L 859.733 466.94 C 859.432 466.869 859.195 466.663 859.107 466.397 L 856.213 457.339 C 856.2 457.296 856.191 457.254 856.187 457.211 C 856.079 456.54 856.144 455.857 856.379 455.212 L 856.379 454.776 L 856.151 452.777 C 856.139 452.614 856.184 452.45 856.28 452.31 L 856.785 451.574 C 856.937 451.359 857.195 451.221 857.479 451.203 C 858.154 451.167 868.944 450.611 877.825 450.611 C 882.48 450.611 886.612 450.763 888.49 451.226 C 891.236 451.838 895.941 453.069 896.598 454.481 C 896.682 454.666 896.685 454.873 896.607 455.06 Z" transform="rotate(39 876 460)"/>
        <path fill="#601b50" d="M 717.011 425.515 C 716.985 425.652 716.925 425.781 716.835 425.895 C 716.702 426.966 716.494 428.03 716.211 429.081 C 719.587 430.834 721.67 433.208 721.67 435.877 C 721.677 441.27 713.136 445.591 702.603 445.591 C 692.069 445.591 683.53 441.27 683.53 435.91 C 683.565 434.374 684.222 432.896 685.387 431.728 C 684.147 428.954 683.517 426.005 683.53 423.033 C 683.53 418.582 683.724 415.886 687.55 413.183 C 687.822 410.431 686.926 408.335 684.532 406.875 C 677.718 402.719 676.354 403.761 671.857 402.256 C 675.743 399.803 685.229 392.024 689.875 393.321 C 693.487 394.329 703.313 402.257 703.027 406.146 C 704.124 405.692 705.093 405.305 705.804 405.004 C 709.191 403.504 712.048 406.489 714.034 410.652 C 714.883 410.748 715.457 411.444 715.283 412.165 C 715.62 412.267 715.904 412.468 716.083 412.736 C 716.493 413.353 716.247 414.141 715.531 414.497 C 715.81 415.378 716.052 416.264 716.251 417.139 L 718.484 416.816 C 719.731 417.013 720.556 418.04 720.333 419.112 L 717.011 425.515 Z" transform="rotate(170 697 419)"/>
        <path fill="#601b50" d="M 880.33 434.499 C 880.223 434.762 879.233 437.082 877.463 437.521 C 876.082 437.86 871.536 438.004 870.568 438.036 C 868.159 438.833 862.046 441.07 860.713 442.394 C 859.379 443.717 858.466 447.294 858.215 448.562 C 858.118 448.998 857.659 449.274 857.196 449.175 L 845.302 446.349 C 845.016 446.278 844.791 446.072 844.708 445.807 L 841.959 436.772 C 841.946 436.729 841.938 436.687 841.934 436.644 C 841.831 435.975 841.893 435.294 842.116 434.65 L 842.116 434.216 L 841.9 432.222 C 841.888 432.059 841.931 431.896 842.022 431.756 L 842.502 431.022 C 842.646 430.807 842.891 430.67 843.161 430.652 C 843.802 430.616 854.052 430.061 862.488 430.061 C 866.91 430.061 870.835 430.213 872.619 430.675 C 875.228 431.285 879.697 432.513 880.321 433.921 C 880.401 434.106 880.404 434.312 880.33 434.499 Z" transform="rotate(32 861 440)"/>
        <path fill="#601b50" d="M847 436L780 457 791 475 854 442M676.381 443.557C672.158 442.04 671.706 439.956 673.071 437.46 674.07 435.635 671.792 434.084 674.377 432.905 675.627 432.333 678.693 430.098 680.764 431.027 688.297 434.405 688.295 443.014 678.744 443.014 677.975 443.021 677.098 443.546 676.252 443.546z"/>
      </g>
    </g>
    <g transform="translate(62 118)">
      <path fill="url(#wfw)" d="M 1312.148 -142.576 L 1340.947 -167.584 L 1351.247 3.062 L 1429.037 -77 L 1428.871 -55.812 L 1357.287 37.182 L 1393.24 409.344 L 1322.474 413.421 L 1311.94 -8.941 L 1219.448 -141.667 L 1246.927 -131.793 L 1315.918 -49.582 L 1312.148 -142.576 Z" transform="matrix(.99594 .08968 -.09025 .99594 19 -118)"/>
      <path fill="url(#xfw)" d="M 1309.632 270.735 L 1305.945 411.724 L 1299.611 411.226 L 1309.632 270.735 Z"/>
      <g transform="matrix(-1.0184 0 0 1 2238 1)">
        <g>
          <path fill="#711e54" d="M 90.487 71.41 C 86.631 73.615 72.813 73.615 67.499 73.615 C 65.687 73.615 56.886 73.526 55.377 73.505 C 51.437 73.45 47.715 73.4 44.225 73.4 C 42.099 73.4 40.273 73.42 38.646 73.459 C 36.248 73.518 25.746 73.698 24.11 73.698 C 11.653 73.698 9.741 72.634 9.527 72.146 C 9.578 71.931 14.756 50.671 29.519 50.671 C 32.785 50.671 36.346 51.705 40.102 53.743 C 40.375 53.89 40.704 53.897 40.979 53.759 C 41.257 53.621 41.45 53.357 41.497 53.051 C 43.68 38.805 56.122 26.308 68.121 26.308 C 72.651 26.308 76.661 28.042 80.039 31.461 C 84.934 36.414 90.7 47.363 90.487 71.41 Z" transform="matrix(1.28131 0 0 .86332 823 364)"/>
          <path fill="#8d266e" d="M 96.209 99.995 C 92.353 102.2 78.535 102.2 73.221 102.2 C 71.409 102.2 69.557 102.187 67.698 102.169 C 70.806 93.911 72.91 85.617 74.25 79.263 L 79.921 75.533 C 80.36 75.244 80.482 74.654 80.192 74.215 C 79.903 73.775 79.312 73.654 78.874 73.943 L 74.784 76.633 C 75.804 71.422 76.227 68.037 76.237 67.96 C 76.3 67.438 75.929 66.963 75.407 66.9 C 74.882 66.833 74.41 67.208 74.346 67.73 C 74.327 67.88 72.702 80.843 68.075 95.285 L 64.871 91.122 C 64.551 90.707 63.954 90.627 63.535 90.948 C 63.119 91.269 63.041 91.867 63.361 92.284 L 67.355 97.473 C 66.829 99.026 66.267 100.588 65.669 102.149 C 64.139 102.13 62.608 102.111 61.099 102.09 C 57.159 102.035 53.437 101.985 49.947 101.985 C 47.821 101.985 45.995 102.005 44.368 102.044 C 41.97 102.103 39.611 102.157 37.334 102.2 C 34.911 99.055 30.178 91.289 30.129 91.208 C 29.856 90.76 29.27 90.617 28.821 90.89 C 28.372 91.163 28.229 91.749 28.502 92.199 C 28.594 92.349 29.604 94.008 30.912 96.074 L 27.652 96.074 C 27.126 96.074 26.7 96.501 26.7 97.026 C 26.7 97.551 27.126 97.978 27.652 97.978 L 32.13 97.978 C 33.096 99.473 34.114 101.005 34.995 102.24 C 33.198 102.267 31.468 102.283 29.832 102.283 C 17.375 102.283 15.463 101.219 15.249 100.731 C 15.3 100.516 20.478 79.256 35.241 79.256 C 38.507 79.256 42.068 80.29 45.824 82.328 C 46.097 82.475 46.426 82.482 46.701 82.344 C 46.979 82.206 47.172 81.942 47.219 81.636 C 49.402 67.39 61.844 54.893 73.843 54.893 C 78.373 54.893 82.383 56.627 85.761 60.046 C 90.656 64.999 96.422 75.948 96.209 99.995 Z" transform="matrix(1.28131 0 0 .86332 816 339)"/>
        </g>
      </g>
    </g>
  </g>
</svg>
