<svg viewBox="0 0 1500 590" xmlns="http://www.w3.org/2000/svg">
  <defs>
    <linearGradient gradientUnits="userSpaceOnUse" x1="750.2" y1="-5.1" x2="750.2" y2="501.8" id="b" gradientTransform="matrix(.99999 -.0052 .0033 .63469 0 2)">
      <stop offset="0" stop-color="#542f77"/>
      <stop offset="1" stop-color="#952a77"/>
    </linearGradient>
    <linearGradient gradientUnits="userSpaceOnUse" x1="939.7" y1="241.5" x2="939.7" y2="591" id="c" gradientTransform="translate(6 -16)">
      <stop offset="0" stop-color="#6a225d"/>
      <stop offset="1" stop-color="#952568"/>
    </linearGradient>
    <linearGradient gradientUnits="userSpaceOnUse" x1="784.8" y1="1.3" x2="784.8" y2="691.7" id="d" gradientTransform="matrix(-.99998 -.00597 .00357 -.5988 1513 448)">
      <stop offset="0" stop-color="#7c276a" stop-opacity=".3"/>
      <stop offset="1" stop-color="#5d266d"/>
    </linearGradient>
    <linearGradient gradientUnits="userSpaceOnUse" x1="98.7" y1="-83.9" x2="98.7" y2="484.8" id="e" gradientTransform="matrix(1 .00346 -.00265 .76638 355 11)">
      <stop offset="0" stop-color="#4f2466"/>
      <stop offset="1" stop-color="#842261"/>
    </linearGradient>
    <linearGradient gradientUnits="userSpaceOnUse" x1="786.9" y1="287.6" x2="786.9" y2="664.2" id="f" gradientTransform="matrix(.97273 .23192 -.05423 .22744 397 104)">
      <stop offset="0" stop-color="#992b79"/>
      <stop offset="1" stop-color="#bc3780"/>
    </linearGradient>
    <linearGradient gradientUnits="userSpaceOnUse" x1="98.7" y1="-83.9" x2="98.7" y2="484.8" id="g" gradientTransform="matrix(.70242 .00346 -.00186 .76638 273 -38)">
      <stop offset="0" stop-color="#4f2466"/>
      <stop offset="1" stop-color="#842261"/>
    </linearGradient>
    <linearGradient gradientUnits="userSpaceOnUse" x1="98.7" y1="-83.9" x2="98.7" y2="484.8" id="h" gradientTransform="matrix(1 .00346 -.00265 .76638 137 21)">
      <stop offset="0" stop-color="#4f2466"/>
      <stop offset="1" stop-color="#842261"/>
    </linearGradient>
    <linearGradient gradientUnits="userSpaceOnUse" x1="98.7" y1="-83.9" x2="98.7" y2="484.8" id="i" gradientTransform="matrix(1 .00346 -.00265 .76638 1245 1)">
      <stop offset="0" stop-color="#4f2466"/>
      <stop offset="1" stop-color="#842261"/>
    </linearGradient>
    <linearGradient gradientUnits="userSpaceOnUse" x1="98.7" y1="-83.9" x2="98.7" y2="484.8" id="j" gradientTransform="matrix(1.14695 .0039 -.00304 .86355 -65 27)">
      <stop offset="0" stop-color="#4f2466"/>
      <stop offset="1" stop-color="#842261"/>
    </linearGradient>
    <linearGradient gradientUnits="userSpaceOnUse" x1="801.9" y1="481.1" x2="801.9" y2="623.7" id="k" gradientTransform="matrix(.7555 -.06992 .08712 1.64108 -570 -496)">
      <stop offset="0" stop-color="#bc4770"/>
      <stop offset="1" stop-color="#d8486c"/>
    </linearGradient>
    <linearGradient gradientUnits="userSpaceOnUse" x1="801.9" y1="481.1" x2="801.9" y2="623.7" id="l" gradientTransform="matrix(.7555 -.06992 .08712 1.64108 -390 -553)">
      <stop offset="0" stop-color="#bc4770"/>
      <stop offset="1" stop-color="#d8486c"/>
    </linearGradient>
    <linearGradient gradientUnits="userSpaceOnUse" x1="801.9" y1="481.1" x2="801.9" y2="623.7" id="m" gradientTransform="matrix(.7555 -.06992 .08712 1.64108 -297 -619)">
      <stop offset="0" stop-color="#bc4770"/>
      <stop offset="1" stop-color="#d8486c"/>
    </linearGradient>
    <linearGradient gradientUnits="userSpaceOnUse" x1="801.9" y1="481.1" x2="801.9" y2="623.7" id="n" gradientTransform="matrix(.7555 -.06992 .08712 1.64108 -173 -571)">
      <stop offset="0" stop-color="#bc4770"/>
      <stop offset="1" stop-color="#d8486c"/>
    </linearGradient>
    <linearGradient gradientUnits="userSpaceOnUse" x1="98.7" y1="-83.9" x2="98.7" y2="484.8" id="o" gradientTransform="matrix(1 .00346 -.00265 .76638 786 -31)">
      <stop offset="0" stop-color="#4f2466"/>
      <stop offset="1" stop-color="#842261"/>
    </linearGradient>
    <linearGradient gradientUnits="userSpaceOnUse" x1="801.9" y1="481.1" x2="801.9" y2="623.7" id="p" gradientTransform="matrix(.6744 .06992 .07777 -1.64108 270 1036)">
      <stop offset="0" stop-color="#bc4770"/>
      <stop offset="1" stop-color="#d8486c"/>
    </linearGradient>
    <linearGradient gradientUnits="userSpaceOnUse" x1="801.9" y1="481.1" x2="801.9" y2="623.7" id="q" gradientTransform="matrix(.7555 -.06992 .08712 1.64108 666 -474)">
      <stop offset="0" stop-color="#bc4770"/>
      <stop offset="1" stop-color="#d8486c"/>
    </linearGradient>
    <linearGradient gradientUnits="userSpaceOnUse" x1="566.6" y1="263.3" x2="566.6" y2="412.4" id="r" gradientTransform="matrix(.99835 .02634 .01214 -.46142 -6 439)">
      <stop offset="0" stop-color="#eb4c64"/>
      <stop offset="1" stop-color="#ec8f43"/>
    </linearGradient>
    <linearGradient gradientUnits="userSpaceOnUse" x1="801.9" y1="481.1" x2="801.9" y2="623.7" id="s" gradientTransform="matrix(.3188 .08051 .0034 .09405 249 289)">
      <stop offset="0" stop-color="#bc4770"/>
      <stop offset="1" stop-color="#d8486c"/>
    </linearGradient>
    <linearGradient gradientUnits="userSpaceOnUse" x1="801.9" y1="481.1" x2="801.9" y2="623.7" id="t" gradientTransform="matrix(.3188 .08051 .0034 .09405 280 305)">
      <stop offset="0" stop-color="#bc4770"/>
      <stop offset="1" stop-color="#d8486c"/>
    </linearGradient>
    <linearGradient gradientUnits="userSpaceOnUse" x1="801.9" y1="481.1" x2="801.9" y2="623.7" id="u" gradientTransform="matrix(.3188 .08051 .0034 .09405 330 303)">
      <stop offset="0" stop-color="#bc4770"/>
      <stop offset="1" stop-color="#d8486c"/>
    </linearGradient>
    <linearGradient gradientUnits="userSpaceOnUse" x1="801.9" y1="481.1" x2="801.9" y2="623.7" id="v" gradientTransform="matrix(.3288 .00256 .03035 .10731 342 342)">
      <stop offset="0" stop-color="#bc4770"/>
      <stop offset="1" stop-color="#d8486c"/>
    </linearGradient>
    <linearGradient gradientUnits="userSpaceOnUse" x1="63" y1="38.7" x2="63" y2="149.7" id="w" gradientTransform="matrix(.1396 .99021 -.99779 .14066 140 47)">
      <stop offset="0" stop-color="#762363"/>
      <stop offset="1" stop-color="#500e40"/>
    </linearGradient>
    <linearGradient gradientUnits="userSpaceOnUse" x1="442.8" y1="333.5" x2="442.8" y2="375.8" id="x" gradientTransform="matrix(.05127 -.99869 .09068 .00466 386 796)">
      <stop offset="0" stop-color="#d2476c"/>
      <stop offset="1" stop-color="#5b184b"/>
    </linearGradient>
    <linearGradient gradientUnits="userSpaceOnUse" x1="801.9" y1="481.1" x2="801.9" y2="623.7" id="y" gradientTransform="matrix(.56538 -.0055 .0652 .12896 -32 294)">
      <stop offset="0" stop-color="#bc4770"/>
      <stop offset="1" stop-color="#d8486c"/>
    </linearGradient>
    <clipPath id="a">
      <path fill="#d8d8d8" d="M-1-4h1502v589H-1z"/>
    </clipPath>
  </defs>
  <g transform="matrix(.9986 0 0 1.00179 1 4)" clip-path="url(#a)">
    <path fill="url(#b)" d="M-2-5h1505v507H-2z"/>
    <path d="M1520 227c-27 0-56-4-82 3-39 11-76 32-116 41-43 11-95 4-140 7-66 6-131 30-198 38-42 5-94 2-136-2-49-5-92 12-139 16-26 2-55 3-81 11-20 6-32 25-50 34-42 18-90 21-131 42-22 12-41 28-64 38-16 7-45 19-54 34-1 1-13 10-11 11 16 17 48 24 69 32 72 27 141 32 217 36 137 7 276 10 414 2 35-2 71 2 106 0 59-3 117-15 176-17 69-3 138-6 208-6l55-1h10c2-2 1-17 1-19 2-22-3-42-3-64 0-77-11-155-11-231" fill="url(#c)"/>
    <path d="M73 401l25-84H85l24-81H98l22-85h-9l35-131 36 131h-10l23 85h-10l23 81h-13l23 73 7-22h-13l24-81h-11l22-85h-9l34-130 37 130h-11l24 85h-11l10 33 19-66h-10l21-85h-8l34-131 37 131h-11l24 85h-11l24 81h-13l26 84h-13l23 84h-73v106h-26V503h-15l10 33h-74v106h-25V536h-72l15-51h-44v106h-26V485H62l23-84zm135 0l3 11 4-11zm122-66h-5l2 7zm272 81l26-84h-13l23-81h-10l21-84h-9l35-131 37 131h-11l24 84h-11l24 81h-13l15 50 23-74h-13l23-81h-10l21-84h-8l34-131 37 131h-11l24 84h-11l24 81h-13l26 85h-13l6 22 20-68h-11l22-84h-9l35-131 36 131h-11l24 84h-11l24 81h-13l26 84h-13l24 85h-74v106h-25V597h-72l24-85h-13l11-35h-50v106h-26V477h-42l6 23h-73v106h-26V500h-71l24-84zm136 0l2 10 3-10zm12-23h-7l4 11zm138 35h-5l2 10zm333 26l26-84h-13l24-81h-11l21-84h-8l34-131 37 131h-11l24 84h-11l24 81h-13l7 23 24-77h-13l24-81h-11l21-84h-8l34-131 37 131h-11l24 84h-11l24 81h-13l26 84h-13l23 84h-73v106h-26V484h-44l15 54h-73v106h-26V538h-71l24-84zm141-54h-9l5 15z" class="fil0" fill="url(#d)"/>
    <path d="M423-90l27 3 15 145 133-90 8 4-137 128 34 320-71 4z" fill="url(#e)"/>
    <path d="M-19 432c62-10 126-6 186-23 73-23 138-72 213-87 74-15 150-13 225-26 109-18 221-3 329 12 31 4 60 14 91 18 34 5 70 0 104 2 54 4 111 16 164 27 55 13 109 31 164 45 21 6 40 14 61 22 31 12 51 7 67 38l7 19c4 9 5 18 8 27 7 30 9 52 5 82-1 4 1 17-2 20-29 21-88 19-122 19-91 0-186-4-278 3-47 4-95 13-143 18-22 3-45 1-67 2-30 1-59 7-89 9-86 6-170-9-255-14-75-5-151-3-227-3-113 0-225 22-338 22-32 0-61-4-90-15-8-3-23-6-29-14-8-10-3-42-2-54 3-22-4-45-2-67 3-24 10-49 10-72" fill="url(#f)"/>
    <g>
      <path d="M384 346l38 25s12 3 24 3 17-2 17-2l-33-23-23-2-23-1z" fill="#922963"/>
      <path d="M405 349l36 25h4l-34-24-5-4-1 3z" fill="#922963"/>
      <path d="M407 350a3 23-86 114 0l-4-2z" fill="#922963"/>
      <g transform="matrix(1 0 1.01303 .64976 -378 130)">
        <rect x="447" y="223" width="7.4" height="8.8" rx="1" ry="1" transform="rotate(-47 539 142) skewX(-14)" fill="#922963"/>
        <g fill="#922963">
          <path d="M467 294l-12 3s8 20 41 20h5c3 0 3-1 3-4 0-4 1-2-3-2-2 1 0-1-2-1-14 0-32-16-32-16zM485 366s0-2-2-2l-5-1-7-3-2-4-1-1-5 2-1 1-2 6v3l-1 1-1 1h22l5-3zM456 264c1-1 2-3 0-6s-3-7-1-11c1-3 3-6 6-7 2-1 5-2 10-1l6 4 5 4h-1l1 2-2-1c1 3 2 6 1 9l-2 2h-1l1 2v3h-1l-1 1v1h1l-1 1h-1 1v1l-1 1c-1 1-1 3-3 2l-2-1-3-2c-1 2-2 4-1 5l-17-3 1-1 3-3 2-2z"/>
          <path d="M466 363l35-34c3-3 3-5 1-9s-5-5-9-5l-27 1 3-22c-7-3-17 5-19 4l-3 2s-6 3-8 20c-4 12 11 18 18 17h6l12-2-12 18c-2 6 2 8 3 12 1 2-2 0 0-2z"/>
        </g>
      </g>
      <path d="M436 353l27 19-3 1h-3l-13-13c-5-3-8-7-8-7zm3 10a1086 1086 0 0017 10l-3 1h-3l-6-5-5-6z" fill="#922963"/>
    </g>
    <path d="M321-139l18 3 38 507-50 4-6-514z" fill="url(#g)"/>
    <path d="M205-80l27 3 15 144 36-117 13 18-45 142 34 320-71 4-6-359-74-101h18l55 69-2-123z" fill="url(#h)"/>
    <g>
      <path d="M1078 329l55 2-185 59h-72l202-61z" fill="#922963" fill-opacity=".7" style="fill:rgb(146, 41, 99);fill-opacity:0.7"/>
    </g>
    <path d="M1313-101l27 3 15 145 36-118 14 18-46 142 34 320-71 4-6-358-74-102h18l55 69-2-123z" transform="rotate(5 1323 156)" fill="url(#i)"/>
    <path d="M13-87l31 4 61 571-81 5L13-87z" fill="url(#j)"/>
    <path d="M60 69l44 418-26 2zm-8 291l14 130-17 2z" fill="url(#k)"/>
    <path d="M251 119l33 311-17 1-16-312zm3 144l8 169h-10l2-169z" fill="url(#l)"/>
    <path d="M353 55l24 316h-12L353 55zm8 293l1 24h-4l3-24z" fill="url(#m)"/>
    <path d="M471 124l20 185h-10l-10-185z" fill="url(#n)"/>
    <path d="M855-133l26 4 15 144 37-118 13 18-45 142 33 321-70 4-7-359-73-102 18 1 55 69-2-124z" transform="rotate(3 865 124)" fill="url(#o)"/>
    <path d="M866 381l12-334h-12v334zm-7-236l1-97h-10l9 97z" transform="rotate(180 864 214)" fill="url(#p)"/>
    <g>
      <path d="M833 397a3713 3713 0 00108 1c1 0-6-21-26-21l-14 3h-1l-1-1c-3-14-20-27-36-27-6 0-11 2-16 5-6 5-14 16-14 40z" fill="#711e54"/>
      <path d="M833 397a136 136 0 0038 2c-4-8-7-17-8-23l-8-4v-1h2l5 2-2-8 1-1h2c0 1 2 14 8 28l4-4h2v1l-5 5 2 5h6a1469 1469 0 0132 0l10-11h2v1l-3 4h4l1 1-1 1h-6l-4 4a623 623 0 0027-2s-7-21-27-21l-14 3h-1l-1-1c-3-14-20-26-36-26-6 0-11 1-16 5-6 5-14 16-14 40z" fill="#8d266e"/>
    </g>
    <path d="M1310 271l-4 141-6-1 10-140z" fill="url(#q)"/>
    <g>
      <path d="M1386 423c-5 2-23 2-30 2a3398 3398 0 01-74-2s7-21 26-21l13 3h1l1-1c3-14 19-26 34-26 6 0 11 1 15 5 7 5 14 16 14 40z" fill="#711e54"/>
      <path d="M1386 422c-5 2-23 2-30 2h-7l9-23 7-3v-2h-2l-5 3 2-9-1-1-1 1s-2 13-8 27l-4-4h-2v1l5 6-2 4h-6a1345 1345 0 00-31 0l-9-11h-2v1l3 4h-4l-1 1 1 1h6l3 4a570 570 0 01-25-1s7-22 26-22l13 3 1 1 1-1c3-14 19-27 34-27 6 0 11 2 15 5 7 5 14 16 14 40z" fill="#8d266e"/>
    </g>
    <g>
      <path d="M299 434a4747 4747 0 01-102 6s5-15 23-16c5-1 9 0 14 1h1l1-1c2-10 16-19 32-20 5 0 11 1 15 3 7 3 15 10 16 27z" fill="#711e54"/>
      <path d="M299 433a172 172 0 01-36 4l7-17 7-3-2-1-5 3 2-7h-2-1c0 1-1 10-6 20l-4-3h-2v1l5 4-2 3h-5a1878 1878 0 00-30 2l-10-7h-2v1l3 2h-4l-1 1 1 1 6-1 4 3a796 796 0 01-25 1c0-1 5-16 23-17 4 0 9 0 14 2h1l1-1c1-10 16-20 32-20 5-1 11 0 15 2 7 3 15 11 16 27z" fill="#8d266e"/>
    </g>
    <g>
      <path d="M91 499c-5 2-23 2-29 2l8 1a1345 1345 0 00-59-2s7-21 26-21l13 3h1l1-1c3-14 19-26 34-26 6 0 11 1 15 5 7 5-10 15-10 39z" fill="#711e54"/>
      <path d="M115 499l-30 2h-7c4-8 7-16 8-23l8-3v-2h-2l-5 3 2-9-1-1-1 1s-2 13-8 27l-5-4h-1v1l5 5-3 5h-5a1345 1345 0 00-31 0l-9-11h-2v1l3 4h-4l-1 1 1 1h6l3 4a570 570 0 01-25-1c0-1 7-22 26-22l13 3h2c3-15 19-27 34-27 6 0 11 2 15 5s9 9 11 18l2 6c0 2 7-5 14-4 20 5 18 19 18 19l-31 1z" fill="#8d266e"/>
    </g>
    <g>
      <path d="M321 387a2398 2398 0 0069-7s-4-13-17-12l-9 3h-1c-2-9-12-16-22-14-4 0-8 1-10 4-5 3-10 11-10 26z" fill="#711e54"/>
      <path d="M321 387a86 86 0 0025-2l-6-13-5-2v-1h1l4 1-1-5v-1h1l5 17 3-3h1v1l-3 3 1 3h4a949 949 0 0120-2l7-8h1l-2 3h3v1h-4l-3 3a401 401 0 0017-2c0-1-4-13-17-12l-9 3h-1c-2-9-12-16-22-15-4 1-7 2-10 5-5 3-10 11-10 26z" fill="#8d266e"/>
    </g>
    <path d="M533 335c-6-27 23-52 22-79 0-21-27-37-26-58 0-27 21-49 29-74 1-4-1-9-1-13-2-8-2-16-6-23-7-17-26-31-25-50 0-28 13-55 26-80 2-4 9 0 13 0h42c20 1 40 6 61 8 9 1 18-1 27-1h36c6-1 10-5 15-6 9-1 19-3 27 0 3 1-3 5-5 8-6 9-10 19-18 26-18 15-41 25-58 41-13 12-21 27-31 41-4 5-10 9-10 15 1 16 15 32 11 48-5 23-30 38-37 61-6 19 5 40 2 59-1 7-9 10-13 15-7 11-14 21-19 33-5 10-4 23-10 33-2 3-7-2-10-2-14-1-39 11-42-2z" fill="#d8d8d8" fill-opacity=".2"/>
    <path d="M625 321c0 20-13 26-13 26s4-7 1-12c-4-7-9-6-9-6s5 8 1 22c-3 15-18 22-18 22s4-7 3-14c-2-8-8-10-8-10s2 25-9 43c-12 19-34 21-34 21s16-14 17-42c0-17-10-32-22-30-14 2-6 15-5 25 1 8-4 13-4 13s0-9-5-18c-5-10-15-22-15-38-1-28 16-59 56-59 48 0 64 34 64 57zm-63-52c-33-4-28 42-28 42s7-15 22-9c14 6 10 38 10 38s13-14 17-28c6-19 2-41-21-43z" transform="rotate(180 565 339)" fill="url(#r)"/>
    <path d="M607 402c-5 4-12 6-12 6l47 23c4 1 5 0 7-1 9-2 13-8 11-16-1-7-1-7-6-11-10-7-36-16-36-16s-5 10-11 15zm28 16a12 12 0 1123-4 12 12 0 01-23 4zm-59-4l-14 1s27 33 33 38c7 5 4 1 7 2 8 2 16-2 17-10 2-7-1-10-4-15-1-3-21-21-21-21l-18 5zm18 25a12 12 0 1122 5 12 12 0 01-22-5zm-82-53s-34 14-36 17c-5 4-5 3-7 10-2 8 3 13 12 15 2 0 4 3 6 2l45-23-10-7-10-14zm-32 41a12 12 0 115-22 12 12 0 01-5 22zm53-20s-20 16-24 26c-3 6-7 9-5 16a15 15 0 0026 6l31-40-15-3-13-5zm-11 48a12 12 0 11-6-22 12 12 0 016 22z" fill="#792262"/>
    <path d="M507 394l3 19-3 1v-20zm-1-8v28l-4 1 4-29z" transform="rotate(-113 506 401)" fill="url(#s)"/>
    <path d="M539 408l2 21-4 1 2-22zm-2 15l-1 8h-2l3-8z" transform="rotate(-143 537 420)" fill="url(#t)"/>
    <path d="M589 424l4 9-4-2v-7zm-3-16l2 22-4-2 2-20z" transform="rotate(137 588 421)" fill="url(#u)"/>
    <path d="M617 392l10 22-5-1-5-21z" transform="rotate(130 622 403)" fill="url(#v)"/>
    <circle cx="482.7" cy="416.3" r="12.2" transform="matrix(-1.1646 -.40546 .4059 -1.16588 876 1097)" fill="#9d2b6a"/>
    <g fill="#a43070">
      <path d="M317 495l54-18 42-19c1 1 0 4-5 7l-35 24 55-25c12-6 7-3 17-6 2 0 1 0 1 1-1 2-6 4-17 10l-73 37v-1c3-7-1-11-13-11a552 552 0 00-101 31c-4 2-6 4-6 6l2 1c4 0 11-2 19-5l1-1a294 294 0 0125-8l-15 6c-22 10-46 18-49 15-2-2 3-7 15-15l40-17c16-6 29-10 43-12z"/>
      <path d="M325 519l2 1c-11 5-30 12-36 12-7 1-6-2 1-7l23-15c5 1 13 1 11 6 0 1-3 3-1 3z"/>
      <path d="M264 524l-7 3-1 1v-1c-10 4-23 7-23 5s14-11 24-15l34-12c17-6 40-12 53-12 10 0 15 4 11 13-1 2-10 7-20 11-9 4-16 5-15 3 3-8-1-10-8-10-8 0-21 5-33 9l-15 5z"/>
      <path d="M305 450l23-6a279 279 0 01103 3l-2 1-7 4a665 665 0 01-147 53l-65 29c-12 6-21 10-29 12l-17 3c-9 0-11-4-10-7l13-11 32-21a1352 1352 0 01106-60zM196 562l-12 4a478 478 0 01-48 21c-7 2-12 3-11 1-7 3-9 2-5-2-6 2-3-2 6-6h1c-1-1 3-4 8-6 0-2 7-6 15-9 1-2 9-6 16-8 6-4 16-7 18-6 7-3 14-5 13-3a150 150 0 0023-14c1 0 23-6 15 2l-29 13 6-1c6-1 2 2-6 7h-1l-1 1-3 1a437 437 0 01-5 5zM467 461l-9 3-8 1-18 4a205 205 0 00-17 7l-7-3h1l15-10 4-2h1l4-2 1-1 2-1h2a485 485 0 0129 0c1 1 3 2 1 3l-1 1z"/>
    </g>
    <path d="M389 418c8 2 15 10 19 18 4 6 6 13 7 19 4-1 6-3 8-7l11-24 7 25c1 6 1 3 6 6h2c3-2 2-4 3-11l-2-38-1 1c-12 8-24 12-35 12-15 0-26-8-31-12-6-6-9-11-10-13a10 10 0 1118-9l1 2a33 33 0 007 7l-2-7c-3-10-13-17-21-15-6 2-11 8-13 15 2 8 4 14 7 18 5 6 10 10 19 13z" fill="#601b50"/>
    <path d="M444 393l3-1c-1-5-7-12-12-13-5 0-10 3-13 8l-6 15c6-1 16-1 23-6 2-1 3-3 5-3z" fill="#601b50"/>
    <path d="M393 387l-2-2 1-1h-2c-2-4-10-7-14-4-3 2-6 10-4 15l11 12c6 6 17 12 31 12 10 0 21-4 34-12 4-3 5-8 3-12-3-4-8-5-12-3-10 8-19 10-25 10-9 0-11-5-16-9l-5-6z" fill="#601b50"/>
    <path d="M4 140c3 3 7 4 13 6 10 3 25 4 39 4a432 432 0 0069-8l1-4c0-6-3-15-7-24-5-8-11-15-18-17-9-3-16-7-20-14-5-7-8-16-10-29-1-6-4-10-7-12s-7-3-11-3c-9 0-19 4-23 7-2 1-5 5-8 11l-9 22a211 211 0 00-13 54c0 3 1 5 4 7z" fill="url(#w)" transform="translate(287 323)"/>
    <path d="M396 349l-3-5v-2c-1-4-2-7-4-9a5 5 0 00-5-10c-1-2-5-3-7-1-3-3-7-2-9 2a5 5 0 00-6 7c-2 1-4 3-3 6-4 1-5 6-2 8-3 3-2 7 0 9-1 3 3 7 7 6 1 3 4 5 7 3l1 5-4 9c0 1 12 6 19-2l-4-13 4 1c3 1 5-2 6-7l1-1h-1l1-2v-2l2-1v-1zM475 452s-1-3-3-3l-7-1-10-4-2-7-1-1-12 3-1 1-3 10 1 2-1 3 1 1h1a391 391 0 0029 0c3 0 7-2 8-3v-1z" fill="#601b50"/>
    <path d="M424 334l1 37s7 5 18 5c13 0 20-3 20-3l4-36-20-3h-23z" fill="#762363"/>
    <path d="M441 338l-2 37 4 1 2-36 2-7-6 5z" fill="url(#x)"/>
    <path d="M441 340a4 21-85 114 0l1-4z" fill="#a53070"/>
    <rect x="447" y="223" width="7.4" height="8.8" rx="1" ry="1" transform="rotate(-47 539 142) skewX(-14)" fill="#e3469d"/>
    <g fill="#601b50">
      <path d="M468 274l-3-1c-2-2-10-1-12 2-2 2 1 12 4 14 0 0 6 28 39 28h5c3 0 3-1 3-4 0-4 1-2-3-2-2 1 0-1-2-1-14 0-25-14-29-21-2-4 1-12 0-14l-2-1zM485 366s0-2-2-2l-5-1-7-3-2-4-1-1-5 2-1 1-2 6v3l-1 1-1 1h22l5-3z"/>
      <path d="M456 264c1-1 2-3 0-6s-3-7-1-11c1-3 3-6 6-7 2-1 5-2 10-1l6 4 5 4h-1l1 2-2-1c1 3 2 6 1 9l-2 2h-1l1 2v3h-1l-1 1v1h1l-1 1h-1 1v1l-1 1c-1 1-1 3-3 2l-2-1-3-2c-1 2-2 4-1 5l-17-3 1-1 3-3 2-2z"/>
      <path d="M466 363l35-34c3-3 3-5 1-9s-5-5-9-5l-27 1 3-22-13-7a8 8 0 01-1-11 8 8 0 0111-2v1c1 0-2 1-1 2h5c-1-6-2-10-7-11-6-1-15 1-18 13-4 17-4 24-6 41-4 12 11 18 18 17h6l12-2-12 18c-2 6 2 8 3 12 1 2-2 0 0-2z"/>
    </g>
    <path d="M458 344l10 27-3 3-4 2s0-15-2-21c-2-5-1-11-1-11zm-5 19l4 8 4 5-3 2-3 2-2-8v-9z" transform="rotate(26 460 362)" fill="url(#y)"/>
    <circle cx="482.7" cy="416.3" r="12.2" transform="matrix(-1.1646 -.40546 .4059 -1.16588 911 1127)" fill="#9d2b6a"/>
    <circle cx="482.7" cy="416.3" r="12.2" transform="matrix(-1.1646 -.40546 .4059 -1.16588 999 1123)" fill="#9d2b6a"/>
    <circle cx="482.7" cy="416.3" r="12.2" transform="matrix(-1.1646 -.40546 .4059 -1.16588 1040 1097)" fill="#9d2b6a"/>
    <g fill="#a43070">
      <path d="M847 502a372 372 0 0133 10c-2 1-8 0-16-2l-92-17 82 24 13 3a66748 66748 0 00-51-17l44 8 15 4c33 7 46 7 33 1-13-7-73-22-40-20 24 2 11-4-13-10l76-3c5 0 4-5 0-4s-35-7-40-6l-79-7c-44-3-49 4-50 4-6 4-24 3 7 16l2 1 47 8 29 7z"/>
      <path d="M853 517l-5-2-83-23 104 20c14 3 19 1 8-3-10-3-32-9-58-14-7-3-115-20-115-20l-13-1h-1l15 6 124 32 24 5zM899 466h-5l12 5c1 1 5 4 3 4a212 212 0 01-17-2l34 10 3 1 37 8v1l7 1h2l7 2h3c1 0 1 0 0 0a2613 2613 0 00-86-30z"/>
      <path d="M934 539h1a1359 1359 0 0094 20c15 0 11-3-9-8l-18-4a769 769 0 00-92-24c-6-4 0-3 1-4-15-3-57-11-59-10-1 1 14 8 29 12l-8-2c-10-1-3 2 9 5l4 2h1l8 2 9 3-5-1 6 2 29 7zM979 490h-8l8 4c1 0 1 2-2 2a338 338 0 01-20-3l28 9 3 1 37 9h1l7 1h2l7 2h2l2 1s1 0 0 0a1076 1076 0 00-67-26z"/>
      <path d="M990 503l-133-14-62-18 177 25M829 513c3 2 11 4 21 6l19 4 13 1c-8-4-42-12-49-11h-4z"/>
    </g>
    <g fill="#601b50">
      <path d="M730 444c0-2-1-5-3-7a9 9 0 00-14 0l-19 20-11-23c-1-2-2-2-1-4 0-2 2-3 2-3 0-2 11 19 11 19l12-9 1-4c4-8 16-9 24-4 13 6 13 22 33 17 15-3 24 2 27 9l71-6c7 0 23 4 16 4-7-1-7 7-14 7l-44 12c-25 6-52 2-53 2-21-3-33-1-50-12l-1-1 10-10c1-1 3-4 3-7z"/>
      <path d="M681 433l3 2 10 24 17-24c3-3 15-2 18 2 3 3 4 9-1 14 4 3-30 24-30 24-1 1-1 2-4 2h-3c-4-1-4-3-6-5l-6-33c-1-4 0-6 2-6zM895 464h-4c-2 0-5-3-6-4l-11-3-6 3h-1l-8-10v-1l3-9 2-1v-1l1-1v-1h2a457 457 0 0124 20c2 2 5 6 4 7v1z"/>
      <path d="M675 412v-1l1-3c-4-1-7-3-7-6-1-5 7-11 17-13 11-1 20 2 21 7l-1 4 3 9c1 4 1 7-3 10 1 3 2 5 5 6 7 3 8 1 13 2-4 3-12 12-16 12s-15-7-16-11l-2 2c-3 2-7 0-9-4l-2-1-1-1 1-2-1-2-3 1-2-2 2-7zM880 441l-4 1-6-4c-3 0-9-2-11-1-2 0-5 3-6 4h-1l-8-9v-1l2-9 1-2h1v-2h1l1-1a413 413 0 0125 16l5 7v1z"/>
      <path d="M847 431l-67 21 11 18 63-33M676 439c-4-2-5-4-3-7 1-1-2-3 1-4 1-1 4-3 6-2 8 3 8 12-2 12l-2 1z"/>
    </g>
    <g>
      <path d="M746 338l30-8s6-2 5 0c0 2-5 5-5 5l-29 11-24 7c-9 3-15 3-21 4-11 0-20-1-25-3-2-1 0-4 1-6l9-9 14-11s8-4 14-5c5-2 5 1 5 1l-6 11 28-13 28-16c11-5 27-6 27-6l5 2h10s3 5-5 9c-7 4-21 8-31 12-17 7-30 15-30 15z" fill="#922963"/>
      <path d="M810 307c5 2-16 16-19 17-9 4-46 8-46 8l4-3 37-8 2-6 22-8zM783 303c-3-2-37 13-37 13l18-12 10-2 1-2h1v-1-1c-3 0-12 5-12 5h-2l-34 20c-2 1-3 3 0 2 7-1 27-8 27-8s31-13 28-14z" fill="#922963"/>
      <path d="M772 309s11-3 7 1l-1 1s-2 2 1 3c4 0 4 2-2 6l-14 6-13 4h-7s-2-1 3-5l5-4v-1c0-1 0-2 4-4l6-3 6-12 1-2h-1v-1h-1 1-1l-2 1v-1h3l1-2h-1v1h-2v-1h3v-2h1l5-2 3-1 4-1h1l-1 1h1-1 1l2-1-1 1h-2l-1 2 2-1v1l-2 1h-1l-2 2-1 2zm-6-11h-1 1zm-2 1zm3-3h-2 2zm-2 1zm17-6h1-1zm2-1zm-4 4l2-1-2 1zm2-2zM775 298l-8 3 8-3zM775 298l-8 3 8-3z" fill="#922963"/>
      <circle cx="88.7" cy="15" r=".7" fill="#922963" transform="matrix(-.49455 -.04993 -.94194 .4731 828 295)"/>
      <circle cx="85.4" cy="10" r=".7" fill="#922963" transform="matrix(-.49455 -.04993 -.94194 .4731 828 295)"/>
      <circle cx="91.7" cy="5.1" r=".7" fill="#922963" transform="matrix(-.49455 -.04993 -.94194 .4731 828 295)"/>
      <circle cx="95.4" cy="10.5" r=".7" fill="#922963" transform="matrix(-.49455 -.04993 -.94194 .4731 828 295)"/>
      <path d="M761 316v1l-2 3 3-1 2-4-3 1z" fill="#922963"/>
      <path d="M759 320l2-3c-4 1-5 3-3 3h1zM764 315l-2 4 2-1 2-4-2 1z" fill="#922963"/>
      <path d="M766 314l-2 4 3-1 2-3h-3z" fill="#922963"/>
      <path d="M769 314l-2 3h1c3-2 4-3 2-3h-1z" fill="#922963"/>
      <g>
        <path fill="#922963" d="M768 317l-3 6 1-1zM769 314l-1 3zM776 295l-7 19zM766 314v1l-2 4 1-1zM766 314v1l6-16 6-7-1 1-5 6zM765 318l-2 6v-1zM764 315l-2 4zM763 315l8-15v-5l-1 5zM762 319v1l-3 5h1zM760 320h-1l-3 6h1zM761 316l-1 1-1 3z"/>
        <path fill="#922963" d="M760 317l1-1 7-15 3-4h-1l-2 4z"/>
      </g>
      <path d="M754 326l13-4 1-1-14 5zM816 293l-4 2-4 3-23 8c-8 2 8 5 12 2l13-8 7-3h2l10-2-13-2z" fill="#922963"/>
      <path class="fil0" d="M830 295l-21-3-5 3c-7 3-15 7-12 8h1v-1l5-2c-4 2-3 2-2 3l1-1 3-2-2 2h2c2-3 6-4 12-7l4-2 11 1-8 3h-1l-19 9 5-1h-1c-1 0-1 1 0 0h1-1v1l15-5-1 1 2-1 11-6z" fill="#922963"/>
      <path d="M728 323l18-7 18-12 10-2 1-2h1v-1-1c-3 0-12 5-12 5h-2l-34 20z" fill="#922963"/>
    </g>
    <g>
      <path d="M722 325l18-14s3-3 8 0 4 6 4 6l-7 19-12 13c-6 4-12 5-19 6-12 3-26 3-38 0-6-1-9-4-15-8l-8-12-11-17s-1-6 3-8c4-3 9 0 9 0l22 16s2-10 1-21c0-9-3-18-3-24 1-9 17-12 17-12l11 2 14-1s15 5 16 13c1 5-6 12-8 19-3 12-2 23-2 23z" fill="#601b50"/>
      <path d="M727 277c9 1 19 23 19 25-3 6-40 16-40 16l-2-5 26-15-12-8s4-14 9-13zM681 274c-9-1-14 22-14 22l-5-17c0-1 5-3 5-5l-1-2-2-1-1-1-3-1c-2 1-3 8-3 8v1s2 21 6 30c0 2 3 4 5 3 6-2 14-14 14-14s6-21-1-23z" fill="#601b50"/>
      <path d="M684 285s5-7 11 0l2 2s1 2 7 2c6 1 11 3 12 8 0 0 2 5-2 10 0 0-4 6-7 7 0 0-4 2-9 1 0 0-4-1-6-6l-4-6-4-2c-1 0-5-3-5-6 0 0-1-2 1-4l-23-17h-1l-2-2h-3l-2-2v2l-2-1v-1h1l-3-2v2l-2-1v-2l1 1v-1l-2-1v-1l1-3 2-2 2-2s0-1 0 0l3 2v-1h-1l1-1 2 1-1 1h-1l4 3v-1h-1l1-1 2 1-1 1h-1l1 1 2 3 2 2h1zm-37-15v1-1zm2 2h-1 1zm-6-4v1-1zm2 2h-1 1zm6-10l1-1-1 1zm-1-2zm5 5l1-1-1 1zm-1-2zM661 270l-4 5 4-5zM660 269l-4 5 4-5z" fill="#601b50"/>
      <circle cx="88.7" cy="15" r=".7" fill="#601b50" transform="matrix(-.74546 0 0 .74237 717 258)"/>
      <circle cx="85.4" cy="10" r=".7" fill="#601b50" transform="matrix(-.74546 0 0 .74237 717 258)"/>
      <circle cx="91.7" cy="5.1" r=".7" fill="#601b50" transform="matrix(-.74546 0 0 .74237 717 258)"/>
      <circle cx="95.4" cy="10.5" r=".7" fill="#601b50" transform="matrix(-.74546 0 0 .74237 717 258)"/>
      <path d="M688 295v1l6 4 2-1-8-6v2z" fill="#601b50"/>
      <path d="M694 300l-6-4a5 5 0 006 4zM688 293l8 6 1-2-8-5-1 1z" fill="#601b50"/>
      <path d="M689 292l8 5 1-2-7-4-2 1z" fill="#601b50"/>
      <path d="M691 291l7 4a5 5 0 00-7-4z" fill="#601b50"/>
      <g>
        <path fill="#601b50" d="M698 295h-1l12 8zM691 291l7 4zM653 265v1l38 25zM689 292l8 6z"/>
        <path fill="#601b50" d="M689 292l-30-21-11-9v1l11 8zM697 297l11 8v-1zM688 293l8 6zM688 294l-29-22-13-7 12 8zM696 299l11 8v-1zM694 300l11 8zM688 295l-1 1 7 4z"/>
        <path fill="#601b50" d="M688 296v-1l-31-21-6-6v1l6 5z"/>
      </g>
      <path d="M703 309l6-8h-1l-5 7v1zM694 250l6 11v3c-1 6-1 9-9 15-4 3 24 5 20 0-3-4-2-7-2-12 0-1-1-4 1-5 1-1 1 2 3 1 3-3 7-15 7-15l-2-8-15-1-8 3-1 8z" fill="#601b50"/>
      <path class="fil0" d="M689 255v7c-2 5-3 10 4 11-2-1-2-3-1-5 1 4 3 4 6 5v-1c-2-1-4-1-3-4l4 4v-1c-3-3-1-6 0-10-2-5-3-9-2-13 3-8 13 0 20-6v5c0 4-1 16-6 15v1l-1 14 2-3v1l1 1 1-1h-1l1 1c3-2 5-5 5-9l3 2v-1c-3-4-2-9-1-14 6-29-25-33-29-19-2 7 0 15-3 20z" fill="#601b50"/>
      <path d="M662 308c1 2 5-12 5-12s-6-16-5-17c0-1 5-3 5-5l-1-2-2-1-1-1-3-1c-2 1-3 8-3 8v1s1 21 5 30z" fill="#601b50"/>
    </g>
    <g fill="#eb8c44">
      <path d="M634 194c-6 6-7 6-9-2 2 8 2 9-6 7 8 2 8 2 3 9 5-7 6-7 8 1-2-8-2-8 6-6-8-2-8-3-2-9zM601 252c-8 3-8 3-7-5-1 8-2 8-8 3 6 5 6 6-2 9 8-3 9-3 7 6 2-9 2-9 9-4-7-5-7-6 1-9zM556 216c-3 1-3 1-3-3-1 4-1 4-4 2 3 2 3 3 0 4 3-1 3-1 3 2 0-3 1-3 4-1-3-2-3-3 0-4zM610 269c-3 1-4 1-3-3-1 4-1 4-4 2 3 2 3 2-1 4 4-2 4-2 4 2 0-4 1-4 3-1-3-3-2-3 1-4zM531 295c-4 1-4 1-3-3-1 4-1 4-4 2 3 2 3 2-1 4 4-2 4-1 3 2 1-3 1-4 4-1-3-3-3-3 1-4zM632 272c-3 2-3 2-3-2 0 4-1 4-4 1 3 3 3 3 0 4 3-1 3-1 3 3 1-4 1-4 4-2-3-2-3-2 0-4zM586 234c-4 1-4 1-3-2-1 3-1 3-4 1 3 2 3 3-1 4 4-1 4-1 3 3 1-4 1-4 4-2-3-2-3-3 1-4zM576 249c-10 4-11 3-9-7-2 10-3 10-11 4 9 6 8 7-1 11 9-4 10-3 9 7 1-10 2-10 10-4-8-6-8-7 2-11zM661 209c-8 5-11 5-15-4 4 9 4 11-4 16 8-5 10-5 15 4-5-9-4-11 4-16zM543 267c-4 5-5 5-10 1 5 4 5 6 2 11 3-5 5-5 10-1-5-4-6-6-2-11zM618 233c3 8 2 10-7 13 9-3 11-2 14 7-3-9-2-11 7-13-9 2-11 1-14-7zM529 228c-1 9-2 11-12 10 10 1 11 2 10 12 1-10 3-11 12-10-9-1-11-3-10-12zM575 177c-3 1-4 1-5-2 1 3 1 4-3 5 4-1 4-1 6 2-2-3-1-4 2-5zM586 305c-3 1-4 1-5-2 1 3 1 4-3 5 4-1 4-1 6 2-2-3-1-4 2-5zM528 182c-3 1-4 1-5-3 1 4 1 4-3 5 4-1 4 0 6 3-2-3-1-4 2-5zM640 235c2 3 1 4-2 5 3-1 4-1 5 2-1-3-1-4 2-5-3 1-3 1-5-2zM606 211c2 4 1 4-2 6 3-2 4-1 5 2-1-3-1-4 2-5-3 1-3 1-5-3zM615 138c1 3 1 4-3 5 4-1 4-1 6 3-2-4-1-4 2-6-3 2-4 1-5-2zM544 125c2 4 1 4-2 6 3-2 4-1 5 2-1-3-1-4 2-5-3 1-3 1-5-3zM647 95c1 3 1 4-2 5 3-1 4-1 5 3-1-4-1-4 2-6-3 2-4 1-5-2zM526 79c1 3 1 3-2 5 3-2 3-1 5 2-2-3-1-4 2-5-3 1-4 1-5-2z"/>
    </g>
    <g fill="#d8d8d8" fill-opacity=".3">
      <path d="M1028 58l-5 1v5l-3-3-5 1 3-4-3-4 5 1 3-4v5zM1125 142l-4-3-5 2 2-5-3-3h5l2-5 1 6h5l-4 3zM1067 101l-7-2-4 6-1-7-6-3 6-2v-7l5 6 6-2-4 6zM954 53l-6-3-4 6-1-7-6-3 6-2v-7l5 6 6-2-4 6zM1115 211l5-5-3-6 7 3 5-5-1 6 6 3-7 2-1 7-4-6zM1234 221h-7l-2 6-2-6-7-1 6-4-2-6 5 4 6-4-2 7zM1245 165l-6-7-8 3 5-8-6-7 9 2 5-7v9l9 3-8 3z"/>
    </g>
  </g>
</svg>
