<?xml version="1.0" encoding="utf-8"?>
<svg viewBox="0 0 748 450" xmlns="http://www.w3.org/2000/svg">
  <defs>
    <filter id="drop-shadow-filter-0" x="-500%" y="-500%" width="1000%" height="1000%">
      <feGaussianBlur in="SourceAlpha" stdDeviation="8"/>
      <feOffset dx="3" dy="2"/>
      <feComponentTransfer result="offsetblur">
        <feFuncA id="spread-ctrl" type="linear" slope="1"/>
      </feComponentTransfer>
      <feFlood flood-color="rgba(0,0,0,0.3)" x="10" y="10"/>
      <feComposite in2="offsetblur" operator="in"/>
      <feMerge>
        <feMergeNode/>
        <feMergeNode in="SourceGraphic"/>
      </feMerge>
    </filter>
    <clipPath id="clip-0">
      <rect x="0" y="0" width="1500" height="2100" style="fill: rgb(216, 216, 216);"/>
    </clipPath>
    <mask id="mask-0">
      <path d="M 74.23 9.665 L 1183.255 9.665 C 1218.046 9.665 1246.252 37.869 1246.252 72.661 L 1246.252 652.393 C 1246.252 687.185 1218.046 715.39 1183.255 715.39 L 74.23 715.39 C 39.437 715.39 11.233 687.185 11.233 652.393 L 11.233 72.661 C 11.233 37.869 39.437 9.665 74.23 9.665 Z" style="fill: rgb(255, 255, 255); filter: none;">
        <title>Card</title>
      </path>
    </mask>
    <linearGradient gradientUnits="userSpaceOnUse" x1="750.246" y1="-5.084" x2="750.246" y2="501.839" id="gradient-1" gradientTransform="matrix(1.155536, 0, 0, 1.1519, -116.690763, 0.771651)">
      <stop offset="0" style="stop-color: rgb(84, 47, 119);"/>
      <stop offset="0.564" style="stop-color: rgb(118, 52, 148);"/>
    </linearGradient>
    <linearGradient gradientUnits="userSpaceOnUse" x1="939.743" y1="241.475" x2="939.743" y2="590.954" id="gradient-2" gradientTransform="matrix(1.034989, 0, 0, 1.031732, -26.590938, -34.761127)">
      <stop offset="0" style="stop-color: rgb(106, 34, 93);"/>
      <stop offset="1" style="stop-color: rgb(149, 37, 104);"/>
    </linearGradient>
    <linearGradient gradientUnits="userSpaceOnUse" x1="98.702" y1="-83.904" x2="98.702" y2="484.834" id="gradient-4" gradientTransform="matrix(0.999994, 0.00346, -0.002653, 0.766381, 354.614716, 11.478035)">
      <stop offset="0" style="stop-color: rgb(79, 36, 102);"/>
      <stop offset="1" style="stop-color: rgb(132, 34, 97);"/>
    </linearGradient>
    <linearGradient gradientUnits="userSpaceOnUse" x1="801.911" y1="481.123" x2="801.911" y2="623.683" id="gradient-13" gradientTransform="matrix(0.755496, -0.069924, 0.087119, 1.641077, -172.697266, -571.378784)">
      <stop offset="0" style="stop-color: rgb(188, 71, 112);"/>
      <stop offset="1" style="stop-color: rgb(216, 72, 108);"/>
    </linearGradient>
    <linearGradient gradientUnits="userSpaceOnUse" x1="786.903" y1="287.649" x2="786.903" y2="664.211" id="gradient-3" gradientTransform="matrix(0.972734, 0.231923, -0.054227, 0.22744, 397.463501, 103.999191)" spreadMethod="pad">
      <stop offset="0" style="stop-color: rgb(153, 43, 121);"/>
      <stop offset="1" style="stop-color: rgb(188, 55, 128);"/>
    </linearGradient>
    <linearGradient gradientUnits="userSpaceOnUse" x1="98.702" y1="-83.904" x2="98.702" y2="484.834" id="gradient-10" gradientTransform="matrix(1.146949, 0.003899, -0.003044, 0.863547, -64.990952, 27.458071)">
      <stop offset="0" style="stop-color: rgb(79, 36, 102);"/>
      <stop offset="1" style="stop-color: rgb(132, 34, 97);"/>
    </linearGradient>
    <linearGradient gradientUnits="userSpaceOnUse" x1="801.911" y1="481.123" x2="801.911" y2="623.683" id="gradient-0" gradientTransform="matrix(0.755496, -0.069924, 0.087119, 1.641077, -569.731079, -496.208282)">
      <stop offset="0" style="stop-color: rgb(188, 71, 112);"/>
      <stop offset="1" style="stop-color: rgb(216, 72, 108);"/>
    </linearGradient>
    <linearGradient gradientUnits="userSpaceOnUse" x1="98.702" y1="-83.904" x2="98.702" y2="484.834" id="gradient-7" gradientTransform="matrix(0.999994, 0.00346, -0.002653, 0.766381, 136.580002, 21.385527)">
      <stop offset="0" style="stop-color: rgb(79, 36, 102);"/>
      <stop offset="1" style="stop-color: rgb(132, 34, 97);"/>
    </linearGradient>
    <linearGradient gradientUnits="userSpaceOnUse" x1="801.911" y1="481.123" x2="801.911" y2="623.683" id="gradient-12" gradientTransform="matrix(0.755496, -0.069924, 0.087119, 1.641077, -389.982605, -553.20166)">
      <stop offset="0" style="stop-color: rgb(188, 71, 112);"/>
      <stop offset="1" style="stop-color: rgb(216, 72, 108);"/>
    </linearGradient>
    <linearGradient gradientUnits="userSpaceOnUse" x1="98.702" y1="-83.904" x2="98.702" y2="484.834" id="gradient-6" gradientTransform="matrix(0.702424, 0.00346, -0.001864, 0.766381, 272.618378, -37.859371)">
      <stop offset="0" style="stop-color: rgb(79, 36, 102);"/>
      <stop offset="1" style="stop-color: rgb(132, 34, 97);"/>
    </linearGradient>
    <linearGradient gradientUnits="userSpaceOnUse" x1="801.911" y1="481.123" x2="801.911" y2="623.683" id="gradient-11" gradientTransform="matrix(0.755496, -0.069924, 0.087119, 1.641077, -297.491272, -618.774658)">
      <stop offset="0" style="stop-color: rgb(188, 71, 112);"/>
      <stop offset="1" style="stop-color: rgb(216, 72, 108);"/>
    </linearGradient>
    <linearGradient gradientUnits="userSpaceOnUse" x1="98.702" y1="-83.904" x2="98.702" y2="484.834" id="gradient-8" gradientTransform="matrix(0.999995, 0.00346, -0.002653, 0.766382, 786.111634, -31.272278)">
      <stop offset="0" style="stop-color: rgb(79, 36, 102);"/>
      <stop offset="1" style="stop-color: rgb(132, 34, 97);"/>
    </linearGradient>
    <linearGradient gradientUnits="userSpaceOnUse" x1="801.911" y1="481.123" x2="801.911" y2="623.683" id="gradient-14" gradientTransform="matrix(0.674403, 0.069924, 0.077768, -1.641077, 270.396912, 1035.659485)">
      <stop offset="0" style="stop-color: rgb(188, 71, 112);"/>
      <stop offset="1" style="stop-color: rgb(216, 72, 108);"/>
    </linearGradient>
    <linearGradient gradientUnits="userSpaceOnUse" x1="98.702" y1="-83.904" x2="98.702" y2="484.834" id="gradient-9" gradientTransform="matrix(1.000022, 0.00346, -0.00222, 0.766362, 1244.726799, 0.537847)">
      <stop offset="0" style="stop-color: rgb(79, 36, 102);"/>
      <stop offset="1" style="stop-color: rgb(132, 34, 97);"/>
    </linearGradient>
    <linearGradient gradientUnits="userSpaceOnUse" x1="801.911" y1="481.123" x2="801.911" y2="623.683" id="gradient-15" gradientTransform="matrix(0.755496, -0.069924, 0.087119, 1.641077, 666.431824, -473.785004)">
      <stop offset="0" style="stop-color: rgb(188, 71, 112);"/>
      <stop offset="1" style="stop-color: rgb(216, 72, 108);"/>
    </linearGradient>
  </defs>
  <g>
    <title>Card Baxk</title>
    <path d="M 60.502 27 L 685.498 27 C 705.105 27 721 42.826 721 62.349 L 721 387.651 C 721 407.174 705.105 423 685.498 423 L 60.502 423 C 40.894 423 25 407.174 25 387.651 L 25 62.349 C 25 42.826 40.894 27 60.502 27 Z" style="fill: rgb(255, 255, 255); filter: url(#drop-shadow-filter-0);">
      <title>Card</title>
    </path>
    <g style="clip-path: url(#clip-0); mask: url(#mask-0);" transform="matrix(0.566793, 0, 0, 0.566793, 17.615858, 19.271482)">
      <title>Back</title>
      <g style="" transform="matrix(1, 0, 0, 1, -1.880774, -42.781258)">
        <title>Background</title>
        <path d="M -2.137 -5.084 L 1502.628 -5.084 L 1420.361 771.079 L -72.092 900.243 L -2.137 -5.084 Z" style="fill: url(#gradient-1);">
          <title>Sky</title>
        </path>
        <path d="M 1518.9 226.057 C 1518.9 226.057 1464.251 222.53 1438.002 229.763 C 1398.63 240.612 1361.634 261.521 1322.302 271.314 C 1278.595 282.196 1227.147 274.655 1182.309 278.38 C 1116.08 283.883 1050.954 307.981 984.491 315.985 C 941.92 321.112 890.105 317.517 847.521 313.68 C 799.201 309.327 756.055 325.768 709.273 329.743 C 683.088 331.968 653.534 332.549 628.443 340.511 C 608.413 346.867 596.459 366.371 577.652 374.604 C 535.975 392.848 487.585 395.793 447.362 417.405 C 425.212 429.307 290.363 488.326 266.96 498.571 C 250.957 505.576 92.617 537.774 83.348 552.084 C 82.796 552.938 7.272 558.609 -14.702 586.697 C -24.278 598.938 -70.239 866.893 -70.239 866.893 L 1399.445 815.609 L 1518.9 226.057 Z" style="fill: url(#gradient-2);">
          <title>Hill</title>
        </path>
      </g>
      <g style="" transform="matrix(0.843271, 0, 0, 0.843271, -10.474041, 28.69026)">
        <title>Pine Trees</title>
        <path d="M 615.698 417.682 L 592.245 501.132 L 760.678 501.132 L 737.225 417.682 L 750.017 417.682 L 724.432 334.231 L 737.225 334.231 L 713.772 253.87 L 724.432 253.87 L 700.98 170.42 L 711.641 170.42 L 675.395 40.607 L 641.283 170.42 L 649.81 170.42 L 628.489 253.87 L 639.151 253.87 L 615.698 334.231 L 628.489 334.231 L 602.905 417.682 L 615.698 417.682 Z" class="fil0" style="fill: rgb(93, 44, 116);"/>
        <path d="M 752.607 394.581 L 729.154 478.031 L 897.587 478.031 L 874.134 394.581 L 886.926 394.581 L 861.341 311.13 L 874.134 311.13 L 850.681 230.769 L 861.341 230.769 L 837.889 147.319 L 848.55 147.319 L 812.304 17.506 L 778.192 147.319 L 786.719 147.319 L 765.398 230.769 L 776.06 230.769 L 752.607 311.13 L 765.398 311.13 L 739.814 394.581 L 752.607 394.581 Z" class="fil0" style="fill: rgb(93, 44, 116);"/>
        <path d="M 875.537 512.08 L 852.084 595.53 L 1020.517 595.53 L 997.064 512.08 L 1009.856 512.08 L 984.271 428.629 L 997.064 428.629 L 973.611 348.268 L 984.271 348.268 L 960.819 264.818 L 971.48 264.818 L 935.234 135.005 L 901.122 264.818 L 909.649 264.818 L 888.328 348.268 L 898.99 348.268 L 875.537 428.629 L 888.328 428.629 L 862.744 512.08 L 875.537 512.08 Z" class="fil0" style="fill: rgb(93, 44, 116);"/>
        <path d="M 1233.746 465.605 L 1210.293 549.055 L 1378.726 549.055 L 1355.273 465.605 L 1368.065 465.605 L 1342.48 382.154 L 1355.273 382.154 L 1331.82 301.793 L 1342.48 301.793 L 1319.028 218.343 L 1329.689 218.343 L 1293.443 88.53 L 1259.331 218.343 L 1267.858 218.343 L 1246.537 301.793 L 1257.199 301.793 L 1233.746 382.154 L 1246.537 382.154 L 1220.953 465.605 L 1233.746 465.605 Z" class="fil0" style="fill: rgb(93, 44, 116);"/>
        <path d="M 1362.229 396.965 L 1338.776 480.415 L 1507.209 480.415 L 1483.756 396.965 L 1496.548 396.965 L 1470.963 313.514 L 1483.756 313.514 L 1460.303 233.153 L 1470.963 233.153 L 1447.511 149.703 L 1458.172 149.703 L 1421.926 19.89 L 1387.814 149.703 L 1396.341 149.703 L 1375.02 233.153 L 1385.682 233.153 L 1362.229 313.514 L 1375.02 313.514 L 1349.436 396.965 L 1362.229 396.965 Z" class="fil0" style="fill: rgb(93, 44, 116);"/>
        <path d="M 343.57 483.358 L 320.117 566.808 L 488.55 566.808 L 465.097 483.358 L 477.889 483.358 L 452.304 399.907 L 465.097 399.907 L 441.644 319.546 L 452.304 319.546 L 428.852 236.096 L 439.513 236.096 L 403.267 106.283 L 369.155 236.096 L 377.682 236.096 L 356.361 319.546 L 367.023 319.546 L 343.57 399.907 L 356.361 399.907 L 330.777 483.358 L 343.57 483.358 Z" class="fil0" style="fill: rgb(93, 44, 116);"/>
        <path d="M 177.311 483.57 L 153.858 567.02 L 322.291 567.02 L 298.838 483.57 L 311.63 483.57 L 286.045 400.119 L 298.838 400.119 L 275.385 319.758 L 286.045 319.758 L 262.593 236.308 L 273.254 236.308 L 237.008 106.495 L 202.896 236.308 L 211.423 236.308 L 190.102 319.758 L 200.764 319.758 L 177.311 400.119 L 190.102 400.119 L 164.518 483.57 L 177.311 483.57 Z" class="fil0" style="fill: rgb(93, 44, 116);"/>
        <path d="M 69.013 514.546 L 45.56 597.996 L 213.993 597.996 L 190.54 514.546 L 203.332 514.546 L 177.747 431.095 L 190.54 431.095 L 167.087 350.734 L 177.747 350.734 L 154.295 267.284 L 164.956 267.284 L 128.71 137.471 L 94.598 267.284 L 103.125 267.284 L 81.804 350.734 L 92.466 350.734 L 69.013 431.095 L 81.804 431.095 L 56.22 514.546 L 69.013 514.546 Z" class="fil0" style="fill: rgb(93, 44, 116);"/>
      </g>
      <g style="" transform="matrix(1.069618, 0, 0, 1.069618, 31.4335, 55.692932)">
        <title>Campfire Scene</title>
        <g style="">
          <title>Tree 4</title>
          <path d="M 423.045 -89.86 L 449.671 -86.727 L 461.949 9.325 L 536.131 -94.093 L 571.535 -106.226 L 469.694 52.525 L 502.893 420.285 L 432.126 424.362 L 423.045 -89.86 Z" style="fill: url(#gradient-4);">
            <title>Tree 4 Trunk</title>
          </path>
          <path d="M 470.972 123.583 L 490.887 308.55 L 481.42 309.151 L 470.972 123.583 Z" style="fill: url(#gradient-13);">
            <title>Tree 4 Light</title>
          </path>
        </g>
        <path d="M -18.541 432.399 C -18.541 432.399 107.1 426.348 166.503 408.558 C 240.263 386.468 305.309 336.926 380.352 321.781 C 454.372 306.843 530.307 308.635 604.908 296.152 C 714.259 277.853 825.895 293.027 934.326 307.811 C 964.589 311.938 994.245 322.373 1024.663 326.32 C 1059.368 330.823 1094.585 325.758 1129.416 328.244 C 1183.057 332.073 1239.913 343.79 1292.554 355.483 C 1347.938 367.786 1401.864 385.666 1456.931 400.181 C 1478.24 405.798 1517.85 421.647 1517.85 421.647 L 1478.9 798.171 L -36.215 867.638 C -29.062 550.77 -18.541 432.399 -18.541 432.399 Z" style="fill: url(#gradient-3);">
          <title>Ground</title>
        </path>
        <g style="">
          <title>Tree 1</title>
          <path d="M 13.496 -86.727 L 44.035 -83.197 L 105.077 488.097 L 23.912 492.691 L 13.496 -86.727 Z" style="fill: url(#gradient-10);">
            <title>Tree Trunk</title>
          </path>
          <path d="M 60.384 69.317 L 104.3 487.09 L 78.469 489.251 Z M 52.122 360.437 L 66.354 490.259 L 49.266 491.516 Z" style="fill: url(#gradient-0);">
            <title>Tree Light</title>
          </path>
          <g transform="matrix(1, 0, 0, 1, -824.410217, 73.821297)" style="">
            <title>Bush</title>
            <g transform="matrix(1.281314, 0, 0, 0.996208, 815.767578, 325.461914)" style="">
              <path d="M 72.002 71.025 C 68.146 73.23 54.328 73.23 49.014 73.23 C 47.202 73.23 56.886 73.526 55.377 73.505 C 51.437 73.45 47.715 73.4 44.225 73.4 C 42.099 73.4 40.273 73.42 38.646 73.459 C 36.248 73.518 25.746 73.698 24.11 73.698 C 11.653 73.698 9.741 72.634 9.527 72.146 C 9.578 71.931 14.756 50.671 29.519 50.671 C 32.785 50.671 36.346 51.705 40.102 53.743 C 40.375 53.89 40.704 53.897 40.979 53.759 C 41.257 53.621 41.45 53.357 41.497 53.051 C 43.68 38.805 56.122 26.308 68.121 26.308 C 72.651 26.308 76.661 28.042 80.039 31.461 C 84.934 36.414 72.215 46.978 72.002 71.025 Z" style="fill: rgb(113, 30, 84);" transform="matrix(1, 0, 0, 1, 5.743083, 29.185156)"/>
              <path d="M 96.209 99.995 C 96.209 99.995 78.535 102.2 73.221 102.2 C 71.409 102.2 69.557 102.187 67.698 102.169 C 70.806 93.911 72.91 85.617 74.25 79.263 L 79.921 75.533 C 80.36 75.244 80.482 74.654 80.192 74.215 C 79.903 73.775 79.312 73.654 78.874 73.943 L 74.784 76.633 C 75.804 71.422 76.227 68.037 76.237 67.96 C 76.3 67.438 75.929 66.963 75.407 66.9 C 74.882 66.833 74.41 67.208 74.346 67.73 C 74.327 67.88 72.702 80.843 68.075 95.285 L 64.871 91.122 C 64.551 90.707 63.954 90.627 63.535 90.948 C 63.119 91.269 63.041 91.867 63.361 92.284 L 67.355 97.473 C 66.829 99.026 66.267 100.588 65.669 102.149 C 64.139 102.13 62.608 102.111 61.099 102.09 C 57.159 102.035 53.437 101.985 49.947 101.985 C 47.821 101.985 45.995 102.005 44.368 102.044 C 41.97 102.103 39.611 102.157 37.334 102.2 C 34.911 99.055 30.178 91.289 30.129 91.208 C 29.856 90.76 29.27 90.617 28.821 90.89 C 28.372 91.163 28.229 91.749 28.502 92.199 C 28.594 92.349 29.604 94.008 30.912 96.074 L 27.652 96.074 C 27.126 96.074 26.7 96.501 26.7 97.026 C 26.7 97.551 27.126 97.978 27.652 97.978 L 32.13 97.978 C 33.096 99.473 34.114 101.005 34.995 102.24 C 33.198 102.267 31.468 102.283 29.832 102.283 C 17.375 102.283 15.463 101.219 15.249 100.731 C 15.3 100.516 20.478 79.256 35.241 79.256 C 38.507 79.256 42.068 80.29 45.824 82.328 C 46.097 82.475 46.426 82.482 46.701 82.344 C 46.979 82.206 47.172 81.942 47.219 81.636 C 49.402 67.39 61.844 54.893 73.843 54.893 C 78.373 54.893 82.383 56.627 85.761 60.046 C 88.846 63.168 92.277 68.671 94.339 78.334 C 94.477 78.983 95.423 82.78 95.548 83.617 C 95.938 86.221 100.812 78.745 106.361 80.362 C 122.25 84.993 120.772 99.02 120.772 99.02 L 96.209 99.995 Z" style="fill: rgb(141, 38, 110);"/>
            </g>
          </g>
        </g>
        <g style="">
          <title>Tree 2</title>
          <path d="M 205.01 -79.953 L 231.636 -76.82 L 235.562 5.992 L 277.892 -107.634 L 290.792 -107.117 L 246.418 43.202 L 284.858 430.192 L 214.091 434.269 L 206.219 30.206 L 122.73 -129.048 L 145.318 -137.51 L 210.573 -12.461 L 205.01 -79.953 Z" style="fill: url(#gradient-7);">
            <title>Tree Trunk</title>
          </path>
          <path d="M 250.785 119.03 L 284.038 430.082 L 267.221 430.731 L 250.785 119.03 Z M 253.597 263.15 L 262.478 431.52 L 252.119 432.18 L 253.597 263.15 Z" style="fill: url(#gradient-12);">
            <title>Tree Light</title>
          </path>
          <g transform="matrix(0.988519, -0.054668, 0.068869, 0.699363, -658.529724, 187.428101)" style="">
            <title>Bush</title>
            <g transform="matrix(1.281314, 0, 0, 0.996208, 815.767578, 325.461914)" style="">
              <path d="M 90.487 71.41 C 86.631 73.615 72.813 73.615 67.499 73.615 C 65.687 73.615 56.886 73.526 55.377 73.505 C 51.437 73.45 47.715 73.4 44.225 73.4 C 42.099 73.4 40.273 73.42 38.646 73.459 C 36.248 73.518 25.746 73.698 24.11 73.698 C 11.653 73.698 9.741 72.634 9.527 72.146 C 9.578 71.931 14.756 50.671 29.519 50.671 C 32.785 50.671 36.346 51.705 40.102 53.743 C 40.375 53.89 40.704 53.897 40.979 53.759 C 41.257 53.621 41.45 53.357 41.497 53.051 C 43.68 38.805 56.122 26.308 68.121 26.308 C 72.651 26.308 76.661 28.042 80.039 31.461 C 84.934 36.414 90.7 47.363 90.487 71.41 Z" style="fill: rgb(113, 30, 84);" transform="matrix(1, 0, 0, 1, 5.743083, 29.185156)"/>
              <path d="M 96.209 99.995 C 92.353 102.2 78.535 102.2 73.221 102.2 C 71.409 102.2 69.557 102.187 67.698 102.169 C 70.806 93.911 72.91 85.617 74.25 79.263 L 79.921 75.533 C 80.36 75.244 80.482 74.654 80.192 74.215 C 79.903 73.775 79.312 73.654 78.874 73.943 L 74.784 76.633 C 75.804 71.422 76.227 68.037 76.237 67.96 C 76.3 67.438 75.929 66.963 75.407 66.9 C 74.882 66.833 74.41 67.208 74.346 67.73 C 74.327 67.88 72.702 80.843 68.075 95.285 L 64.871 91.122 C 64.551 90.707 63.954 90.627 63.535 90.948 C 63.119 91.269 63.041 91.867 63.361 92.284 L 67.355 97.473 C 66.829 99.026 66.267 100.588 65.669 102.149 C 64.139 102.13 62.608 102.111 61.099 102.09 C 57.159 102.035 53.437 101.985 49.947 101.985 C 47.821 101.985 45.995 102.005 44.368 102.044 C 41.97 102.103 39.611 102.157 37.334 102.2 C 34.911 99.055 30.178 91.289 30.129 91.208 C 29.856 90.76 29.27 90.617 28.821 90.89 C 28.372 91.163 28.229 91.749 28.502 92.199 C 28.594 92.349 29.604 94.008 30.912 96.074 L 27.652 96.074 C 27.126 96.074 26.7 96.501 26.7 97.026 C 26.7 97.551 27.126 97.978 27.652 97.978 L 32.13 97.978 C 33.096 99.473 34.114 101.005 34.995 102.24 C 33.198 102.267 31.468 102.283 29.832 102.283 C 17.375 102.283 15.463 101.219 15.249 100.731 C 15.3 100.516 20.478 79.256 35.241 79.256 C 38.507 79.256 42.068 80.29 45.824 82.328 C 46.097 82.475 46.426 82.482 46.701 82.344 C 46.979 82.206 47.172 81.942 47.219 81.636 C 49.402 67.39 61.844 54.893 73.843 54.893 C 78.373 54.893 82.383 56.627 85.761 60.046 C 90.656 64.999 96.422 75.948 96.209 99.995 Z" style="fill: rgb(141, 38, 110);"/>
            </g>
          </g>
        </g>
        <g style="">
          <title>Tree 3</title>
          <path d="M 320.686 -139.197 L 339.389 -136.064 L 376.773 370.948 L 327.065 375.025 L 320.686 -139.197 Z" style="fill: url(#gradient-6);">
            <title>Tree 3 Trunk</title>
          </path>
          <path d="M 352.953 54.69 L 377.142 370.727 L 364.76 370.989 L 352.953 54.69 Z M 361.173 348.113 L 362.029 371.852 L 357.875 372.193 L 361.173 348.113 Z" style="fill: url(#gradient-11);">
            <title>Tree 3 Light</title>
          </path>
          <g transform="matrix(-0.661056, 0.072706, -0.007126, 0.632845, 945.270325, 49.377415)" style="">
            <title>Bush</title>
            <g transform="matrix(1.281314, 0, 0, 0.996208, 815.767578, 325.461914)" style="">
              <path d="M 90.487 71.41 C 86.631 73.615 72.813 73.615 67.499 73.615 C 65.687 73.615 56.886 73.526 55.377 73.505 C 51.437 73.45 47.715 73.4 44.225 73.4 C 42.099 73.4 40.273 73.42 38.646 73.459 C 36.248 73.518 25.746 73.698 24.11 73.698 C 11.653 73.698 9.741 72.634 9.527 72.146 C 9.578 71.931 14.756 50.671 29.519 50.671 C 32.785 50.671 36.346 51.705 40.102 53.743 C 40.375 53.89 40.704 53.897 40.979 53.759 C 41.257 53.621 41.45 53.357 41.497 53.051 C 43.68 38.805 56.122 26.308 68.121 26.308 C 72.651 26.308 76.661 28.042 80.039 31.461 C 84.934 36.414 90.7 47.363 90.487 71.41 Z" style="fill: rgb(113, 30, 84);" transform="matrix(1, 0, 0, 1, 5.743083, 29.185156)"/>
              <path d="M 96.209 99.995 C 92.353 102.2 78.535 102.2 73.221 102.2 C 71.409 102.2 69.557 102.187 67.698 102.169 C 70.806 93.911 72.91 85.617 74.25 79.263 L 79.921 75.533 C 80.36 75.244 80.482 74.654 80.192 74.215 C 79.903 73.775 79.312 73.654 78.874 73.943 L 74.784 76.633 C 75.804 71.422 76.227 68.037 76.237 67.96 C 76.3 67.438 75.929 66.963 75.407 66.9 C 74.882 66.833 74.41 67.208 74.346 67.73 C 74.327 67.88 72.702 80.843 68.075 95.285 L 64.871 91.122 C 64.551 90.707 63.954 90.627 63.535 90.948 C 63.119 91.269 63.041 91.867 63.361 92.284 L 67.355 97.473 C 66.829 99.026 66.267 100.588 65.669 102.149 C 64.139 102.13 62.608 102.111 61.099 102.09 C 57.159 102.035 53.437 101.985 49.947 101.985 C 47.821 101.985 45.995 102.005 44.368 102.044 C 41.97 102.103 39.611 102.157 37.334 102.2 C 34.911 99.055 30.178 91.289 30.129 91.208 C 29.856 90.76 29.27 90.617 28.821 90.89 C 28.372 91.163 28.229 91.749 28.502 92.199 C 28.594 92.349 29.604 94.008 30.912 96.074 L 27.652 96.074 C 27.126 96.074 26.7 96.501 26.7 97.026 C 26.7 97.551 27.126 97.978 27.652 97.978 L 32.13 97.978 C 33.096 99.473 34.114 101.005 34.995 102.24 C 33.198 102.267 31.468 102.283 29.832 102.283 C 17.375 102.283 15.463 101.219 15.249 100.731 C 15.3 100.516 20.478 79.256 35.241 79.256 C 38.507 79.256 42.068 80.29 45.824 82.328 C 46.097 82.475 46.426 82.482 46.701 82.344 C 46.979 82.206 47.172 81.942 47.219 81.636 C 49.402 67.39 61.844 54.893 73.843 54.893 C 78.373 54.893 82.383 56.627 85.761 60.046 C 90.656 64.999 96.422 75.948 96.209 99.995 Z" style="fill: rgb(141, 38, 110);"/>
            </g>
          </g>
        </g>
        <g style="">
          <title>Tree 5</title>
          <g transform="matrix(1, 0, -1.582186, 0.484011, 629.57843, 205.26297)" style="">
            <title>Tree 5 Shadow</title>
            <g transform="matrix(-1.045325, 0, 0, 1, 1814.886108, -28.493229)" style="">
              <g transform="matrix(1.281314, 0, 0, 0.996208, 815.767578, 325.461914)" style="">
                <g>
                  <path d="M 25.804 92.557 L 66.845 92.572 L 85.874 -40.333 L 38.058 -44.822 L 25.804 92.557 Z" style="fill: rgb(146, 41, 99); fill-opacity: 0.7;" transform="matrix(-1.095244, 0.081299, -0.123123, -0.903899, 119.935879, 40.91594)"/>
                </g>
              </g>
            </g>
          </g>
          <path d="M 854.541 -132.611 L 881.167 -129.478 L 896.315 14.825 L 936.628 -112.91 L 966.833 -139.167 L 900.776 57.327 L 934.389 377.534 L 863.622 381.611 L 857.284 22.731 L 774.465 -95.71 L 800.797 -97.939 L 856.717 -9.377 L 854.541 -132.611 Z" style="fill: url(#gradient-8);" transform="matrix(0.998479, 0.055126, -0.055126, 0.998479, 8.178111, -47.480347)"/>
          <path d="M 865.584 381.036 L 878.149 47.406 L 865.842 47.215 L 865.584 381.036 Z M 859.315 144.935 L 859.775 47.653 L 849.753 47.76 L 859.315 144.935 Z" style="fill: url(#gradient-14);" transform="matrix(-1, 0, 0, -1, 1727.901978, 428.251015)"/>
          <g transform="matrix(-1.045325, 0, 0, 1, 1814.886108, -28.493229)" style="">
            <g transform="matrix(1.281314, 0, 0, 0.996208, 815.767578, 325.461914)" style="">
              <path d="M 90.487 71.41 C 86.631 73.615 72.813 73.615 67.499 73.615 C 65.687 73.615 56.886 73.526 55.377 73.505 C 51.437 73.45 47.715 73.4 44.225 73.4 C 42.099 73.4 40.273 73.42 38.646 73.459 C 36.248 73.518 25.746 73.698 24.11 73.698 C 11.653 73.698 9.741 72.634 9.527 72.146 C 9.578 71.931 14.756 50.671 29.519 50.671 C 32.785 50.671 36.346 51.705 40.102 53.743 C 40.375 53.89 40.704 53.897 40.979 53.759 C 41.257 53.621 41.45 53.357 41.497 53.051 C 43.68 38.805 56.122 26.308 68.121 26.308 C 72.651 26.308 76.661 28.042 80.039 31.461 C 84.934 36.414 90.7 47.363 90.487 71.41 Z" style="fill: rgb(113, 30, 84);" transform="matrix(1, 0, 0, 1, 5.743083, 29.185156)"/>
              <path d="M 96.209 99.995 C 92.353 102.2 78.535 102.2 73.221 102.2 C 71.409 102.2 69.557 102.187 67.698 102.169 C 70.806 93.911 72.91 85.617 74.25 79.263 L 79.921 75.533 C 80.36 75.244 80.482 74.654 80.192 74.215 C 79.903 73.775 79.312 73.654 78.874 73.943 L 74.784 76.633 C 75.804 71.422 76.227 68.037 76.237 67.96 C 76.3 67.438 75.929 66.963 75.407 66.9 C 74.882 66.833 74.41 67.208 74.346 67.73 C 74.327 67.88 72.702 80.843 68.075 95.285 L 64.871 91.122 C 64.551 90.707 63.954 90.627 63.535 90.948 C 63.119 91.269 63.041 91.867 63.361 92.284 L 67.355 97.473 C 66.829 99.026 66.267 100.588 65.669 102.149 C 64.139 102.13 62.608 102.111 61.099 102.09 C 57.159 102.035 53.437 101.985 49.947 101.985 C 47.821 101.985 45.995 102.005 44.368 102.044 C 41.97 102.103 39.611 102.157 37.334 102.2 C 34.911 99.055 30.178 91.289 30.129 91.208 C 29.856 90.76 29.27 90.617 28.821 90.89 C 28.372 91.163 28.229 91.749 28.502 92.199 C 28.594 92.349 29.604 94.008 30.912 96.074 L 27.652 96.074 C 27.126 96.074 26.7 96.501 26.7 97.026 C 26.7 97.551 27.126 97.978 27.652 97.978 L 32.13 97.978 C 33.096 99.473 34.114 101.005 34.995 102.24 C 33.198 102.267 31.468 102.283 29.832 102.283 C 17.375 102.283 15.463 101.219 15.249 100.731 C 15.3 100.516 20.478 79.256 35.241 79.256 C 38.507 79.256 42.068 80.29 45.824 82.328 C 46.097 82.475 46.426 82.482 46.701 82.344 C 46.979 82.206 47.172 81.942 47.219 81.636 C 49.402 67.39 61.844 54.893 73.843 54.893 C 78.373 54.893 82.383 56.627 85.761 60.046 C 90.656 64.999 96.422 75.948 96.209 99.995 Z" style="fill: rgb(141, 38, 110);"/>
            </g>
          </g>
        </g>
        <g style="">
          <title>Tree 6</title>
          <path d="M 1313.102 -100.788 L 1339.73 -97.656 L 1354.96 46.644 L 1391.294 -70.815 L 1404.541 -53.077 L 1359.445 89.145 L 1393.24 409.344 L 1322.474 413.421 L 1315.933 54.55 L 1242.116 -47.055 L 1260.274 -46.614 L 1315.348 22.442 L 1313.102 -100.788 Z" style="fill: url(#gradient-9);" transform="matrix(0.995945, 0.089679, -0.090246, 0.995945, 19.472795, -118.040998)">
            <title>Tree Trunk</title>
          </path>
          <path d="M 1309.632 270.735 L 1305.945 411.724 L 1299.611 411.226 L 1309.632 270.735 Z" style="fill: url(#gradient-15);">
            <title>Tree 6 Light</title>
          </path>
          <g transform="matrix(1, 0, 0, 1, 446.617859, -2.97946)">
            <title>Bush</title>
            <g transform="matrix(1.281314, 0, 0, 0.996208, 815.767578, 325.461914)" style="">
              <path d="M 90.487 71.41 C 86.631 73.615 72.813 73.615 67.499 73.615 C 65.687 73.615 56.886 73.526 55.377 73.505 C 51.437 73.45 47.715 73.4 44.225 73.4 C 42.099 73.4 40.273 73.42 38.646 73.459 C 36.248 73.518 25.746 73.698 24.11 73.698 C 11.653 73.698 9.741 72.634 9.527 72.146 C 9.578 71.931 14.756 50.671 29.519 50.671 C 32.785 50.671 36.346 51.705 40.102 53.743 C 40.375 53.89 40.704 53.897 40.979 53.759 C 41.257 53.621 41.45 53.357 41.497 53.051 C 43.68 38.805 56.122 26.308 68.121 26.308 C 72.651 26.308 76.661 28.042 80.039 31.461 C 84.934 36.414 90.7 47.363 90.487 71.41 Z" style="fill: rgb(113, 30, 84);" transform="matrix(1, 0, 0, 1, 5.743083, 29.185156)"/>
              <path d="M 96.209 99.995 C 92.353 102.2 78.535 102.2 73.221 102.2 C 71.409 102.2 69.557 102.187 67.698 102.169 C 70.806 93.911 72.91 85.617 74.25 79.263 L 79.921 75.533 C 80.36 75.244 80.482 74.654 80.192 74.215 C 79.903 73.775 79.312 73.654 78.874 73.943 L 74.784 76.633 C 75.804 71.422 76.227 68.037 76.237 67.96 C 76.3 67.438 75.929 66.963 75.407 66.9 C 74.882 66.833 74.41 67.208 74.346 67.73 C 74.327 67.88 72.702 80.843 68.075 95.285 L 64.871 91.122 C 64.551 90.707 63.954 90.627 63.535 90.948 C 63.119 91.269 63.041 91.867 63.361 92.284 L 67.355 97.473 C 66.829 99.026 66.267 100.588 65.669 102.149 C 64.139 102.13 62.608 102.111 61.099 102.09 C 57.159 102.035 53.437 101.985 49.947 101.985 C 47.821 101.985 45.995 102.005 44.368 102.044 C 41.97 102.103 39.611 102.157 37.334 102.2 C 34.911 99.055 30.178 91.289 30.129 91.208 C 29.856 90.76 29.27 90.617 28.821 90.89 C 28.372 91.163 28.229 91.749 28.502 92.199 C 28.594 92.349 29.604 94.008 30.912 96.074 L 27.652 96.074 C 27.126 96.074 26.7 96.501 26.7 97.026 C 26.7 97.551 27.126 97.978 27.652 97.978 L 32.13 97.978 C 33.096 99.473 34.114 101.005 34.995 102.24 C 33.198 102.267 31.468 102.283 29.832 102.283 C 17.375 102.283 15.463 101.219 15.249 100.731 C 15.3 100.516 20.478 79.256 35.241 79.256 C 38.507 79.256 42.068 80.29 45.824 82.328 C 46.097 82.475 46.426 82.482 46.701 82.344 C 46.979 82.206 47.172 81.942 47.219 81.636 C 49.402 67.39 61.844 54.893 73.843 54.893 C 78.373 54.893 82.383 56.627 85.761 60.046 C 90.656 64.999 96.422 75.948 96.209 99.995 Z" style="fill: rgb(141, 38, 110);"/>
            </g>
          </g>
        </g>
      </g>
      <g transform="matrix(1.764313, 0, 0, 1.764313, -31.07999, -81.78199)">
        <title>Logo</title>
        <g transform="matrix(1, 0, 0, 1, -100.849205, 31.389816)">
          <title>Logo Text</title>
          <path d="M 318.546 170.1 C 320.416 172.134 321.354 174.694 321.354 177.792 C 321.354 180.638 320.144 184.972 317.726 190.784 C 316.086 194.894 313.632 198.654 310.357 202.074 C 305.985 206.711 301.567 208.804 297.078 208.355 C 295.558 208.032 293.875 207.217 292.047 205.917 C 290.175 204.573 288.755 203.739 287.775 203.413 C 287.545 203.294 287.427 203.064 287.427 202.743 C 287.427 201.934 288.636 200.321 291.05 197.921 C 292.885 196.134 294.683 194.385 296.434 192.675 C 302.678 185.842 305.796 180.759 305.796 177.423 C 305.796 176.856 305.674 176.404 305.444 176.079 C 304.041 174.939 302.342 174.368 300.351 174.368 C 296.653 174.368 292.399 176.14 287.603 179.683 C 280.388 185.007 275.315 189.912 272.394 194.385 C 263.852 207.241 258.704 215.211 256.95 218.302 C 251.844 227.986 249.289 237.035 249.289 245.457 C 249.289 248.303 249.561 251.087 250.107 253.815 C 251.201 256.542 253.871 258.252 258.119 258.942 C 264.903 258.252 272.432 255.34 280.696 250.214 C 287.484 245.653 307.548 235.962 314.332 231.524 C 314.217 232.989 314.502 236.366 315.318 238.926 C 316.143 241.489 309.996 244.215 309.996 245.272 C 309.996 247.06 313.664 241.757 312.332 243.264 C 301.529 258.398 277.894 275.842 263.385 275.842 C 261.205 275.842 259.056 275.678 256.95 275.354 C 255.317 275.109 253.577 274.257 251.748 272.792 C 248.661 270.517 247.085 269.317 247.004 269.19 C 242.84 269.435 239.109 268.174 235.835 265.408 C 231.154 258.942 228.818 251.497 228.818 243.075 C 228.818 231.564 234.098 215.942 244.668 196.215 C 260.303 174.004 276.914 160.748 294.505 156.43 C 295.248 156.19 296.065 156.065 296.961 156.065 C 300.121 156.065 303.28 157.33 306.435 159.85 C 308.935 161.88 310.517 163.712 311.178 165.339 C 311.527 166.237 312.737 167.127 314.802 168.024 C 316.87 168.96 318.118 169.656 318.546 170.1 Z" style="white-space: pre; fill: rgb(255, 255, 255);" transform="matrix(0.998942, 0.04598, -0.04598, 0.998942, 10.220489, -12.420059)"/>
          <path d="M 364.534 219.218 C 364.697 219.476 364.629 219.921 364.326 220.555 C 363.696 221.618 363.346 222.307 363.294 222.621 C 362.521 224.777 359.206 231.166 353.339 241.793 C 347.861 251.616 345.123 257.158 345.123 258.421 C 345.123 259.8 346.124 260.244 348.137 259.758 C 349.209 259.209 350.531 258.15 352.102 256.57 C 353.7 254.988 354.799 253.97 355.407 253.51 C 351.331 260.347 347.518 264.568 343.966 266.177 C 343.663 266.319 343.358 266.392 343.058 266.392 C 342.592 266.392 341.459 265.388 339.669 263.375 C 339.228 262.656 338.816 262.243 338.432 262.126 C 338.046 262.011 337.619 261.911 337.153 261.825 C 336.379 261.253 335.995 260.088 335.995 258.336 C 335.995 257.359 336.147 255.91 336.451 253.984 C 336.667 252.463 336.708 251.573 336.572 251.313 C 336.409 251.171 336.257 251.099 336.117 251.099 C 335.346 251.099 333.875 252.306 331.699 254.717 C 328.864 257.937 327.168 259.771 326.619 260.233 C 323.233 263.13 320.231 264.582 317.616 264.582 C 316.595 264.582 315.593 264.422 314.602 264.108 C 314.3 264.023 313.98 263.624 313.651 262.901 C 313.351 262.182 312.813 261.58 312.041 261.093 C 308.106 258.595 306.177 256.021 306.258 253.382 C 306.342 250.397 306.535 248.428 306.838 247.48 C 310.691 233.638 319.404 222.609 332.979 214.394 C 335.512 212.873 338.32 212.111 341.404 212.111 C 346.197 212.111 349.363 214.08 350.902 218.011 C 350.902 218.011 351.017 218.702 351.233 220.081 C 351.399 220.885 351.865 221.245 352.638 221.156 C 353.494 221.071 354.345 220.523 355.198 219.521 C 356.025 218.517 356.714 217.897 357.263 217.667 C 360.815 217.495 363.241 218.011 364.534 219.218 Z M 348.466 224.433 C 348.248 222.912 347.134 222.264 345.123 222.494 C 338.102 224.59 330.473 231.064 322.243 241.921 C 318.524 246.747 316.667 250.523 316.667 253.251 C 316.667 253.885 316.751 254.49 316.914 255.063 C 317.217 255.694 317.947 255.608 319.104 254.804 C 325.103 250.785 330.928 246.202 336.572 241.061 C 345.053 233.422 349.016 227.876 348.466 224.433 Z" style="white-space: pre; fill: rgb(255, 255, 255);" transform="matrix(0.998942, 0.04598, -0.04598, 0.998942, 11.355562, -15.170396)"/>
          <path d="M 444.201 225.26 C 442.662 228.393 438.804 235.028 432.638 245.164 C 427.681 253.466 425.203 258.219 425.203 259.424 C 425.203 259.971 425.863 260.242 427.184 260.242 C 428.343 260.242 429.965 259.64 432.061 258.433 C 435.063 256.678 436.756 255.72 437.14 255.547 C 435.818 258.273 433.229 260.801 429.374 263.13 C 426.927 264.68 424.926 265.455 423.386 265.455 C 422.756 265.455 422.327 265.253 422.107 264.853 C 420.702 263.558 419.309 262.266 417.936 260.975 C 415.788 258.735 414.714 256.613 414.714 254.598 C 414.714 253.941 414.825 253.251 415.044 252.532 C 417.139 247.218 419.299 242.752 421.53 239.131 C 421.61 238.817 421.488 238.66 421.158 238.66 C 420.384 238.66 419.309 239.422 417.936 240.943 C 417.47 241.342 416.653 242.193 415.5 243.483 C 412.277 247.333 409.045 251.194 405.792 255.072 C 401.773 259.899 398.069 263.43 394.683 265.67 C 394.217 265.929 393.763 266.059 393.321 266.059 C 392.466 266.059 391.556 265.658 390.596 264.853 C 389.633 264.046 388.684 263.27 387.747 262.525 C 387.221 261.979 386.383 261.664 385.226 261.577 C 384.76 261.577 384.399 261.42 384.152 261.105 C 383.628 259.899 383.367 258.65 383.367 257.355 C 383.367 255.345 384.1 252.846 385.557 249.861 C 387.485 245.926 388.653 243.483 389.066 242.536 C 389.508 241.559 390.224 239.91 391.215 237.582 C 391.299 237.268 391.256 237.065 391.09 236.98 C 390.87 236.891 390.607 236.891 390.305 236.98 C 390.005 237.121 389.728 237.323 389.481 237.582 C 384.33 243.614 376.193 252.702 365.071 264.853 C 363.997 265.972 362.729 266.132 361.272 265.327 C 360.97 264.347 359.663 263.301 357.348 262.182 C 355.503 261.289 354.735 259.928 355.037 258.088 C 355.945 252.692 358.328 246.296 362.18 238.918 C 368.21 227.486 371.379 221.371 371.678 220.565 C 371.846 220.25 371.928 219.931 371.928 219.616 C 371.928 218.639 370.965 218.443 369.037 219.014 C 368.789 219.07 367.92 219.605 366.433 220.608 C 364.918 221.612 364.012 222.118 363.709 222.118 C 363.545 222.059 363.462 221.987 363.462 221.902 C 363.462 221.644 363.803 221.039 364.493 220.09 C 368.818 216.16 372.175 214.188 374.57 214.188 C 375.561 214.188 376.524 214.417 377.461 214.878 C 380.766 217.55 382.307 219.761 382.087 221.513 C 381.786 223.87 380.627 227.083 378.619 231.163 C 376.608 235.27 375.602 237.365 375.602 237.454 C 375.686 238.258 375.963 238.66 376.429 238.66 C 377.037 238.66 377.917 238.098 379.072 236.98 C 382.706 233.102 386.328 229.237 389.933 225.391 C 394.34 220.968 398.66 218.037 402.904 216.602 C 403.203 216.516 403.509 216.474 403.811 216.474 C 405.132 216.474 406.566 217.321 408.106 219.014 C 409.344 220.535 410.019 221.673 410.13 222.418 C 410.241 223.194 410.296 223.939 410.296 224.658 C 410.296 227.729 408.877 231.236 406.042 235.168 C 402.79 239.68 400.891 243.098 400.342 245.423 C 400.289 245.737 400.329 245.897 400.464 245.897 C 400.631 245.982 400.783 245.94 400.919 245.766 C 413.504 232.67 423.605 223.18 431.233 217.291 C 432.858 216.085 434.703 215.483 436.768 215.483 C 437.789 215.483 438.721 215.652 439.576 216 C 439.576 216.399 440.114 217.207 441.188 218.411 C 443.636 220.018 444.862 221.457 444.862 222.72 C 444.862 223.465 444.643 224.312 444.201 225.26 Z" style="white-space: pre; fill: rgb(255, 255, 255);" transform="matrix(0.998942, 0.04598, -0.04598, 0.998942, 11.463853, -18.134253)"/>
          <path d="M 486.007 224.242 C 486.144 225.678 486.212 227.087 486.212 228.466 C 486.212 235.933 483.64 244.132 478.49 253.064 C 474.637 259.73 470.426 264.469 465.853 267.281 C 464.695 267.854 463.43 268.142 462.052 268.142 C 459.658 268.142 457.496 267.497 455.567 266.205 C 454.278 264.998 453.35 264.079 452.801 263.445 C 451.811 262.327 451.192 261.164 450.945 259.957 C 450.805 259.613 450.541 259.441 450.159 259.441 C 449.773 259.528 449.499 259.73 449.332 260.044 C 446.167 267.768 441.237 279.314 434.547 294.68 L 433.598 294.68 C 433.379 294.366 432.027 293.356 429.549 291.665 C 427.928 290.459 427.085 289.05 427.032 287.444 C 428.023 280.204 430.334 272.163 433.97 263.319 C 437.272 255.68 440.618 248.081 444.004 240.53 C 448.023 230.965 450.034 224.847 450.034 222.176 C 450.034 221.946 449.993 221.789 449.912 221.702 C 448.536 221.387 446.224 222.593 442.971 225.321 C 443.437 223.48 444.803 221.518 447.063 219.419 C 449.347 217.319 451.067 216.315 452.224 216.404 C 454.839 216.545 457.111 217.996 459.04 220.753 C 459.422 221.789 459.616 222.95 459.616 224.242 C 459.616 225.937 458.967 228.951 457.674 233.291 C 457.594 233.693 457.705 233.967 458.007 234.107 C 458.223 234.281 458.5 234.252 458.831 234.022 C 461.446 230.72 464.023 227.462 466.554 224.242 C 469.943 220.139 473.175 218.084 476.262 218.084 C 477.28 218.084 478.284 218.241 479.274 218.555 C 479.358 219.131 480.172 219.936 481.711 220.969 C 482.65 221.283 483.529 221.574 484.356 221.832 C 485.29 222.316 485.841 223.124 486.007 224.242 Z M 473.947 231.61 C 474.029 231.211 473.877 230.877 473.492 230.619 C 473.191 230.478 472.845 230.478 472.46 230.619 C 468.135 233.839 462.933 239.421 456.85 247.377 C 455.529 249.79 454.866 251.528 454.866 252.59 C 454.866 253.397 455.06 254.11 455.445 254.744 C 456.85 257.33 458.087 258.491 459.162 258.234 C 467.172 252.059 472.102 243.185 473.947 231.61 Z" style="white-space: pre; fill: rgb(255, 255, 255);" transform="matrix(0.998942, 0.04598, -0.04598, 0.998942, 12.232644, -20.725221)"/>
          <path d="M 530.645 189.533 C 531.028 191.805 530.906 194.542 530.273 197.763 C 529.665 201.294 528.664 203.822 527.259 205.342 C 527.204 204.538 527.34 203.29 527.671 201.595 C 528.03 199.928 528.209 198.721 528.209 197.975 C 528.209 196.308 527.506 195.078 526.103 194.27 C 524.893 193.786 520.885 201.176 514.083 216.457 C 514.083 217.579 514.785 217.978 516.19 217.664 C 518.641 217.265 522.497 217.134 527.753 217.278 C 526.266 223.078 522.522 226.293 516.519 226.927 C 514.897 227.186 513.271 227.43 511.646 227.66 C 509.665 228.148 508.398 229.153 507.847 230.674 C 507.681 230.99 505.795 236.018 502.19 245.752 C 498.471 255.717 495.582 262.511 493.517 266.13 C 493.268 266.616 492.017 266.203 489.757 264.882 C 487.474 263.558 486.372 262.337 486.455 261.219 C 486.839 256.622 488.425 250.104 491.203 241.662 C 493.653 234.024 494.88 230.2 494.88 230.2 C 494.494 229.886 492.69 229.284 489.469 228.392 C 487.293 227.82 486.247 226.656 486.33 224.904 C 486.577 220.392 488.273 217.019 491.412 214.779 C 491.273 215.24 491.121 215.669 490.956 216.072 C 490.82 216.644 490.904 217.134 491.203 217.536 C 492.277 218.34 493.97 218.743 496.285 218.743 C 498.377 218.743 499.576 218.494 499.878 218.01 C 502.961 211.892 506.083 205.787 509.252 199.698 C 513.105 192.777 517.607 187.78 522.755 184.708 C 523.058 184.565 523.406 184.494 523.788 184.494 C 525.028 184.494 526.502 185.17 528.209 186.517 C 529.665 187.809 530.479 188.814 530.645 189.533 Z" style="white-space: pre; fill: rgb(255, 255, 255);" transform="matrix(0.998942, 0.04598, -0.04598, 0.998942, 10.902287, -23.146759)"/>
          <path d="M 555.782 188.471 C 556.001 191.345 555.095 194.36 553.057 197.519 C 551.02 200.651 549.3 202.214 547.896 202.214 C 547.069 202.126 545.883 201.641 544.344 200.75 C 542.033 199.457 540.875 197.444 540.875 194.717 C 540.875 194.086 540.986 193.481 541.205 192.908 C 542.144 191.561 543.572 189.592 545.501 187.006 C 546.575 185.226 548.184 184.334 550.333 184.334 C 553.277 184.334 555.095 185.714 555.782 188.471 Z M 544.798 218.499 C 544.024 224.27 541.563 230.618 537.406 237.54 C 531.675 247.049 528.321 252.965 527.328 255.29 C 527.108 255.924 527.919 256.238 529.764 256.238 C 530.674 256.149 531.995 255.505 533.729 254.298 C 535.463 253.093 536.649 252.373 537.281 252.143 C 535.825 256.078 531.692 259.252 524.891 261.665 C 524.202 261.925 523.517 261.609 522.826 260.718 C 522.138 259.825 521.475 258.981 520.846 258.176 C 520.458 258.004 519.924 257.603 519.232 256.969 C 518.159 255.534 517.623 253.81 517.623 251.8 C 517.623 248.987 519.204 244.678 522.371 238.874 C 522.51 238.648 524.591 235.113 528.609 228.276 C 531.005 224.257 532.807 220.64 534.017 217.42 C 534.185 217.161 534.226 216.958 534.142 216.818 C 534.007 216.733 533.771 216.733 533.441 216.818 C 531.13 217.623 528.815 218.855 526.503 220.523 C 530.438 214.836 534.42 211.992 538.438 211.992 C 539.211 211.992 539.937 212.11 540.625 212.338 C 541.094 212.567 541.908 213.457 543.064 215.009 C 544.219 216.53 544.798 217.691 544.798 218.499 Z" style="white-space: pre; fill: rgb(255, 255, 255);" transform="matrix(0.998942, 0.04598, -0.04598, 0.998942, 10.823201, -24.442428)"/>
          <path d="M 585.562 221.714 C 583.88 226.308 581.527 233.271 578.499 242.606 C 578.444 242.92 578.222 243.08 577.839 243.08 C 577.589 243.08 577.022 242.939 576.143 242.651 C 575.264 242.36 574.628 242.22 574.244 242.22 C 573.943 242.22 573.626 242.305 573.294 242.478 C 572.993 242.619 572.769 242.694 572.632 242.694 C 572.084 242.694 571.506 242.232 570.898 241.313 C 570.269 240.398 569.949 239.578 569.949 238.859 C 569.949 238.2 570.127 237.05 570.485 235.412 C 570.817 233.777 570.982 232.786 570.982 232.439 C 570.982 232.125 570.871 232.053 570.651 232.224 C 568.722 233.833 566.758 236.242 564.747 239.464 C 561.577 244.515 559.927 247.131 559.79 247.302 C 557.559 250.607 554.091 255.345 549.38 261.519 C 548.998 261.778 548.568 261.908 548.102 261.908 C 546.257 261.908 545.21 261.303 544.963 260.097 C 544.743 258.891 543.573 257.955 541.452 257.298 C 539.335 256.664 538.315 255.5 538.397 253.809 C 539.471 249.297 541.894 242.865 545.665 234.51 C 549.437 226.152 551.831 219.873 552.852 215.681 C 552.852 215.048 552.12 214.732 550.663 214.732 C 549.891 214.732 549.051 215.08 548.143 215.768 C 547.264 216.427 546.478 217.047 545.79 217.62 C 544.026 218.912 543.256 219.56 543.476 219.56 C 543.395 219.474 543.354 219.343 543.354 219.169 C 543.983 217.737 545.088 216.37 546.656 215.08 C 548.227 213.787 549.752 212.58 551.239 211.459 C 553.169 210.426 554.97 209.909 556.652 209.909 C 557.589 209.909 558.167 210.08 558.386 210.426 C 558.633 210.801 559.171 211.342 559.995 212.064 C 560.628 212.637 561.441 213.685 562.432 215.208 C 562.817 216.241 563.012 217.332 563.012 218.482 C 563.012 220.088 562.567 222.217 561.688 224.856 C 560.809 227.499 560.326 229.35 560.245 230.415 C 560.161 230.814 560.273 231.017 560.576 231.017 C 560.905 231.017 561.181 230.889 561.4 230.632 C 563.794 227.27 566.193 223.94 568.587 220.635 C 571.506 216.789 574.398 213.816 577.259 211.718 C 577.783 211.319 578.322 211.116 578.871 211.116 C 579.643 211.116 580.658 211.689 581.926 212.84 C 583.195 214.013 584.143 214.72 584.777 214.948 C 585.601 215.521 586.014 216.53 586.014 217.964 C 586.014 218.45 585.862 219.7 585.562 221.714 Z" style="white-space: pre; fill: rgb(255, 255, 255);" transform="matrix(0.998942, 0.04598, -0.04598, 0.998942, 11.441687, -25.600609)"/>
          <path d="M 624.349 219.808 C 625.176 227.79 621.158 234.67 612.293 240.445 C 609.842 242.051 606.728 242.811 602.956 242.728 C 601.938 242.728 600.809 242.126 599.572 240.919 C 598.362 239.712 597.434 238.43 596.805 237.083 C 596.419 236.19 595.989 235.748 595.523 235.748 C 594.313 235.748 592.85 237.914 591.147 242.252 C 589.606 246.187 588.791 249.004 588.71 250.696 C 588.626 251.098 588.585 251.461 588.585 251.774 C 588.585 253.324 589.245 254.371 590.566 254.918 C 591.34 255.09 592.107 255.179 592.881 255.179 C 594.504 255.179 596.392 254.734 598.539 253.842 C 600.326 252.949 602.103 252.105 603.867 251.301 C 604.803 250.898 606.29 249.953 608.326 248.456 C 610.363 246.991 611.959 246.013 613.117 245.527 C 613.419 245.268 613.807 245.627 614.273 246.604 C 614.74 247.582 614.976 248.629 614.976 249.751 C 614.976 250.296 614.892 250.77 614.729 251.169 C 613.818 253.269 611.973 255.25 609.193 257.115 C 606.881 258.551 604.608 259.989 602.38 261.425 C 601.664 261.682 600.535 262.083 598.991 262.632 C 598.167 263.031 597.329 263.233 596.474 263.233 C 595.317 263.233 594.066 262.814 592.715 261.984 C 591.366 261.153 590.072 260.335 588.832 259.528 C 588.061 258.956 587.25 258.622 586.395 258.537 C 585.54 258.452 585.006 258.377 584.786 258.322 C 581.234 256.856 579.305 252.667 579.003 245.742 C 578.839 242.868 579.457 239.784 580.862 236.481 C 581.164 235.82 582.586 233.12 585.117 228.381 C 591.366 219.046 600.232 213.102 611.712 210.546 C 614.19 209.972 617.012 211.29 620.178 214.51 C 622.959 217.237 624.349 219.003 624.349 219.808 Z M 615.761 223.427 C 616.091 222.708 616.254 221.949 616.254 221.144 C 616.254 219.537 615.595 218.935 614.273 219.334 C 609.731 220.713 604.486 224.893 598.539 231.87 C 597.931 232.617 598.167 233.551 599.241 234.67 C 600.614 235.617 602.307 235.575 604.32 234.542 C 608.727 232.215 612.539 228.509 615.761 223.427 Z" style="white-space: pre; fill: rgb(255, 255, 255);" transform="matrix(0.998942, 0.04598, -0.04598, 0.998942, 11.525582, -27.416442)"/>
        </g>
        <ellipse style="fill: rgb(117, 35, 96);" cx="585.855" cy="271.763" rx="32.448" ry="25.007"/>
        <path d="M 540.249 263.16 C 539.818 237.809 550.607 223.143 550.607 223.143 C 555.283 245.574 563.974 245.664 563.974 245.664 C 563.974 245.664 559.27 237.307 559.561 223.713 C 559.899 207.893 573.889 180.4 592.234 179.837 C 588.723 184.722 587.239 189.583 587.239 196.73 C 587.239 222.756 622.736 230.229 622.736 263.753 C 622.736 293.717 598.153 299.244 580.72 299.244 C 563.276 299.244 540.682 288.512 540.249 263.16 Z M 555.931 269.543 C 555.931 282.427 570.736 289.668 582.88 289.504 C 595.264 289.333 596.544 286.987 596.999 287.267 C 601.385 289.888 607.968 288.542 607.968 288.542 C 607.968 288.542 603.702 286.523 604.787 282.129 C 604.921 281.585 609.74 278.938 609.828 269.543 C 609.945 256.661 595.024 249.582 582.88 249.582 C 570.73 249.582 555.931 256.661 555.931 269.543 Z" style="fill: rgb(255, 255, 255);">
          <title>Logo</title>
        </path>
        <path d="M 317.501 196.807 C 316.568 196.807 315.728 196.604 314.981 196.197 C 314.241 195.79 313.651 195.21 313.211 194.457 C 312.771 193.697 312.551 192.804 312.551 191.777 C 312.551 190.804 312.754 189.95 313.161 189.217 C 313.561 188.49 314.128 187.927 314.861 187.527 C 315.594 187.134 316.438 186.937 317.391 186.937 C 318.118 186.937 318.744 187.027 319.271 187.207 C 319.798 187.394 320.211 187.624 320.511 187.897 L 319.531 189.687 C 318.958 189.107 318.308 188.817 317.581 188.817 C 316.708 188.817 316.041 189.084 315.581 189.617 C 315.121 190.15 314.891 190.864 314.891 191.757 C 314.891 192.77 315.128 193.557 315.601 194.117 C 316.074 194.677 316.734 194.957 317.581 194.957 C 318.008 194.957 318.421 194.894 318.821 194.767 C 319.228 194.647 319.538 194.504 319.751 194.337 L 320.551 195.897 C 320.251 196.13 319.831 196.34 319.291 196.527 C 318.751 196.714 318.154 196.807 317.501 196.807 ZM 329.83 196.807 C 328.983 196.807 328.2 196.604 327.48 196.197 C 326.766 195.79 326.193 195.217 325.76 194.477 C 325.326 193.73 325.11 192.857 325.11 191.857 C 325.11 190.87 325.3 190.01 325.68 189.277 C 326.053 188.537 326.59 187.96 327.29 187.547 C 327.983 187.14 328.803 186.937 329.75 186.937 C 330.296 186.937 330.81 187.03 331.29 187.217 C 331.77 187.41 332.173 187.647 332.5 187.927 C 332.826 188.207 333.046 188.484 333.16 188.757 L 333.2 187.177 L 335.31 187.177 L 335.31 196.597 L 333.22 196.597 L 333.18 194.937 C 332.946 195.43 332.52 195.864 331.9 196.237 C 331.286 196.617 330.596 196.807 329.83 196.807 Z M 330.2 194.957 C 330.98 194.957 331.636 194.687 332.17 194.147 C 332.703 193.607 332.97 192.897 332.97 192.017 L 332.97 191.877 C 332.97 191.29 332.846 190.764 332.6 190.297 C 332.353 189.83 332.02 189.467 331.6 189.207 C 331.173 188.947 330.706 188.817 330.2 188.817 C 329.326 188.817 328.65 189.104 328.17 189.677 C 327.69 190.244 327.45 190.977 327.45 191.877 C 327.45 192.797 327.686 193.54 328.16 194.107 C 328.633 194.674 329.313 194.957 330.2 194.957 ZM 341.285 196.597 L 341.285 187.177 L 343.495 187.177 L 343.495 188.887 C 343.795 188.24 344.238 187.754 344.825 187.427 C 345.405 187.1 346.071 186.937 346.825 186.937 C 348.505 186.95 349.535 187.53 349.915 188.677 C 350.221 188.144 350.675 187.72 351.275 187.407 C 351.875 187.094 352.511 186.937 353.185 186.937 C 354.165 186.937 354.908 187.124 355.415 187.497 C 355.921 187.877 356.261 188.41 356.435 189.097 C 356.601 189.79 356.685 190.717 356.685 191.877 L 356.685 196.597 L 354.455 196.597 L 354.455 191.857 C 354.455 190.75 354.341 189.957 354.115 189.477 C 353.888 188.997 353.455 188.757 352.815 188.757 C 351.948 188.757 351.295 189.047 350.855 189.627 C 350.408 190.214 350.185 190.977 350.185 191.917 L 350.185 196.597 L 347.975 196.597 L 347.975 191.527 C 347.975 190.8 347.945 190.26 347.885 189.907 C 347.831 189.554 347.681 189.274 347.435 189.067 C 347.188 188.86 346.791 188.757 346.245 188.757 C 345.765 188.757 345.318 188.9 344.905 189.187 C 344.485 189.474 344.148 189.86 343.895 190.347 C 343.641 190.834 343.515 191.357 343.515 191.917 L 343.515 196.597 L 341.285 196.597 ZM 362.56 201.587 L 362.56 187.177 L 364.69 187.177 L 364.69 188.927 C 365.443 187.6 366.62 186.937 368.22 186.937 C 369.546 186.937 370.62 187.357 371.44 188.197 C 372.26 189.037 372.67 190.25 372.67 191.837 C 372.67 192.824 372.47 193.694 372.07 194.447 C 371.663 195.194 371.116 195.774 370.43 196.187 C 369.736 196.6 368.966 196.807 368.12 196.807 C 367.326 196.807 366.64 196.664 366.06 196.377 C 365.473 196.097 365.016 195.697 364.69 195.177 L 364.71 201.587 L 362.56 201.587 Z M 367.6 194.937 C 368.493 194.937 369.18 194.654 369.66 194.087 C 370.133 193.52 370.37 192.79 370.37 191.897 C 370.37 190.97 370.136 190.23 369.67 189.677 C 369.196 189.117 368.506 188.837 367.6 188.837 C 367.113 188.837 366.653 188.957 366.22 189.197 C 365.786 189.437 365.443 189.78 365.19 190.227 C 364.936 190.674 364.81 191.19 364.81 191.777 L 364.81 191.917 C 364.81 192.504 364.936 193.027 365.19 193.487 C 365.443 193.947 365.783 194.304 366.21 194.557 C 366.636 194.81 367.1 194.937 367.6 194.937 ZM 378.912 196.597 L 378.912 188.947 L 377.392 188.947 L 377.392 187.177 L 378.912 187.177 L 378.912 185.147 C 378.912 183.92 379.209 182.967 379.802 182.287 C 380.395 181.607 381.269 181.267 382.422 181.267 C 382.882 181.267 383.409 181.397 384.002 181.657 L 383.572 183.757 C 383.472 183.644 383.325 183.537 383.132 183.437 C 382.932 183.33 382.715 183.277 382.482 183.277 C 381.562 183.277 381.095 183.874 381.082 185.067 L 381.082 187.177 L 383.302 187.177 L 383.302 188.947 L 381.082 188.947 L 381.082 196.597 L 378.912 196.597 ZM 388.617 196.597 L 388.617 187.177 L 390.917 187.177 L 390.917 196.597 L 388.617 196.597 Z M 389.747 185.417 C 389.321 185.417 388.964 185.274 388.677 184.987 C 388.391 184.7 388.247 184.344 388.247 183.917 C 388.247 183.537 388.391 183.21 388.677 182.937 C 388.964 182.664 389.321 182.527 389.747 182.527 C 390.154 182.527 390.504 182.664 390.797 182.937 C 391.084 183.21 391.227 183.537 391.227 183.917 C 391.227 184.344 391.087 184.7 390.807 184.987 C 390.527 185.274 390.174 185.417 389.747 185.417 ZM 396.936 196.597 L 396.936 187.177 L 399.146 187.177 L 399.146 189.027 C 399.366 188.4 399.722 187.894 400.216 187.507 C 400.709 187.127 401.269 186.937 401.896 186.937 C 402.336 186.937 402.636 186.977 402.796 187.057 L 402.496 189.297 C 402.369 189.21 402.102 189.167 401.696 189.167 C 401.049 189.167 400.462 189.374 399.936 189.787 C 399.409 190.194 399.146 190.85 399.146 191.757 L 399.146 196.597 L 396.936 196.597 ZM 411.81 196.807 C 410.69 196.807 409.753 196.584 409 196.137 C 408.246 195.69 407.693 195.094 407.34 194.347 C 406.98 193.607 406.8 192.79 406.8 191.897 C 406.8 190.897 407.01 190.024 407.43 189.277 C 407.843 188.524 408.42 187.944 409.16 187.537 C 409.9 187.137 410.736 186.937 411.67 186.937 C 413.116 186.937 414.193 187.337 414.9 188.137 C 415.6 188.937 415.95 190.06 415.95 191.507 C 415.95 191.88 415.93 192.264 415.89 192.657 L 409.12 192.657 C 409.273 193.49 409.57 194.094 410.01 194.467 C 410.456 194.834 411.076 195.017 411.87 195.017 C 412.53 195.017 413.07 194.964 413.49 194.857 C 413.916 194.744 414.306 194.59 414.66 194.397 L 415.34 195.977 C 414.993 196.197 414.526 196.39 413.94 196.557 C 413.353 196.724 412.643 196.807 411.81 196.807 Z M 409.12 191.117 L 413.8 191.117 C 413.813 190.27 413.63 189.674 413.25 189.327 C 412.863 188.974 412.313 188.797 411.6 188.797 C 410.166 188.797 409.34 189.57 409.12 191.117 ZM 425.842 201.517 C 425.149 201.517 424.462 201.424 423.782 201.237 C 423.102 201.044 422.619 200.864 422.332 200.697 L 422.832 198.647 C 423.732 199.234 424.715 199.527 425.782 199.527 C 426.602 199.527 427.292 199.33 427.852 198.937 C 428.412 198.537 428.699 197.764 428.712 196.617 L 428.712 194.937 C 428.425 195.47 427.962 195.914 427.322 196.267 C 426.675 196.627 425.965 196.807 425.192 196.807 C 424.365 196.807 423.612 196.604 422.932 196.197 C 422.245 195.79 421.705 195.214 421.312 194.467 C 420.912 193.714 420.712 192.837 420.712 191.837 C 420.712 190.877 420.902 190.027 421.282 189.287 C 421.655 188.54 422.192 187.96 422.892 187.547 C 423.585 187.14 424.399 186.937 425.332 186.937 C 425.879 186.937 426.392 187.03 426.872 187.217 C 427.352 187.41 427.759 187.647 428.092 187.927 C 428.425 188.207 428.649 188.484 428.762 188.757 L 428.802 187.177 L 430.892 187.177 L 430.892 196.537 C 430.892 198.137 430.482 199.367 429.662 200.227 C 428.842 201.087 427.569 201.517 425.842 201.517 Z M 425.802 194.937 C 426.582 194.937 427.239 194.667 427.772 194.127 C 428.305 193.587 428.572 192.877 428.572 191.997 L 428.572 191.857 C 428.572 191.27 428.449 190.744 428.202 190.277 C 427.955 189.81 427.622 189.447 427.202 189.187 C 426.775 188.927 426.309 188.797 425.802 188.797 C 424.929 188.797 424.252 189.084 423.772 189.657 C 423.292 190.224 423.052 190.957 423.052 191.857 C 423.052 192.777 423.289 193.52 423.762 194.087 C 424.235 194.654 424.915 194.937 425.802 194.937 ZM 440.883 196.807 C 440.036 196.807 439.253 196.604 438.533 196.197 C 437.819 195.79 437.246 195.217 436.813 194.477 C 436.379 193.73 436.163 192.857 436.163 191.857 C 436.163 190.87 436.353 190.01 436.733 189.277 C 437.106 188.537 437.643 187.96 438.343 187.547 C 439.036 187.14 439.856 186.937 440.803 186.937 C 441.349 186.937 441.863 187.03 442.343 187.217 C 442.823 187.41 443.226 187.647 443.553 187.927 C 443.879 188.207 444.099 188.484 444.213 188.757 L 444.253 187.177 L 446.363 187.177 L 446.363 196.597 L 444.273 196.597 L 444.233 194.937 C 443.999 195.43 443.573 195.864 442.953 196.237 C 442.339 196.617 441.649 196.807 440.883 196.807 Z M 441.253 194.957 C 442.033 194.957 442.689 194.687 443.223 194.147 C 443.756 193.607 444.023 192.897 444.023 192.017 L 444.023 191.877 C 444.023 191.29 443.899 190.764 443.653 190.297 C 443.406 189.83 443.073 189.467 442.653 189.207 C 442.226 188.947 441.759 188.817 441.253 188.817 C 440.379 188.817 439.703 189.104 439.223 189.677 C 438.743 190.244 438.503 190.977 438.503 191.877 C 438.503 192.797 438.739 193.54 439.213 194.107 C 439.686 194.674 440.366 194.957 441.253 194.957 ZM 452.338 196.597 L 452.338 187.177 L 454.548 187.177 L 454.548 188.887 C 454.848 188.24 455.291 187.754 455.878 187.427 C 456.458 187.1 457.124 186.937 457.878 186.937 C 459.558 186.95 460.588 187.53 460.968 188.677 C 461.274 188.144 461.728 187.72 462.328 187.407 C 462.928 187.094 463.564 186.937 464.238 186.937 C 465.218 186.937 465.961 187.124 466.468 187.497 C 466.974 187.877 467.314 188.41 467.488 189.097 C 467.654 189.79 467.738 190.717 467.738 191.877 L 467.738 196.597 L 465.508 196.597 L 465.508 191.857 C 465.508 190.75 465.394 189.957 465.168 189.477 C 464.941 188.997 464.508 188.757 463.868 188.757 C 463.001 188.757 462.348 189.047 461.908 189.627 C 461.461 190.214 461.238 190.977 461.238 191.917 L 461.238 196.597 L 459.028 196.597 L 459.028 191.527 C 459.028 190.8 458.998 190.26 458.938 189.907 C 458.884 189.554 458.734 189.274 458.488 189.067 C 458.241 188.86 457.844 188.757 457.298 188.757 C 456.818 188.757 456.371 188.9 455.958 189.187 C 455.538 189.474 455.201 189.86 454.948 190.347 C 454.694 190.834 454.568 191.357 454.568 191.917 L 454.568 196.597 L 452.338 196.597 ZM 478.023 196.807 C 476.903 196.807 475.966 196.584 475.213 196.137 C 474.46 195.69 473.906 195.094 473.553 194.347 C 473.193 193.607 473.013 192.79 473.013 191.897 C 473.013 190.897 473.223 190.024 473.643 189.277 C 474.056 188.524 474.633 187.944 475.373 187.537 C 476.113 187.137 476.95 186.937 477.883 186.937 C 479.33 186.937 480.406 187.337 481.113 188.137 C 481.813 188.937 482.163 190.06 482.163 191.507 C 482.163 191.88 482.143 192.264 482.103 192.657 L 475.333 192.657 C 475.486 193.49 475.783 194.094 476.223 194.467 C 476.67 194.834 477.29 195.017 478.083 195.017 C 478.743 195.017 479.283 194.964 479.703 194.857 C 480.13 194.744 480.52 194.59 480.873 194.397 L 481.553 195.977 C 481.206 196.197 480.74 196.39 480.153 196.557 C 479.566 196.724 478.856 196.807 478.023 196.807 Z M 475.333 191.117 L 480.013 191.117 C 480.026 190.27 479.843 189.674 479.463 189.327 C 479.076 188.974 478.526 188.797 477.813 188.797 C 476.38 188.797 475.553 189.57 475.333 191.117 ZM 488.995 196.807 C 488.589 196.807 488.242 196.664 487.955 196.377 C 487.669 196.097 487.525 195.754 487.525 195.347 C 487.525 194.92 487.665 194.567 487.945 194.287 C 488.225 194.007 488.575 193.867 488.995 193.867 C 489.422 193.867 489.775 194.007 490.055 194.287 C 490.335 194.567 490.475 194.92 490.475 195.347 C 490.475 195.754 490.335 196.097 490.055 196.377 C 489.775 196.664 489.422 196.807 488.995 196.807 ZM 500.434 196.807 C 499.501 196.807 498.661 196.604 497.914 196.197 C 497.174 195.79 496.584 195.21 496.144 194.457 C 495.704 193.697 495.484 192.804 495.484 191.777 C 495.484 190.804 495.687 189.95 496.094 189.217 C 496.494 188.49 497.061 187.927 497.794 187.527 C 498.527 187.134 499.371 186.937 500.324 186.937 C 501.051 186.937 501.677 187.027 502.204 187.207 C 502.731 187.394 503.144 187.624 503.444 187.897 L 502.464 189.687 C 501.891 189.107 501.241 188.817 500.514 188.817 C 499.641 188.817 498.974 189.084 498.514 189.617 C 498.054 190.15 497.824 190.864 497.824 191.757 C 497.824 192.77 498.061 193.557 498.534 194.117 C 499.007 194.677 499.667 194.957 500.514 194.957 C 500.941 194.957 501.354 194.894 501.754 194.767 C 502.161 194.647 502.471 194.504 502.684 194.337 L 503.484 195.897 C 503.184 196.13 502.764 196.34 502.224 196.527 C 501.684 196.714 501.087 196.807 500.434 196.807 ZM 512.993 196.807 C 512.019 196.807 511.156 196.587 510.403 196.147 C 509.649 195.707 509.069 195.11 508.663 194.357 C 508.249 193.61 508.043 192.777 508.043 191.857 C 508.043 190.957 508.246 190.13 508.653 189.377 C 509.053 188.624 509.629 188.027 510.383 187.587 C 511.136 187.154 512.006 186.937 512.993 186.937 C 513.973 186.937 514.836 187.154 515.583 187.587 C 516.329 188.027 516.906 188.624 517.313 189.377 C 517.713 190.13 517.913 190.957 517.913 191.857 C 517.913 192.777 517.709 193.61 517.303 194.357 C 516.889 195.11 516.309 195.707 515.563 196.147 C 514.816 196.587 513.959 196.807 512.993 196.807 Z M 513.053 194.997 C 513.846 194.997 514.473 194.704 514.933 194.117 C 515.386 193.53 515.613 192.79 515.613 191.897 C 515.613 191.01 515.366 190.264 514.873 189.657 C 514.386 189.044 513.739 188.737 512.933 188.737 C 512.153 188.737 511.526 189.037 511.053 189.637 C 510.579 190.244 510.343 190.997 510.343 191.897 C 510.343 192.77 510.596 193.507 511.103 194.107 C 511.609 194.7 512.259 194.997 513.053 194.997 ZM 523.274 196.597 L 523.274 187.177 L 525.484 187.177 L 525.484 188.887 C 525.784 188.24 526.227 187.754 526.814 187.427 C 527.394 187.1 528.061 186.937 528.814 186.937 C 530.494 186.95 531.524 187.53 531.904 188.677 C 532.211 188.144 532.664 187.72 533.264 187.407 C 533.864 187.094 534.501 186.937 535.174 186.937 C 536.154 186.937 536.897 187.124 537.404 187.497 C 537.911 187.877 538.251 188.41 538.424 189.097 C 538.591 189.79 538.674 190.717 538.674 191.877 L 538.674 196.597 L 536.444 196.597 L 536.444 191.857 C 536.444 190.75 536.331 189.957 536.104 189.477 C 535.877 188.997 535.444 188.757 534.804 188.757 C 533.937 188.757 533.284 189.047 532.844 189.627 C 532.397 190.214 532.174 190.977 532.174 191.917 L 532.174 196.597 L 529.964 196.597 L 529.964 191.527 C 529.964 190.8 529.934 190.26 529.874 189.907 C 529.821 189.554 529.671 189.274 529.424 189.067 C 529.177 188.86 528.781 188.757 528.234 188.757 C 527.754 188.757 527.307 188.9 526.894 189.187 C 526.474 189.474 526.137 189.86 525.884 190.347 C 525.631 190.834 525.504 191.357 525.504 191.917 L 525.504 196.597 L 523.274 196.597 Z" transform="matrix(1.0304310321807861, 0, 0, 1.2672569751739502, 39.39847183227539, 77.8459243774414)" style="fill: rgb(255, 255, 255); line-height: 32.8268px; white-space: pre;"/>
      </g>
    </g>
  </g>
</svg>