<svg xmlns="http://www.w3.org/2000/svg" viewBox="0 0 388 292">
  <defs>
    <linearGradient id="cc" x1="750.2" x2="750.2" y1="-5.1" y2="501.8" gradientTransform="matrix(1.15554 0 0 1.1519 -117 1)" gradientUnits="userSpaceOnUse">
      <stop offset="0" stop-color="#542f77"/>
      <stop offset=".6" stop-color="#763494"/>
    </linearGradient>
    <linearGradient id="dc" x1="939.7" x2="939.7" y1="241.5" y2="591" gradientTransform="matrix(1.03499 0 0 1.03173 -27 -35)" gradientUnits="userSpaceOnUse">
      <stop offset="0" stop-color="#6a225d"/>
      <stop offset="1" stop-color="#952568"/>
    </linearGradient>
    <linearGradient id="ec" x1="98.7" x2="98.7" y1="-83.9" y2="484.8" gradientTransform="matrix(1 .00346 -.00265 .76638 355 11)" gradientUnits="userSpaceOnUse">
      <stop offset="0" stop-color="#4f2466"/>
      <stop offset="1" stop-color="#842261"/>
    </linearGradient>
    <linearGradient id="fc" x1="801.9" x2="801.9" y1="481.1" y2="623.7" gradientTransform="matrix(.7555 -.06992 .08712 1.64108 -173 -571)" gradientUnits="userSpaceOnUse">
      <stop offset="0" stop-color="#bc4770"/>
      <stop offset="1" stop-color="#d8486c"/>
    </linearGradient>
    <linearGradient id="gc" x1="786.9" x2="786.9" y1="287.6" y2="664.2" gradientTransform="matrix(.97273 .23192 -.05423 .22744 397 104)" gradientUnits="userSpaceOnUse" spreadMethod="pad">
      <stop offset="0" stop-color="#992b79"/>
      <stop offset="1" stop-color="#bc3780"/>
    </linearGradient>
    <linearGradient id="hc" x1="98.7" x2="98.7" y1="-83.9" y2="484.8" gradientTransform="matrix(1.14695 .0039 -.00304 .86355 -65 27)" gradientUnits="userSpaceOnUse">
      <stop offset="0" stop-color="#4f2466"/>
      <stop offset="1" stop-color="#842261"/>
    </linearGradient>
    <linearGradient id="ic" x1="801.9" x2="801.9" y1="481.1" y2="623.7" gradientTransform="matrix(.7555 -.06992 .08712 1.64108 -570 -496)" gradientUnits="userSpaceOnUse">
      <stop offset="0" stop-color="#bc4770"/>
      <stop offset="1" stop-color="#d8486c"/>
    </linearGradient>
    <linearGradient id="jc" x1="98.7" x2="98.7" y1="-83.9" y2="484.8" gradientTransform="matrix(1 .00346 -.00265 .76638 137 21)" gradientUnits="userSpaceOnUse">
      <stop offset="0" stop-color="#4f2466"/>
      <stop offset="1" stop-color="#842261"/>
    </linearGradient>
    <linearGradient id="kc" x1="801.9" x2="801.9" y1="481.1" y2="623.7" gradientTransform="matrix(.7555 -.06992 .08712 1.64108 -390 -553)" gradientUnits="userSpaceOnUse">
      <stop offset="0" stop-color="#bc4770"/>
      <stop offset="1" stop-color="#d8486c"/>
    </linearGradient>
    <linearGradient id="lc" x1="98.7" x2="98.7" y1="-83.9" y2="484.8" gradientTransform="matrix(.70242 .00346 -.00186 .76638 273 -38)" gradientUnits="userSpaceOnUse">
      <stop offset="0" stop-color="#4f2466"/>
      <stop offset="1" stop-color="#842261"/>
    </linearGradient>
    <linearGradient id="mc" x1="801.9" x2="801.9" y1="481.1" y2="623.7" gradientTransform="matrix(.7555 -.06992 .08712 1.64108 -297 -619)" gradientUnits="userSpaceOnUse">
      <stop offset="0" stop-color="#bc4770"/>
      <stop offset="1" stop-color="#d8486c"/>
    </linearGradient>
    <linearGradient id="nc" x1="98.7" x2="98.7" y1="-83.9" y2="484.8" gradientTransform="matrix(1 .00346 -.00265 .76638 786 -31)" gradientUnits="userSpaceOnUse">
      <stop offset="0" stop-color="#4f2466"/>
      <stop offset="1" stop-color="#842261"/>
    </linearGradient>
    <linearGradient id="oc" x1="801.9" x2="801.9" y1="481.1" y2="623.7" gradientTransform="matrix(.6744 .06992 .07777 -1.64108 270 1036)" gradientUnits="userSpaceOnUse">
      <stop offset="0" stop-color="#bc4770"/>
      <stop offset="1" stop-color="#d8486c"/>
    </linearGradient>
    <filter id="ac" width="1000%" height="1000%" x="-500%" y="-500%">
      <feGaussianBlur in="SourceAlpha" stdDeviation="5"/>
      <feOffset dx="2" dy="2"/>
      <feComponentTransfer result="offsetblur">
        <feFuncA slope="1.7" type="linear"/>
      </feComponentTransfer>
      <feFlood x="10" y="10" flood-color="rgba(0,0,0,0.3)"/>
      <feComposite in2="offsetblur" operator="in"/>
      <feMerge>
        <feMergeNode/>
        <feMergeNode in="SourceGraphic"/>
      </feMerge>
    </filter>
    <filter id="pc" width="1000%" height="1000%" x="-500%" y="-500%">
      <feGaussianBlur in="SourceAlpha"/>
      <feOffset dx="-1" dy="-1"/>
      <feComponentTransfer result="offsetblur">
        <feFuncA type="linear"/>
      </feComponentTransfer>
      <feFlood x="10" y="10" flood-color="rgba(0,0,0,1)"/>
      <feComposite in2="offsetblur" operator="in"/>
      <feMerge>
        <feMergeNode/>
        <feMergeNode in="SourceGraphic"/>
      </feMerge>
    </filter>
    <filter id="qc" width="1000%" height="1000%" x="-500%" y="-500%">
      <feGaussianBlur in="SourceAlpha"/>
      <feOffset dx="-2" dy="-2"/>
      <feComponentTransfer result="offsetblur">
        <feFuncA slope="0" type="linear"/>
      </feComponentTransfer>
      <feFlood x="10" y="10" flood-color="rgba(93,44,116,1)"/>
      <feComposite in2="offsetblur" operator="in"/>
      <feMerge>
        <feMergeNode/>
        <feMergeNode in="SourceGraphic"/>
      </feMerge>
    </filter>
    <clipPath id="bc">
      <path fill="#fff" d="M123-98h1013c49 0 90 41 90 90v674c0 50-41 90-90 90H123c-49 0-89-40-89-90V-8c0-49 40-90 89-90z" filter="none" vector-effect="non-scaling-stroke"/>
    </clipPath>
  </defs>
  <rect width="336" height="240" x="26" y="26" fill="#fff" filter="url(#ac)" rx="25.4" ry="25.4" vector-effect="non-scaling-stroke"/>
  <g clip-path="url(#bc)" transform="matrix(.2836 0 0 .2836 15 53)">
    <g transform="translate(-2 -43)">
      <path fill="url(#cc)" d="M-3-90l1275-1 4 928H-10l7-927z"/>
      <path fill="url(#dc)" d="M1519 226s-55-3-81 4c-39 11-76 32-116 41-43 11-95 4-140 7-66 6-131 30-198 38-42 5-94 2-136-2-49-5-92 12-139 16-26 2-55 3-81 11-20 6-32 25-50 34-42 18-90 21-131 42-22 12-157 71-180 82-16 7-174 39-184 53 0 1-76 7-98 35-9 12-55 280-55 280l1469-51 120-590z"/>
    </g>
    <g transform="translate(-10 29) scale(.84327)">
      <path fill="#5d2c74" d="M616 418l-24 83h169l-24-83h13l-26-84h13l-23-80h10l-23-84h11L675 41l-34 129h9l-22 84h11l-23 80h12l-25 84h13z" class="fil0"/>
      <path fill="#5d2c74" d="M753 395l-24 83h169l-24-83h13l-26-84h13l-23-80h10l-23-84h11L812 18l-34 129h9l-22 84h11l-23 80h12l-25 84h13z" class="fil0"/>
      <path fill="#5d2c74" d="M876 512l-24 84h169l-24-84h13l-26-83h13l-23-81h10l-23-83h10l-36-130-34 130h9l-22 83h11l-23 81h12l-25 83h13zM1234 466l-24 83h169l-24-83h13l-26-84h13l-23-80h10l-23-84h11l-37-129-34 129h9l-21 84h10l-23 80h13l-26 84h13z" class="fil0"/>
      <path fill="#5d2c74" d="M1362 397l-23 83h168l-23-83h13l-26-83h13l-24-81h11l-23-83h10l-36-130-34 130h8l-21 83h11l-24 81h13l-26 83h13zM344 483l-24 84h169l-24-84h13l-26-83h13l-23-80h10l-23-84h11l-37-130-34 130h9l-22 84h11l-23 80h12l-25 83h13z" class="fil0"/>
      <path fill="#5d2c74" d="M177 484l-23 83h168l-23-83h13l-26-84h13l-24-80h11l-23-84h10l-36-130-34 130h8l-21 84h11l-24 80h13l-25 84h12z" class="fil0"/>
      <path fill="#5d2c74" d="M69 515l-23 83h168l-23-83h12l-25-84h13l-24-80h11l-24-84h11l-36-130-34 130h8l-21 84h10l-23 80h13l-26 84h13z" class="fil0"/>
    </g>
    <g transform="translate(31 56) scale(1.06962)">
      <g>
        <path fill="url(#ec)" d="M411-206l28 16 19 135 82-108 23 3L462 2l41 418-71 4-21-630z"/>
        <path fill="url(#fc)" d="M471 124l20 185h-10l-10-185z"/>
      </g>
      <path fill="url(#gc)" d="M-19 432s126-6 186-23c73-23 138-72 213-87 74-15 150-13 225-26 109-18 221-3 329 12 31 4 60 14 91 18 34 5 70 0 104 2 54 4 111 16 164 27 55 13 109 31 164 45 21 6 61 22 61 22l-39 376-1515 70c7-317 17-436 17-436z"/>
      <g>
        <path fill="url(#hc)" d="M8-183l28 9 69 662-81 5L8-183z"/>
        <path fill="url(#ic)" d="M60 69l44 418-26 2zm-8 291l14 130-17 2z"/>
        <g transform="translate(-824 74)">
          <g>
            <path fill="#711e54" d="M915 425c-5 2-22 2-29 2l8 1a1345 1345 0 00-59-2s7-21 26-21l14 3h1v-1c3-14 19-26 34-26 6 0 11 1 16 5 6 5-10 15-11 39z"/>
            <path fill="#8d266e" d="M939 425l-29 2h-7l8-23 7-3 1-2h-2l-5 3 1-9-1-1-1 1s-2 13-8 27l-4-4h-2v1l5 6-2 4h-6a1345 1345 0 00-30 0l-10-11h-1l-1 1 3 4h-4l-1 1 1 1h6l4 4a570 570 0 01-26-1s7-22 26-22c4 0 9 1 13 3h2c3-14 19-27 34-27 6 0 11 2 16 5 4 3 8 9 11 18l1 6c1 2 7-5 14-3 20 4 19 18 19 18l-32 1z"/>
          </g>
        </g>
      </g>
      <g>
        <path fill="url(#jc)" d="M204-200l22 3 7 148 50-136 19 10L241 1l44 429-71 4-11-454-93-152 31-5 65 106-2-129z"/>
        <path fill="url(#kc)" d="M251 119l33 311-17 1-16-312zm3 144l8 169h-10l2-169z"/>
        <g transform="matrix(.98852 -.05467 .06887 .69936 -659 187)">
          <g>
            <path fill="#711e54" d="M939 426c-5 2-23 2-29 2a3398 3398 0 01-75-2s7-21 26-21l14 3h1v-1c3-14 19-26 34-26 6 0 11 1 16 5 6 5 13 16 13 40z"/>
            <path fill="#8d266e" d="M939 425c-5 2-23 2-29 2h-7l8-23 7-3 1-2h-2l-5 3 1-9-1-1-1 1s-2 13-8 27l-4-4h-2v1l5 6-2 4h-6a1345 1345 0 00-30 0l-10-11h-1l-1 1 3 4h-4l-1 1 1 1h6l4 4a570 570 0 01-26-1s7-22 26-22c4 0 9 1 13 3h2c3-14 19-27 34-27 6 0 11 2 16 5 6 5 13 16 13 40z"/>
          </g>
        </g>
      </g>
      <g>
        <path fill="url(#lc)" d="M310-166l26-15 41 552-50 4-17-541z"/>
        <path fill="url(#mc)" d="M353 55l24 316h-12L353 55zm8 293l1 24h-4l3-24z"/>
        <g transform="matrix(-.66106 .0727 -.00713 .63284 945 49)">
          <g>
            <path fill="#711e54" d="M939 426c-5 2-23 2-29 2a3398 3398 0 01-75-2s7-21 26-21l14 3h1v-1c3-14 19-26 34-26 6 0 11 1 16 5 6 5 13 16 13 40z"/>
            <path fill="#8d266e" d="M939 425c-5 2-23 2-29 2h-7l8-23 7-3 1-2h-2l-5 3 1-9-1-1-1 1s-2 13-8 27l-4-4h-2v1l5 6-2 4h-6a1345 1345 0 00-30 0l-10-11h-1l-1 1 3 4h-4l-1 1 1 1h6l4 4a570 570 0 01-26-1s7-22 26-22c4 0 9 1 13 3h2c3-14 19-27 34-27 6 0 11 2 16 5 6 5 13 16 13 40z"/>
          </g>
        </g>
      </g>
      <g>
        <path fill="url(#nc)" d="M845-197l27-6 20 174 71-163 17 6-81 218 35 346-70 4-9-373-119-204 33 14 86 128-10-144z" transform="rotate(3 865 124)"/>
        <path fill="url(#oc)" d="M866 381l12-334h-12v334zm-7-236l1-97h-10l9 97z" transform="rotate(180 864 214)"/>
        <g>
          <path fill="#711e54" d="M833 397a3713 3713 0 00108 1c1 0-6-21-26-21l-14 3h-1l-1-1c-3-14-20-27-36-27-6 0-11 2-16 5-6 5-14 16-14 40z"/>
          <path fill="#8d266e" d="M833 397a136 136 0 0038 2c-4-8-7-17-8-23l-8-4v-1h2l5 2-2-8 1-1h2c0 1 2 14 8 28l4-4h2v1l-5 5 2 5h6a1469 1469 0 0132 0l10-11h2v1l-3 4h4l1 1-1 1h-6l-4 4a623 623 0 0027-2s-7-21-27-21l-14 3h-1l-1-1c-3-14-20-26-36-26-6 0-11 1-16 5-6 5-14 16-14 40z"/>
        </g>
      </g>
    </g>
    <g filter="none" transform="translate(-1209 -1907) scale(2.44968)">
      <ellipse cx="899.8" cy="979.3" fill="#fff" rx="27.5" ry="20.4"/>
      <path fill="#ef9c5c" d="M862 971c-1-22 8-34 8-34 5 19 12 19 12 19s-4-7-4-19c0-13 13-37 28-38-3 5-4 9-4 15 0 22 31 29 31 58 0 26-22 30-37 30s-34-9-34-31zm13 6c0 11 13 17 23 17 11 0 12-2 12-2 4 2 10 1 10 1s-4-2-3-5c0-1 4-3 4-11 1-11-12-17-23-17-10 0-23 6-23 17z"/>
      <g filter="url(#pc)">
        <g filter="url(#qc)" transform="translate(-259 961)">
          <path fill="#fff" d="M907-25l2 5-3 9-5 7c-3 3-6 4-9 4l-3-2-3-2 2-3 4-4c4-4 7-7 7-9v-1l-4-2-8 3-11 10-11 15c-3 6-5 12-5 17v6c1 2 2 3 5 4 4-1 10-2 15-5l23-12v5c1 2-4 3-4 4l2-1c-8 10-24 20-33 20l-4-1-4-2-3-2c-2 0-5-1-7-3-3-4-4-9-4-15 1-7 5-17 12-30 11-14 22-22 34-25h2l6 3 3 4 2 2 2 1z"/>
          <path fill="#fff" d="M937 7v1l-1 1-7 12-6 11 2 1 2-2 3-2-8 8h-1l-2-2-1-1h-1v-2-3-2l-3 2-3 4-6 2h-2l-1-1-1-1-4-5 1-4c3-9 9-16 18-21 2-1 4-2 6-1 3 0 5 1 6 4a183 183 0 001 2l2-1 1-1 5 1zm-11 3l-2-2c-5 2-10 6-16 13l-4 7v1h2l12-9c6-4 8-8 8-10z"/>
          <path fill="#fff" d="M989 11a222 222 0 01-14 22l2 1 3-1 3-2-5 5-4 1h-1a385 385 0 01-4-7v-2l5-8-1-1-2 2-2 1-6 8-8 6-1 1-2-1-1-2-2-1h-1v-2l2-5a173 173 0 003-9v1a769 769 0 01-20 17l-2-2-2-3 6-12a366 366 0 007-13h-2l-2 1-2 1 1-1c3-3 5-4 7-4l1 1 3 4-2 6-3 4 1 1 2-1 7-7 9-6h1l2 2 2 2v2l-3 7-5 6 1 1v-1c8-8 15-14 21-17a6 6 0 015-1l1 2c2 1 2 2 2 3v1z"/>
          <path fill="#fff" d="M1017 10v3c0 5-2 10-6 16l-9 9h-2l-4-1-2-2-1-2-1-1v1l-11 22h-1l-2-2-2-3 5-16a1208 1208 0 0112-27l-4 3 2-4 4-2c2 0 3 1 4 3v2l-1 6v1h1l5-6c2-3 5-4 7-4h2l1 2 2 1 1 1zm-8 5l-1-1c-3 2-7 5-11 11l-1 3v1l2 3c6-4 9-10 11-17z"/>
          <path fill="#fff" d="M1046-13v6l-2 5v-3-2l-1-3-8 14 1 1h7c-1 4-3 6-7 6l-3 1a499 499 0 00-13 25l-3-2-2-2 4-13 3-7-4-2-2-2c0-3 2-5 4-6h-1l1 1 3 1h2l7-12 9-9h1l3 1 1 2zM1063-14l-2 6-4 3-2-1a4 4 0 01-2-5l3-4 3-1 4 2zm-8 20l-6 12-7 11 2 1 2-1 3-1c-1 2-4 4-9 6l-1-1-1-2-1-1-1-3 3-9a2426 2426 0 008-14l-4 3c2-4 5-6 8-6l1 1 2 1 1 3z"/>
          <path fill="#fff" d="M1082 8a425 425 0 00-7 14l-1-1-1 1h-1l-1-1v-2-2l1-2-5 4a322 322 0 01-11 15l-2-2-2-2c-2 0-2-1-2-2l5-12c3-6 5-10 5-13h-3a38 38 0 00-3 3V5l2-2 3-2 4-1h1l1 1 2 2v3l-1 4-1 3v1a1007 1007 0 0113-13l1 1 2 2 1 2v2zM1107 7c0 5-2 10-8 13-2 1-4 2-7 1l-2-1-1-2-1-1-3 4a21 21 0 00-2 6l1 2h5a109 109 0 017-4l3-1h1v3l-4 4-5 3h-2l-1 1-3-1a120 120 0 01-4-3h-1c-2-1-3-4-3-8l1-6 3-5c5-6 11-10 18-11 2-1 4 0 6 3l2 3zm-6 2l1-1-1-1c-3 0-7 3-11 7v2h4c3-1 5-4 7-7z"/>
        </g>
        <path fill="#fff" d="M735 1027l-3-1-1-2-1-3 1-3 1-2 2-1h2l1 1-1 2-1-1-2 1-1 3 1 3 2 1h1l1-1v2l-1 1h-1zm8 0l-2-1-2-2v-3-3l2-2 2-1h2l1 1v1-2h2v12h-2v-2l-1 1-2 1zm1-2l1-1 1-3v-2l-1-1-1-1-2 1-1 3 1 3 2 1zm7 2v-12h2v2l1-1 2-1c2 0 3 1 3 2l1-1 2-1 2 1 1 2v9h-2v-6-3l-1-1-2 1-1 3v6h-2v-6-2-1l-1-1-2 1-1 1v8h-2zm17 6v-18h2v2l3-2 3 2 1 4v3l-2 2-2 1-2-1-1-1v8h-2zm5-8l1-1 1-3-1-3-1-1-2 1-1 1v4l1 1 2 1zm7 2v-10h-1v-2h1v-2l1-4 2-1 2 1v2h-1c-1 0-2 0-2 2v2h2v2h-2v10h-2zm7 0v-12h2v12h-2zm1-14h-1l-1-2 1-1a1 1 0 012 0v3h-1zm3 14v-12h3v1l2-1h1v3h-3v9h-3zm11 0l-2-1-2-2v-3-3l2-2 2-1 3 1 1 5v1h-6l1 2 2 1h1l1-1 1 2-2 1h-2zm-2-7h4v-2l-2-1c-1 0-2 1-2 3zm15 13v-8l-1 1-2 1-2-1-1-2-1-3 1-3 1-2 2-1c2 0 3 1 3 2v-2h2v18h-2zm-2-8l1-1 1-3v-2l-1-1-1-1-2 1-1 3 1 3 2 1zm10 2l-2-1-1-4v-7h2v8l1 1 1 1 1-1 1-1v-8h2v12h-2v-2l-1 2h-2zm12 0l-3-1-1-2-1-3 1-3 1-2 3-1 3 1 1 5v1h-7l1 2 2 1h1l1-1 1 2-1 1h-2zm-3-7h5l-1-2-1-1c-2 0-3 1-3 3zm12 7h-2l-2-1 1-2 3 1 1-1v-1l-1-1h-1l-2-1v-3l1-2 2-1h2l1 1-1 2-1-1h-1l-1 1v1l1 1h1l2 2v2l-1 2-2 1zm6 0v-9h-1v-3h1v-4l2-1v5h2v3h-2v9h-2zm6 0v-12h2v12h-2zm1-14h-1v-2-1h2v3h-1zm8 14l-2-1-2-2v-3-3l2-2 2-1 3 1 1 2 1 3-1 3-2 2-2 1zm0-2l2-1 1-3-1-3-2-1-2 1v6l2 1zm7 2v-12h2v2l1-1 2-1 2 1 1 2v9h-2v-6-3l-2-1-1 1-1 1v8h-2zm14 0h-2l-1-1v-2l3 1 1-1v-1l-1-1h-1l-2-1v-3l1-2 2-1h2l1 1-1 2-1-1h-1l-1 1v1l1 1h1l2 2v2l-1 2-2 1zm7 0l-1-1-1-1 1-1 1-1 1 1v2l-1 1zm8 0l-3-1-1-2-1-3 1-3 1-2 3-1h1l1 1-1 2-1-1-2 1-1 3 1 3 2 1h1l1-1v2l-1 1h-1zm8 0l-2-1-1-2-1-3 1-3 1-2 2-1 3 1 1 2 1 3-1 3-1 2-3 1zm1-2l1-1 1-3-1-3-2-1-1 1-1 3 1 3 2 1zm6 2v-12h2v2l2-1 1-1c2 0 3 1 3 2l1-1 2-1 2 1 1 2v9h-2v-6-3l-1-1-2 1-1 3v6h-2v-6-2-1l-1-1-1 1-1 1-1 2v6h-2z"/>
      </g>
    </g>
  </g>
</svg>
