<?xml version="1.0" encoding="utf-8"?>
<svg viewBox="0 0 388 292" xmlns="http://www.w3.org/2000/svg">
  <defs>
    <filter id="drop-shadow-filter-card-back" x="-500%" y="-500%" width="1000%" height="1000%">
      <feGaussianBlur in="SourceAlpha" stdDeviation="5"/>
      <feOffset dx="2" dy="2"/>
      <feComponentTransfer result="offsetblur">
        <feFuncA id="spread-ctrl" type="linear" slope="1.7"/>
      </feComponentTransfer>
      <feFlood flood-color="rgba(0,0,0,0.3)" x="10" y="10"/>
      <feComposite in2="offsetblur" operator="in"/>
      <feMerge>
        <feMergeNode/>
        <feMergeNode in="SourceGraphic"/>
      </feMerge>
    </filter>
    <clipPath id="clip-card-back">
      <path d="M 123.088 -97.52 L 1136.078 -97.52 C 1185.465 -97.52 1225.501 -57.484 1225.501 -8.097 L 1225.501 666.384 C 1225.501 715.771 1185.465 755.807 1136.078 755.807 L 123.088 755.807 C 73.701 755.807 33.665 715.771 33.665 666.384 L 33.665 -8.097 C 33.665 -57.484 73.701 -97.52 123.088 -97.52 Z" style="fill: rgb(255, 255, 255); vector-effect: non-scaling-stroke; filter: none;">
        <title>Card Background</title>
      </path>
    </clipPath>
    <linearGradient gradientUnits="userSpaceOnUse" x1="750.246" y1="-5.084" x2="750.246" y2="501.839" id="gcb-1" gradientTransform="matrix(1.155536, 0, 0, 1.1519, -116.690763, 0.771651)">
      <stop offset="0" style="stop-color: rgb(84, 47, 119);"/>
      <stop offset="0.564" style="stop-color: rgb(118, 52, 148);"/>
    </linearGradient>
    <linearGradient gradientUnits="userSpaceOnUse" x1="939.743" y1="241.475" x2="939.743" y2="590.954" id="gcb-2" gradientTransform="matrix(1.034989, 0, 0, 1.031732, -26.590938, -34.761127)">
      <stop offset="0" style="stop-color: rgb(106, 34, 93);"/>
      <stop offset="1" style="stop-color: rgb(149, 37, 104);"/>
    </linearGradient>
    <linearGradient gradientUnits="userSpaceOnUse" x1="98.702" y1="-83.904" x2="98.702" y2="484.834" id="gcb-4" gradientTransform="matrix(0.999994, 0.00346, -0.002653, 0.766381, 354.614716, 11.478035)">
      <stop offset="0" style="stop-color: rgb(79, 36, 102);"/>
      <stop offset="1" style="stop-color: rgb(132, 34, 97);"/>
    </linearGradient>
    <linearGradient gradientUnits="userSpaceOnUse" x1="801.911" y1="481.123" x2="801.911" y2="623.683" id="gcb-13" gradientTransform="matrix(0.755496, -0.069924, 0.087119, 1.641077, -172.697266, -571.378784)">
      <stop offset="0" style="stop-color: rgb(188, 71, 112);"/>
      <stop offset="1" style="stop-color: rgb(216, 72, 108);"/>
    </linearGradient>
    <linearGradient gradientUnits="userSpaceOnUse" x1="786.903" y1="287.649" x2="786.903" y2="664.211" id="gcb-3" gradientTransform="matrix(0.972734, 0.231923, -0.054227, 0.22744, 397.463501, 103.999191)" spreadMethod="pad">
      <stop offset="0" style="stop-color: rgb(153, 43, 121);"/>
      <stop offset="1" style="stop-color: rgb(188, 55, 128);"/>
    </linearGradient>
    <linearGradient gradientUnits="userSpaceOnUse" x1="98.702" y1="-83.904" x2="98.702" y2="484.834" id="gcb-10" gradientTransform="matrix(1.146949, 0.003899, -0.003044, 0.863547, -64.990952, 27.458071)">
      <stop offset="0" style="stop-color: rgb(79, 36, 102);"/>
      <stop offset="1" style="stop-color: rgb(132, 34, 97);"/>
    </linearGradient>
    <linearGradient gradientUnits="userSpaceOnUse" x1="801.911" y1="481.123" x2="801.911" y2="623.683" id="gcb-0" gradientTransform="matrix(0.755496, -0.069924, 0.087119, 1.641077, -569.731079, -496.208282)">
      <stop offset="0" style="stop-color: rgb(188, 71, 112);"/>
      <stop offset="1" style="stop-color: rgb(216, 72, 108);"/>
    </linearGradient>
    <linearGradient gradientUnits="userSpaceOnUse" x1="98.702" y1="-83.904" x2="98.702" y2="484.834" id="gcb-7" gradientTransform="matrix(0.999994, 0.00346, -0.002653, 0.766381, 136.580002, 21.385527)">
      <stop offset="0" style="stop-color: rgb(79, 36, 102);"/>
      <stop offset="1" style="stop-color: rgb(132, 34, 97);"/>
    </linearGradient>
    <linearGradient gradientUnits="userSpaceOnUse" x1="801.911" y1="481.123" x2="801.911" y2="623.683" id="gcb-12" gradientTransform="matrix(0.755496, -0.069924, 0.087119, 1.641077, -389.982605, -553.20166)">
      <stop offset="0" style="stop-color: rgb(188, 71, 112);"/>
      <stop offset="1" style="stop-color: rgb(216, 72, 108);"/>
    </linearGradient>
    <linearGradient gradientUnits="userSpaceOnUse" x1="98.702" y1="-83.904" x2="98.702" y2="484.834" id="gcb-6" gradientTransform="matrix(0.702424, 0.00346, -0.001864, 0.766381, 272.618378, -37.859371)">
      <stop offset="0" style="stop-color: rgb(79, 36, 102);"/>
      <stop offset="1" style="stop-color: rgb(132, 34, 97);"/>
    </linearGradient>
    <linearGradient gradientUnits="userSpaceOnUse" x1="801.911" y1="481.123" x2="801.911" y2="623.683" id="gcb-11" gradientTransform="matrix(0.755496, -0.069924, 0.087119, 1.641077, -297.491272, -618.774658)">
      <stop offset="0" style="stop-color: rgb(188, 71, 112);"/>
      <stop offset="1" style="stop-color: rgb(216, 72, 108);"/>
    </linearGradient>
    <linearGradient gradientUnits="userSpaceOnUse" x1="98.702" y1="-83.904" x2="98.702" y2="484.834" id="gcb-8" gradientTransform="matrix(0.999995, 0.00346, -0.002653, 0.766382, 786.111634, -31.272278)">
      <stop offset="0" style="stop-color: rgb(79, 36, 102);"/>
      <stop offset="1" style="stop-color: rgb(132, 34, 97);"/>
    </linearGradient>
    <linearGradient gradientUnits="userSpaceOnUse" x1="801.911" y1="481.123" x2="801.911" y2="623.683" id="gcb-14" gradientTransform="matrix(0.674403, 0.069924, 0.077768, -1.641077, 270.396912, 1035.659485)">
      <stop offset="0" style="stop-color: rgb(188, 71, 112);"/>
      <stop offset="1" style="stop-color: rgb(216, 72, 108);"/>
    </linearGradient>
    <linearGradient gradientUnits="userSpaceOnUse" x1="98.702" y1="-83.904" x2="98.702" y2="484.834" id="gcb-9" gradientTransform="matrix(1.000022, 0.00346, -0.00222, 0.766362, 1244.726799, 0.537847)">
      <stop offset="0" style="stop-color: rgb(79, 36, 102);"/>
      <stop offset="1" style="stop-color: rgb(132, 34, 97);"/>
    </linearGradient>
    <linearGradient gradientUnits="userSpaceOnUse" x1="801.911" y1="481.123" x2="801.911" y2="623.683" id="gcb-15" gradientTransform="matrix(0.755496, -0.069924, 0.087119, 1.641077, 666.431824, -473.785004)">
      <stop offset="0" style="stop-color: rgb(188, 71, 112);"/>
      <stop offset="1" style="stop-color: rgb(216, 72, 108);"/>
    </linearGradient>
    <filter id="filter-1" x="-500%" y="-500%" width="1000%" height="1000%">
      <feGaussianBlur in="SourceAlpha" stdDeviation="0"/>
      <feOffset dx="-1" dy="-1"/>
      <feComponentTransfer result="offsetblur">
        <feFuncA id="feFuncA-1" type="linear" slope="1"/>
      </feComponentTransfer>
      <feFlood flood-color="rgba(0,0,0,1)" x="10" y="10"/>
      <feComposite in2="offsetblur" operator="in"/>
      <feMerge>
        <feMergeNode/>
        <feMergeNode in="SourceGraphic"/>
      </feMerge>
    </filter>
    <filter id="filter-2" x="-500%" y="-500%" width="1000%" height="1000%">
      <feGaussianBlur in="SourceAlpha" stdDeviation="0"/>
      <feOffset dx="-2" dy="-2"/>
      <feComponentTransfer result="offsetblur">
        <feFuncA id="feFuncA-1" type="linear" slope="0"/>
      </feComponentTransfer>
      <feFlood flood-color="rgba(93,44,116,1)" x="10" y="10"/>
      <feComposite in2="offsetblur" operator="in"/>
      <feMerge>
        <feMergeNode/>
        <feMergeNode in="SourceGraphic"/>
      </feMerge>
    </filter>
  </defs>
  <rect x="26" y="26" width="336" height="240" style="fill: rgb(255, 255, 255); vector-effect: non-scaling-stroke; filter: url(#drop-shadow-filter-card-back);" rx="25.36" ry="25.36">
    <title>Card Background</title>
  </rect>
  <g style="clip-path: url(#clip-card-back);" transform="matrix(0.283596, 0, 0, 0.283596, 15.452877, 52.656162)">
    <title>Back</title>
    <g style="" transform="matrix(1, 0, 0, 1, -1.880774, -42.781258)">
      <title>Background</title>
      <path d="M -2.837 -90.398 L 1272.32 -90.926 L 1276.3 836.906 L -9.766 837.279 L -2.837 -90.398 Z" style="fill: url(#gcb-1);">
        <title>Sky</title>
      </path>
      <path d="M 1518.9 226.057 C 1518.9 226.057 1464.251 222.53 1438.002 229.763 C 1398.63 240.612 1361.634 261.521 1322.302 271.314 C 1278.595 282.196 1227.147 274.655 1182.309 278.38 C 1116.08 283.883 1050.954 307.981 984.491 315.985 C 941.92 321.112 890.105 317.517 847.521 313.68 C 799.201 309.327 756.055 325.768 709.273 329.743 C 683.088 331.968 653.534 332.549 628.443 340.511 C 608.413 346.867 596.459 366.371 577.652 374.604 C 535.975 392.848 487.585 395.793 447.362 417.405 C 425.212 429.307 290.363 488.326 266.96 498.571 C 250.957 505.576 92.617 537.774 83.348 552.084 C 82.796 552.938 7.272 558.609 -14.702 586.697 C -24.278 598.938 -70.239 866.893 -70.239 866.893 L 1399.445 815.609 L 1518.9 226.057 Z" style="fill: url(#gcb-2);">
        <title>Hill</title>
      </path>
    </g>
    <g style="" transform="matrix(0.843271, 0, 0, 0.843271, -10.474041, 28.69026)">
      <title>Pine Trees</title>
      <path d="M 615.698 417.682 L 592.245 501.132 L 760.678 501.132 L 737.225 417.682 L 750.017 417.682 L 724.432 334.231 L 737.225 334.231 L 713.772 253.87 L 724.432 253.87 L 700.98 170.42 L 711.641 170.42 L 675.395 40.607 L 641.283 170.42 L 649.81 170.42 L 628.489 253.87 L 639.151 253.87 L 615.698 334.231 L 628.489 334.231 L 602.905 417.682 L 615.698 417.682 Z" class="fil0" style="fill: rgb(93, 44, 116);"/>
      <path d="M 752.607 394.581 L 729.154 478.031 L 897.587 478.031 L 874.134 394.581 L 886.926 394.581 L 861.341 311.13 L 874.134 311.13 L 850.681 230.769 L 861.341 230.769 L 837.889 147.319 L 848.55 147.319 L 812.304 17.506 L 778.192 147.319 L 786.719 147.319 L 765.398 230.769 L 776.06 230.769 L 752.607 311.13 L 765.398 311.13 L 739.814 394.581 L 752.607 394.581 Z" class="fil0" style="fill: rgb(93, 44, 116);"/>
      <path d="M 875.537 512.08 L 852.084 595.53 L 1020.517 595.53 L 997.064 512.08 L 1009.856 512.08 L 984.271 428.629 L 997.064 428.629 L 973.611 348.268 L 984.271 348.268 L 960.819 264.818 L 971.48 264.818 L 935.234 135.005 L 901.122 264.818 L 909.649 264.818 L 888.328 348.268 L 898.99 348.268 L 875.537 428.629 L 888.328 428.629 L 862.744 512.08 L 875.537 512.08 Z" class="fil0" style="fill: rgb(93, 44, 116);"/>
      <path d="M 1233.746 465.605 L 1210.293 549.055 L 1378.726 549.055 L 1355.273 465.605 L 1368.065 465.605 L 1342.48 382.154 L 1355.273 382.154 L 1331.82 301.793 L 1342.48 301.793 L 1319.028 218.343 L 1329.689 218.343 L 1293.443 88.53 L 1259.331 218.343 L 1267.858 218.343 L 1246.537 301.793 L 1257.199 301.793 L 1233.746 382.154 L 1246.537 382.154 L 1220.953 465.605 L 1233.746 465.605 Z" class="fil0" style="fill: rgb(93, 44, 116);"/>
      <path d="M 1362.229 396.965 L 1338.776 480.415 L 1507.209 480.415 L 1483.756 396.965 L 1496.548 396.965 L 1470.963 313.514 L 1483.756 313.514 L 1460.303 233.153 L 1470.963 233.153 L 1447.511 149.703 L 1458.172 149.703 L 1421.926 19.89 L 1387.814 149.703 L 1396.341 149.703 L 1375.02 233.153 L 1385.682 233.153 L 1362.229 313.514 L 1375.02 313.514 L 1349.436 396.965 L 1362.229 396.965 Z" class="fil0" style="fill: rgb(93, 44, 116);"/>
      <path d="M 343.57 483.358 L 320.117 566.808 L 488.55 566.808 L 465.097 483.358 L 477.889 483.358 L 452.304 399.907 L 465.097 399.907 L 441.644 319.546 L 452.304 319.546 L 428.852 236.096 L 439.513 236.096 L 403.267 106.283 L 369.155 236.096 L 377.682 236.096 L 356.361 319.546 L 367.023 319.546 L 343.57 399.907 L 356.361 399.907 L 330.777 483.358 L 343.57 483.358 Z" class="fil0" style="fill: rgb(93, 44, 116);"/>
      <path d="M 177.311 483.57 L 153.858 567.02 L 322.291 567.02 L 298.838 483.57 L 311.63 483.57 L 286.045 400.119 L 298.838 400.119 L 275.385 319.758 L 286.045 319.758 L 262.593 236.308 L 273.254 236.308 L 237.008 106.495 L 202.896 236.308 L 211.423 236.308 L 190.102 319.758 L 200.764 319.758 L 177.311 400.119 L 190.102 400.119 L 164.518 483.57 L 177.311 483.57 Z" class="fil0" style="fill: rgb(93, 44, 116);"/>
      <path d="M 69.013 514.546 L 45.56 597.996 L 213.993 597.996 L 190.54 514.546 L 203.332 514.546 L 177.747 431.095 L 190.54 431.095 L 167.087 350.734 L 177.747 350.734 L 154.295 267.284 L 164.956 267.284 L 128.71 137.471 L 94.598 267.284 L 103.125 267.284 L 81.804 350.734 L 92.466 350.734 L 69.013 431.095 L 81.804 431.095 L 56.22 514.546 L 69.013 514.546 Z" class="fil0" style="fill: rgb(93, 44, 116);"/>
    </g>
    <g style="" transform="matrix(1.069618, 0, 0, 1.069618, 31.4335, 55.692932)">
      <title>Campfire Scene</title>
      <g style="">
        <title>Tree 4</title>
        <path d="M 411.489 -206.159 L 439.031 -190.481 L 458.073 -55.184 L 539.833 -163.417 L 562.953 -160.227 L 462.043 1.848 L 502.893 420.285 L 432.126 424.362 L 411.489 -206.159 Z" style="fill: url(#gcb-4);">
          <title>Tree 4 Trunk</title>
        </path>
        <path d="M 470.972 123.583 L 490.887 308.55 L 481.42 309.151 L 470.972 123.583 Z" style="fill: url(#gcb-13);">
          <title>Tree 4 Light</title>
        </path>
      </g>
      <path d="M -18.541 432.399 C -18.541 432.399 107.1 426.348 166.503 408.558 C 240.263 386.468 305.309 336.926 380.352 321.781 C 454.372 306.843 530.307 308.635 604.908 296.152 C 714.259 277.853 825.895 293.027 934.326 307.811 C 964.589 311.938 994.245 322.373 1024.663 326.32 C 1059.368 330.823 1094.585 325.758 1129.416 328.244 C 1183.057 332.073 1239.913 343.79 1292.554 355.483 C 1347.938 367.786 1401.864 385.666 1456.931 400.181 C 1478.24 405.798 1517.85 421.647 1517.85 421.647 L 1478.9 798.171 L -36.215 867.638 C -29.062 550.77 -18.541 432.399 -18.541 432.399 Z" style="fill: url(#gcb-3);">
        <title>Ground</title>
      </path>
      <g style="">
        <title>Tree 1</title>
        <path d="M 8.143 -182.786 L 36.108 -174.47 L 105.077 488.097 L 23.912 492.691 L 8.143 -182.786 Z" style="fill: url(#gcb-10);">
          <title>Tree Trunk</title>
        </path>
        <path d="M 60.384 69.317 L 104.3 487.09 L 78.469 489.251 Z M 52.122 360.437 L 66.354 490.259 L 49.266 491.516 Z" style="fill: url(#gcb-0);">
          <title>Tree Light</title>
        </path>
        <g transform="matrix(1, 0, 0, 1, -824.410217, 73.821297)" style="">
          <title>Bush</title>
          <g transform="matrix(1.281314, 0, 0, 0.996208, 815.767578, 325.461914)" style="">
            <path d="M 72.002 71.025 C 68.146 73.23 54.328 73.23 49.014 73.23 C 47.202 73.23 56.886 73.526 55.377 73.505 C 51.437 73.45 47.715 73.4 44.225 73.4 C 42.099 73.4 40.273 73.42 38.646 73.459 C 36.248 73.518 25.746 73.698 24.11 73.698 C 11.653 73.698 9.741 72.634 9.527 72.146 C 9.578 71.931 14.756 50.671 29.519 50.671 C 32.785 50.671 36.346 51.705 40.102 53.743 C 40.375 53.89 40.704 53.897 40.979 53.759 C 41.257 53.621 41.45 53.357 41.497 53.051 C 43.68 38.805 56.122 26.308 68.121 26.308 C 72.651 26.308 76.661 28.042 80.039 31.461 C 84.934 36.414 72.215 46.978 72.002 71.025 Z" style="fill: rgb(113, 30, 84);" transform="matrix(1, 0, 0, 1, 5.743083, 29.185156)"/>
            <path d="M 96.209 99.995 C 96.209 99.995 78.535 102.2 73.221 102.2 C 71.409 102.2 69.557 102.187 67.698 102.169 C 70.806 93.911 72.91 85.617 74.25 79.263 L 79.921 75.533 C 80.36 75.244 80.482 74.654 80.192 74.215 C 79.903 73.775 79.312 73.654 78.874 73.943 L 74.784 76.633 C 75.804 71.422 76.227 68.037 76.237 67.96 C 76.3 67.438 75.929 66.963 75.407 66.9 C 74.882 66.833 74.41 67.208 74.346 67.73 C 74.327 67.88 72.702 80.843 68.075 95.285 L 64.871 91.122 C 64.551 90.707 63.954 90.627 63.535 90.948 C 63.119 91.269 63.041 91.867 63.361 92.284 L 67.355 97.473 C 66.829 99.026 66.267 100.588 65.669 102.149 C 64.139 102.13 62.608 102.111 61.099 102.09 C 57.159 102.035 53.437 101.985 49.947 101.985 C 47.821 101.985 45.995 102.005 44.368 102.044 C 41.97 102.103 39.611 102.157 37.334 102.2 C 34.911 99.055 30.178 91.289 30.129 91.208 C 29.856 90.76 29.27 90.617 28.821 90.89 C 28.372 91.163 28.229 91.749 28.502 92.199 C 28.594 92.349 29.604 94.008 30.912 96.074 L 27.652 96.074 C 27.126 96.074 26.7 96.501 26.7 97.026 C 26.7 97.551 27.126 97.978 27.652 97.978 L 32.13 97.978 C 33.096 99.473 34.114 101.005 34.995 102.24 C 33.198 102.267 31.468 102.283 29.832 102.283 C 17.375 102.283 15.463 101.219 15.249 100.731 C 15.3 100.516 20.478 79.256 35.241 79.256 C 38.507 79.256 42.068 80.29 45.824 82.328 C 46.097 82.475 46.426 82.482 46.701 82.344 C 46.979 82.206 47.172 81.942 47.219 81.636 C 49.402 67.39 61.844 54.893 73.843 54.893 C 78.373 54.893 82.383 56.627 85.761 60.046 C 88.846 63.168 92.277 68.671 94.339 78.334 C 94.477 78.983 95.423 82.78 95.548 83.617 C 95.938 86.221 100.812 78.745 106.361 80.362 C 122.25 84.993 120.772 99.02 120.772 99.02 L 96.209 99.995 Z" style="fill: rgb(141, 38, 110);"/>
          </g>
        </g>
      </g>
      <g style="">
        <title>Tree 2</title>
        <path d="M 204.45 -200.354 L 226.341 -197.367 L 233.395 -48.75 L 283.492 -185.322 L 301.505 -175.452 L 240.971 0.889 L 284.858 430.192 L 214.091 434.269 L 203.034 -19.627 L 109.864 -171.63 L 140.998 -177.096 L 205.904 -70.883 L 204.45 -200.354 Z" style="fill: url(#gcb-7);">
          <title>Tree Trunk</title>
        </path>
        <path d="M 250.785 119.03 L 284.038 430.082 L 267.221 430.731 L 250.785 119.03 Z M 253.597 263.15 L 262.478 431.52 L 252.119 432.18 L 253.597 263.15 Z" style="fill: url(#gcb-12);">
          <title>Tree Light</title>
        </path>
        <g transform="matrix(0.988519, -0.054668, 0.068869, 0.699363, -658.529724, 187.428101)" style="">
          <title>Bush</title>
          <g transform="matrix(1.281314, 0, 0, 0.996208, 815.767578, 325.461914)" style="">
            <path d="M 90.487 71.41 C 86.631 73.615 72.813 73.615 67.499 73.615 C 65.687 73.615 56.886 73.526 55.377 73.505 C 51.437 73.45 47.715 73.4 44.225 73.4 C 42.099 73.4 40.273 73.42 38.646 73.459 C 36.248 73.518 25.746 73.698 24.11 73.698 C 11.653 73.698 9.741 72.634 9.527 72.146 C 9.578 71.931 14.756 50.671 29.519 50.671 C 32.785 50.671 36.346 51.705 40.102 53.743 C 40.375 53.89 40.704 53.897 40.979 53.759 C 41.257 53.621 41.45 53.357 41.497 53.051 C 43.68 38.805 56.122 26.308 68.121 26.308 C 72.651 26.308 76.661 28.042 80.039 31.461 C 84.934 36.414 90.7 47.363 90.487 71.41 Z" style="fill: rgb(113, 30, 84);" transform="matrix(1, 0, 0, 1, 5.743083, 29.185156)"/>
            <path d="M 96.209 99.995 C 92.353 102.2 78.535 102.2 73.221 102.2 C 71.409 102.2 69.557 102.187 67.698 102.169 C 70.806 93.911 72.91 85.617 74.25 79.263 L 79.921 75.533 C 80.36 75.244 80.482 74.654 80.192 74.215 C 79.903 73.775 79.312 73.654 78.874 73.943 L 74.784 76.633 C 75.804 71.422 76.227 68.037 76.237 67.96 C 76.3 67.438 75.929 66.963 75.407 66.9 C 74.882 66.833 74.41 67.208 74.346 67.73 C 74.327 67.88 72.702 80.843 68.075 95.285 L 64.871 91.122 C 64.551 90.707 63.954 90.627 63.535 90.948 C 63.119 91.269 63.041 91.867 63.361 92.284 L 67.355 97.473 C 66.829 99.026 66.267 100.588 65.669 102.149 C 64.139 102.13 62.608 102.111 61.099 102.09 C 57.159 102.035 53.437 101.985 49.947 101.985 C 47.821 101.985 45.995 102.005 44.368 102.044 C 41.97 102.103 39.611 102.157 37.334 102.2 C 34.911 99.055 30.178 91.289 30.129 91.208 C 29.856 90.76 29.27 90.617 28.821 90.89 C 28.372 91.163 28.229 91.749 28.502 92.199 C 28.594 92.349 29.604 94.008 30.912 96.074 L 27.652 96.074 C 27.126 96.074 26.7 96.501 26.7 97.026 C 26.7 97.551 27.126 97.978 27.652 97.978 L 32.13 97.978 C 33.096 99.473 34.114 101.005 34.995 102.24 C 33.198 102.267 31.468 102.283 29.832 102.283 C 17.375 102.283 15.463 101.219 15.249 100.731 C 15.3 100.516 20.478 79.256 35.241 79.256 C 38.507 79.256 42.068 80.29 45.824 82.328 C 46.097 82.475 46.426 82.482 46.701 82.344 C 46.979 82.206 47.172 81.942 47.219 81.636 C 49.402 67.39 61.844 54.893 73.843 54.893 C 78.373 54.893 82.383 56.627 85.761 60.046 C 90.656 64.999 96.422 75.948 96.209 99.995 Z" style="fill: rgb(141, 38, 110);"/>
          </g>
        </g>
      </g>
      <g style="">
        <title>Tree 3</title>
        <path d="M 309.711 -165.605 L 335.92 -181.468 L 376.773 370.948 L 327.065 375.025 L 309.711 -165.605 Z" style="fill: url(#gcb-6);">
          <title>Tree 3 Trunk</title>
        </path>
        <path d="M 352.953 54.69 L 377.142 370.727 L 364.76 370.989 L 352.953 54.69 Z M 361.173 348.113 L 362.029 371.852 L 357.875 372.193 L 361.173 348.113 Z" style="fill: url(#gcb-11);">
          <title>Tree 3 Light</title>
        </path>
        <g transform="matrix(-0.661056, 0.072706, -0.007126, 0.632845, 945.270325, 49.377415)" style="">
          <title>Bush</title>
          <g transform="matrix(1.281314, 0, 0, 0.996208, 815.767578, 325.461914)" style="">
            <path d="M 90.487 71.41 C 86.631 73.615 72.813 73.615 67.499 73.615 C 65.687 73.615 56.886 73.526 55.377 73.505 C 51.437 73.45 47.715 73.4 44.225 73.4 C 42.099 73.4 40.273 73.42 38.646 73.459 C 36.248 73.518 25.746 73.698 24.11 73.698 C 11.653 73.698 9.741 72.634 9.527 72.146 C 9.578 71.931 14.756 50.671 29.519 50.671 C 32.785 50.671 36.346 51.705 40.102 53.743 C 40.375 53.89 40.704 53.897 40.979 53.759 C 41.257 53.621 41.45 53.357 41.497 53.051 C 43.68 38.805 56.122 26.308 68.121 26.308 C 72.651 26.308 76.661 28.042 80.039 31.461 C 84.934 36.414 90.7 47.363 90.487 71.41 Z" style="fill: rgb(113, 30, 84);" transform="matrix(1, 0, 0, 1, 5.743083, 29.185156)"/>
            <path d="M 96.209 99.995 C 92.353 102.2 78.535 102.2 73.221 102.2 C 71.409 102.2 69.557 102.187 67.698 102.169 C 70.806 93.911 72.91 85.617 74.25 79.263 L 79.921 75.533 C 80.36 75.244 80.482 74.654 80.192 74.215 C 79.903 73.775 79.312 73.654 78.874 73.943 L 74.784 76.633 C 75.804 71.422 76.227 68.037 76.237 67.96 C 76.3 67.438 75.929 66.963 75.407 66.9 C 74.882 66.833 74.41 67.208 74.346 67.73 C 74.327 67.88 72.702 80.843 68.075 95.285 L 64.871 91.122 C 64.551 90.707 63.954 90.627 63.535 90.948 C 63.119 91.269 63.041 91.867 63.361 92.284 L 67.355 97.473 C 66.829 99.026 66.267 100.588 65.669 102.149 C 64.139 102.13 62.608 102.111 61.099 102.09 C 57.159 102.035 53.437 101.985 49.947 101.985 C 47.821 101.985 45.995 102.005 44.368 102.044 C 41.97 102.103 39.611 102.157 37.334 102.2 C 34.911 99.055 30.178 91.289 30.129 91.208 C 29.856 90.76 29.27 90.617 28.821 90.89 C 28.372 91.163 28.229 91.749 28.502 92.199 C 28.594 92.349 29.604 94.008 30.912 96.074 L 27.652 96.074 C 27.126 96.074 26.7 96.501 26.7 97.026 C 26.7 97.551 27.126 97.978 27.652 97.978 L 32.13 97.978 C 33.096 99.473 34.114 101.005 34.995 102.24 C 33.198 102.267 31.468 102.283 29.832 102.283 C 17.375 102.283 15.463 101.219 15.249 100.731 C 15.3 100.516 20.478 79.256 35.241 79.256 C 38.507 79.256 42.068 80.29 45.824 82.328 C 46.097 82.475 46.426 82.482 46.701 82.344 C 46.979 82.206 47.172 81.942 47.219 81.636 C 49.402 67.39 61.844 54.893 73.843 54.893 C 78.373 54.893 82.383 56.627 85.761 60.046 C 90.656 64.999 96.422 75.948 96.209 99.995 Z" style="fill: rgb(141, 38, 110);"/>
          </g>
        </g>
      </g>
      <g style="">
        <title>Tree 5</title>
        <path d="M 845.235 -197.339 L 872.149 -202.576 L 892.495 -29.432 L 963.434 -191.643 L 980.263 -186.431 L 899.385 32.136 L 934.389 377.534 L 863.622 381.611 L 854.54 8.643 L 736.042 -194.929 L 769.306 -180.97 L 855.012 -53.321 L 845.235 -197.339 Z" style="fill: url(#gcb-8);" transform="matrix(0.998479, 0.055126, -0.055126, 0.998479, 8.178111, -47.480347)"/>
        <path d="M 865.584 381.036 L 878.149 47.406 L 865.842 47.215 L 865.584 381.036 Z M 859.315 144.935 L 859.775 47.653 L 849.753 47.76 L 859.315 144.935 Z" style="fill: url(#gcb-14);" transform="matrix(-1, 0, 0, -1, 1727.901978, 428.251015)"/>
        <g transform="matrix(-1.045325, 0, 0, 1, 1814.886108, -28.493229)" style="">
          <g transform="matrix(1.281314, 0, 0, 0.996208, 815.767578, 325.461914)" style="">
            <path d="M 90.487 71.41 C 86.631 73.615 72.813 73.615 67.499 73.615 C 65.687 73.615 56.886 73.526 55.377 73.505 C 51.437 73.45 47.715 73.4 44.225 73.4 C 42.099 73.4 40.273 73.42 38.646 73.459 C 36.248 73.518 25.746 73.698 24.11 73.698 C 11.653 73.698 9.741 72.634 9.527 72.146 C 9.578 71.931 14.756 50.671 29.519 50.671 C 32.785 50.671 36.346 51.705 40.102 53.743 C 40.375 53.89 40.704 53.897 40.979 53.759 C 41.257 53.621 41.45 53.357 41.497 53.051 C 43.68 38.805 56.122 26.308 68.121 26.308 C 72.651 26.308 76.661 28.042 80.039 31.461 C 84.934 36.414 90.7 47.363 90.487 71.41 Z" style="fill: rgb(113, 30, 84);" transform="matrix(1, 0, 0, 1, 5.743083, 29.185156)"/>
            <path d="M 96.209 99.995 C 92.353 102.2 78.535 102.2 73.221 102.2 C 71.409 102.2 69.557 102.187 67.698 102.169 C 70.806 93.911 72.91 85.617 74.25 79.263 L 79.921 75.533 C 80.36 75.244 80.482 74.654 80.192 74.215 C 79.903 73.775 79.312 73.654 78.874 73.943 L 74.784 76.633 C 75.804 71.422 76.227 68.037 76.237 67.96 C 76.3 67.438 75.929 66.963 75.407 66.9 C 74.882 66.833 74.41 67.208 74.346 67.73 C 74.327 67.88 72.702 80.843 68.075 95.285 L 64.871 91.122 C 64.551 90.707 63.954 90.627 63.535 90.948 C 63.119 91.269 63.041 91.867 63.361 92.284 L 67.355 97.473 C 66.829 99.026 66.267 100.588 65.669 102.149 C 64.139 102.13 62.608 102.111 61.099 102.09 C 57.159 102.035 53.437 101.985 49.947 101.985 C 47.821 101.985 45.995 102.005 44.368 102.044 C 41.97 102.103 39.611 102.157 37.334 102.2 C 34.911 99.055 30.178 91.289 30.129 91.208 C 29.856 90.76 29.27 90.617 28.821 90.89 C 28.372 91.163 28.229 91.749 28.502 92.199 C 28.594 92.349 29.604 94.008 30.912 96.074 L 27.652 96.074 C 27.126 96.074 26.7 96.501 26.7 97.026 C 26.7 97.551 27.126 97.978 27.652 97.978 L 32.13 97.978 C 33.096 99.473 34.114 101.005 34.995 102.24 C 33.198 102.267 31.468 102.283 29.832 102.283 C 17.375 102.283 15.463 101.219 15.249 100.731 C 15.3 100.516 20.478 79.256 35.241 79.256 C 38.507 79.256 42.068 80.29 45.824 82.328 C 46.097 82.475 46.426 82.482 46.701 82.344 C 46.979 82.206 47.172 81.942 47.219 81.636 C 49.402 67.39 61.844 54.893 73.843 54.893 C 78.373 54.893 82.383 56.627 85.761 60.046 C 90.656 64.999 96.422 75.948 96.209 99.995 Z" style="fill: rgb(141, 38, 110);"/>
          </g>
        </g>
      </g>
      <g style="">
        <title>Tree 6</title>
        <path d="M 1313.102 -100.788 L 1339.73 -97.656 L 1354.96 46.644 L 1391.294 -70.815 L 1404.541 -53.077 L 1359.445 89.145 L 1393.24 409.344 L 1322.474 413.421 L 1315.933 54.55 L 1242.116 -47.055 L 1260.274 -46.614 L 1315.348 22.442 L 1313.102 -100.788 Z" style="fill: url(#gcb-9);" transform="matrix(0.995945, 0.089679, -0.090246, 0.995945, 19.472795, -118.040998)">
          <title>Tree Trunk</title>
        </path>
        <path d="M 1309.632 270.735 L 1305.945 411.724 L 1299.611 411.226 L 1309.632 270.735 Z" style="fill: url(#gcb-15);">
          <title>Tree 6 Light</title>
        </path>
        <g transform="matrix(1, 0, 0, 1, 446.617859, -2.97946)">
          <title>Bush</title>
          <g transform="matrix(1.281314, 0, 0, 0.996208, 815.767578, 325.461914)" style="">
            <path d="M 90.487 71.41 C 86.631 73.615 72.813 73.615 67.499 73.615 C 65.687 73.615 56.886 73.526 55.377 73.505 C 51.437 73.45 47.715 73.4 44.225 73.4 C 42.099 73.4 40.273 73.42 38.646 73.459 C 36.248 73.518 25.746 73.698 24.11 73.698 C 11.653 73.698 9.741 72.634 9.527 72.146 C 9.578 71.931 14.756 50.671 29.519 50.671 C 32.785 50.671 36.346 51.705 40.102 53.743 C 40.375 53.89 40.704 53.897 40.979 53.759 C 41.257 53.621 41.45 53.357 41.497 53.051 C 43.68 38.805 56.122 26.308 68.121 26.308 C 72.651 26.308 76.661 28.042 80.039 31.461 C 84.934 36.414 90.7 47.363 90.487 71.41 Z" style="fill: rgb(113, 30, 84);" transform="matrix(1, 0, 0, 1, 5.743083, 29.185156)"/>
            <path d="M 96.209 99.995 C 92.353 102.2 78.535 102.2 73.221 102.2 C 71.409 102.2 69.557 102.187 67.698 102.169 C 70.806 93.911 72.91 85.617 74.25 79.263 L 79.921 75.533 C 80.36 75.244 80.482 74.654 80.192 74.215 C 79.903 73.775 79.312 73.654 78.874 73.943 L 74.784 76.633 C 75.804 71.422 76.227 68.037 76.237 67.96 C 76.3 67.438 75.929 66.963 75.407 66.9 C 74.882 66.833 74.41 67.208 74.346 67.73 C 74.327 67.88 72.702 80.843 68.075 95.285 L 64.871 91.122 C 64.551 90.707 63.954 90.627 63.535 90.948 C 63.119 91.269 63.041 91.867 63.361 92.284 L 67.355 97.473 C 66.829 99.026 66.267 100.588 65.669 102.149 C 64.139 102.13 62.608 102.111 61.099 102.09 C 57.159 102.035 53.437 101.985 49.947 101.985 C 47.821 101.985 45.995 102.005 44.368 102.044 C 41.97 102.103 39.611 102.157 37.334 102.2 C 34.911 99.055 30.178 91.289 30.129 91.208 C 29.856 90.76 29.27 90.617 28.821 90.89 C 28.372 91.163 28.229 91.749 28.502 92.199 C 28.594 92.349 29.604 94.008 30.912 96.074 L 27.652 96.074 C 27.126 96.074 26.7 96.501 26.7 97.026 C 26.7 97.551 27.126 97.978 27.652 97.978 L 32.13 97.978 C 33.096 99.473 34.114 101.005 34.995 102.24 C 33.198 102.267 31.468 102.283 29.832 102.283 C 17.375 102.283 15.463 101.219 15.249 100.731 C 15.3 100.516 20.478 79.256 35.241 79.256 C 38.507 79.256 42.068 80.29 45.824 82.328 C 46.097 82.475 46.426 82.482 46.701 82.344 C 46.979 82.206 47.172 81.942 47.219 81.636 C 49.402 67.39 61.844 54.893 73.843 54.893 C 78.373 54.893 82.383 56.627 85.761 60.046 C 90.656 64.999 96.422 75.948 96.209 99.995 Z" style="fill: rgb(141, 38, 110);"/>
          </g>
        </g>
      </g>
    </g>
    <g transform="matrix(2.449679, 0, 0, 2.449679, -1208.887085, -1906.505249)" style="filter: none;">
      <ellipse style="fill: rgb(255, 255, 255);" cx="899.844" cy="979.301" rx="27.523" ry="20.411"/>
      <path d="M 861.574 971.242 C 861.203 949.413 870.493 936.784 870.493 936.784 C 874.521 956.099 882.004 956.177 882.004 956.177 C 882.004 956.177 877.953 948.981 878.204 937.275 C 878.495 923.653 890.542 899.978 906.339 899.493 C 903.315 903.7 902.038 907.885 902.038 914.04 C 902.038 936.452 932.604 942.886 932.604 971.753 C 932.604 997.555 911.435 1002.315 896.424 1002.315 C 881.403 1002.315 861.947 993.073 861.574 971.242 Z M 875.077 976.739 C 875.077 987.834 887.826 994.07 898.284 993.928 C 908.948 993.781 910.049 991.76 910.442 992.002 C 914.218 994.258 919.887 993.1 919.887 993.1 C 919.887 993.1 916.213 991.36 917.148 987.577 C 917.264 987.109 921.412 984.829 921.489 976.739 C 921.59 965.646 908.742 959.55 898.284 959.55 C 887.821 959.55 875.077 965.646 875.077 976.739 Z" style="fill: rgb(239, 156, 92);"/>
      <g style="filter: url(#filter-1);">
        <g transform="matrix(1, 0, 0, 1, -259.185608, 960.842957)" style="filter: url(#filter-2);">
          <title>Logo</title>
          <path d="M 905.953 -26.201 C 907.18 -24.866 907.796 -23.186 907.796 -21.153 C 907.796 -19.285 907.002 -16.441 905.415 -12.627 C 904.339 -9.93 902.728 -7.462 900.579 -5.218 C 897.71 -2.175 894.811 -0.801 891.865 -1.096 C 890.867 -1.308 889.763 -1.843 888.563 -2.696 C 887.335 -3.578 886.403 -4.125 885.76 -4.339 C 885.609 -4.417 885.531 -4.568 885.531 -4.779 C 885.531 -5.31 886.325 -6.368 887.909 -7.943 C 889.113 -9.116 890.293 -10.264 891.442 -11.386 C 895.54 -15.87 897.586 -19.206 897.586 -21.395 C 897.586 -21.767 897.506 -22.064 897.355 -22.277 C 896.434 -23.025 895.319 -23.4 894.013 -23.4 C 891.586 -23.4 888.794 -22.237 885.647 -19.912 C 880.912 -16.418 877.583 -13.199 875.666 -10.264 C 870.06 -1.827 866.682 3.403 865.531 5.432 C 862.18 11.787 860.503 17.725 860.503 23.252 C 860.503 25.12 860.682 26.947 861.04 28.737 C 861.758 30.527 863.51 31.649 866.298 32.102 C 870.75 31.649 875.691 29.738 881.114 26.374 C 885.569 23.381 898.736 17.021 903.188 14.109 C 903.112 15.07 903.299 17.286 903.835 18.966 C 904.376 20.648 900.342 22.437 900.342 23.131 C 900.342 24.304 902.749 20.824 901.875 21.813 C 894.786 31.745 879.275 43.192 869.754 43.192 C 868.323 43.192 866.913 43.085 865.531 42.872 C 864.459 42.711 863.317 42.152 862.117 41.191 C 860.091 39.698 859.057 38.91 859.004 38.827 C 856.271 38.988 853.823 38.16 851.674 36.345 C 848.602 32.102 847.069 27.216 847.069 21.689 C 847.069 14.135 850.534 3.883 857.471 -9.063 C 867.731 -23.639 878.632 -32.338 890.176 -35.172 C 890.664 -35.329 891.2 -35.411 891.788 -35.411 C 893.862 -35.411 895.935 -34.581 898.005 -32.927 C 899.646 -31.595 900.684 -30.393 901.118 -29.325 C 901.347 -28.736 902.141 -28.152 903.496 -27.563 C 904.853 -26.949 905.672 -26.492 905.953 -26.201 Z" style="white-space: pre; fill: rgb(255, 255, 255);" transform="matrix(0.998942, 0.04598, -0.04598, 0.998942, 1.106893, -40.340251)"/>
          <path d="M 936.133 6.033 C 936.24 6.202 936.195 6.494 935.996 6.91 C 935.583 7.608 935.353 8.06 935.319 8.266 C 934.812 9.681 932.636 13.874 928.786 20.848 C 925.191 27.294 923.394 30.931 923.394 31.76 C 923.394 32.665 924.051 32.956 925.372 32.637 C 926.076 32.277 926.943 31.582 927.974 30.545 C 929.023 29.507 929.744 28.839 930.143 28.537 C 927.468 33.024 924.966 35.794 922.635 36.85 C 922.436 36.943 922.236 36.991 922.039 36.991 C 921.733 36.991 920.99 36.332 919.815 35.011 C 919.526 34.539 919.255 34.268 919.003 34.191 C 918.75 34.116 918.47 34.05 918.164 33.994 C 917.656 33.618 917.404 32.854 917.404 31.704 C 917.404 31.063 917.504 30.112 917.703 28.848 C 917.845 27.85 917.872 27.266 917.783 27.095 C 917.676 27.002 917.576 26.955 917.484 26.955 C 916.978 26.955 916.013 27.747 914.585 29.329 C 912.724 31.442 911.611 32.646 911.251 32.949 C 909.029 34.85 907.059 35.803 905.343 35.803 C 904.673 35.803 904.015 35.698 903.365 35.492 C 903.167 35.436 902.957 35.174 902.741 34.7 C 902.544 34.228 902.191 33.833 901.684 33.513 C 899.102 31.874 897.836 30.185 897.889 28.453 C 897.944 26.494 898.071 25.202 898.27 24.58 C 900.798 15.496 906.516 8.258 915.425 2.867 C 917.087 1.869 918.93 1.369 920.954 1.369 C 924.099 1.369 926.177 2.661 927.187 5.241 C 927.187 5.241 927.262 5.694 927.404 6.599 C 927.513 7.127 927.819 7.363 928.326 7.305 C 928.888 7.249 929.446 6.889 930.006 6.232 C 930.549 5.573 931.001 5.166 931.361 5.015 C 933.692 4.902 935.284 5.241 936.133 6.033 Z M 925.588 9.455 C 925.445 8.457 924.714 8.032 923.394 8.183 C 918.787 9.558 913.78 13.807 908.379 20.932 C 905.939 24.099 904.72 26.577 904.72 28.367 C 904.72 28.783 904.775 29.18 904.882 29.556 C 905.081 29.97 905.56 29.914 906.319 29.386 C 910.256 26.749 914.079 23.741 917.783 20.367 C 923.348 15.354 925.949 11.715 925.588 9.455 Z" style="white-space: pre; fill: rgb(255, 255, 255);" transform="matrix(0.998942, 0.04598, -0.04598, 0.998942, 1.851794, -42.14516)"/>
          <path d="M 988.414 9.998 C 987.404 12.054 984.872 16.408 980.826 23.06 C 977.573 28.508 975.947 31.627 975.947 32.418 C 975.947 32.777 976.38 32.955 977.247 32.955 C 978.007 32.955 979.072 32.56 980.447 31.768 C 982.417 30.616 983.528 29.987 983.78 29.874 C 982.913 31.663 981.214 33.322 978.684 34.85 C 977.078 35.867 975.765 36.376 974.754 36.376 C 974.341 36.376 974.059 36.243 973.915 35.981 C 972.993 35.131 972.079 34.283 971.178 33.436 C 969.768 31.966 969.063 30.573 969.063 29.251 C 969.063 28.82 969.136 28.367 969.28 27.895 C 970.655 24.408 972.072 21.477 973.536 19.101 C 973.589 18.895 973.509 18.792 973.292 18.792 C 972.784 18.792 972.079 19.292 971.178 20.29 C 970.872 20.552 970.336 21.11 969.579 21.957 C 967.464 24.483 965.343 27.017 963.208 29.562 C 960.571 32.73 958.14 35.047 955.918 36.517 C 955.612 36.687 955.314 36.772 955.024 36.772 C 954.463 36.772 953.866 36.509 953.236 35.981 C 952.604 35.451 951.981 34.942 951.366 34.453 C 951.021 34.095 950.471 33.888 949.712 33.831 C 949.406 33.831 949.169 33.728 949.007 33.521 C 948.663 32.73 948.492 31.91 948.492 31.06 C 948.492 29.741 948.973 28.101 949.929 26.142 C 951.194 23.56 951.961 21.957 952.232 21.335 C 952.522 20.694 952.992 19.612 953.642 18.084 C 953.697 17.878 953.669 17.745 953.56 17.689 C 953.416 17.631 953.243 17.631 953.045 17.689 C 952.848 17.782 952.666 17.914 952.504 18.084 C 949.124 22.043 943.784 28.007 936.485 35.981 C 935.78 36.715 934.948 36.82 933.992 36.292 C 933.794 35.649 932.936 34.962 931.417 34.228 C 930.206 33.642 929.702 32.749 929.9 31.541 C 930.496 28 932.06 23.803 934.588 18.961 C 938.545 11.459 940.625 7.446 940.821 6.917 C 940.931 6.71 940.985 6.501 940.985 6.294 C 940.985 5.653 940.353 5.524 939.088 5.899 C 938.925 5.936 938.355 6.287 937.379 6.945 C 936.385 7.604 935.79 7.936 935.591 7.936 C 935.484 7.897 935.429 7.85 935.429 7.794 C 935.429 7.625 935.653 7.228 936.106 6.605 C 938.944 4.026 941.147 2.732 942.719 2.732 C 943.369 2.732 944.001 2.882 944.616 3.185 C 946.785 4.938 947.796 6.389 947.652 7.539 C 947.454 9.086 946.694 11.194 945.376 13.872 C 944.056 16.567 943.396 17.942 943.396 18 C 943.451 18.528 943.633 18.792 943.939 18.792 C 944.338 18.792 944.915 18.423 945.673 17.689 C 948.058 15.144 950.435 12.608 952.801 10.084 C 955.693 7.181 958.528 5.258 961.313 4.316 C 961.509 4.26 961.71 4.232 961.908 4.232 C 962.775 4.232 963.716 4.788 964.727 5.899 C 965.539 6.897 965.982 7.644 966.055 8.133 C 966.128 8.642 966.164 9.131 966.164 9.603 C 966.164 11.618 965.233 13.92 963.372 16.5 C 961.238 19.461 959.992 21.704 959.632 23.23 C 959.597 23.436 959.623 23.541 959.712 23.541 C 959.821 23.597 959.921 23.569 960.01 23.455 C 968.269 14.861 974.898 8.633 979.904 4.768 C 980.97 3.977 982.181 3.582 983.536 3.582 C 984.206 3.582 984.818 3.693 985.379 3.921 C 985.379 4.183 985.732 4.713 986.437 5.503 C 988.043 6.558 988.848 7.502 988.848 8.331 C 988.848 8.82 988.704 9.376 988.414 9.998 Z" style="white-space: pre; fill: rgb(255, 255, 255);" transform="matrix(0.998942, 0.04598, -0.04598, 0.998942, 1.922848, -44.090186)"/>
          <path d="M 1015.849 9.33 C 1015.939 10.272 1015.984 11.197 1015.984 12.102 C 1015.984 17.002 1014.296 22.383 1010.916 28.244 C 1008.388 32.619 1005.624 35.729 1002.623 37.574 C 1001.863 37.95 1001.033 38.139 1000.129 38.139 C 998.558 38.139 997.139 37.716 995.873 36.868 C 995.027 36.076 994.418 35.473 994.058 35.057 C 993.408 34.323 993.002 33.56 992.84 32.768 C 992.748 32.542 992.575 32.429 992.324 32.429 C 992.071 32.486 991.891 32.619 991.781 32.825 C 989.704 37.894 986.469 45.471 982.079 55.555 L 981.456 55.555 C 981.312 55.349 980.425 54.686 978.799 53.576 C 977.735 52.785 977.182 51.86 977.147 50.806 C 977.797 46.055 979.314 40.778 981.7 34.974 C 983.867 29.961 986.063 24.974 988.285 20.019 C 990.922 13.742 992.242 9.727 992.242 7.974 C 992.242 7.823 992.215 7.72 992.162 7.663 C 991.259 7.456 989.742 8.248 987.607 10.038 C 987.913 8.83 988.809 7.542 990.292 6.165 C 991.791 4.787 992.92 4.128 993.679 4.186 C 995.395 4.279 996.886 5.231 998.152 7.04 C 998.403 7.72 998.53 8.482 998.53 9.33 C 998.53 10.442 998.104 12.42 997.256 15.268 C 997.203 15.532 997.276 15.712 997.474 15.804 C 997.616 15.918 997.798 15.899 998.015 15.748 C 999.731 13.581 1001.422 11.443 1003.083 9.33 C 1005.307 6.637 1007.428 5.289 1009.454 5.289 C 1010.122 5.289 1010.781 5.392 1011.431 5.598 C 1011.486 5.976 1012.02 6.504 1013.03 7.182 C 1013.646 7.388 1014.223 7.579 1014.766 7.748 C 1015.379 8.066 1015.74 8.596 1015.849 9.33 Z M 1007.935 14.165 C 1007.989 13.903 1007.889 13.684 1007.636 13.515 C 1007.439 13.422 1007.212 13.422 1006.959 13.515 C 1004.121 15.628 1000.707 19.291 996.715 24.512 C 995.848 26.096 995.413 27.236 995.413 27.933 C 995.413 28.463 995.54 28.931 995.793 29.347 C 996.715 31.044 997.527 31.806 998.232 31.637 C 1003.489 27.585 1006.724 21.761 1007.935 14.165 Z" style="white-space: pre; fill: rgb(255, 255, 255);" transform="matrix(0.998942, 0.04598, -0.04598, 0.998942, 2.427373, -45.790513)"/>
          <path d="M 1045.143 -13.448 C 1045.394 -11.957 1045.314 -10.161 1044.899 -8.047 C 1044.5 -5.73 1043.843 -4.071 1042.921 -3.073 C 1042.885 -3.601 1042.974 -4.42 1043.191 -5.532 C 1043.427 -6.626 1043.544 -7.418 1043.544 -7.908 C 1043.544 -9.002 1043.083 -9.809 1042.162 -10.339 C 1041.368 -10.657 1038.738 -5.807 1034.274 4.221 C 1034.274 4.957 1034.735 5.219 1035.657 5.013 C 1037.265 4.751 1039.796 4.665 1043.245 4.76 C 1042.269 8.566 1039.812 10.676 1035.873 11.092 C 1034.808 11.262 1033.741 11.422 1032.675 11.573 C 1031.375 11.893 1030.543 12.553 1030.182 13.551 C 1030.073 13.758 1028.835 17.058 1026.469 23.446 C 1024.029 29.985 1022.133 34.444 1020.778 36.819 C 1020.614 37.138 1019.793 36.867 1018.31 36 C 1016.812 35.131 1016.089 34.33 1016.143 33.596 C 1016.395 30.579 1017.436 26.302 1019.259 20.762 C 1020.867 15.749 1021.672 13.24 1021.672 13.24 C 1021.419 13.034 1020.235 12.639 1018.121 12.053 C 1016.693 11.678 1016.007 10.914 1016.061 9.764 C 1016.223 6.803 1017.336 4.59 1019.396 3.12 C 1019.305 3.422 1019.205 3.704 1019.097 3.968 C 1019.008 4.344 1019.063 4.665 1019.259 4.929 C 1019.964 5.457 1021.075 5.721 1022.594 5.721 C 1023.967 5.721 1024.754 5.558 1024.952 5.24 C 1026.975 1.225 1029.024 -2.781 1031.104 -6.777 C 1033.632 -11.319 1036.587 -14.598 1039.965 -16.614 C 1040.164 -16.708 1040.392 -16.755 1040.643 -16.755 C 1041.457 -16.755 1042.424 -16.311 1043.544 -15.427 C 1044.5 -14.579 1045.034 -13.92 1045.143 -13.448 Z" style="white-space: pre; fill: rgb(255, 255, 255);" transform="matrix(0.998942, 0.04598, -0.04598, 0.998942, 1.554323, -47.379633)"/>
          <path d="M 1061.639 -14.145 C 1061.783 -12.259 1061.188 -10.28 1059.851 -8.207 C 1058.514 -6.152 1057.385 -5.126 1056.464 -5.126 C 1055.921 -5.184 1055.143 -5.502 1054.133 -6.087 C 1052.616 -6.935 1051.856 -8.256 1051.856 -10.046 C 1051.856 -10.46 1051.929 -10.857 1052.073 -11.233 C 1052.689 -12.117 1053.626 -13.409 1054.892 -15.106 C 1055.597 -16.274 1056.653 -16.86 1058.063 -16.86 C 1059.995 -16.86 1061.188 -15.954 1061.639 -14.145 Z M 1054.431 5.561 C 1053.923 9.348 1052.308 13.514 1049.58 18.057 C 1045.819 24.297 1043.618 28.179 1042.966 29.705 C 1042.822 30.121 1043.354 30.327 1044.565 30.327 C 1045.162 30.269 1046.029 29.846 1047.167 29.054 C 1048.305 28.263 1049.083 27.791 1049.498 27.64 C 1048.542 30.222 1045.83 32.305 1041.367 33.889 C 1040.915 34.059 1040.465 33.852 1040.012 33.267 C 1039.56 32.681 1039.125 32.127 1038.712 31.599 C 1038.458 31.486 1038.107 31.223 1037.653 30.807 C 1036.949 29.865 1036.597 28.734 1036.597 27.415 C 1036.597 25.569 1037.635 22.741 1039.713 18.932 C 1039.804 18.784 1041.17 16.464 1043.807 11.977 C 1045.379 9.34 1046.562 6.966 1047.356 4.853 C 1047.466 4.683 1047.493 4.55 1047.438 4.458 C 1047.349 4.402 1047.194 4.402 1046.978 4.458 C 1045.461 4.986 1043.942 5.795 1042.425 6.889 C 1045.007 3.157 1047.62 1.291 1050.257 1.291 C 1050.764 1.291 1051.241 1.368 1051.692 1.518 C 1052 1.668 1052.534 2.252 1053.293 3.271 C 1054.051 4.269 1054.431 5.031 1054.431 5.561 Z" style="white-space: pre; fill: rgb(255, 255, 255);" transform="matrix(0.998942, 0.04598, -0.04598, 0.998942, 1.502419, -48.229918)"/>
          <path d="M 1081.182 7.671 C 1080.078 10.686 1078.534 15.255 1076.547 21.381 C 1076.511 21.587 1076.365 21.692 1076.114 21.692 C 1075.95 21.692 1075.578 21.6 1075.001 21.411 C 1074.424 21.22 1074.007 21.128 1073.755 21.128 C 1073.557 21.128 1073.349 21.184 1073.131 21.297 C 1072.934 21.39 1072.787 21.439 1072.697 21.439 C 1072.337 21.439 1071.958 21.136 1071.559 20.533 C 1071.146 19.932 1070.936 19.394 1070.936 18.922 C 1070.936 18.49 1071.053 17.735 1071.288 16.66 C 1071.506 15.587 1071.614 14.937 1071.614 14.709 C 1071.614 14.503 1071.541 14.456 1071.397 14.568 C 1070.131 15.624 1068.842 17.205 1067.522 19.319 C 1065.442 22.634 1064.359 24.351 1064.269 24.463 C 1062.805 26.632 1060.529 29.741 1057.438 33.793 C 1057.187 33.963 1056.905 34.048 1056.599 34.048 C 1055.388 34.048 1054.701 33.651 1054.539 32.86 C 1054.395 32.068 1053.627 31.454 1052.235 31.023 C 1050.846 30.607 1050.176 29.843 1050.23 28.733 C 1050.935 25.772 1052.525 21.551 1055 16.068 C 1057.475 10.583 1059.046 6.463 1059.716 3.712 C 1059.716 3.296 1059.236 3.089 1058.28 3.089 C 1057.773 3.089 1057.222 3.317 1056.626 3.769 C 1056.049 4.201 1055.533 4.608 1055.082 4.984 C 1053.924 5.832 1053.419 6.257 1053.563 6.257 C 1053.51 6.201 1053.483 6.115 1053.483 6.001 C 1053.896 5.061 1054.621 4.164 1055.65 3.317 C 1056.681 2.469 1057.682 1.677 1058.658 0.941 C 1059.924 0.263 1061.106 -0.076 1062.21 -0.076 C 1062.825 -0.076 1063.204 0.036 1063.348 0.263 C 1063.51 0.509 1063.863 0.864 1064.404 1.338 C 1064.819 1.714 1065.353 2.402 1066.003 3.401 C 1066.256 4.079 1066.384 4.795 1066.384 5.55 C 1066.384 6.604 1066.092 8.001 1065.515 9.733 C 1064.938 11.467 1064.621 12.682 1064.568 13.381 C 1064.513 13.643 1064.586 13.776 1064.785 13.776 C 1065.001 13.776 1065.182 13.692 1065.326 13.523 C 1066.897 11.317 1068.471 9.132 1070.042 6.963 C 1071.958 4.439 1073.856 2.488 1075.733 1.111 C 1076.077 0.849 1076.431 0.716 1076.791 0.716 C 1077.298 0.716 1077.964 1.092 1078.796 1.847 C 1079.629 2.617 1080.251 3.081 1080.667 3.231 C 1081.208 3.607 1081.479 4.269 1081.479 5.21 C 1081.479 5.529 1081.379 6.349 1081.182 7.671 Z" style="white-space: pre; fill: rgb(255, 255, 255);" transform="matrix(0.998942, 0.04598, -0.04598, 0.998942, 1.908306, -48.989978)"/>
          <path d="M 1106.636 6.42 C 1107.179 11.658 1104.542 16.173 1098.724 19.963 C 1097.116 21.017 1095.072 21.516 1092.597 21.461 C 1091.929 21.461 1091.188 21.066 1090.376 20.274 C 1089.582 19.482 1088.973 18.641 1088.56 17.757 C 1088.307 17.171 1088.025 16.881 1087.719 16.881 C 1086.925 16.881 1085.965 18.302 1084.847 21.149 C 1083.836 23.731 1083.301 25.58 1083.248 26.69 C 1083.193 26.954 1083.166 27.192 1083.166 27.398 C 1083.166 28.415 1083.599 29.102 1084.466 29.461 C 1084.974 29.574 1085.477 29.632 1085.985 29.632 C 1087.05 29.632 1088.289 29.34 1089.698 28.755 C 1090.871 28.169 1092.037 27.615 1093.195 27.087 C 1093.809 26.823 1094.785 26.203 1096.121 25.22 C 1097.458 24.259 1098.505 23.617 1099.265 23.298 C 1099.463 23.128 1099.718 23.364 1100.024 24.005 C 1100.33 24.647 1100.485 25.334 1100.485 26.07 C 1100.485 26.428 1100.43 26.739 1100.323 27.001 C 1099.725 28.379 1098.514 29.679 1096.69 30.903 C 1095.173 31.845 1093.681 32.789 1092.219 33.731 C 1091.749 33.9 1091.008 34.163 1089.995 34.523 C 1089.454 34.785 1088.904 34.918 1088.343 34.918 C 1087.584 34.918 1086.763 34.643 1085.876 34.098 C 1084.991 33.553 1084.142 33.016 1083.328 32.486 C 1082.822 32.111 1082.29 31.892 1081.729 31.836 C 1081.168 31.78 1080.817 31.731 1080.673 31.695 C 1078.342 30.733 1077.076 27.984 1076.878 23.439 C 1076.77 21.553 1077.176 19.529 1078.098 17.362 C 1078.296 16.928 1079.229 15.156 1080.89 12.046 C 1084.991 5.92 1090.809 2.019 1098.343 0.342 C 1099.969 -0.035 1101.821 0.83 1103.899 2.943 C 1105.724 4.733 1106.636 5.892 1106.636 6.42 Z M 1101 8.795 C 1101.217 8.323 1101.324 7.825 1101.324 7.297 C 1101.324 6.242 1100.891 5.847 1100.024 6.109 C 1097.043 7.014 1093.601 9.757 1089.698 14.336 C 1089.299 14.826 1089.454 15.439 1090.159 16.173 C 1091.06 16.795 1092.171 16.767 1093.492 16.089 C 1096.384 14.562 1098.886 12.13 1101 8.795 Z" style="white-space: pre; fill: rgb(255, 255, 255);" transform="matrix(0.998942, 0.04598, -0.04598, 0.998942, 1.963369, -50.181621)"/>
        </g>
        <path d="M 739.75 1023.68 C 738.757 1023.68 737.863 1023.463 737.07 1023.03 C 736.277 1022.603 735.643 1021.983 735.17 1021.17 C 734.703 1020.363 734.47 1019.41 734.47 1018.31 C 734.47 1017.277 734.687 1016.37 735.12 1015.59 C 735.553 1014.81 736.16 1014.207 736.94 1013.78 C 737.72 1013.36 738.62 1013.15 739.64 1013.15 C 740.413 1013.15 741.083 1013.247 741.65 1013.44 C 742.21 1013.64 742.65 1013.883 742.97 1014.17 L 741.92 1016.08 C 741.307 1015.467 740.613 1015.16 739.84 1015.16 C 738.907 1015.16 738.193 1015.443 737.7 1016.01 C 737.213 1016.583 736.97 1017.343 736.97 1018.29 C 736.97 1019.37 737.223 1020.21 737.73 1020.81 C 738.23 1021.41 738.933 1021.71 739.84 1021.71 C 740.293 1021.71 740.733 1021.643 741.16 1021.51 C 741.593 1021.377 741.927 1021.223 742.16 1021.05 L 743.01 1022.72 C 742.69 1022.967 742.243 1023.187 741.67 1023.38 C 741.09 1023.58 740.45 1023.68 739.75 1023.68 ZM 749.809 1023.68 C 748.903 1023.68 748.066 1023.463 747.299 1023.03 C 746.533 1022.603 745.919 1021.99 745.459 1021.19 C 744.999 1020.397 744.769 1019.467 744.769 1018.4 C 744.769 1017.347 744.973 1016.427 745.379 1015.64 C 745.779 1014.853 746.349 1014.24 747.089 1013.8 C 747.836 1013.367 748.713 1013.15 749.719 1013.15 C 750.306 1013.15 750.856 1013.25 751.369 1013.45 C 751.876 1013.657 752.306 1013.91 752.659 1014.21 C 753.006 1014.51 753.239 1014.803 753.359 1015.09 L 753.399 1013.41 L 755.659 1013.41 L 755.659 1023.46 L 753.419 1023.46 L 753.379 1021.69 C 753.133 1022.21 752.679 1022.673 752.019 1023.08 C 751.366 1023.48 750.629 1023.68 749.809 1023.68 Z M 750.199 1021.71 C 751.033 1021.71 751.736 1021.42 752.309 1020.84 C 752.876 1020.267 753.159 1019.513 753.159 1018.58 L 753.159 1018.42 C 753.159 1017.793 753.029 1017.233 752.769 1016.74 C 752.503 1016.24 752.143 1015.853 751.689 1015.58 C 751.243 1015.3 750.746 1015.16 750.199 1015.16 C 749.266 1015.16 748.546 1015.463 748.039 1016.07 C 747.526 1016.677 747.269 1017.46 747.269 1018.42 C 747.269 1019.4 747.523 1020.193 748.029 1020.8 C 748.529 1021.407 749.253 1021.71 750.199 1021.71 ZM 758.92 1023.46 L 758.92 1013.41 L 761.29 1013.41 L 761.29 1015.23 C 761.61 1014.543 762.08 1014.023 762.7 1013.67 C 763.32 1013.323 764.033 1013.15 764.84 1013.15 C 766.633 1013.163 767.733 1013.783 768.14 1015.01 C 768.466 1014.437 768.95 1013.983 769.59 1013.65 C 770.23 1013.317 770.91 1013.15 771.63 1013.15 C 772.676 1013.15 773.47 1013.35 774.01 1013.75 C 774.55 1014.15 774.913 1014.72 775.1 1015.46 C 775.28 1016.193 775.37 1017.18 775.37 1018.42 L 775.37 1023.46 L 772.98 1023.46 L 772.98 1018.4 C 772.98 1017.22 772.86 1016.373 772.62 1015.86 C 772.38 1015.347 771.916 1015.09 771.23 1015.09 C 770.31 1015.09 769.613 1015.4 769.14 1016.02 C 768.666 1016.647 768.43 1017.463 768.43 1018.47 L 768.43 1023.46 L 766.06 1023.46 L 766.06 1018.05 C 766.06 1017.277 766.033 1016.7 765.98 1016.32 C 765.92 1015.94 765.756 1015.64 765.49 1015.42 C 765.23 1015.2 764.806 1015.09 764.22 1015.09 C 763.713 1015.09 763.236 1015.243 762.79 1015.55 C 762.343 1015.857 761.986 1016.27 761.72 1016.79 C 761.446 1017.31 761.31 1017.87 761.31 1018.47 L 761.31 1023.46 L 758.92 1023.46 ZM 778.527 1028.78 L 778.527 1013.41 L 780.807 1013.41 L 780.807 1015.27 C 781.607 1013.857 782.86 1013.15 784.567 1013.15 C 785.987 1013.15 787.134 1013.597 788.007 1014.49 C 788.887 1015.39 789.327 1016.687 789.327 1018.38 C 789.327 1019.433 789.11 1020.36 788.677 1021.16 C 788.244 1021.967 787.66 1022.587 786.927 1023.02 C 786.187 1023.46 785.364 1023.68 784.457 1023.68 C 783.61 1023.68 782.877 1023.53 782.257 1023.23 C 781.637 1022.93 781.154 1022.503 780.807 1021.95 L 780.827 1028.78 L 778.527 1028.78 Z M 783.917 1021.69 C 784.864 1021.69 785.594 1021.387 786.107 1020.78 C 786.614 1020.173 786.867 1019.393 786.867 1018.44 C 786.867 1017.453 786.617 1016.663 786.117 1016.07 C 785.61 1015.477 784.877 1015.18 783.917 1015.18 C 783.39 1015.18 782.897 1015.31 782.437 1015.57 C 781.977 1015.823 781.61 1016.187 781.337 1016.66 C 781.07 1017.133 780.937 1017.683 780.937 1018.31 L 780.937 1018.47 C 780.937 1019.097 781.07 1019.653 781.337 1020.14 C 781.61 1020.633 781.974 1021.013 782.427 1021.28 C 782.88 1021.553 783.377 1021.69 783.917 1021.69 ZM 792.878 1023.46 L 792.878 1015.29 L 791.258 1015.29 L 791.258 1013.41 L 792.878 1013.41 L 792.878 1011.24 C 792.878 1009.927 793.195 1008.907 793.828 1008.18 C 794.461 1007.46 795.391 1007.1 796.618 1007.1 C 797.118 1007.1 797.681 1007.24 798.308 1007.52 L 797.848 1009.75 C 797.741 1009.637 797.585 1009.523 797.378 1009.41 C 797.165 1009.303 796.935 1009.25 796.688 1009.25 C 795.708 1009.25 795.211 1009.883 795.198 1011.15 L 795.198 1013.41 L 797.558 1013.41 L 797.558 1015.29 L 795.198 1015.29 L 795.198 1023.46 L 792.878 1023.46 ZM 800.131 1023.46 L 800.131 1013.41 L 802.581 1013.41 L 802.581 1023.46 L 800.131 1023.46 Z M 801.331 1011.52 C 800.884 1011.52 800.508 1011.367 800.201 1011.06 C 799.894 1010.753 799.741 1010.377 799.741 1009.93 C 799.741 1009.517 799.894 1009.163 800.201 1008.87 C 800.508 1008.583 800.884 1008.44 801.331 1008.44 C 801.771 1008.44 802.144 1008.583 802.451 1008.87 C 802.758 1009.163 802.911 1009.517 802.911 1009.93 C 802.911 1010.377 802.761 1010.753 802.461 1011.06 C 802.161 1011.367 801.784 1011.52 801.331 1011.52 ZM 805.901 1023.46 L 805.901 1013.41 L 808.261 1013.41 L 808.261 1015.38 C 808.494 1014.707 808.874 1014.167 809.401 1013.76 C 809.927 1013.353 810.527 1013.15 811.201 1013.15 C 811.667 1013.15 811.987 1013.193 812.161 1013.28 L 811.831 1015.66 C 811.704 1015.573 811.421 1015.53 810.981 1015.53 C 810.294 1015.53 809.671 1015.75 809.111 1016.19 C 808.544 1016.63 808.261 1017.33 808.261 1018.29 L 808.261 1023.46 L 805.901 1023.46 ZM 818.678 1023.68 C 817.478 1023.68 816.478 1023.443 815.678 1022.97 C 814.871 1022.497 814.278 1021.86 813.898 1021.06 C 813.518 1020.267 813.328 1019.393 813.328 1018.44 C 813.328 1017.38 813.551 1016.447 813.998 1015.64 C 814.445 1014.84 815.061 1014.223 815.848 1013.79 C 816.635 1013.363 817.525 1013.15 818.518 1013.15 C 820.071 1013.15 821.221 1013.577 821.968 1014.43 C 822.721 1015.283 823.098 1016.483 823.098 1018.03 C 823.098 1018.423 823.078 1018.833 823.038 1019.26 L 815.808 1019.26 C 815.968 1020.147 816.285 1020.787 816.758 1021.18 C 817.231 1021.573 817.891 1021.77 818.738 1021.77 C 819.438 1021.77 820.015 1021.713 820.468 1021.6 C 820.921 1021.48 821.338 1021.32 821.718 1021.12 L 822.438 1022.8 C 822.078 1023.033 821.581 1023.24 820.948 1023.42 C 820.321 1023.593 819.565 1023.68 818.678 1023.68 Z M 815.808 1017.61 L 820.798 1017.61 C 820.811 1016.703 820.615 1016.067 820.208 1015.7 C 819.801 1015.327 819.218 1015.14 818.458 1015.14 C 816.925 1015.14 816.041 1015.963 815.808 1017.61 ZM 833.642 1028.78 L 833.662 1021.95 C 833.308 1022.503 832.818 1022.93 832.192 1023.23 C 831.565 1023.53 830.822 1023.68 829.962 1023.68 C 829.055 1023.68 828.228 1023.46 827.482 1023.02 C 826.742 1022.587 826.155 1021.967 825.722 1021.16 C 825.288 1020.36 825.072 1019.433 825.072 1018.38 C 825.072 1017.24 825.292 1016.28 825.732 1015.5 C 826.172 1014.72 826.758 1014.133 827.492 1013.74 C 828.232 1013.347 829.055 1013.15 829.962 1013.15 C 831.655 1013.15 832.888 1013.85 833.662 1015.25 L 833.682 1013.41 L 835.962 1013.41 L 835.962 1028.78 L 833.642 1028.78 Z M 830.502 1021.71 C 831.335 1021.71 832.038 1021.42 832.612 1020.84 C 833.178 1020.267 833.462 1019.513 833.462 1018.58 L 833.462 1018.42 C 833.462 1017.793 833.332 1017.233 833.072 1016.74 C 832.805 1016.24 832.445 1015.853 831.992 1015.58 C 831.545 1015.3 831.048 1015.16 830.502 1015.16 C 829.568 1015.16 828.848 1015.463 828.342 1016.07 C 827.828 1016.677 827.572 1017.46 827.572 1018.42 C 827.572 1019.4 827.825 1020.193 828.332 1020.8 C 828.832 1021.407 829.555 1021.71 830.502 1021.71 ZM 842.668 1023.68 C 841.282 1023.68 840.328 1023.27 839.808 1022.45 C 839.288 1021.637 839.028 1020.5 839.028 1019.04 L 839.028 1013.41 L 841.398 1013.41 L 841.398 1018.44 C 841.398 1019.273 841.445 1019.92 841.538 1020.38 C 841.632 1020.84 841.822 1021.18 842.108 1021.4 C 842.395 1021.62 842.822 1021.73 843.388 1021.73 C 843.795 1021.73 844.188 1021.613 844.568 1021.38 C 844.948 1021.147 845.258 1020.83 845.498 1020.43 C 845.738 1020.023 845.858 1019.58 845.858 1019.1 L 845.858 1013.41 L 848.208 1013.41 L 848.208 1023.46 L 846.278 1023.46 L 846.018 1021.99 C 845.652 1022.563 845.195 1022.987 844.648 1023.26 C 844.102 1023.54 843.442 1023.68 842.668 1023.68 ZM 856.208 1023.68 C 855.008 1023.68 854.008 1023.443 853.208 1022.97 C 852.401 1022.497 851.808 1021.86 851.428 1021.06 C 851.048 1020.267 850.858 1019.393 850.858 1018.44 C 850.858 1017.38 851.081 1016.447 851.528 1015.64 C 851.974 1014.84 852.591 1014.223 853.378 1013.79 C 854.164 1013.363 855.054 1013.15 856.048 1013.15 C 857.601 1013.15 858.751 1013.577 859.498 1014.43 C 860.251 1015.283 860.628 1016.483 860.628 1018.03 C 860.628 1018.423 860.608 1018.833 860.568 1019.26 L 853.338 1019.26 C 853.498 1020.147 853.814 1020.787 854.288 1021.18 C 854.761 1021.573 855.421 1021.77 856.268 1021.77 C 856.968 1021.77 857.544 1021.713 857.998 1021.6 C 858.451 1021.48 858.868 1021.32 859.248 1021.12 L 859.968 1022.8 C 859.608 1023.033 859.111 1023.24 858.478 1023.42 C 857.851 1023.593 857.094 1023.68 856.208 1023.68 Z M 853.338 1017.61 L 858.328 1017.61 C 858.341 1016.703 858.144 1016.067 857.738 1015.7 C 857.331 1015.327 856.748 1015.14 855.988 1015.14 C 854.454 1015.14 853.571 1015.963 853.338 1017.61 ZM 866.661 1023.68 C 865.955 1023.68 865.228 1023.59 864.481 1023.41 C 863.728 1023.223 863.191 1023.007 862.871 1022.76 L 863.651 1020.9 C 864.531 1021.513 865.535 1021.82 866.661 1021.82 C 867.781 1021.82 868.341 1021.49 868.341 1020.83 C 868.341 1020.537 868.225 1020.31 867.991 1020.15 C 867.758 1019.99 867.341 1019.8 866.741 1019.58 L 865.911 1019.28 C 865.038 1018.927 864.345 1018.507 863.831 1018.02 C 863.318 1017.527 863.061 1016.88 863.061 1016.08 C 863.061 1015.16 863.425 1014.44 864.151 1013.92 C 864.871 1013.407 865.838 1013.15 867.051 1013.15 C 867.651 1013.15 868.238 1013.213 868.811 1013.34 C 869.391 1013.473 869.835 1013.643 870.141 1013.85 L 869.281 1015.73 C 869.095 1015.537 868.791 1015.373 868.371 1015.24 C 867.958 1015.1 867.495 1015.03 866.981 1015.03 C 865.948 1015.03 865.431 1015.343 865.431 1015.97 C 865.431 1016.323 865.568 1016.59 865.841 1016.77 C 866.121 1016.95 866.575 1017.15 867.201 1017.37 C 867.261 1017.383 867.488 1017.463 867.881 1017.61 C 868.815 1017.977 869.508 1018.393 869.961 1018.86 C 870.415 1019.327 870.641 1019.927 870.641 1020.66 C 870.641 1021.653 870.265 1022.403 869.511 1022.91 C 868.765 1023.423 867.815 1023.68 866.661 1023.68 ZM 874.064 1023.46 L 874.064 1015.34 L 872.294 1015.34 L 872.294 1013.41 L 874.064 1013.41 L 874.064 1009.31 L 876.454 1008.79 L 876.454 1013.41 L 878.774 1013.41 L 878.774 1015.34 L 876.454 1015.34 L 876.454 1023.46 L 874.064 1023.46 ZM 880.971 1023.46 L 880.971 1013.41 L 883.421 1013.41 L 883.421 1023.46 L 880.971 1023.46 Z M 882.171 1011.52 C 881.725 1011.52 881.348 1011.367 881.041 1011.06 C 880.735 1010.753 880.581 1010.377 880.581 1009.93 C 880.581 1009.517 880.735 1009.163 881.041 1008.87 C 881.348 1008.583 881.725 1008.44 882.171 1008.44 C 882.611 1008.44 882.985 1008.583 883.291 1008.87 C 883.598 1009.163 883.751 1009.517 883.751 1009.93 C 883.751 1010.377 883.601 1010.753 883.301 1011.06 C 883.001 1011.367 882.625 1011.52 882.171 1011.52 ZM 891.491 1023.68 C 890.457 1023.68 889.537 1023.447 888.731 1022.98 C 887.931 1022.513 887.311 1021.877 886.871 1021.07 C 886.431 1020.27 886.211 1019.38 886.211 1018.4 C 886.211 1017.44 886.427 1016.557 886.861 1015.75 C 887.294 1014.95 887.911 1014.317 888.711 1013.85 C 889.511 1013.383 890.437 1013.15 891.491 1013.15 C 892.544 1013.15 893.467 1013.383 894.261 1013.85 C 895.061 1014.317 895.674 1014.95 896.101 1015.75 C 896.534 1016.557 896.751 1017.44 896.751 1018.4 C 896.751 1019.38 896.531 1020.27 896.091 1021.07 C 895.651 1021.877 895.034 1022.513 894.241 1022.98 C 893.447 1023.447 892.531 1023.68 891.491 1023.68 Z M 891.561 1021.75 C 892.407 1021.75 893.074 1021.437 893.561 1020.81 C 894.047 1020.183 894.291 1019.393 894.291 1018.44 C 894.291 1017.493 894.031 1016.697 893.511 1016.05 C 892.984 1015.397 892.291 1015.07 891.431 1015.07 C 890.597 1015.07 889.927 1015.393 889.421 1016.04 C 888.921 1016.68 888.671 1017.48 888.671 1018.44 C 888.671 1019.38 888.941 1020.167 889.481 1020.8 C 890.021 1021.433 890.714 1021.75 891.561 1021.75 ZM 899.354 1023.46 L 899.354 1013.41 L 901.684 1013.41 L 901.704 1015.25 C 901.978 1014.637 902.414 1014.133 903.014 1013.74 C 903.614 1013.347 904.314 1013.15 905.114 1013.15 C 906.154 1013.15 906.951 1013.363 907.504 1013.79 C 908.058 1014.223 908.431 1014.827 908.624 1015.6 C 908.811 1016.373 908.904 1017.38 908.904 1018.62 L 908.904 1023.46 L 906.544 1023.46 L 906.544 1018.69 C 906.544 1017.417 906.421 1016.5 906.174 1015.94 C 905.921 1015.373 905.408 1015.09 904.634 1015.09 C 904.201 1015.09 903.758 1015.227 903.304 1015.5 C 902.851 1015.767 902.474 1016.157 902.174 1016.67 C 901.874 1017.183 901.724 1017.783 901.724 1018.47 L 901.724 1023.46 L 899.354 1023.46 ZM 915.509 1023.68 C 914.803 1023.68 914.076 1023.59 913.329 1023.41 C 912.576 1023.223 912.039 1023.007 911.719 1022.76 L 912.499 1020.9 C 913.379 1021.513 914.383 1021.82 915.509 1021.82 C 916.629 1021.82 917.189 1021.49 917.189 1020.83 C 917.189 1020.537 917.073 1020.31 916.839 1020.15 C 916.606 1019.99 916.189 1019.8 915.589 1019.58 L 914.759 1019.28 C 913.886 1018.927 913.193 1018.507 912.679 1018.02 C 912.166 1017.527 911.909 1016.88 911.909 1016.08 C 911.909 1015.16 912.273 1014.44 912.999 1013.92 C 913.719 1013.407 914.686 1013.15 915.899 1013.15 C 916.499 1013.15 917.086 1013.213 917.659 1013.34 C 918.239 1013.473 918.683 1013.643 918.989 1013.85 L 918.129 1015.73 C 917.943 1015.537 917.639 1015.373 917.219 1015.24 C 916.806 1015.1 916.343 1015.03 915.829 1015.03 C 914.796 1015.03 914.279 1015.343 914.279 1015.97 C 914.279 1016.323 914.416 1016.59 914.689 1016.77 C 914.969 1016.95 915.423 1017.15 916.049 1017.37 C 916.109 1017.383 916.336 1017.463 916.729 1017.61 C 917.663 1017.977 918.356 1018.393 918.809 1018.86 C 919.263 1019.327 919.489 1019.927 919.489 1020.66 C 919.489 1021.653 919.113 1022.403 918.359 1022.91 C 917.613 1023.423 916.663 1023.68 915.509 1023.68 ZM 923.662 1023.68 C 923.222 1023.68 922.849 1023.53 922.542 1023.23 C 922.236 1022.93 922.082 1022.56 922.082 1022.12 C 922.082 1021.673 922.232 1021.3 922.532 1021 C 922.832 1020.7 923.209 1020.55 923.662 1020.55 C 924.109 1020.55 924.482 1020.7 924.782 1021 C 925.082 1021.3 925.232 1021.673 925.232 1022.12 C 925.232 1022.56 925.082 1022.93 924.782 1023.23 C 924.482 1023.53 924.109 1023.68 923.662 1023.68 ZM 932.753 1023.68 C 931.76 1023.68 930.867 1023.463 930.073 1023.03 C 929.28 1022.603 928.647 1021.983 928.173 1021.17 C 927.707 1020.363 927.473 1019.41 927.473 1018.31 C 927.473 1017.277 927.69 1016.37 928.123 1015.59 C 928.557 1014.81 929.163 1014.207 929.943 1013.78 C 930.723 1013.36 931.623 1013.15 932.643 1013.15 C 933.417 1013.15 934.087 1013.247 934.653 1013.44 C 935.213 1013.64 935.653 1013.883 935.973 1014.17 L 934.923 1016.08 C 934.31 1015.467 933.617 1015.16 932.843 1015.16 C 931.91 1015.16 931.197 1015.443 930.703 1016.01 C 930.217 1016.583 929.973 1017.343 929.973 1018.29 C 929.973 1019.37 930.227 1020.21 930.733 1020.81 C 931.233 1021.41 931.937 1021.71 932.843 1021.71 C 933.297 1021.71 933.737 1021.643 934.163 1021.51 C 934.597 1021.377 934.93 1021.223 935.163 1021.05 L 936.013 1022.72 C 935.693 1022.967 935.247 1023.187 934.673 1023.38 C 934.093 1023.58 933.453 1023.68 932.753 1023.68 ZM 943.053 1023.68 C 942.019 1023.68 941.099 1023.447 940.293 1022.98 C 939.493 1022.513 938.873 1021.877 938.433 1021.07 C 937.993 1020.27 937.773 1019.38 937.773 1018.4 C 937.773 1017.44 937.989 1016.557 938.423 1015.75 C 938.856 1014.95 939.473 1014.317 940.273 1013.85 C 941.073 1013.383 941.999 1013.15 943.053 1013.15 C 944.106 1013.15 945.029 1013.383 945.823 1013.85 C 946.623 1014.317 947.236 1014.95 947.663 1015.75 C 948.096 1016.557 948.313 1017.44 948.313 1018.4 C 948.313 1019.38 948.093 1020.27 947.653 1021.07 C 947.213 1021.877 946.596 1022.513 945.803 1022.98 C 945.009 1023.447 944.093 1023.68 943.053 1023.68 Z M 943.123 1021.75 C 943.969 1021.75 944.636 1021.437 945.123 1020.81 C 945.609 1020.183 945.853 1019.393 945.853 1018.44 C 945.853 1017.493 945.593 1016.697 945.073 1016.05 C 944.546 1015.397 943.853 1015.07 942.993 1015.07 C 942.159 1015.07 941.489 1015.393 940.983 1016.04 C 940.483 1016.68 940.233 1017.48 940.233 1018.44 C 940.233 1019.38 940.503 1020.167 941.043 1020.8 C 941.583 1021.433 942.276 1021.75 943.123 1021.75 ZM 950.916 1023.46 L 950.916 1013.41 L 953.286 1013.41 L 953.286 1015.23 C 953.606 1014.543 954.076 1014.023 954.696 1013.67 C 955.316 1013.323 956.03 1013.15 956.836 1013.15 C 958.63 1013.163 959.73 1013.783 960.136 1015.01 C 960.463 1014.437 960.946 1013.983 961.586 1013.65 C 962.226 1013.317 962.906 1013.15 963.626 1013.15 C 964.673 1013.15 965.466 1013.35 966.006 1013.75 C 966.546 1014.15 966.91 1014.72 967.096 1015.46 C 967.276 1016.193 967.366 1017.18 967.366 1018.42 L 967.366 1023.46 L 964.976 1023.46 L 964.976 1018.4 C 964.976 1017.22 964.856 1016.373 964.616 1015.86 C 964.376 1015.347 963.913 1015.09 963.226 1015.09 C 962.306 1015.09 961.61 1015.4 961.136 1016.02 C 960.663 1016.647 960.426 1017.463 960.426 1018.47 L 960.426 1023.46 L 958.056 1023.46 L 958.056 1018.05 C 958.056 1017.277 958.03 1016.7 957.976 1016.32 C 957.916 1015.94 957.753 1015.64 957.486 1015.42 C 957.226 1015.2 956.803 1015.09 956.216 1015.09 C 955.71 1015.09 955.233 1015.243 954.786 1015.55 C 954.34 1015.857 953.983 1016.27 953.716 1016.79 C 953.443 1017.31 953.306 1017.87 953.306 1018.47 L 953.306 1023.46 L 950.916 1023.46 Z" transform="matrix(0.8604550361633301, 0, 0, 1.1380820274353027, 98.03823852539062, -138.0233612060547)" style="fill: rgb(255, 255, 255); white-space: pre;"/>
      </g>
    </g>
  </g>
</svg>