<svg xmlns="http://www.w3.org/2000/svg" viewBox="0 551 1500 50">
  <defs>
    <linearGradient id="act" x1="774.1" x2="774.1" y1="505.2" y2="789.5" gradientTransform="matrix(.16073 -.00419 .00419 .16073 838 469)" gradientUnits="userSpaceOnUse">
      <stop offset="0" stop-color="#232d5f" stop-opacity=".9"/>
      <stop offset="1" stop-color="#1e2650"/>
    </linearGradient>
  </defs>
  <path fill="url(#act)" d="M-16 626c13-9 4-7 47-11 29-2 31 0 91-2 56-2 92-19 214-23 102-3 183 1 221-3 49-5 70-19 149-22 112-4 173 6 229 0 137-15 152-18 291-22 65-1 276 15 276 15l36 67L0 667l-16-41z" transform="rotate(1 761 605)"/>
</svg>
