<?xml version="1.0" encoding="utf-8"?>
<svg viewBox="0 0 748 450" xmlns="http://www.w3.org/2000/svg">
  <defs>
    <filter id="drop-shadow-filter-0" x="-500%" y="-500%" width="1000%" height="1000%">
      <feGaussianBlur in="SourceAlpha" stdDeviation="8"/>
      <feOffset dx="3" dy="2"/>
      <feComponentTransfer result="offsetblur">
        <feFuncA id="spread-ctrl" type="linear" slope="1"/>
      </feComponentTransfer>
      <feFlood flood-color="rgba(0,0,0,0.3)" x="10" y="10"/>
      <feComposite in2="offsetblur" operator="in"/>
      <feMerge>
        <feMergeNode/>
        <feMergeNode in="SourceGraphic"/>
      </feMerge>
    </filter>
  </defs>
  <path d="M 59.706 25 L 688.294 25 C 708.013 25 724 40.986 724 60.706 L 724 389.294 C 724 409.014 708.013 425 688.294 425 L 59.706 425 C 39.986 425 24 409.014 24 389.294 L 24 60.706 C 24 40.986 39.986 25 59.706 25 Z" style="fill: rgb(255, 255, 255); filter: url(#drop-shadow-filter-0);">
    <title>Card</title>
  </path>
  <g style="">
    <title>Embers Sample</title>
    <path d="M 346.938 118.253 C 346.655 101.616 353.735 91.992 353.735 91.992 C 356.804 106.712 362.507 106.771 362.507 106.771 C 362.507 106.771 359.42 101.287 359.611 92.366 C 359.833 81.984 369.014 63.942 381.053 63.572 C 378.749 66.778 377.775 69.968 377.775 74.658 C 377.775 91.738 401.07 96.642 401.07 118.642 C 401.07 138.306 384.937 141.933 373.497 141.933 C 362.049 141.933 347.222 134.89 346.938 118.253 Z M 357.229 122.442 C 357.229 130.897 366.945 135.649 374.914 135.541 C 383.041 135.429 383.881 133.889 384.18 134.073 C 387.058 135.793 391.378 134.91 391.378 134.91 C 391.378 134.91 388.579 133.585 389.291 130.701 C 389.379 130.344 392.541 128.607 392.599 122.442 C 392.676 113.988 382.884 109.342 374.914 109.342 C 366.941 109.342 357.229 113.988 357.229 122.442 Z" style="fill: rgb(235, 76, 100);">
      <title>Embers Logo</title>
    </path>
    <path d="M 5.576 186.712 L 11.206 200.062 L 16.136 186.822 L 19.466 186.822 L 11.456 207.402 L 11.066 207.402 L 5.466 194.072 L -0.104 207.372 L -0.504 207.372 L -8.504 186.822 L -5.174 186.822 L -0.244 200.062 L 5.406 186.712 L 5.576 186.712 ZM 20.525 207.402 L 20.525 186.822 L 23.465 186.822 L 23.465 194.552 L 23.355 196.932 C 23.709 196.145 24.275 195.495 25.055 194.982 C 25.842 194.469 26.759 194.212 27.805 194.212 C 29.132 194.212 30.149 194.489 30.855 195.042 C 31.562 195.589 32.039 196.359 32.285 197.352 C 32.525 198.339 32.645 199.625 32.645 201.212 L 32.645 207.402 L 29.655 207.402 L 29.655 201.182 C 29.655 200.102 29.592 199.255 29.465 198.642 C 29.345 198.022 29.105 197.555 28.745 197.242 C 28.379 196.922 27.849 196.762 27.155 196.762 C 26.595 196.762 26.032 196.929 25.465 197.262 C 24.899 197.602 24.429 198.092 24.055 198.732 C 23.682 199.379 23.495 200.142 23.495 201.022 L 23.495 207.402 L 20.525 207.402 ZM 42.162 207.682 C 41.009 207.682 39.942 207.405 38.962 206.852 C 37.982 206.305 37.196 205.522 36.602 204.502 C 36.016 203.489 35.722 202.299 35.722 200.932 C 35.722 199.592 35.979 198.415 36.492 197.402 C 37.006 196.395 37.739 195.612 38.692 195.052 C 39.646 194.492 40.766 194.212 42.052 194.212 C 42.799 194.212 43.499 194.342 44.152 194.602 C 44.806 194.869 45.356 195.192 45.802 195.572 C 46.249 195.952 46.549 196.329 46.702 196.702 L 46.752 194.552 L 49.642 194.552 L 49.642 207.402 L 46.782 207.402 L 46.732 205.132 C 46.412 205.805 45.832 206.399 44.992 206.912 C 44.152 207.425 43.209 207.682 42.162 207.682 Z M 42.672 205.162 C 43.732 205.162 44.626 204.792 45.352 204.052 C 46.086 203.319 46.452 202.355 46.452 201.162 L 46.452 200.962 C 46.452 200.162 46.282 199.442 45.942 198.802 C 45.609 198.169 45.152 197.675 44.572 197.322 C 43.992 196.969 43.359 196.792 42.672 196.792 C 41.472 196.792 40.546 197.179 39.892 197.952 C 39.239 198.725 38.912 199.729 38.912 200.962 C 38.912 202.215 39.236 203.229 39.882 204.002 C 40.529 204.775 41.459 205.162 42.672 205.162 ZM 54.819 207.402 L 54.819 197.012 L 52.549 197.012 L 52.549 194.552 L 54.819 194.552 L 54.819 189.312 L 57.869 188.642 L 57.869 194.552 L 60.839 194.552 L 60.839 197.012 L 57.869 197.012 L 57.869 207.402 L 54.819 207.402 ZM 62.572 192.142 L 63.212 183.772 L 66.182 183.772 L 65.342 192.142 L 62.572 192.142 ZM 71.613 207.682 C 70.72 207.682 69.793 207.565 68.833 207.332 C 67.866 207.099 67.18 206.822 66.773 206.502 L 67.783 204.122 C 68.903 204.909 70.18 205.302 71.613 205.302 C 73.053 205.302 73.773 204.882 73.773 204.042 C 73.773 203.669 73.623 203.379 73.323 203.172 C 73.023 202.965 72.49 202.722 71.723 202.442 L 70.663 202.052 C 69.543 201.605 68.656 201.069 68.003 200.442 C 67.35 199.815 67.023 198.989 67.023 197.962 C 67.023 196.789 67.486 195.872 68.413 195.212 C 69.333 194.545 70.57 194.212 72.123 194.212 C 72.883 194.212 73.633 194.295 74.373 194.462 C 75.113 194.635 75.676 194.852 76.063 195.112 L 74.973 197.522 C 74.733 197.275 74.346 197.065 73.813 196.892 C 73.28 196.712 72.686 196.622 72.033 196.622 C 70.706 196.622 70.043 197.022 70.043 197.822 C 70.043 198.275 70.223 198.619 70.583 198.852 C 70.936 199.085 71.513 199.342 72.313 199.622 C 72.386 199.635 72.676 199.735 73.183 199.922 C 74.376 200.389 75.263 200.922 75.843 201.522 C 76.423 202.122 76.713 202.889 76.713 203.822 C 76.713 205.089 76.233 206.049 75.273 206.702 C 74.306 207.355 73.086 207.682 71.613 207.682 ZM 87.825 207.402 L 87.825 197.012 L 85.555 197.012 L 85.555 194.552 L 87.825 194.552 L 87.825 189.312 L 90.875 188.642 L 90.875 194.552 L 93.845 194.552 L 93.845 197.012 L 90.875 197.012 L 90.875 207.402 L 87.825 207.402 ZM 96.448 207.402 L 96.448 186.822 L 99.388 186.822 L 99.388 194.552 L 99.278 196.932 C 99.631 196.145 100.198 195.495 100.978 194.982 C 101.764 194.469 102.681 194.212 103.728 194.212 C 105.054 194.212 106.071 194.489 106.778 195.042 C 107.484 195.589 107.961 196.359 108.208 197.352 C 108.448 198.339 108.568 199.625 108.568 201.212 L 108.568 207.402 L 105.578 207.402 L 105.578 201.182 C 105.578 200.102 105.514 199.255 105.388 198.642 C 105.268 198.022 105.028 197.555 104.668 197.242 C 104.301 196.922 103.771 196.762 103.078 196.762 C 102.518 196.762 101.954 196.929 101.388 197.262 C 100.821 197.602 100.351 198.092 99.978 198.732 C 99.604 199.379 99.418 200.142 99.418 201.022 L 99.418 207.402 L 96.448 207.402 ZM 118.475 207.682 C 116.948 207.682 115.671 207.379 114.645 206.772 C 113.618 206.165 112.861 205.352 112.375 204.332 C 111.888 203.319 111.645 202.205 111.645 200.992 C 111.645 199.625 111.931 198.429 112.505 197.402 C 113.071 196.375 113.858 195.589 114.865 195.042 C 115.871 194.489 117.011 194.212 118.285 194.212 C 120.265 194.212 121.735 194.759 122.695 195.852 C 123.655 196.945 124.135 198.482 124.135 200.462 C 124.135 200.962 124.108 201.482 124.055 202.022 L 114.815 202.022 C 115.015 203.162 115.418 203.985 116.025 204.492 C 116.631 204.992 117.478 205.242 118.565 205.242 C 119.458 205.242 120.195 205.169 120.775 205.022 C 121.355 204.875 121.888 204.669 122.375 204.402 L 123.295 206.562 C 122.828 206.862 122.195 207.122 121.395 207.342 C 120.588 207.569 119.615 207.682 118.475 207.682 Z M 114.815 199.922 L 121.195 199.922 C 121.215 198.769 120.961 197.952 120.435 197.472 C 119.915 196.999 119.168 196.762 118.195 196.762 C 116.235 196.762 115.108 197.815 114.815 199.922 ZM 138.577 207.682 C 137.684 207.682 136.757 207.565 135.797 207.332 C 134.83 207.099 134.144 206.822 133.737 206.502 L 134.747 204.122 C 135.867 204.909 137.144 205.302 138.577 205.302 C 140.017 205.302 140.737 204.882 140.737 204.042 C 140.737 203.669 140.587 203.379 140.287 203.172 C 139.987 202.965 139.454 202.722 138.687 202.442 L 137.627 202.052 C 136.507 201.605 135.62 201.069 134.967 200.442 C 134.314 199.815 133.987 198.989 133.987 197.962 C 133.987 196.789 134.45 195.872 135.377 195.212 C 136.297 194.545 137.534 194.212 139.087 194.212 C 139.847 194.212 140.597 194.295 141.337 194.462 C 142.077 194.635 142.64 194.852 143.027 195.112 L 141.937 197.522 C 141.697 197.275 141.31 197.065 140.777 196.892 C 140.244 196.712 139.65 196.622 138.997 196.622 C 137.67 196.622 137.007 197.022 137.007 197.822 C 137.007 198.275 137.187 198.619 137.547 198.852 C 137.9 199.085 138.477 199.342 139.277 199.622 C 139.35 199.635 139.64 199.735 140.147 199.922 C 141.34 200.389 142.227 200.922 142.807 201.522 C 143.387 202.122 143.677 202.889 143.677 203.822 C 143.677 205.089 143.197 206.049 142.237 206.702 C 141.27 207.355 140.05 207.682 138.577 207.682 ZM 147.931 207.402 L 147.931 197.012 L 145.661 197.012 L 145.661 194.552 L 147.931 194.552 L 147.931 189.312 L 150.981 188.642 L 150.981 194.552 L 153.951 194.552 L 153.951 197.012 L 150.981 197.012 L 150.981 207.402 L 147.931 207.402 ZM 162.403 207.682 C 161.076 207.682 159.9 207.382 158.873 206.782 C 157.846 206.189 157.053 205.379 156.493 204.352 C 155.933 203.325 155.653 202.185 155.653 200.932 C 155.653 199.699 155.93 198.569 156.483 197.542 C 157.03 196.515 157.816 195.705 158.843 195.112 C 159.87 194.512 161.056 194.212 162.403 194.212 C 163.75 194.212 164.93 194.512 165.943 195.112 C 166.963 195.705 167.746 196.515 168.293 197.542 C 168.846 198.569 169.123 199.699 169.123 200.932 C 169.123 202.185 168.843 203.325 168.283 204.352 C 167.723 205.379 166.933 206.189 165.913 206.782 C 164.9 207.382 163.73 207.682 162.403 207.682 Z M 162.483 205.222 C 163.57 205.222 164.426 204.819 165.053 204.012 C 165.673 203.212 165.983 202.205 165.983 200.992 C 165.983 199.779 165.65 198.755 164.983 197.922 C 164.31 197.095 163.423 196.682 162.323 196.682 C 161.256 196.682 160.4 197.092 159.753 197.912 C 159.113 198.732 158.793 199.759 158.793 200.992 C 158.793 202.185 159.136 203.189 159.823 204.002 C 160.516 204.815 161.403 205.222 162.483 205.222 ZM 172.252 207.402 L 172.252 194.552 L 175.282 194.552 L 175.282 197.072 C 175.582 196.212 176.065 195.522 176.732 195.002 C 177.405 194.475 178.172 194.212 179.032 194.212 C 179.632 194.212 180.042 194.269 180.262 194.382 L 179.842 197.432 C 179.675 197.319 179.312 197.262 178.752 197.262 C 177.872 197.262 177.075 197.542 176.362 198.102 C 175.642 198.662 175.282 199.559 175.282 200.792 L 175.282 207.402 L 172.252 207.402 ZM 183.312 214.462 L 186.082 207.792 L 180.762 194.552 L 184.182 194.552 L 186.922 202.722 L 187.542 204.712 L 188.162 202.722 L 191.042 194.552 L 194.342 194.552 L 186.452 214.462 L 183.312 214.462 ZM 209.155 207.682 C 207.828 207.682 206.651 207.382 205.625 206.782 C 204.598 206.189 203.805 205.379 203.245 204.352 C 202.685 203.325 202.405 202.185 202.405 200.932 C 202.405 199.699 202.681 198.569 203.235 197.542 C 203.781 196.515 204.568 195.705 205.595 195.112 C 206.621 194.512 207.808 194.212 209.155 194.212 C 210.501 194.212 211.681 194.512 212.695 195.112 C 213.715 195.705 214.498 196.515 215.045 197.542 C 215.598 198.569 215.875 199.699 215.875 200.932 C 215.875 202.185 215.595 203.325 215.035 204.352 C 214.475 205.379 213.685 206.189 212.665 206.782 C 211.651 207.382 210.481 207.682 209.155 207.682 Z M 209.235 205.222 C 210.321 205.222 211.178 204.819 211.805 204.012 C 212.425 203.212 212.735 202.205 212.735 200.992 C 212.735 199.779 212.401 198.755 211.735 197.922 C 211.061 197.095 210.175 196.682 209.075 196.682 C 208.008 196.682 207.151 197.092 206.505 197.912 C 205.865 198.732 205.545 199.759 205.545 200.992 C 205.545 202.185 205.888 203.189 206.575 204.002 C 207.268 204.815 208.155 205.222 209.235 205.222 ZM 220.294 207.402 L 220.294 196.962 L 218.224 196.962 L 218.224 194.552 L 220.294 194.552 L 220.294 191.782 C 220.294 190.102 220.7 188.799 221.514 187.872 C 222.327 186.945 223.517 186.482 225.084 186.482 C 225.717 186.482 226.437 186.662 227.244 187.022 L 226.654 189.872 C 226.52 189.725 226.32 189.582 226.054 189.442 C 225.78 189.302 225.484 189.232 225.164 189.232 C 223.917 189.232 223.284 190.042 223.264 191.662 L 223.264 194.552 L 226.284 194.552 L 226.284 196.962 L 223.264 196.962 L 223.264 207.402 L 220.294 207.402 Z" transform="matrix(1.678157091140747, 0, 0, 1.678157091140747, 190.2811279296875, -127.16388702392578)" style="fill: rgb(51, 51, 51); white-space: pre;"/>
    <path d="M -24.886 235.682 C -26.039 235.682 -27.106 235.405 -28.086 234.852 C -29.066 234.305 -29.852 233.522 -30.446 232.502 C -31.032 231.489 -31.326 230.299 -31.326 228.932 C -31.326 227.592 -31.069 226.415 -30.556 225.402 C -30.042 224.395 -29.309 223.612 -28.356 223.052 C -27.402 222.492 -26.282 222.212 -24.996 222.212 C -24.249 222.212 -23.549 222.342 -22.896 222.602 C -22.242 222.869 -21.692 223.192 -21.246 223.572 C -20.799 223.952 -20.499 224.329 -20.346 224.702 L -20.296 222.552 L -17.406 222.552 L -17.406 235.402 L -20.266 235.402 L -20.316 233.132 C -20.636 233.805 -21.216 234.399 -22.056 234.912 C -22.896 235.425 -23.839 235.682 -24.886 235.682 Z M -24.376 233.162 C -23.316 233.162 -22.422 232.792 -21.696 232.052 C -20.962 231.319 -20.596 230.355 -20.596 229.162 L -20.596 228.962 C -20.596 228.162 -20.766 227.442 -21.106 226.802 C -21.439 226.169 -21.896 225.675 -22.476 225.322 C -23.056 224.969 -23.689 224.792 -24.376 224.792 C -25.576 224.792 -26.502 225.179 -27.156 225.952 C -27.809 226.725 -28.136 227.729 -28.136 228.962 C -28.136 230.215 -27.812 231.229 -27.166 232.002 C -26.519 232.775 -25.589 233.162 -24.376 233.162 ZM -5.37 235.402 L -5.37 225.012 L -7.64 225.012 L -7.64 222.552 L -5.37 222.552 L -5.37 217.312 L -2.32 216.642 L -2.32 222.552 L 0.65 222.552 L 0.65 225.012 L -2.32 225.012 L -2.32 235.402 L -5.37 235.402 ZM 3.332 235.402 L 3.332 222.552 L 6.472 222.552 L 6.472 235.402 L 3.332 235.402 Z M 4.872 220.142 C 4.292 220.142 3.809 219.945 3.422 219.552 C 3.029 219.159 2.832 218.675 2.832 218.102 C 2.832 217.575 3.029 217.125 3.422 216.752 C 3.809 216.379 4.292 216.192 4.872 216.192 C 5.432 216.192 5.909 216.379 6.302 216.752 C 6.696 217.125 6.892 217.575 6.892 218.102 C 6.892 218.675 6.699 219.159 6.312 219.552 C 5.932 219.945 5.452 220.142 4.872 220.142 ZM 10.671 235.402 L 10.671 222.552 L 13.691 222.552 L 13.691 224.872 C 14.104 223.999 14.708 223.335 15.501 222.882 C 16.294 222.435 17.204 222.212 18.231 222.212 C 20.524 222.232 21.934 223.025 22.461 224.592 C 22.868 223.865 23.481 223.289 24.301 222.862 C 25.128 222.429 25.998 222.212 26.911 222.212 C 28.251 222.212 29.268 222.469 29.961 222.982 C 30.654 223.495 31.118 224.225 31.351 225.172 C 31.584 226.112 31.701 227.375 31.701 228.962 L 31.701 235.402 L 28.641 235.402 L 28.641 228.932 C 28.641 227.419 28.488 226.335 28.181 225.682 C 27.874 225.029 27.281 224.702 26.401 224.702 C 25.228 224.702 24.338 225.099 23.731 225.892 C 23.124 226.685 22.821 227.729 22.821 229.022 L 22.821 235.402 L 19.801 235.402 L 19.801 228.482 C 19.801 227.495 19.761 226.759 19.681 226.272 C 19.608 225.785 19.404 225.402 19.071 225.122 C 18.731 224.842 18.188 224.702 17.441 224.702 C 16.788 224.702 16.178 224.899 15.611 225.292 C 15.044 225.685 14.588 226.212 14.241 226.872 C 13.894 227.539 13.721 228.255 13.721 229.022 L 13.721 235.402 L 10.671 235.402 ZM 41.629 235.682 C 40.102 235.682 38.825 235.379 37.799 234.772 C 36.772 234.165 36.015 233.352 35.529 232.332 C 35.042 231.319 34.799 230.205 34.799 228.992 C 34.799 227.625 35.085 226.429 35.659 225.402 C 36.225 224.375 37.012 223.589 38.019 223.042 C 39.025 222.489 40.165 222.212 41.439 222.212 C 43.419 222.212 44.889 222.759 45.849 223.852 C 46.809 224.945 47.289 226.482 47.289 228.462 C 47.289 228.962 47.262 229.482 47.209 230.022 L 37.969 230.022 C 38.169 231.162 38.572 231.985 39.179 232.492 C 39.785 232.992 40.632 233.242 41.719 233.242 C 42.612 233.242 43.349 233.169 43.929 233.022 C 44.509 232.875 45.042 232.669 45.529 232.402 L 46.449 234.562 C 45.982 234.862 45.349 235.122 44.549 235.342 C 43.742 235.569 42.769 235.682 41.629 235.682 Z M 37.969 227.922 L 44.349 227.922 C 44.369 226.769 44.115 225.952 43.589 225.472 C 43.069 224.999 42.322 224.762 41.349 224.762 C 39.389 224.762 38.262 225.815 37.969 227.922 ZM 58.231 242.462 L 61.001 235.792 L 55.681 222.552 L 59.101 222.552 L 61.841 230.722 L 62.461 232.712 L 63.081 230.722 L 65.961 222.552 L 69.261 222.552 L 61.371 242.462 L 58.231 242.462 ZM 77.214 235.682 C 75.888 235.682 74.711 235.382 73.684 234.782 C 72.658 234.189 71.864 233.379 71.304 232.352 C 70.744 231.325 70.464 230.185 70.464 228.932 C 70.464 227.699 70.741 226.569 71.294 225.542 C 71.841 224.515 72.628 223.705 73.654 223.112 C 74.681 222.512 75.868 222.212 77.214 222.212 C 78.561 222.212 79.741 222.512 80.754 223.112 C 81.774 223.705 82.558 224.515 83.104 225.542 C 83.658 226.569 83.934 227.699 83.934 228.932 C 83.934 230.185 83.654 231.325 83.094 232.352 C 82.534 233.379 81.744 234.189 80.724 234.782 C 79.711 235.382 78.541 235.682 77.214 235.682 Z M 77.294 233.222 C 78.381 233.222 79.238 232.819 79.864 232.012 C 80.484 231.212 80.794 230.205 80.794 228.992 C 80.794 227.779 80.461 226.755 79.794 225.922 C 79.121 225.095 78.234 224.682 77.134 224.682 C 76.068 224.682 75.211 225.092 74.564 225.912 C 73.924 226.732 73.604 227.759 73.604 228.992 C 73.604 230.185 73.948 231.189 74.634 232.002 C 75.328 232.815 76.214 233.222 77.294 233.222 ZM 91.603 235.682 C 89.83 235.682 88.613 235.159 87.953 234.112 C 87.287 233.065 86.953 231.609 86.953 229.742 L 86.953 222.552 L 89.983 222.552 L 89.983 228.992 C 89.983 230.052 90.043 230.879 90.163 231.472 C 90.283 232.059 90.527 232.492 90.893 232.772 C 91.253 233.052 91.797 233.192 92.523 233.192 C 93.05 233.192 93.557 233.042 94.043 232.742 C 94.523 232.442 94.92 232.035 95.233 231.522 C 95.54 231.009 95.693 230.445 95.693 229.832 L 95.693 222.552 L 98.683 222.552 L 98.683 235.402 L 96.223 235.402 L 95.883 233.522 C 95.417 234.255 94.833 234.799 94.133 235.152 C 93.433 235.505 92.59 235.682 91.603 235.682 ZM 110.777 235.402 L 110.777 224.962 L 108.707 224.962 L 108.707 222.552 L 110.777 222.552 L 110.777 219.782 C 110.777 218.102 111.184 216.799 111.997 215.872 C 112.811 214.945 114.001 214.482 115.567 214.482 C 116.201 214.482 116.921 214.662 117.727 215.022 L 117.137 217.872 C 117.004 217.725 116.804 217.582 116.537 217.442 C 116.264 217.302 115.967 217.232 115.647 217.232 C 114.401 217.232 113.767 218.042 113.747 219.662 L 113.747 222.552 L 116.767 222.552 L 116.767 224.962 L 113.747 224.962 L 113.747 235.402 L 110.777 235.402 ZM 125.782 235.682 C 124.255 235.682 122.978 235.379 121.952 234.772 C 120.925 234.165 120.168 233.352 119.682 232.332 C 119.195 231.319 118.952 230.205 118.952 228.992 C 118.952 227.625 119.238 226.429 119.812 225.402 C 120.378 224.375 121.165 223.589 122.172 223.042 C 123.178 222.489 124.318 222.212 125.592 222.212 C 127.572 222.212 129.042 222.759 130.002 223.852 C 130.962 224.945 131.442 226.482 131.442 228.462 C 131.442 228.962 131.415 229.482 131.362 230.022 L 122.122 230.022 C 122.322 231.162 122.725 231.985 123.332 232.492 C 123.938 232.992 124.785 233.242 125.872 233.242 C 126.765 233.242 127.502 233.169 128.082 233.022 C 128.662 232.875 129.195 232.669 129.682 232.402 L 130.602 234.562 C 130.135 234.862 129.502 235.122 128.702 235.342 C 127.895 235.569 126.922 235.682 125.782 235.682 Z M 122.122 227.922 L 128.502 227.922 C 128.522 226.769 128.268 225.952 127.742 225.472 C 127.222 224.999 126.475 224.762 125.502 224.762 C 123.542 224.762 122.415 225.815 122.122 227.922 ZM 134.855 235.402 L 134.855 214.822 L 137.855 214.822 L 137.855 235.402 L 134.855 235.402 ZM 142.358 235.402 L 142.358 214.822 L 145.358 214.822 L 145.358 235.402 L 142.358 235.402 ZM 156.689 235.402 L 156.689 222.552 L 159.829 222.552 L 159.829 235.402 L 156.689 235.402 Z M 158.229 220.142 C 157.649 220.142 157.166 219.945 156.779 219.552 C 156.386 219.159 156.189 218.675 156.189 218.102 C 156.189 217.575 156.386 217.125 156.779 216.752 C 157.166 216.379 157.649 216.192 158.229 216.192 C 158.789 216.192 159.266 216.379 159.659 216.752 C 160.052 217.125 160.249 217.575 160.249 218.102 C 160.249 218.675 160.056 219.159 159.669 219.552 C 159.289 219.945 158.809 220.142 158.229 220.142 ZM 164.028 235.402 L 164.028 222.552 L 166.998 222.552 L 167.018 224.902 C 167.378 224.115 167.938 223.472 168.698 222.972 C 169.464 222.465 170.361 222.212 171.388 222.212 C 172.714 222.212 173.731 222.489 174.438 223.042 C 175.151 223.589 175.628 224.359 175.868 225.352 C 176.114 226.339 176.238 227.625 176.238 229.212 L 176.238 235.402 L 173.208 235.402 L 173.208 229.302 C 173.208 227.675 173.051 226.502 172.738 225.782 C 172.418 225.062 171.764 224.702 170.778 224.702 C 170.218 224.702 169.648 224.875 169.068 225.222 C 168.488 225.569 168.008 226.069 167.628 226.722 C 167.241 227.375 167.048 228.142 167.048 229.022 L 167.048 235.402 L 164.028 235.402 ZM 187.233 235.402 L 187.233 214.822 L 190.233 214.822 L 190.233 235.402 L 187.233 235.402 ZM 200.476 235.682 C 199.149 235.682 197.973 235.382 196.946 234.782 C 195.919 234.189 195.126 233.379 194.566 232.352 C 194.006 231.325 193.726 230.185 193.726 228.932 C 193.726 227.699 194.003 226.569 194.556 225.542 C 195.103 224.515 195.889 223.705 196.916 223.112 C 197.943 222.512 199.129 222.212 200.476 222.212 C 201.823 222.212 203.003 222.512 204.016 223.112 C 205.036 223.705 205.819 224.515 206.366 225.542 C 206.919 226.569 207.196 227.699 207.196 228.932 C 207.196 230.185 206.916 231.325 206.356 232.352 C 205.796 233.379 205.006 234.189 203.986 234.782 C 202.973 235.382 201.803 235.682 200.476 235.682 Z M 200.556 233.222 C 201.643 233.222 202.499 232.819 203.126 232.012 C 203.746 231.212 204.056 230.205 204.056 228.992 C 204.056 227.779 203.723 226.755 203.056 225.922 C 202.383 225.095 201.496 224.682 200.396 224.682 C 199.329 224.682 198.473 225.092 197.826 225.912 C 197.186 226.732 196.866 227.759 196.866 228.992 C 196.866 230.185 197.209 231.189 197.896 232.002 C 198.589 232.815 199.476 233.222 200.556 233.222 ZM 215.145 235.402 L 208.365 222.552 L 211.815 222.552 L 214.585 228.342 L 215.485 230.672 L 216.375 228.342 L 219.125 222.552 L 222.485 222.552 L 215.735 235.402 L 215.145 235.402 ZM 230.147 235.682 C 228.62 235.682 227.343 235.379 226.317 234.772 C 225.29 234.165 224.533 233.352 224.047 232.332 C 223.56 231.319 223.317 230.205 223.317 228.992 C 223.317 227.625 223.603 226.429 224.177 225.402 C 224.743 224.375 225.53 223.589 226.537 223.042 C 227.543 222.489 228.683 222.212 229.957 222.212 C 231.937 222.212 233.407 222.759 234.367 223.852 C 235.327 224.945 235.807 226.482 235.807 228.462 C 235.807 228.962 235.78 229.482 235.727 230.022 L 226.487 230.022 C 226.687 231.162 227.09 231.985 227.697 232.492 C 228.303 232.992 229.15 233.242 230.237 233.242 C 231.13 233.242 231.867 233.169 232.447 233.022 C 233.027 232.875 233.56 232.669 234.047 232.402 L 234.967 234.562 C 234.5 234.862 233.867 235.122 233.067 235.342 C 232.26 235.569 231.287 235.682 230.147 235.682 Z M 226.487 227.922 L 232.867 227.922 C 232.887 226.769 232.633 225.952 232.107 225.472 C 231.587 224.999 230.84 224.762 229.867 224.762 C 227.907 224.762 226.78 225.815 226.487 227.922 ZM 241.82 229.042 C 241.713 228.655 241.66 228.229 241.66 227.762 C 241.66 226.862 241.877 226.122 242.31 225.542 C 242.75 224.969 243.4 224.335 244.26 223.642 C 245.06 222.989 245.663 222.402 246.07 221.882 C 246.47 221.355 246.67 220.709 246.67 219.942 C 246.67 219.182 246.403 218.552 245.87 218.052 C 245.337 217.559 244.593 217.312 243.64 217.312 C 243.067 217.312 242.563 217.429 242.13 217.662 C 241.703 217.895 241.363 218.165 241.11 218.472 C 240.857 218.785 240.693 219.062 240.62 219.302 L 237.82 217.902 C 238.12 217.382 238.433 216.905 238.76 216.472 C 239.087 216.045 239.68 215.609 240.54 215.162 C 241.393 214.709 242.483 214.482 243.81 214.482 C 245.003 214.482 246.073 214.712 247.02 215.172 C 247.96 215.632 248.693 216.259 249.22 217.052 C 249.74 217.845 250 218.715 250 219.662 C 250 220.542 249.85 221.299 249.55 221.932 C 249.25 222.565 248.89 223.092 248.47 223.512 C 248.05 223.932 247.507 224.405 246.84 224.932 C 246.093 225.512 245.55 225.995 245.21 226.382 C 244.877 226.775 244.71 227.262 244.71 227.842 C 244.71 228.215 244.727 228.615 244.76 229.042 L 241.82 229.042 Z M 243.56 235.682 C 242.98 235.682 242.5 235.492 242.12 235.112 C 241.733 234.725 241.54 234.252 241.54 233.692 C 241.54 233.112 241.733 232.632 242.12 232.252 C 242.5 231.872 242.98 231.682 243.56 231.682 C 244.12 231.682 244.597 231.872 244.99 232.252 C 245.383 232.632 245.58 233.112 245.58 233.692 C 245.58 234.252 245.383 234.725 244.99 235.112 C 244.597 235.492 244.12 235.682 243.56 235.682 Z" transform="matrix(1.678157091140747, 0, 0, 1.678157091140747, 190.2811279296875, -127.16388702392578)" style="fill: rgb(51, 51, 51); white-space: pre;"/>
    <path d="M 317.676 358.691 L 317.676 343.251 L 324.436 343.251 L 324.436 345.311 L 320.006 345.311 L 320.006 349.581 L 323.576 349.581 L 323.576 351.681 L 320.006 351.681 L 320.006 356.611 L 325.126 356.611 L 325.126 358.691 L 317.676 358.691 ZM 343.283 358.691 L 339.573 351.491 L 338.603 349.301 L 338.163 351.491 L 336.733 358.691 L 334.403 358.691 L 337.593 343.251 L 337.853 343.251 L 342.093 351.591 L 343.353 354.381 L 344.613 351.591 L 348.773 343.251 L 349.003 343.251 L 352.313 358.691 L 350.003 358.691 L 348.453 351.491 L 347.993 349.301 L 347.153 351.491 L 343.413 358.691 L 343.283 358.691 ZM 362.498 358.691 L 362.498 343.251 L 366.428 343.251 C 368.635 343.251 370.105 343.624 370.838 344.371 C 371.565 345.111 371.928 346.008 371.928 347.061 C 371.928 347.761 371.775 348.421 371.468 349.041 C 371.155 349.668 370.661 350.134 369.988 350.441 C 370.988 350.688 371.721 351.128 372.188 351.761 C 372.655 352.388 372.888 353.131 372.888 353.991 C 372.888 354.884 372.748 355.668 372.468 356.341 C 372.188 357.014 371.608 357.574 370.728 358.021 C 369.848 358.468 368.575 358.691 366.908 358.691 L 362.498 358.691 Z M 364.808 349.811 L 366.798 349.811 C 367.791 349.811 368.498 349.568 368.918 349.081 C 369.338 348.601 369.548 347.988 369.548 347.241 C 369.548 345.914 368.598 345.251 366.698 345.251 L 364.808 345.251 L 364.808 349.811 Z M 364.808 356.721 L 367.218 356.721 C 368.491 356.721 369.351 356.464 369.798 355.951 C 370.238 355.438 370.458 354.791 370.458 354.011 C 370.458 353.264 370.205 352.688 369.698 352.281 C 369.198 351.881 368.435 351.681 367.408 351.681 L 364.808 351.681 L 364.808 356.721 ZM 383.724 358.691 L 383.724 343.251 L 390.484 343.251 L 390.484 345.311 L 386.054 345.311 L 386.054 349.581 L 389.624 349.581 L 389.624 351.681 L 386.054 351.681 L 386.054 356.611 L 391.174 356.611 L 391.174 358.691 L 383.724 358.691 ZM 412.061 358.691 L 409.361 358.691 L 406.251 352.851 C 405.604 352.878 405.031 352.891 404.531 352.891 L 403.941 352.891 L 403.941 358.691 L 401.651 358.691 L 401.651 343.251 L 405.161 343.251 C 406.934 343.251 408.394 343.621 409.541 344.361 C 410.694 345.094 411.271 346.288 411.271 347.941 C 411.271 348.974 411.028 349.868 410.541 350.621 C 410.061 351.368 409.344 351.944 408.391 352.351 L 412.061 358.691 Z M 403.941 350.981 L 405.431 350.981 C 406.804 350.981 407.744 350.684 408.251 350.091 C 408.764 349.498 409.021 348.788 409.021 347.961 C 409.021 346.128 407.794 345.211 405.341 345.211 L 403.941 345.211 L 403.941 350.981 ZM 426.111 358.901 C 425.271 358.901 424.438 358.754 423.611 358.461 C 422.784 358.168 422.188 357.838 421.821 357.471 L 422.941 355.481 C 423.234 355.748 423.691 356.024 424.311 356.311 C 424.938 356.598 425.538 356.741 426.111 356.741 C 426.851 356.741 427.454 356.564 427.921 356.211 C 428.394 355.864 428.631 355.381 428.631 354.761 C 428.631 354.288 428.504 353.874 428.251 353.521 C 427.998 353.174 427.691 352.884 427.331 352.651 C 426.964 352.424 426.444 352.141 425.771 351.801 C 424.971 351.408 424.424 351.114 424.131 350.921 C 422.778 350.014 422.101 348.754 422.101 347.141 C 422.101 345.808 422.541 344.788 423.421 344.081 C 424.301 343.374 425.414 343.021 426.761 343.021 C 428.201 343.021 429.424 343.434 430.431 344.261 L 429.321 346.171 C 429.054 345.891 428.681 345.651 428.201 345.451 C 427.714 345.244 427.198 345.141 426.651 345.141 C 425.951 345.141 425.401 345.301 425.001 345.621 C 424.608 345.934 424.411 346.398 424.411 347.011 C 424.411 347.444 424.534 347.834 424.781 348.181 C 425.034 348.521 425.354 348.818 425.741 349.071 C 426.128 349.324 426.648 349.634 427.301 350.001 C 427.934 350.348 428.418 350.624 428.751 350.831 C 429.091 351.031 429.408 351.271 429.701 351.551 C 430.108 351.918 430.438 352.351 430.691 352.851 C 430.938 353.358 431.061 353.911 431.061 354.511 C 431.061 355.451 430.848 356.248 430.421 356.901 C 429.994 357.561 429.408 358.061 428.661 358.401 C 427.914 358.734 427.064 358.901 426.111 358.901 Z" transform="matrix(1, 0, 0, 1, 0, 0)" style="fill: rgb(195, 195, 195); text-transform: uppercase; white-space: pre;"/>
  </g>
</svg>