<?xml version="1.0" encoding="utf-8"?>
<svg viewBox="0 0 388 292" xmlns="http://www.w3.org/2000/svg">
  <defs>
    <filter id="drop-shadow-filter-embers" x="-500%" y="-500%" width="1000%" height="1000%">
      <feGaussianBlur in="SourceAlpha" stdDeviation="5"/>
      <feOffset dx="2" dy="2"/>
      <feComponentTransfer result="offsetblur">
        <feFuncA id="spread-ctrl" type="linear" slope="1.7"/>
      </feComponentTransfer>
      <feFlood flood-color="rgba(0,0,0,0.3)" x="10" y="10"/>
      <feComposite in2="offsetblur" operator="in"/>
      <feMerge>
        <feMergeNode/>
        <feMergeNode in="SourceGraphic"/>
      </feMerge>
    </filter>
  </defs>
  <rect x="26" y="26" width="336" height="240" style="fill: rgb(255, 255, 255); vector-effect: non-scaling-stroke; filter: url(#drop-shadow-filter-embers); pointer-events: none;" rx="25.36" ry="25.36">
    <title>Card Background</title>
  </rect>
  <g style="" transform="matrix(0.500352, 0, 0, 0.500352, 10.185728, 10.335123)">
    <title>Embers Sample</title>
    <path d="M 340.311 134.469 C 340.028 117.832 347.108 108.208 347.108 108.208 C 350.177 122.928 355.88 122.987 355.88 122.987 C 355.88 122.987 352.793 117.503 352.984 108.582 C 353.206 98.2 362.387 80.158 374.426 79.788 C 372.122 82.994 371.148 86.184 371.148 90.874 C 371.148 107.954 394.443 112.858 394.443 134.858 C 394.443 154.522 378.31 158.149 366.87 158.149 C 355.422 158.149 340.595 151.106 340.311 134.469 Z M 350.602 138.658 C 350.602 147.113 360.318 151.865 368.287 151.757 C 376.414 151.645 377.254 150.105 377.553 150.289 C 380.431 152.009 384.751 151.126 384.751 151.126 C 384.751 151.126 381.952 149.801 382.664 146.917 C 382.752 146.56 385.914 144.823 385.972 138.658 C 386.049 130.204 376.257 125.558 368.287 125.558 C 360.314 125.558 350.602 130.204 350.602 138.658 Z" style="fill: rgb(235, 76, 100);">
      <title>Embers Logo</title>
    </path>
    <path d="M 16.703 188.922 L 21.733 200.852 L 26.133 189.022 L 29.103 189.022 L 21.953 207.402 L 21.603 207.402 L 16.603 195.502 L 11.623 207.372 L 11.273 207.372 L 4.123 189.022 L 7.103 189.022 L 11.503 200.852 L 16.553 188.922 L 16.703 188.922 ZM 30.046 207.402 L 30.046 189.022 L 32.676 189.022 L 32.676 195.922 L 32.576 198.052 C 32.89 197.352 33.396 196.772 34.096 196.312 C 34.796 195.852 35.613 195.622 36.546 195.622 C 37.733 195.622 38.643 195.869 39.276 196.362 C 39.91 196.855 40.333 197.542 40.546 198.422 C 40.766 199.309 40.876 200.459 40.876 201.872 L 40.876 207.402 L 38.196 207.402 L 38.196 201.852 C 38.196 200.885 38.143 200.125 38.036 199.572 C 37.93 199.025 37.713 198.609 37.386 198.322 C 37.06 198.042 36.59 197.902 35.976 197.902 C 35.476 197.902 34.97 198.052 34.456 198.352 C 33.95 198.652 33.53 199.089 33.196 199.662 C 32.863 200.235 32.696 200.915 32.696 201.702 L 32.696 207.402 L 30.046 207.402 ZM 49.37 207.652 C 48.337 207.652 47.383 207.405 46.51 206.912 C 45.637 206.419 44.937 205.719 44.41 204.812 C 43.883 203.905 43.62 202.842 43.62 201.622 C 43.62 200.422 43.85 199.372 44.31 198.472 C 44.77 197.572 45.423 196.872 46.27 196.372 C 47.123 195.872 48.123 195.622 49.27 195.622 C 49.937 195.622 50.563 195.739 51.15 195.972 C 51.73 196.205 52.22 196.492 52.62 196.832 C 53.02 197.179 53.287 197.519 53.42 197.852 L 53.47 195.922 L 56.05 195.922 L 56.05 207.402 L 53.5 207.402 L 53.45 205.372 C 53.163 205.972 52.647 206.502 51.9 206.962 C 51.147 207.422 50.303 207.652 49.37 207.652 Z M 49.82 205.402 C 50.773 205.402 51.573 205.072 52.22 204.412 C 52.873 203.752 53.2 202.889 53.2 201.822 L 53.2 201.652 C 53.2 200.932 53.05 200.289 52.75 199.722 C 52.45 199.155 52.04 198.715 51.52 198.402 C 51.007 198.082 50.44 197.922 49.82 197.922 C 48.753 197.922 47.93 198.269 47.35 198.962 C 46.763 199.655 46.47 200.552 46.47 201.652 C 46.47 202.765 46.757 203.669 47.33 204.362 C 47.91 205.055 48.74 205.402 49.82 205.402 ZM 60.674 207.402 L 60.674 198.122 L 58.644 198.122 L 58.644 195.922 L 60.674 195.922 L 60.674 191.242 L 63.394 190.642 L 63.394 195.922 L 66.044 195.922 L 66.044 198.122 L 63.394 198.122 L 63.394 207.402 L 60.674 207.402 ZM 67.598 193.772 L 68.168 186.292 L 70.818 186.292 L 70.068 193.772 L 67.598 193.772 ZM 75.673 207.652 C 74.873 207.652 74.043 207.549 73.183 207.342 C 72.323 207.129 71.709 206.882 71.343 206.602 L 72.243 204.472 C 73.243 205.172 74.386 205.522 75.673 205.522 C 76.953 205.522 77.593 205.149 77.593 204.402 C 77.593 204.069 77.459 203.809 77.193 203.622 C 76.926 203.442 76.453 203.225 75.773 202.972 L 74.823 202.622 C 73.823 202.222 73.029 201.745 72.443 201.192 C 71.863 200.632 71.573 199.892 71.573 198.972 C 71.573 197.925 71.983 197.105 72.803 196.512 C 73.629 195.919 74.736 195.622 76.123 195.622 C 76.803 195.622 77.473 195.699 78.133 195.852 C 78.793 195.999 79.296 196.189 79.643 196.422 L 78.673 198.572 C 78.453 198.359 78.106 198.172 77.633 198.012 C 77.159 197.852 76.629 197.772 76.043 197.772 C 74.863 197.772 74.273 198.132 74.273 198.852 C 74.273 199.252 74.429 199.555 74.743 199.762 C 75.063 199.969 75.579 200.199 76.293 200.452 C 76.359 200.465 76.619 200.555 77.073 200.722 C 78.139 201.142 78.929 201.619 79.443 202.152 C 79.963 202.685 80.223 203.369 80.223 204.202 C 80.223 205.335 79.793 206.192 78.933 206.772 C 78.073 207.359 76.986 207.652 75.673 207.652 ZM 90.146 207.402 L 90.146 198.122 L 88.116 198.122 L 88.116 195.922 L 90.146 195.922 L 90.146 191.242 L 92.866 190.642 L 92.866 195.922 L 95.516 195.922 L 95.516 198.122 L 92.866 198.122 L 92.866 207.402 L 90.146 207.402 ZM 97.841 207.402 L 97.841 189.022 L 100.471 189.022 L 100.471 195.922 L 100.371 198.052 C 100.684 197.352 101.191 196.772 101.891 196.312 C 102.591 195.852 103.407 195.622 104.341 195.622 C 105.527 195.622 106.437 195.869 107.071 196.362 C 107.704 196.855 108.127 197.542 108.341 198.422 C 108.561 199.309 108.671 200.459 108.671 201.872 L 108.671 207.402 L 105.991 207.402 L 105.991 201.852 C 105.991 200.885 105.937 200.125 105.831 199.572 C 105.724 199.025 105.507 198.609 105.181 198.322 C 104.854 198.042 104.384 197.902 103.771 197.902 C 103.271 197.902 102.764 198.052 102.251 198.352 C 101.744 198.652 101.324 199.089 100.991 199.662 C 100.657 200.235 100.491 200.915 100.491 201.702 L 100.491 207.402 L 97.841 207.402 ZM 117.514 207.652 C 116.148 207.652 115.008 207.382 114.094 206.842 C 113.174 206.295 112.498 205.569 112.064 204.662 C 111.631 203.755 111.414 202.759 111.414 201.672 C 111.414 200.459 111.668 199.392 112.174 198.472 C 112.688 197.559 113.394 196.855 114.294 196.362 C 115.194 195.869 116.211 195.622 117.344 195.622 C 119.111 195.622 120.424 196.109 121.284 197.082 C 122.138 198.062 122.564 199.435 122.564 201.202 C 122.564 201.649 122.541 202.115 122.494 202.602 L 114.244 202.602 C 114.424 203.615 114.784 204.349 115.324 204.802 C 115.871 205.249 116.628 205.472 117.594 205.472 C 118.394 205.472 119.051 205.405 119.564 205.272 C 120.084 205.139 120.561 204.955 120.994 204.722 L 121.814 206.652 C 121.401 206.919 120.834 207.152 120.114 207.352 C 119.401 207.552 118.534 207.652 117.514 207.652 Z M 114.244 200.722 L 119.944 200.722 C 119.958 199.689 119.731 198.959 119.264 198.532 C 118.798 198.112 118.131 197.902 117.264 197.902 C 115.518 197.902 114.511 198.842 114.244 200.722 ZM 135.468 207.652 C 134.668 207.652 133.838 207.549 132.978 207.342 C 132.118 207.129 131.504 206.882 131.138 206.602 L 132.038 204.472 C 133.038 205.172 134.181 205.522 135.468 205.522 C 136.748 205.522 137.388 205.149 137.388 204.402 C 137.388 204.069 137.254 203.809 136.988 203.622 C 136.721 203.442 136.248 203.225 135.568 202.972 L 134.618 202.622 C 133.618 202.222 132.824 201.745 132.238 201.192 C 131.658 200.632 131.368 199.892 131.368 198.972 C 131.368 197.925 131.778 197.105 132.598 196.512 C 133.424 195.919 134.531 195.622 135.918 195.622 C 136.598 195.622 137.268 195.699 137.928 195.852 C 138.588 195.999 139.091 196.189 139.438 196.422 L 138.468 198.572 C 138.248 198.359 137.901 198.172 137.428 198.012 C 136.954 197.852 136.424 197.772 135.838 197.772 C 134.658 197.772 134.068 198.132 134.068 198.852 C 134.068 199.252 134.224 199.555 134.538 199.762 C 134.858 199.969 135.374 200.199 136.088 200.452 C 136.154 200.465 136.414 200.555 136.868 200.722 C 137.934 201.142 138.724 201.619 139.238 202.152 C 139.758 202.685 140.018 203.369 140.018 204.202 C 140.018 205.335 139.588 206.192 138.728 206.772 C 137.868 207.359 136.781 207.652 135.468 207.652 ZM 143.817 207.402 L 143.817 198.122 L 141.787 198.122 L 141.787 195.922 L 143.817 195.922 L 143.817 191.242 L 146.537 190.642 L 146.537 195.922 L 149.187 195.922 L 149.187 198.122 L 146.537 198.122 L 146.537 207.402 L 143.817 207.402 ZM 156.741 207.652 C 155.555 207.652 154.505 207.385 153.591 206.852 C 152.671 206.319 151.961 205.592 151.461 204.672 C 150.961 203.759 150.711 202.742 150.711 201.622 C 150.711 200.522 150.958 199.515 151.451 198.602 C 151.945 197.682 152.648 196.955 153.561 196.422 C 154.481 195.889 155.541 195.622 156.741 195.622 C 157.941 195.622 158.995 195.889 159.901 196.422 C 160.808 196.955 161.508 197.682 162.001 198.602 C 162.495 199.515 162.741 200.522 162.741 201.622 C 162.741 202.742 162.491 203.759 161.991 204.672 C 161.491 205.592 160.788 206.319 159.881 206.852 C 158.968 207.385 157.921 207.652 156.741 207.652 Z M 156.811 205.452 C 157.778 205.452 158.541 205.092 159.101 204.372 C 159.661 203.659 159.941 202.759 159.941 201.672 C 159.941 200.592 159.641 199.679 159.041 198.932 C 158.441 198.192 157.648 197.822 156.661 197.822 C 155.715 197.822 154.951 198.189 154.371 198.922 C 153.798 199.655 153.511 200.572 153.511 201.672 C 153.511 202.739 153.821 203.635 154.441 204.362 C 155.055 205.089 155.845 205.452 156.811 205.452 ZM 165.535 207.402 L 165.535 195.922 L 168.235 195.922 L 168.235 198.172 C 168.502 197.405 168.935 196.789 169.535 196.322 C 170.135 195.855 170.818 195.622 171.585 195.622 C 172.118 195.622 172.485 195.672 172.685 195.772 L 172.315 198.502 C 172.162 198.402 171.835 198.352 171.335 198.352 C 170.555 198.352 169.842 198.602 169.195 199.102 C 168.555 199.602 168.235 200.402 168.235 201.502 L 168.235 207.402 L 165.535 207.402 ZM 175.409 213.702 L 177.889 207.752 L 173.139 195.922 L 176.189 195.922 L 178.639 203.222 L 179.189 205.002 L 179.739 203.222 L 182.309 195.922 L 185.259 195.922 L 178.209 213.702 L 175.409 213.702 ZM 198.488 207.652 C 197.301 207.652 196.251 207.385 195.338 206.852 C 194.418 206.319 193.708 205.592 193.208 204.672 C 192.708 203.759 192.458 202.742 192.458 201.622 C 192.458 200.522 192.704 199.515 193.198 198.602 C 193.691 197.682 194.394 196.955 195.308 196.422 C 196.228 195.889 197.288 195.622 198.488 195.622 C 199.688 195.622 200.741 195.889 201.648 196.422 C 202.554 196.955 203.254 197.682 203.748 198.602 C 204.241 199.515 204.488 200.522 204.488 201.622 C 204.488 202.742 204.238 203.759 203.738 204.672 C 203.238 205.592 202.534 206.319 201.628 206.852 C 200.714 207.385 199.668 207.652 198.488 207.652 Z M 198.558 205.452 C 199.524 205.452 200.288 205.092 200.848 204.372 C 201.408 203.659 201.688 202.759 201.688 201.672 C 201.688 200.592 201.388 199.679 200.788 198.932 C 200.188 198.192 199.394 197.822 198.408 197.822 C 197.461 197.822 196.698 198.189 196.118 198.922 C 195.544 199.655 195.258 200.572 195.258 201.672 C 195.258 202.739 195.568 203.635 196.188 204.362 C 196.801 205.089 197.591 205.452 198.558 205.452 ZM 208.432 207.402 L 208.432 198.072 L 206.582 198.072 L 206.582 195.922 L 208.432 195.922 L 208.432 193.442 C 208.432 191.942 208.795 190.782 209.522 189.962 C 210.248 189.135 211.312 188.722 212.712 188.722 C 213.278 188.722 213.918 188.879 214.632 189.192 L 214.112 191.742 C 213.992 191.609 213.812 191.482 213.572 191.362 C 213.332 191.235 213.068 191.172 212.782 191.172 C 211.668 191.172 211.102 191.895 211.082 193.342 L 211.082 195.922 L 213.782 195.922 L 213.782 198.072 L 211.082 198.072 L 211.082 207.402 L 208.432 207.402 Z" transform="matrix(1.678157091140747, 0, 0, 1.678157091140747, 181.6521453857422, -74.64280700683594)" style="fill: rgb(51, 51, 51); line-height: 40.0158px; white-space: pre;"/>
    <path d="M -10.5 237.664 C -11.533 237.664 -12.487 237.417 -13.36 236.924 C -14.233 236.43 -14.933 235.73 -15.46 234.824 C -15.987 233.917 -16.25 232.854 -16.25 231.634 C -16.25 230.434 -16.02 229.384 -15.56 228.484 C -15.1 227.584 -14.447 226.884 -13.6 226.384 C -12.747 225.884 -11.747 225.634 -10.6 225.634 C -9.933 225.634 -9.307 225.75 -8.72 225.984 C -8.14 226.217 -7.65 226.504 -7.25 226.844 C -6.85 227.19 -6.583 227.53 -6.45 227.864 L -6.4 225.934 L -3.82 225.934 L -3.82 237.414 L -6.37 237.414 L -6.42 235.384 C -6.707 235.984 -7.223 236.514 -7.97 236.974 C -8.723 237.434 -9.567 237.664 -10.5 237.664 Z M -10.05 235.414 C -9.097 235.414 -8.297 235.084 -7.65 234.424 C -6.997 233.764 -6.67 232.9 -6.67 231.834 L -6.67 231.664 C -6.67 230.944 -6.82 230.3 -7.12 229.734 C -7.42 229.167 -7.83 228.727 -8.35 228.414 C -8.863 228.094 -9.43 227.934 -10.05 227.934 C -11.117 227.934 -11.94 228.28 -12.52 228.974 C -13.107 229.667 -13.4 230.564 -13.4 231.664 C -13.4 232.777 -13.113 233.68 -12.54 234.374 C -11.96 235.067 -11.13 235.414 -10.05 235.414 ZM 6.928 237.414 L 6.928 228.134 L 4.898 228.134 L 4.898 225.934 L 6.928 225.934 L 6.928 221.254 L 9.648 220.654 L 9.648 225.934 L 12.298 225.934 L 12.298 228.134 L 9.648 228.134 L 9.648 237.414 L 6.928 237.414 ZM 14.703 237.414 L 14.703 225.934 L 17.503 225.934 L 17.503 237.414 L 14.703 237.414 Z M 16.073 223.784 C 15.559 223.784 15.126 223.607 14.773 223.254 C 14.426 222.907 14.253 222.474 14.253 221.954 C 14.253 221.487 14.426 221.087 14.773 220.754 C 15.126 220.42 15.559 220.254 16.073 220.254 C 16.573 220.254 16.999 220.42 17.353 220.754 C 17.699 221.087 17.873 221.487 17.873 221.954 C 17.873 222.474 17.703 222.907 17.363 223.254 C 17.023 223.607 16.593 223.784 16.073 223.784 ZM 21.252 237.414 L 21.252 225.934 L 23.952 225.934 L 23.952 228.014 C 24.319 227.227 24.855 226.634 25.562 226.234 C 26.269 225.834 27.082 225.634 28.002 225.634 C 30.049 225.654 31.305 226.364 31.772 227.764 C 32.145 227.11 32.699 226.594 33.432 226.214 C 34.165 225.827 34.939 225.634 35.752 225.634 C 36.952 225.634 37.862 225.864 38.482 226.324 C 39.095 226.784 39.509 227.434 39.722 228.274 C 39.929 229.114 40.032 230.244 40.032 231.664 L 40.032 237.414 L 37.302 237.414 L 37.302 231.634 C 37.302 230.287 37.165 229.32 36.892 228.734 C 36.619 228.154 36.089 227.864 35.302 227.864 C 34.255 227.864 33.459 228.217 32.912 228.924 C 32.372 229.63 32.102 230.56 32.102 231.714 L 32.102 237.414 L 29.402 237.414 L 29.402 231.234 C 29.402 230.354 29.369 229.697 29.302 229.264 C 29.235 228.83 29.052 228.487 28.752 228.234 C 28.452 227.987 27.969 227.864 27.302 227.864 C 26.715 227.864 26.169 228.037 25.662 228.384 C 25.155 228.737 24.745 229.207 24.432 229.794 C 24.125 230.387 23.972 231.027 23.972 231.714 L 23.972 237.414 L 21.252 237.414 ZM 48.895 237.664 C 47.529 237.664 46.389 237.394 45.475 236.854 C 44.555 236.307 43.879 235.58 43.445 234.674 C 43.012 233.767 42.795 232.77 42.795 231.684 C 42.795 230.47 43.049 229.404 43.555 228.484 C 44.069 227.57 44.775 226.867 45.675 226.374 C 46.575 225.88 47.592 225.634 48.725 225.634 C 50.492 225.634 51.805 226.12 52.665 227.094 C 53.519 228.074 53.945 229.447 53.945 231.214 C 53.945 231.66 53.922 232.127 53.875 232.614 L 45.625 232.614 C 45.805 233.627 46.165 234.36 46.705 234.814 C 47.252 235.26 48.009 235.484 48.975 235.484 C 49.775 235.484 50.432 235.417 50.945 235.284 C 51.465 235.15 51.942 234.967 52.375 234.734 L 53.195 236.664 C 52.782 236.93 52.215 237.164 51.495 237.364 C 50.782 237.564 49.915 237.664 48.895 237.664 Z M 45.625 230.734 L 51.325 230.734 C 51.339 229.7 51.112 228.97 50.645 228.544 C 50.179 228.124 49.512 227.914 48.645 227.914 C 46.899 227.914 45.892 228.854 45.625 230.734 ZM 63.719 243.714 L 66.199 237.764 L 61.449 225.934 L 64.499 225.934 L 66.949 233.234 L 67.499 235.014 L 68.049 233.234 L 70.619 225.934 L 73.569 225.934 L 66.519 243.714 L 63.719 243.714 ZM 80.673 237.664 C 79.486 237.664 78.436 237.397 77.523 236.864 C 76.603 236.33 75.893 235.604 75.393 234.684 C 74.893 233.77 74.643 232.754 74.643 231.634 C 74.643 230.534 74.889 229.527 75.383 228.614 C 75.876 227.694 76.579 226.967 77.493 226.434 C 78.413 225.9 79.473 225.634 80.673 225.634 C 81.873 225.634 82.926 225.9 83.833 226.434 C 84.739 226.967 85.439 227.694 85.933 228.614 C 86.426 229.527 86.673 230.534 86.673 231.634 C 86.673 232.754 86.423 233.77 85.923 234.684 C 85.423 235.604 84.719 236.33 83.813 236.864 C 82.899 237.397 81.853 237.664 80.673 237.664 Z M 80.743 235.464 C 81.709 235.464 82.473 235.104 83.033 234.384 C 83.593 233.67 83.873 232.77 83.873 231.684 C 83.873 230.604 83.573 229.69 82.973 228.944 C 82.373 228.204 81.579 227.834 80.593 227.834 C 79.646 227.834 78.883 228.2 78.303 228.934 C 77.729 229.667 77.443 230.584 77.443 231.684 C 77.443 232.75 77.753 233.647 78.373 234.374 C 78.986 235.1 79.776 235.464 80.743 235.464 ZM 93.516 237.664 C 91.936 237.664 90.85 237.197 90.256 236.264 C 89.663 235.33 89.366 234.03 89.366 232.364 L 89.366 225.934 L 92.066 225.934 L 92.066 231.684 C 92.066 232.637 92.12 233.377 92.226 233.904 C 92.34 234.424 92.556 234.81 92.876 235.064 C 93.203 235.31 93.693 235.434 94.346 235.434 C 94.813 235.434 95.263 235.3 95.696 235.034 C 96.13 234.767 96.483 234.407 96.756 233.954 C 97.03 233.494 97.166 232.987 97.166 232.434 L 97.166 225.934 L 99.846 225.934 L 99.846 237.414 L 97.646 237.414 L 97.346 235.734 C 96.926 236.387 96.406 236.87 95.786 237.184 C 95.16 237.504 94.403 237.664 93.516 237.664 ZM 110.64 237.414 L 110.64 228.084 L 108.79 228.084 L 108.79 225.934 L 110.64 225.934 L 110.64 223.454 C 110.64 221.954 111.003 220.794 111.73 219.974 C 112.456 219.147 113.52 218.734 114.92 218.734 C 115.486 218.734 116.126 218.89 116.84 219.204 L 116.32 221.754 C 116.2 221.62 116.02 221.494 115.78 221.374 C 115.54 221.247 115.276 221.184 114.99 221.184 C 113.876 221.184 113.31 221.907 113.29 223.354 L 113.29 225.934 L 115.99 225.934 L 115.99 228.084 L 113.29 228.084 L 113.29 237.414 L 110.64 237.414 ZM 124.039 237.664 C 122.672 237.664 121.532 237.394 120.619 236.854 C 119.699 236.307 119.022 235.58 118.589 234.674 C 118.156 233.767 117.939 232.77 117.939 231.684 C 117.939 230.47 118.192 229.404 118.699 228.484 C 119.212 227.57 119.919 226.867 120.819 226.374 C 121.719 225.88 122.736 225.634 123.869 225.634 C 125.636 225.634 126.949 226.12 127.809 227.094 C 128.662 228.074 129.089 229.447 129.089 231.214 C 129.089 231.66 129.066 232.127 129.019 232.614 L 120.769 232.614 C 120.949 233.627 121.309 234.36 121.849 234.814 C 122.396 235.26 123.152 235.484 124.119 235.484 C 124.919 235.484 125.576 235.417 126.089 235.284 C 126.609 235.15 127.086 234.967 127.519 234.734 L 128.339 236.664 C 127.926 236.93 127.359 237.164 126.639 237.364 C 125.926 237.564 125.059 237.664 124.039 237.664 Z M 120.769 230.734 L 126.469 230.734 C 126.482 229.7 126.256 228.97 125.789 228.544 C 125.322 228.124 124.656 227.914 123.789 227.914 C 122.042 227.914 121.036 228.854 120.769 230.734 ZM 132.138 237.414 L 132.138 219.034 L 134.818 219.034 L 134.818 237.414 L 132.138 237.414 ZM 138.837 237.414 L 138.837 219.034 L 141.517 219.034 L 141.517 237.414 L 138.837 237.414 ZM 151.641 237.414 L 151.641 225.934 L 154.441 225.934 L 154.441 237.414 L 151.641 237.414 Z M 153.011 223.784 C 152.498 223.784 152.064 223.607 151.711 223.254 C 151.364 222.907 151.191 222.474 151.191 221.954 C 151.191 221.487 151.364 221.087 151.711 220.754 C 152.064 220.42 152.498 220.254 153.011 220.254 C 153.511 220.254 153.938 220.42 154.291 220.754 C 154.638 221.087 154.811 221.487 154.811 221.954 C 154.811 222.474 154.641 222.907 154.301 223.254 C 153.961 223.607 153.531 223.784 153.011 223.784 ZM 158.191 237.414 L 158.191 225.934 L 160.841 225.934 L 160.861 228.034 C 161.181 227.334 161.681 226.76 162.361 226.314 C 163.047 225.86 163.847 225.634 164.761 225.634 C 165.947 225.634 166.857 225.88 167.491 226.374 C 168.124 226.867 168.547 227.554 168.761 228.434 C 168.981 229.32 169.091 230.47 169.091 231.884 L 169.091 237.414 L 166.391 237.414 L 166.391 231.964 C 166.391 230.51 166.247 229.464 165.961 228.824 C 165.681 228.184 165.097 227.864 164.211 227.864 C 163.711 227.864 163.204 228.017 162.691 228.324 C 162.171 228.63 161.741 229.077 161.401 229.664 C 161.061 230.244 160.891 230.927 160.891 231.714 L 160.891 237.414 L 158.191 237.414 ZM 178.909 237.414 L 178.909 219.034 L 181.589 219.034 L 181.589 237.414 L 178.909 237.414 ZM 190.738 237.664 C 189.552 237.664 188.502 237.397 187.588 236.864 C 186.668 236.33 185.958 235.604 185.458 234.684 C 184.958 233.77 184.708 232.754 184.708 231.634 C 184.708 230.534 184.955 229.527 185.448 228.614 C 185.942 227.694 186.645 226.967 187.558 226.434 C 188.478 225.9 189.538 225.634 190.738 225.634 C 191.938 225.634 192.992 225.9 193.898 226.434 C 194.805 226.967 195.505 227.694 195.998 228.614 C 196.492 229.527 196.738 230.534 196.738 231.634 C 196.738 232.754 196.488 233.77 195.988 234.684 C 195.488 235.604 194.785 236.33 193.878 236.864 C 192.965 237.397 191.918 237.664 190.738 237.664 Z M 190.808 235.464 C 191.775 235.464 192.538 235.104 193.098 234.384 C 193.658 233.67 193.938 232.77 193.938 231.684 C 193.938 230.604 193.638 229.69 193.038 228.944 C 192.438 228.204 191.645 227.834 190.658 227.834 C 189.712 227.834 188.948 228.2 188.368 228.934 C 187.795 229.667 187.508 230.584 187.508 231.684 C 187.508 232.75 187.818 233.647 188.438 234.374 C 189.052 235.1 189.842 235.464 190.808 235.464 ZM 203.832 237.414 L 197.782 225.934 L 200.862 225.934 L 203.332 231.114 L 204.132 233.184 L 204.932 231.114 L 207.382 225.934 L 210.382 225.934 L 204.362 237.414 L 203.832 237.414 ZM 217.231 237.664 C 215.864 237.664 214.724 237.394 213.811 236.854 C 212.891 236.307 212.214 235.58 211.781 234.674 C 211.348 233.767 211.131 232.77 211.131 231.684 C 211.131 230.47 211.384 229.404 211.891 228.484 C 212.404 227.57 213.111 226.867 214.011 226.374 C 214.911 225.88 215.928 225.634 217.061 225.634 C 218.828 225.634 220.141 226.12 221.001 227.094 C 221.854 228.074 222.281 229.447 222.281 231.214 C 222.281 231.66 222.258 232.127 222.211 232.614 L 213.961 232.614 C 214.141 233.627 214.501 234.36 215.041 234.814 C 215.588 235.26 216.344 235.484 217.311 235.484 C 218.111 235.484 218.768 235.417 219.281 235.284 C 219.801 235.15 220.278 234.967 220.711 234.734 L 221.531 236.664 C 221.118 236.93 220.551 237.164 219.831 237.364 C 219.118 237.564 218.251 237.664 217.231 237.664 Z M 213.961 230.734 L 219.661 230.734 C 219.674 229.7 219.448 228.97 218.981 228.544 C 218.514 228.124 217.848 227.914 216.981 227.914 C 215.234 227.914 214.228 228.854 213.961 230.734 ZM 227.66 231.734 C 227.56 231.387 227.51 231.004 227.51 230.584 C 227.51 229.784 227.703 229.127 228.09 228.614 C 228.483 228.094 229.063 227.527 229.83 226.914 C 230.55 226.327 231.09 225.8 231.45 225.334 C 231.803 224.867 231.98 224.29 231.98 223.604 C 231.98 222.924 231.743 222.364 231.27 221.924 C 230.797 221.477 230.133 221.254 229.28 221.254 C 228.767 221.254 228.317 221.36 227.93 221.574 C 227.55 221.78 227.247 222.02 227.02 222.294 C 226.793 222.567 226.647 222.814 226.58 223.034 L 224.08 221.784 C 224.347 221.317 224.627 220.89 224.92 220.504 C 225.213 220.124 225.743 219.734 226.51 219.334 C 227.277 218.934 228.25 218.734 229.43 218.734 C 230.497 218.734 231.453 218.937 232.3 219.344 C 233.14 219.75 233.793 220.31 234.26 221.024 C 234.727 221.73 234.96 222.507 234.96 223.354 C 234.96 224.14 234.827 224.817 234.56 225.384 C 234.293 225.95 233.973 226.42 233.6 226.794 C 233.22 227.174 232.73 227.597 232.13 228.064 C 231.463 228.577 230.98 229.01 230.68 229.364 C 230.38 229.71 230.23 230.144 230.23 230.664 C 230.23 230.997 230.247 231.354 230.28 231.734 L 227.66 231.734 Z M 229.21 237.664 C 228.69 237.664 228.26 237.494 227.92 237.154 C 227.58 236.807 227.41 236.384 227.41 235.884 C 227.41 235.37 227.58 234.944 227.92 234.604 C 228.26 234.257 228.69 234.084 229.21 234.084 C 229.71 234.084 230.133 234.257 230.48 234.604 C 230.833 234.944 231.01 235.37 231.01 235.884 C 231.01 236.384 230.833 236.807 230.48 237.154 C 230.133 237.494 229.71 237.664 229.21 237.664 Z" transform="matrix(1.678157091140747, 0, 0, 1.678157091140747, 181.6521453857422, -74.64280700683594)" style="fill: rgb(51, 51, 51); line-height: 40.0158px; white-space: pre;"/>
    <path d="M 311.072 456.866 L 311.072 441.426 L 317.832 441.426 L 317.832 443.486 L 313.402 443.486 L 313.402 447.756 L 316.972 447.756 L 316.972 449.856 L 313.402 449.856 L 313.402 454.786 L 318.522 454.786 L 318.522 456.866 L 311.072 456.866 ZM 336.672 456.866 L 332.962 449.666 L 331.992 447.476 L 331.552 449.666 L 330.122 456.866 L 327.792 456.866 L 330.982 441.426 L 331.242 441.426 L 335.482 449.766 L 336.742 452.556 L 338.002 449.766 L 342.162 441.426 L 342.392 441.426 L 345.702 456.866 L 343.392 456.866 L 341.842 449.666 L 341.382 447.476 L 340.542 449.666 L 336.802 456.866 L 336.672 456.866 ZM 355.873 456.866 L 355.873 441.426 L 359.803 441.426 C 362.01 441.426 363.48 441.799 364.213 442.546 C 364.94 443.286 365.303 444.183 365.303 445.236 C 365.303 445.936 365.15 446.596 364.843 447.216 C 364.53 447.843 364.037 448.309 363.363 448.616 C 364.363 448.863 365.097 449.303 365.563 449.936 C 366.03 450.563 366.263 451.306 366.263 452.166 C 366.263 453.059 366.123 453.843 365.843 454.516 C 365.563 455.189 364.983 455.749 364.103 456.196 C 363.223 456.643 361.95 456.866 360.283 456.866 L 355.873 456.866 Z M 358.183 447.986 L 360.173 447.986 C 361.167 447.986 361.873 447.743 362.293 447.256 C 362.713 446.776 362.923 446.163 362.923 445.416 C 362.923 444.089 361.973 443.426 360.073 443.426 L 358.183 443.426 L 358.183 447.986 Z M 358.183 454.896 L 360.593 454.896 C 361.867 454.896 362.727 454.639 363.173 454.126 C 363.613 453.613 363.833 452.966 363.833 452.186 C 363.833 451.439 363.58 450.863 363.073 450.456 C 362.573 450.056 361.81 449.856 360.783 449.856 L 358.183 449.856 L 358.183 454.896 ZM 377.09 456.866 L 377.09 441.426 L 383.85 441.426 L 383.85 443.486 L 379.42 443.486 L 379.42 447.756 L 382.99 447.756 L 382.99 449.856 L 379.42 449.856 L 379.42 454.786 L 384.54 454.786 L 384.54 456.866 L 377.09 456.866 ZM 405.42 456.866 L 402.72 456.866 L 399.61 451.026 C 398.964 451.053 398.39 451.066 397.89 451.066 L 397.3 451.066 L 397.3 456.866 L 395.01 456.866 L 395.01 441.426 L 398.52 441.426 C 400.294 441.426 401.754 441.796 402.9 442.536 C 404.054 443.269 404.63 444.463 404.63 446.116 C 404.63 447.149 404.387 448.043 403.9 448.796 C 403.42 449.543 402.704 450.119 401.75 450.526 L 405.42 456.866 Z M 397.3 449.156 L 398.79 449.156 C 400.164 449.156 401.104 448.859 401.61 448.266 C 402.124 447.673 402.38 446.963 402.38 446.136 C 402.38 444.303 401.154 443.386 398.7 443.386 L 397.3 443.386 L 397.3 449.156 ZM 419.461 457.076 C 418.621 457.076 417.788 456.929 416.961 456.636 C 416.135 456.343 415.538 456.013 415.171 455.646 L 416.291 453.656 C 416.585 453.923 417.041 454.199 417.661 454.486 C 418.288 454.773 418.888 454.916 419.461 454.916 C 420.201 454.916 420.805 454.739 421.271 454.386 C 421.745 454.039 421.981 453.556 421.981 452.936 C 421.981 452.463 421.855 452.049 421.601 451.696 C 421.348 451.349 421.041 451.059 420.681 450.826 C 420.315 450.599 419.795 450.316 419.121 449.976 C 418.321 449.583 417.775 449.289 417.481 449.096 C 416.128 448.189 415.451 446.929 415.451 445.316 C 415.451 443.983 415.891 442.963 416.771 442.256 C 417.651 441.549 418.765 441.196 420.111 441.196 C 421.551 441.196 422.775 441.609 423.781 442.436 L 422.671 444.346 C 422.405 444.066 422.031 443.826 421.551 443.626 C 421.065 443.419 420.548 443.316 420.001 443.316 C 419.301 443.316 418.751 443.476 418.351 443.796 C 417.958 444.109 417.761 444.573 417.761 445.186 C 417.761 445.619 417.885 446.009 418.131 446.356 C 418.385 446.696 418.705 446.993 419.091 447.246 C 419.478 447.499 419.998 447.809 420.651 448.176 C 421.285 448.523 421.768 448.799 422.101 449.006 C 422.441 449.206 422.758 449.446 423.051 449.726 C 423.458 450.093 423.788 450.526 424.041 451.026 C 424.288 451.533 424.411 452.086 424.411 452.686 C 424.411 453.626 424.198 454.423 423.771 455.076 C 423.345 455.736 422.758 456.236 422.011 456.576 C 421.265 456.909 420.415 457.076 419.461 457.076 Z" transform="matrix(1, 0, 0, 1, 0, 0)" style="fill: rgb(195, 195, 195); text-transform: uppercase; white-space: pre;"/>
  </g>
</svg>