<?xml version="1.0" encoding="utf-8"?>
<svg viewBox="0 0 388 292" xmlns="http://www.w3.org/2000/svg">
  <defs>
    <filter id="drop-shadow-filter-flames" x="-500%" y="-500%" width="1000%" height="1000%">
      <feGaussianBlur in="SourceAlpha" stdDeviation="5"/>
      <feOffset dx="2" dy="2"/>
      <feComponentTransfer result="offsetblur">
        <feFuncA id="spread-ctrl" type="linear" slope="1.7"/>
      </feComponentTransfer>
      <feFlood flood-color="rgba(0,0,0,0.3)" x="10" y="10"/>
      <feComposite in2="offsetblur" operator="in"/>
      <feMerge>
        <feMergeNode/>
        <feMergeNode in="SourceGraphic"/>
      </feMerge>
    </filter>
  </defs>
  <rect x="26" y="26" width="336" height="240" style="fill: rgb(255, 255, 255); vector-effect: non-scaling-stroke; filter: url(#drop-shadow-filter-flames); pointer-events: none;" rx="25.36" ry="25.36">
    <title>Card Background</title>
  </rect>
  <g style="" transform="matrix(0.500352, 0, 0, 0.500352, 10.185728, 10.335123)">
    <title>Flames Sample</title>
    <path d="M 340.308 135.247 C 340.025 118.61 347.105 108.986 347.105 108.986 C 350.174 123.706 355.877 123.765 355.877 123.765 C 355.877 123.765 352.79 118.281 352.981 109.36 C 353.203 98.978 362.384 80.936 374.423 80.566 C 372.119 83.772 371.145 86.962 371.145 91.652 C 371.145 108.732 394.44 113.636 394.44 135.636 C 394.44 155.3 378.307 158.927 366.867 158.927 C 355.419 158.927 340.592 151.884 340.308 135.247 Z M 350.599 139.436 C 350.599 147.891 360.315 152.643 368.284 152.535 C 376.411 152.423 377.251 150.883 377.55 151.067 C 380.428 152.787 384.748 151.904 384.748 151.904 C 384.748 151.904 381.949 150.579 382.661 147.695 C 382.749 147.338 385.911 145.601 385.969 139.436 C 386.046 130.982 376.254 126.336 368.284 126.336 C 360.311 126.336 350.599 130.982 350.599 139.436 Z" style="fill: rgb(222, 128, 65);">
      <title>Flames Logo</title>
    </path>
    <path d="M -15.482 207.402 L -15.482 189.022 L -12.682 189.022 L -12.682 207.402 L -15.482 207.402 ZM -8.633 207.402 L -8.633 195.922 L -5.983 195.922 L -5.963 198.022 C -5.643 197.322 -5.143 196.749 -4.463 196.302 C -3.776 195.849 -2.976 195.622 -2.063 195.622 C -0.876 195.622 0.034 195.869 0.667 196.362 C 1.3 196.855 1.724 197.542 1.937 198.422 C 2.157 199.309 2.267 200.459 2.267 201.872 L 2.267 207.402 L -0.433 207.402 L -0.433 201.952 C -0.433 200.499 -0.576 199.452 -0.863 198.812 C -1.143 198.172 -1.726 197.852 -2.613 197.852 C -3.113 197.852 -3.62 198.005 -4.133 198.312 C -4.653 198.619 -5.083 199.065 -5.423 199.652 C -5.763 200.232 -5.933 200.915 -5.933 201.702 L -5.933 207.402 L -8.633 207.402 ZM 22.265 207.402 L 18.865 201.022 L 15.465 207.402 L 14.985 207.402 L 10.165 195.922 L 13.065 195.922 L 15.535 202.602 L 18.815 195.922 L 18.915 195.922 L 22.215 202.552 L 24.695 195.922 L 27.545 195.922 L 22.735 207.402 L 22.265 207.402 ZM 29.509 207.402 L 29.509 189.022 L 32.139 189.022 L 32.139 195.922 L 32.039 198.052 C 32.352 197.352 32.859 196.772 33.559 196.312 C 34.259 195.852 35.075 195.622 36.009 195.622 C 37.195 195.622 38.105 195.869 38.739 196.362 C 39.372 196.855 39.795 197.542 40.009 198.422 C 40.229 199.309 40.339 200.459 40.339 201.872 L 40.339 207.402 L 37.659 207.402 L 37.659 201.852 C 37.659 200.885 37.605 200.125 37.499 199.572 C 37.392 199.025 37.175 198.609 36.849 198.322 C 36.522 198.042 36.052 197.902 35.439 197.902 C 34.939 197.902 34.432 198.052 33.919 198.352 C 33.412 198.652 32.992 199.089 32.659 199.662 C 32.325 200.235 32.159 200.915 32.159 201.702 L 32.159 207.402 L 29.509 207.402 ZM 48.833 207.652 C 47.799 207.652 46.846 207.405 45.973 206.912 C 45.099 206.419 44.399 205.719 43.873 204.812 C 43.346 203.905 43.083 202.842 43.083 201.622 C 43.083 200.422 43.313 199.372 43.773 198.472 C 44.233 197.572 44.886 196.872 45.733 196.372 C 46.586 195.872 47.586 195.622 48.733 195.622 C 49.399 195.622 50.026 195.739 50.613 195.972 C 51.193 196.205 51.683 196.492 52.083 196.832 C 52.483 197.179 52.749 197.519 52.883 197.852 L 52.933 195.922 L 55.513 195.922 L 55.513 207.402 L 52.963 207.402 L 52.913 205.372 C 52.626 205.972 52.109 206.502 51.363 206.962 C 50.609 207.422 49.766 207.652 48.833 207.652 Z M 49.283 205.402 C 50.236 205.402 51.036 205.072 51.683 204.412 C 52.336 203.752 52.663 202.889 52.663 201.822 L 52.663 201.652 C 52.663 200.932 52.513 200.289 52.213 199.722 C 51.913 199.155 51.503 198.715 50.983 198.402 C 50.469 198.082 49.903 197.922 49.283 197.922 C 48.216 197.922 47.393 198.269 46.813 198.962 C 46.226 199.655 45.933 200.552 45.933 201.652 C 45.933 202.765 46.219 203.669 46.793 204.362 C 47.373 205.055 48.203 205.402 49.283 205.402 ZM 60.136 207.402 L 60.136 198.122 L 58.106 198.122 L 58.106 195.922 L 60.136 195.922 L 60.136 191.242 L 62.856 190.642 L 62.856 195.922 L 65.506 195.922 L 65.506 198.122 L 62.856 198.122 L 62.856 207.402 L 60.136 207.402 ZM 84.235 207.402 L 80.835 201.022 L 77.435 207.402 L 76.955 207.402 L 72.135 195.922 L 75.035 195.922 L 77.505 202.602 L 80.785 195.922 L 80.885 195.922 L 84.185 202.552 L 86.665 195.922 L 89.515 195.922 L 84.705 207.402 L 84.235 207.402 ZM 96.429 207.652 C 95.395 207.652 94.442 207.405 93.569 206.912 C 92.695 206.419 91.995 205.719 91.469 204.812 C 90.942 203.905 90.679 202.842 90.679 201.622 C 90.679 200.422 90.909 199.372 91.369 198.472 C 91.829 197.572 92.482 196.872 93.329 196.372 C 94.182 195.872 95.182 195.622 96.329 195.622 C 96.995 195.622 97.622 195.739 98.209 195.972 C 98.789 196.205 99.279 196.492 99.679 196.832 C 100.079 197.179 100.345 197.519 100.479 197.852 L 100.529 195.922 L 103.109 195.922 L 103.109 207.402 L 100.559 207.402 L 100.509 205.372 C 100.222 205.972 99.705 206.502 98.959 206.962 C 98.205 207.422 97.362 207.652 96.429 207.652 Z M 96.879 205.402 C 97.832 205.402 98.632 205.072 99.279 204.412 C 99.932 203.752 100.259 202.889 100.259 201.822 L 100.259 201.652 C 100.259 200.932 100.109 200.289 99.809 199.722 C 99.509 199.155 99.099 198.715 98.579 198.402 C 98.065 198.082 97.499 197.922 96.879 197.922 C 95.812 197.922 94.989 198.269 94.409 198.962 C 93.822 199.655 93.529 200.552 93.529 201.652 C 93.529 202.765 93.815 203.669 94.389 204.362 C 94.969 205.055 95.799 205.402 96.879 205.402 ZM 107.552 213.702 L 110.032 207.752 L 105.282 195.922 L 108.332 195.922 L 110.782 203.222 L 111.332 205.002 L 111.882 203.222 L 114.452 195.922 L 117.402 195.922 L 110.352 213.702 L 107.552 213.702 ZM 123.106 207.652 C 122.306 207.652 121.476 207.549 120.616 207.342 C 119.756 207.129 119.143 206.882 118.776 206.602 L 119.676 204.472 C 120.676 205.172 121.82 205.522 123.106 205.522 C 124.386 205.522 125.026 205.149 125.026 204.402 C 125.026 204.069 124.893 203.809 124.626 203.622 C 124.36 203.442 123.886 203.225 123.206 202.972 L 122.256 202.622 C 121.256 202.222 120.463 201.745 119.876 201.192 C 119.296 200.632 119.006 199.892 119.006 198.972 C 119.006 197.925 119.416 197.105 120.236 196.512 C 121.063 195.919 122.17 195.622 123.556 195.622 C 124.236 195.622 124.906 195.699 125.566 195.852 C 126.226 195.999 126.73 196.189 127.076 196.422 L 126.106 198.572 C 125.886 198.359 125.54 198.172 125.066 198.012 C 124.593 197.852 124.063 197.772 123.476 197.772 C 122.296 197.772 121.706 198.132 121.706 198.852 C 121.706 199.252 121.863 199.555 122.176 199.762 C 122.496 199.969 123.013 200.199 123.726 200.452 C 123.793 200.465 124.053 200.555 124.506 200.722 C 125.573 201.142 126.363 201.619 126.876 202.152 C 127.396 202.685 127.656 203.369 127.656 204.202 C 127.656 205.335 127.226 206.192 126.366 206.772 C 125.506 207.359 124.42 207.652 123.106 207.652 ZM 136.7 207.402 L 136.7 189.022 L 139.33 189.022 L 139.33 195.922 L 139.23 198.052 C 139.543 197.352 140.05 196.772 140.75 196.312 C 141.45 195.852 142.267 195.622 143.2 195.622 C 144.387 195.622 145.297 195.869 145.93 196.362 C 146.563 196.855 146.987 197.542 147.2 198.422 C 147.42 199.309 147.53 200.459 147.53 201.872 L 147.53 207.402 L 144.85 207.402 L 144.85 201.852 C 144.85 200.885 144.797 200.125 144.69 199.572 C 144.583 199.025 144.367 198.609 144.04 198.322 C 143.713 198.042 143.243 197.902 142.63 197.902 C 142.13 197.902 141.623 198.052 141.11 198.352 C 140.603 198.652 140.183 199.089 139.85 199.662 C 139.517 200.235 139.35 200.915 139.35 201.702 L 139.35 207.402 L 136.7 207.402 ZM 156.024 207.652 C 154.99 207.652 154.037 207.405 153.164 206.912 C 152.29 206.419 151.59 205.719 151.064 204.812 C 150.537 203.905 150.274 202.842 150.274 201.622 C 150.274 200.422 150.504 199.372 150.964 198.472 C 151.424 197.572 152.077 196.872 152.924 196.372 C 153.777 195.872 154.777 195.622 155.924 195.622 C 156.59 195.622 157.217 195.739 157.804 195.972 C 158.384 196.205 158.874 196.492 159.274 196.832 C 159.674 197.179 159.94 197.519 160.074 197.852 L 160.124 195.922 L 162.704 195.922 L 162.704 207.402 L 160.154 207.402 L 160.104 205.372 C 159.817 205.972 159.3 206.502 158.554 206.962 C 157.8 207.422 156.957 207.652 156.024 207.652 Z M 156.474 205.402 C 157.427 205.402 158.227 205.072 158.874 204.412 C 159.527 203.752 159.854 202.889 159.854 201.822 L 159.854 201.652 C 159.854 200.932 159.704 200.289 159.404 199.722 C 159.104 199.155 158.694 198.715 158.174 198.402 C 157.66 198.082 157.094 197.922 156.474 197.922 C 155.407 197.922 154.584 198.269 154.004 198.962 C 153.417 199.655 153.124 200.552 153.124 201.652 C 153.124 202.765 153.41 203.669 153.984 204.362 C 154.564 205.055 155.394 205.402 156.474 205.402 ZM 170.547 207.402 L 164.497 195.922 L 167.577 195.922 L 170.047 201.102 L 170.847 203.172 L 171.647 201.102 L 174.097 195.922 L 177.097 195.922 L 171.077 207.402 L 170.547 207.402 ZM 183.946 207.652 C 182.58 207.652 181.44 207.382 180.526 206.842 C 179.606 206.295 178.93 205.569 178.496 204.662 C 178.063 203.755 177.846 202.759 177.846 201.672 C 177.846 200.459 178.1 199.392 178.606 198.472 C 179.12 197.559 179.826 196.855 180.726 196.362 C 181.626 195.869 182.643 195.622 183.776 195.622 C 185.543 195.622 186.856 196.109 187.716 197.082 C 188.57 198.062 188.996 199.435 188.996 201.202 C 188.996 201.649 188.973 202.115 188.926 202.602 L 180.676 202.602 C 180.856 203.615 181.216 204.349 181.756 204.802 C 182.303 205.249 183.06 205.472 184.026 205.472 C 184.826 205.472 185.483 205.405 185.996 205.272 C 186.516 205.139 186.993 204.955 187.426 204.722 L 188.246 206.652 C 187.833 206.919 187.266 207.152 186.546 207.352 C 185.833 207.552 184.966 207.652 183.946 207.652 Z M 180.676 200.722 L 186.376 200.722 C 186.39 199.689 186.163 198.959 185.696 198.532 C 185.23 198.112 184.563 197.902 183.696 197.902 C 181.95 197.902 180.943 198.842 180.676 200.722 ZM 198.77 213.702 L 201.25 207.752 L 196.5 195.922 L 199.55 195.922 L 202 203.222 L 202.55 205.002 L 203.1 203.222 L 205.67 195.922 L 208.62 195.922 L 201.57 213.702 L 198.77 213.702 ZM 215.724 207.652 C 214.537 207.652 213.487 207.385 212.574 206.852 C 211.654 206.319 210.944 205.592 210.444 204.672 C 209.944 203.759 209.694 202.742 209.694 201.622 C 209.694 200.522 209.94 199.515 210.434 198.602 C 210.927 197.682 211.63 196.955 212.544 196.422 C 213.464 195.889 214.524 195.622 215.724 195.622 C 216.924 195.622 217.977 195.889 218.884 196.422 C 219.79 196.955 220.49 197.682 220.984 198.602 C 221.477 199.515 221.724 200.522 221.724 201.622 C 221.724 202.742 221.474 203.759 220.974 204.672 C 220.474 205.592 219.77 206.319 218.864 206.852 C 217.95 207.385 216.904 207.652 215.724 207.652 Z M 215.794 205.452 C 216.76 205.452 217.524 205.092 218.084 204.372 C 218.644 203.659 218.924 202.759 218.924 201.672 C 218.924 200.592 218.624 199.679 218.024 198.932 C 217.424 198.192 216.63 197.822 215.644 197.822 C 214.697 197.822 213.934 198.189 213.354 198.922 C 212.78 199.655 212.494 200.572 212.494 201.672 C 212.494 202.739 212.804 203.635 213.424 204.362 C 214.037 205.089 214.827 205.452 215.794 205.452 ZM 228.568 207.652 C 226.988 207.652 225.901 207.185 225.308 206.252 C 224.714 205.319 224.418 204.019 224.418 202.352 L 224.418 195.922 L 227.118 195.922 L 227.118 201.672 C 227.118 202.625 227.171 203.365 227.278 203.892 C 227.391 204.412 227.608 204.799 227.928 205.052 C 228.254 205.299 228.744 205.422 229.398 205.422 C 229.864 205.422 230.314 205.289 230.748 205.022 C 231.181 204.755 231.534 204.395 231.808 203.942 C 232.081 203.482 232.218 202.975 232.218 202.422 L 232.218 195.922 L 234.898 195.922 L 234.898 207.402 L 232.698 207.402 L 232.398 205.722 C 231.978 206.375 231.458 206.859 230.838 207.172 C 230.211 207.492 229.454 207.652 228.568 207.652 Z" transform="matrix(1.678157091140747, 0, 0, 1.678157091140747, 181.6521453857422, -94.62876892089844)" style="fill: rgb(51, 51, 51); line-height: 40.0158px; white-space: pre;"/>
    <path d="M 3.691 237.664 C 2.558 237.664 1.535 237.417 0.621 236.924 C -0.285 236.43 -1.005 235.724 -1.539 234.804 C -2.072 233.877 -2.339 232.787 -2.339 231.534 C -2.339 230.354 -2.092 229.317 -1.599 228.424 C -1.105 227.53 -0.415 226.844 0.471 226.364 C 1.365 225.877 2.395 225.634 3.561 225.634 C 4.448 225.634 5.211 225.747 5.851 225.974 C 6.491 226.2 6.995 226.48 7.361 226.814 L 6.161 228.984 C 5.461 228.284 4.671 227.934 3.791 227.934 C 2.725 227.934 1.911 228.26 1.351 228.914 C 0.791 229.56 0.511 230.427 0.511 231.514 C 0.511 232.747 0.798 233.704 1.371 234.384 C 1.951 235.07 2.758 235.414 3.791 235.414 C 4.305 235.414 4.808 235.337 5.301 235.184 C 5.795 235.037 6.175 234.864 6.441 234.664 L 7.411 236.564 C 7.045 236.844 6.535 237.097 5.881 237.324 C 5.221 237.55 4.491 237.664 3.691 237.664 ZM 10.11 237.414 L 10.11 219.034 L 12.74 219.034 L 12.74 225.934 L 12.64 228.064 C 12.954 227.364 13.46 226.784 14.16 226.324 C 14.86 225.864 15.677 225.634 16.61 225.634 C 17.797 225.634 18.707 225.88 19.34 226.374 C 19.974 226.867 20.397 227.554 20.61 228.434 C 20.83 229.32 20.94 230.47 20.94 231.884 L 20.94 237.414 L 18.26 237.414 L 18.26 231.864 C 18.26 230.897 18.207 230.137 18.1 229.584 C 17.994 229.037 17.777 228.62 17.45 228.334 C 17.124 228.054 16.654 227.914 16.04 227.914 C 15.54 227.914 15.034 228.064 14.52 228.364 C 14.014 228.664 13.594 229.1 13.26 229.674 C 12.927 230.247 12.76 230.927 12.76 231.714 L 12.76 237.414 L 10.11 237.414 ZM 29.434 237.664 C 28.401 237.664 27.448 237.417 26.574 236.924 C 25.701 236.43 25.001 235.73 24.474 234.824 C 23.948 233.917 23.684 232.854 23.684 231.634 C 23.684 230.434 23.914 229.384 24.374 228.484 C 24.834 227.584 25.488 226.884 26.334 226.384 C 27.188 225.884 28.188 225.634 29.334 225.634 C 30.001 225.634 30.628 225.75 31.214 225.984 C 31.794 226.217 32.284 226.504 32.684 226.844 C 33.084 227.19 33.351 227.53 33.484 227.864 L 33.534 225.934 L 36.114 225.934 L 36.114 237.414 L 33.564 237.414 L 33.514 235.384 C 33.228 235.984 32.711 236.514 31.964 236.974 C 31.211 237.434 30.368 237.664 29.434 237.664 Z M 29.884 235.414 C 30.838 235.414 31.638 235.084 32.284 234.424 C 32.938 233.764 33.264 232.9 33.264 231.834 L 33.264 231.664 C 33.264 230.944 33.114 230.3 32.814 229.734 C 32.514 229.167 32.104 228.727 31.584 228.414 C 31.071 228.094 30.504 227.934 29.884 227.934 C 28.818 227.934 27.994 228.28 27.414 228.974 C 26.828 229.667 26.534 230.564 26.534 231.664 C 26.534 232.777 26.821 233.68 27.394 234.374 C 27.974 235.067 28.804 235.414 29.884 235.414 ZM 39.738 237.414 L 39.738 225.934 L 42.388 225.934 L 42.408 228.034 C 42.728 227.334 43.228 226.76 43.908 226.314 C 44.595 225.86 45.395 225.634 46.308 225.634 C 47.495 225.634 48.405 225.88 49.038 226.374 C 49.671 226.867 50.095 227.554 50.308 228.434 C 50.528 229.32 50.638 230.47 50.638 231.884 L 50.638 237.414 L 47.938 237.414 L 47.938 231.964 C 47.938 230.51 47.795 229.464 47.508 228.824 C 47.228 228.184 46.645 227.864 45.758 227.864 C 45.258 227.864 44.751 228.017 44.238 228.324 C 43.718 228.63 43.288 229.077 42.948 229.664 C 42.608 230.244 42.438 230.927 42.438 231.714 L 42.438 237.414 L 39.738 237.414 ZM 59.682 243.414 C 58.835 243.414 57.998 243.297 57.172 243.064 C 56.345 242.83 55.758 242.614 55.412 242.414 L 56.012 239.914 C 57.112 240.634 58.312 240.994 59.612 240.994 C 60.612 240.994 61.452 240.75 62.132 240.264 C 62.818 239.784 63.168 238.844 63.182 237.444 L 63.182 235.384 C 62.835 236.037 62.268 236.58 61.482 237.014 C 60.702 237.447 59.835 237.664 58.882 237.664 C 57.882 237.664 56.965 237.417 56.132 236.924 C 55.298 236.43 54.642 235.727 54.162 234.814 C 53.675 233.894 53.432 232.827 53.432 231.614 C 53.432 230.447 53.662 229.407 54.122 228.494 C 54.582 227.587 55.235 226.884 56.082 226.384 C 56.935 225.884 57.928 225.634 59.062 225.634 C 59.728 225.634 60.352 225.75 60.932 225.984 C 61.518 226.217 62.015 226.504 62.422 226.844 C 62.828 227.19 63.098 227.53 63.232 227.864 L 63.282 225.934 L 65.842 225.934 L 65.842 237.334 C 65.842 239.287 65.338 240.79 64.332 241.844 C 63.332 242.89 61.782 243.414 59.682 243.414 Z M 59.632 235.384 C 60.585 235.384 61.385 235.057 62.032 234.404 C 62.685 233.744 63.012 232.88 63.012 231.814 L 63.012 231.634 C 63.012 230.92 62.862 230.28 62.562 229.714 C 62.262 229.147 61.852 228.704 61.332 228.384 C 60.818 228.07 60.252 227.914 59.632 227.914 C 58.565 227.914 57.742 228.257 57.162 228.944 C 56.575 229.637 56.282 230.534 56.282 231.634 C 56.282 232.754 56.568 233.66 57.142 234.354 C 57.722 235.04 58.552 235.384 59.632 235.384 ZM 74.705 237.664 C 73.339 237.664 72.199 237.394 71.285 236.854 C 70.365 236.307 69.689 235.58 69.255 234.674 C 68.822 233.767 68.605 232.77 68.605 231.684 C 68.605 230.47 68.859 229.404 69.365 228.484 C 69.879 227.57 70.585 226.867 71.485 226.374 C 72.385 225.88 73.402 225.634 74.535 225.634 C 76.302 225.634 77.615 226.12 78.475 227.094 C 79.329 228.074 79.755 229.447 79.755 231.214 C 79.755 231.66 79.732 232.127 79.685 232.614 L 71.435 232.614 C 71.615 233.627 71.975 234.36 72.515 234.814 C 73.062 235.26 73.819 235.484 74.785 235.484 C 75.585 235.484 76.242 235.417 76.755 235.284 C 77.275 235.15 77.752 234.967 78.185 234.734 L 79.005 236.664 C 78.592 236.93 78.025 237.164 77.305 237.364 C 76.592 237.564 75.725 237.664 74.705 237.664 Z M 71.435 230.734 L 77.135 230.734 C 77.149 229.7 76.922 228.97 76.455 228.544 C 75.989 228.124 75.322 227.914 74.455 227.914 C 72.709 227.914 71.702 228.854 71.435 230.734 ZM 87.654 237.664 C 86.621 237.664 85.668 237.417 84.794 236.924 C 83.921 236.43 83.221 235.73 82.694 234.824 C 82.168 233.917 81.904 232.854 81.904 231.634 C 81.904 229.82 82.414 228.367 83.434 227.274 C 84.448 226.18 85.821 225.634 87.554 225.634 C 88.521 225.634 89.404 225.87 90.204 226.344 C 91.004 226.824 91.548 227.397 91.834 228.064 L 91.704 226.114 L 91.704 219.034 L 94.364 219.034 L 94.364 237.414 L 91.784 237.414 L 91.734 235.384 C 91.448 235.984 90.931 236.514 90.184 236.974 C 89.431 237.434 88.588 237.664 87.654 237.664 Z M 88.104 235.384 C 89.058 235.384 89.858 235.057 90.504 234.404 C 91.158 233.744 91.484 232.88 91.484 231.814 L 91.484 231.634 C 91.484 230.92 91.334 230.28 91.034 229.714 C 90.734 229.147 90.324 228.704 89.804 228.384 C 89.291 228.07 88.724 227.914 88.104 227.914 C 87.038 227.914 86.214 228.257 85.634 228.944 C 85.048 229.637 84.754 230.534 84.754 231.634 C 84.754 232.754 85.041 233.66 85.614 234.354 C 86.194 235.04 87.024 235.384 88.104 235.384 ZM 104.258 237.414 L 104.258 225.934 L 107.058 225.934 L 107.058 237.414 L 104.258 237.414 Z M 105.628 223.784 C 105.114 223.784 104.681 223.607 104.328 223.254 C 103.981 222.907 103.808 222.474 103.808 221.954 C 103.808 221.487 103.981 221.087 104.328 220.754 C 104.681 220.42 105.114 220.254 105.628 220.254 C 106.128 220.254 106.554 220.42 106.908 220.754 C 107.254 221.087 107.428 221.487 107.428 221.954 C 107.428 222.474 107.258 222.907 106.918 223.254 C 106.578 223.607 106.148 223.784 105.628 223.784 ZM 110.807 237.414 L 110.807 225.934 L 113.457 225.934 L 113.477 228.034 C 113.797 227.334 114.297 226.76 114.977 226.314 C 115.664 225.86 116.464 225.634 117.377 225.634 C 118.564 225.634 119.474 225.88 120.107 226.374 C 120.74 226.867 121.164 227.554 121.377 228.434 C 121.597 229.32 121.707 230.47 121.707 231.884 L 121.707 237.414 L 119.007 237.414 L 119.007 231.964 C 119.007 230.51 118.864 229.464 118.577 228.824 C 118.297 228.184 117.714 227.864 116.827 227.864 C 116.327 227.864 115.82 228.017 115.307 228.324 C 114.787 228.63 114.357 229.077 114.017 229.664 C 113.677 230.244 113.507 230.927 113.507 231.714 L 113.507 237.414 L 110.807 237.414 ZM 132.305 237.414 L 132.305 228.134 L 130.275 228.134 L 130.275 225.934 L 132.305 225.934 L 132.305 221.254 L 135.025 220.654 L 135.025 225.934 L 137.675 225.934 L 137.675 228.134 L 135.025 228.134 L 135.025 237.414 L 132.305 237.414 ZM 140 237.414 L 140 219.034 L 142.63 219.034 L 142.63 225.934 L 142.53 228.064 C 142.843 227.364 143.35 226.784 144.05 226.324 C 144.75 225.864 145.566 225.634 146.5 225.634 C 147.686 225.634 148.596 225.88 149.23 226.374 C 149.863 226.867 150.286 227.554 150.5 228.434 C 150.72 229.32 150.83 230.47 150.83 231.884 L 150.83 237.414 L 148.15 237.414 L 148.15 231.864 C 148.15 230.897 148.096 230.137 147.99 229.584 C 147.883 229.037 147.666 228.62 147.34 228.334 C 147.013 228.054 146.543 227.914 145.93 227.914 C 145.43 227.914 144.923 228.064 144.41 228.364 C 143.903 228.664 143.483 229.1 143.15 229.674 C 142.816 230.247 142.65 230.927 142.65 231.714 L 142.65 237.414 L 140 237.414 ZM 159.673 237.664 C 158.307 237.664 157.167 237.394 156.253 236.854 C 155.333 236.307 154.657 235.58 154.223 234.674 C 153.79 233.767 153.573 232.77 153.573 231.684 C 153.573 230.47 153.827 229.404 154.333 228.484 C 154.847 227.57 155.553 226.867 156.453 226.374 C 157.353 225.88 158.37 225.634 159.503 225.634 C 161.27 225.634 162.583 226.12 163.443 227.094 C 164.297 228.074 164.723 229.447 164.723 231.214 C 164.723 231.66 164.7 232.127 164.653 232.614 L 156.403 232.614 C 156.583 233.627 156.943 234.36 157.483 234.814 C 158.03 235.26 158.787 235.484 159.753 235.484 C 160.553 235.484 161.21 235.417 161.723 235.284 C 162.243 235.15 162.72 234.967 163.153 234.734 L 163.973 236.664 C 163.56 236.93 162.993 237.164 162.273 237.364 C 161.56 237.564 160.693 237.664 159.673 237.664 Z M 156.403 230.734 L 162.103 230.734 C 162.117 229.7 161.89 228.97 161.423 228.544 C 160.957 228.124 160.29 227.914 159.423 227.914 C 157.677 227.914 156.67 228.854 156.403 230.734 ZM 173.727 243.494 L 173.727 225.934 L 176.327 225.934 L 176.327 228.064 C 177.24 226.444 178.673 225.634 180.627 225.634 C 182.24 225.634 183.547 226.147 184.547 227.174 C 185.553 228.2 186.057 229.68 186.057 231.614 C 186.057 232.814 185.81 233.87 185.317 234.784 C 184.823 235.704 184.157 236.414 183.317 236.914 C 182.47 237.414 181.53 237.664 180.497 237.664 C 179.53 237.664 178.693 237.494 177.987 237.154 C 177.28 236.807 176.727 236.317 176.327 235.684 L 176.347 243.494 L 173.727 243.494 Z M 179.877 235.384 C 180.957 235.384 181.79 235.04 182.377 234.354 C 182.957 233.66 183.247 232.77 183.247 231.684 C 183.247 230.55 182.96 229.647 182.387 228.974 C 181.813 228.3 180.977 227.964 179.877 227.964 C 179.277 227.964 178.713 228.107 178.187 228.394 C 177.66 228.687 177.243 229.104 176.937 229.644 C 176.63 230.19 176.477 230.82 176.477 231.534 L 176.477 231.714 C 176.477 232.427 176.63 233.064 176.937 233.624 C 177.243 234.184 177.657 234.617 178.177 234.924 C 178.69 235.23 179.257 235.384 179.877 235.384 ZM 193.996 237.664 C 192.962 237.664 192.009 237.417 191.136 236.924 C 190.262 236.43 189.562 235.73 189.036 234.824 C 188.509 233.917 188.246 232.854 188.246 231.634 C 188.246 230.434 188.476 229.384 188.936 228.484 C 189.396 227.584 190.049 226.884 190.896 226.384 C 191.749 225.884 192.749 225.634 193.896 225.634 C 194.562 225.634 195.189 225.75 195.776 225.984 C 196.356 226.217 196.846 226.504 197.246 226.844 C 197.646 227.19 197.912 227.53 198.046 227.864 L 198.096 225.934 L 200.676 225.934 L 200.676 237.414 L 198.126 237.414 L 198.076 235.384 C 197.789 235.984 197.272 236.514 196.526 236.974 C 195.772 237.434 194.929 237.664 193.996 237.664 Z M 194.446 235.414 C 195.399 235.414 196.199 235.084 196.846 234.424 C 197.499 233.764 197.826 232.9 197.826 231.834 L 197.826 231.664 C 197.826 230.944 197.676 230.3 197.376 229.734 C 197.076 229.167 196.666 228.727 196.146 228.414 C 195.632 228.094 195.066 227.934 194.446 227.934 C 193.379 227.934 192.556 228.28 191.976 228.974 C 191.389 229.667 191.096 230.564 191.096 231.664 C 191.096 232.777 191.382 233.68 191.956 234.374 C 192.536 235.067 193.366 235.414 194.446 235.414 ZM 208.249 237.664 C 207.449 237.664 206.619 237.56 205.759 237.354 C 204.899 237.14 204.286 236.894 203.919 236.614 L 204.819 234.484 C 205.819 235.184 206.963 235.534 208.249 235.534 C 209.529 235.534 210.169 235.16 210.169 234.414 C 210.169 234.08 210.036 233.82 209.769 233.634 C 209.503 233.454 209.029 233.237 208.349 232.984 L 207.399 232.634 C 206.399 232.234 205.606 231.757 205.019 231.204 C 204.439 230.644 204.149 229.904 204.149 228.984 C 204.149 227.937 204.559 227.117 205.379 226.524 C 206.206 225.93 207.313 225.634 208.699 225.634 C 209.379 225.634 210.049 225.71 210.709 225.864 C 211.369 226.01 211.873 226.2 212.219 226.434 L 211.249 228.584 C 211.029 228.37 210.683 228.184 210.209 228.024 C 209.736 227.864 209.206 227.784 208.619 227.784 C 207.439 227.784 206.849 228.144 206.849 228.864 C 206.849 229.264 207.006 229.567 207.319 229.774 C 207.639 229.98 208.156 230.21 208.869 230.464 C 208.936 230.477 209.196 230.567 209.649 230.734 C 210.716 231.154 211.506 231.63 212.019 232.164 C 212.539 232.697 212.799 233.38 212.799 234.214 C 212.799 235.347 212.369 236.204 211.509 236.784 C 210.649 237.37 209.563 237.664 208.249 237.664 ZM 216.598 237.414 L 216.598 228.134 L 214.568 228.134 L 214.568 225.934 L 216.598 225.934 L 216.598 221.254 L 219.318 220.654 L 219.318 225.934 L 221.968 225.934 L 221.968 228.134 L 219.318 228.134 L 219.318 237.414 L 216.598 237.414 Z" transform="matrix(1.678157091140747, 0, 0, 1.678157091140747, 181.6521453857422, -94.62876892089844)" style="fill: rgb(51, 51, 51); line-height: 40.0158px; white-space: pre;"/>
    <path d="M 42.82 273.726 L 45.3 267.776 L 40.55 255.946 L 43.6 255.946 L 46.05 263.246 L 46.6 265.026 L 47.15 263.246 L 49.72 255.946 L 52.67 255.946 L 45.62 273.726 L 42.82 273.726 ZM 59.844 267.676 C 58.478 267.676 57.338 267.406 56.424 266.866 C 55.504 266.319 54.828 265.592 54.394 264.686 C 53.961 263.779 53.744 262.782 53.744 261.696 C 53.744 260.482 53.998 259.416 54.504 258.496 C 55.018 257.582 55.724 256.879 56.624 256.386 C 57.524 255.892 58.541 255.646 59.674 255.646 C 61.441 255.646 62.754 256.132 63.614 257.106 C 64.468 258.086 64.894 259.459 64.894 261.226 C 64.894 261.672 64.871 262.139 64.824 262.626 L 56.574 262.626 C 56.754 263.639 57.114 264.372 57.654 264.826 C 58.201 265.272 58.958 265.496 59.924 265.496 C 60.724 265.496 61.381 265.429 61.894 265.296 C 62.414 265.162 62.891 264.979 63.324 264.746 L 64.144 266.676 C 63.731 266.942 63.164 267.176 62.444 267.376 C 61.731 267.576 60.864 267.676 59.844 267.676 Z M 56.574 260.746 L 62.274 260.746 C 62.288 259.712 62.061 258.982 61.594 258.556 C 61.128 258.136 60.461 257.926 59.594 257.926 C 57.848 257.926 56.841 258.866 56.574 260.746 ZM 72.793 267.676 C 71.76 267.676 70.806 267.429 69.933 266.936 C 69.06 266.442 68.36 265.742 67.833 264.836 C 67.306 263.929 67.043 262.866 67.043 261.646 C 67.043 260.446 67.273 259.396 67.733 258.496 C 68.193 257.596 68.846 256.896 69.693 256.396 C 70.546 255.896 71.546 255.646 72.693 255.646 C 73.36 255.646 73.986 255.762 74.573 255.996 C 75.153 256.229 75.643 256.516 76.043 256.856 C 76.443 257.202 76.71 257.542 76.843 257.876 L 76.893 255.946 L 79.473 255.946 L 79.473 267.426 L 76.923 267.426 L 76.873 265.396 C 76.586 265.996 76.07 266.526 75.323 266.986 C 74.57 267.446 73.726 267.676 72.793 267.676 Z M 73.243 265.426 C 74.196 265.426 74.996 265.096 75.643 264.436 C 76.296 263.776 76.623 262.912 76.623 261.846 L 76.623 261.676 C 76.623 260.956 76.473 260.312 76.173 259.746 C 75.873 259.179 75.463 258.739 74.943 258.426 C 74.43 258.106 73.863 257.946 73.243 257.946 C 72.176 257.946 71.353 258.292 70.773 258.986 C 70.186 259.679 69.893 260.576 69.893 261.676 C 69.893 262.789 70.18 263.692 70.753 264.386 C 71.333 265.079 72.163 265.426 73.243 265.426 ZM 83.017 267.426 L 83.017 255.946 L 85.717 255.946 L 85.717 258.196 C 85.984 257.429 86.417 256.812 87.017 256.346 C 87.617 255.879 88.3 255.646 89.067 255.646 C 89.6 255.646 89.967 255.696 90.167 255.796 L 89.797 258.526 C 89.644 258.426 89.317 258.376 88.817 258.376 C 88.037 258.376 87.324 258.626 86.677 259.126 C 86.037 259.626 85.717 260.426 85.717 261.526 L 85.717 267.426 L 83.017 267.426 ZM 103.546 267.676 C 102.359 267.676 101.309 267.409 100.396 266.876 C 99.476 266.342 98.766 265.616 98.266 264.696 C 97.766 263.782 97.516 262.766 97.516 261.646 C 97.516 260.546 97.762 259.539 98.256 258.626 C 98.749 257.706 99.452 256.979 100.366 256.446 C 101.286 255.912 102.346 255.646 103.546 255.646 C 104.746 255.646 105.799 255.912 106.706 256.446 C 107.612 256.979 108.312 257.706 108.806 258.626 C 109.299 259.539 109.546 260.546 109.546 261.646 C 109.546 262.766 109.296 263.782 108.796 264.696 C 108.296 265.616 107.592 266.342 106.686 266.876 C 105.772 267.409 104.726 267.676 103.546 267.676 Z M 103.616 265.476 C 104.582 265.476 105.346 265.116 105.906 264.396 C 106.466 263.682 106.746 262.782 106.746 261.696 C 106.746 260.616 106.446 259.702 105.846 258.956 C 105.246 258.216 104.452 257.846 103.466 257.846 C 102.519 257.846 101.756 258.212 101.176 258.946 C 100.602 259.679 100.316 260.596 100.316 261.696 C 100.316 262.762 100.626 263.659 101.246 264.386 C 101.859 265.112 102.649 265.476 103.616 265.476 ZM 112.339 267.426 L 112.339 255.946 L 115.039 255.946 L 115.039 258.196 C 115.306 257.429 115.739 256.812 116.339 256.346 C 116.939 255.879 117.623 255.646 118.389 255.646 C 118.923 255.646 119.289 255.696 119.489 255.796 L 119.119 258.526 C 118.966 258.426 118.639 258.376 118.139 258.376 C 117.359 258.376 116.646 258.626 115.999 259.126 C 115.359 259.626 115.039 260.426 115.039 261.526 L 115.039 267.426 L 112.339 267.426 ZM 128.518 267.426 L 128.518 258.146 L 126.488 258.146 L 126.488 255.946 L 128.518 255.946 L 128.518 251.266 L 131.238 250.666 L 131.238 255.946 L 133.888 255.946 L 133.888 258.146 L 131.238 258.146 L 131.238 267.426 L 128.518 267.426 ZM 146.492 267.426 L 143.092 261.046 L 139.692 267.426 L 139.212 267.426 L 134.392 255.946 L 137.292 255.946 L 139.762 262.626 L 143.042 255.946 L 143.142 255.946 L 146.442 262.576 L 148.922 255.946 L 151.772 255.946 L 146.962 267.426 L 146.492 267.426 ZM 158.666 267.676 C 157.479 267.676 156.429 267.409 155.516 266.876 C 154.596 266.342 153.886 265.616 153.386 264.696 C 152.886 263.782 152.636 262.766 152.636 261.646 C 152.636 260.546 152.883 259.539 153.376 258.626 C 153.869 257.706 154.573 256.979 155.486 256.446 C 156.406 255.912 157.466 255.646 158.666 255.646 C 159.866 255.646 160.919 255.912 161.826 256.446 C 162.733 256.979 163.433 257.706 163.926 258.626 C 164.419 259.539 164.666 260.546 164.666 261.646 C 164.666 262.766 164.416 263.782 163.916 264.696 C 163.416 265.616 162.713 266.342 161.806 266.876 C 160.893 267.409 159.846 267.676 158.666 267.676 Z M 158.736 265.476 C 159.703 265.476 160.466 265.116 161.026 264.396 C 161.586 263.682 161.866 262.782 161.866 261.696 C 161.866 260.616 161.566 259.702 160.966 258.956 C 160.366 258.216 159.573 257.846 158.586 257.846 C 157.639 257.846 156.876 258.212 156.296 258.946 C 155.723 259.679 155.436 260.596 155.436 261.696 C 155.436 262.762 155.746 263.659 156.366 264.386 C 156.979 265.112 157.769 265.476 158.736 265.476 ZM 170.09 261.746 C 169.99 261.399 169.94 261.016 169.94 260.596 C 169.94 259.796 170.133 259.139 170.52 258.626 C 170.913 258.106 171.493 257.539 172.26 256.926 C 172.98 256.339 173.52 255.812 173.88 255.346 C 174.233 254.879 174.41 254.302 174.41 253.616 C 174.41 252.936 174.173 252.376 173.7 251.936 C 173.226 251.489 172.563 251.266 171.71 251.266 C 171.196 251.266 170.746 251.372 170.36 251.586 C 169.98 251.792 169.676 252.032 169.45 252.306 C 169.223 252.579 169.076 252.826 169.01 253.046 L 166.51 251.796 C 166.776 251.329 167.056 250.902 167.35 250.516 C 167.643 250.136 168.173 249.746 168.94 249.346 C 169.706 248.946 170.68 248.746 171.86 248.746 C 172.926 248.746 173.883 248.949 174.73 249.356 C 175.57 249.762 176.223 250.322 176.69 251.036 C 177.156 251.742 177.39 252.519 177.39 253.366 C 177.39 254.152 177.256 254.829 176.99 255.396 C 176.723 255.962 176.403 256.432 176.03 256.806 C 175.65 257.186 175.16 257.609 174.56 258.076 C 173.893 258.589 173.41 259.022 173.11 259.376 C 172.81 259.722 172.66 260.156 172.66 260.676 C 172.66 261.009 172.676 261.366 172.71 261.746 L 170.09 261.746 Z M 171.64 267.676 C 171.12 267.676 170.69 267.506 170.35 267.166 C 170.01 266.819 169.84 266.396 169.84 265.896 C 169.84 265.382 170.01 264.956 170.35 264.616 C 170.69 264.269 171.12 264.096 171.64 264.096 C 172.14 264.096 172.563 264.269 172.91 264.616 C 173.263 264.956 173.44 265.382 173.44 265.896 C 173.44 266.396 173.263 266.819 172.91 267.166 C 172.563 267.506 172.14 267.676 171.64 267.676 Z" transform="matrix(1.678157091140747, 0, 0, 1.678157091140747, 181.6521453857422, -94.62876892089844)" style="fill: rgb(51, 51, 51); line-height: 40.0158px; white-space: pre;"/>
    <path d="M 312.318 456.088 L 312.318 440.648 L 319.558 440.648 L 319.558 442.688 L 314.648 442.688 L 314.648 447.058 L 318.468 447.058 L 318.468 449.118 L 314.648 449.118 L 314.648 456.088 L 312.318 456.088 ZM 330.238 456.088 L 330.238 440.648 L 332.608 440.648 L 332.608 453.988 L 337.038 453.988 L 337.038 456.088 L 330.238 456.088 ZM 352.824 440.628 L 353.054 440.628 L 360.484 456.088 L 357.774 456.088 L 356.454 453.068 L 349.374 453.068 L 348.054 456.088 L 345.424 456.088 L 352.824 440.628 Z M 352.924 445.108 L 352.004 447.208 L 350.324 450.938 L 355.534 450.938 L 353.874 447.228 L 352.964 445.108 L 352.924 445.108 ZM 377.559 456.088 L 373.849 448.888 L 372.879 446.698 L 372.439 448.888 L 371.009 456.088 L 368.679 456.088 L 371.869 440.648 L 372.129 440.648 L 376.369 448.988 L 377.629 451.778 L 378.889 448.988 L 383.049 440.648 L 383.279 440.648 L 386.589 456.088 L 384.279 456.088 L 382.729 448.888 L 382.269 446.698 L 381.429 448.888 L 377.689 456.088 L 377.559 456.088 ZM 396.741 456.088 L 396.741 440.648 L 403.501 440.648 L 403.501 442.708 L 399.071 442.708 L 399.071 446.978 L 402.641 446.978 L 402.641 449.078 L 399.071 449.078 L 399.071 454.008 L 404.191 454.008 L 404.191 456.088 L 396.741 456.088 ZM 418.211 456.298 C 417.371 456.298 416.537 456.151 415.711 455.858 C 414.884 455.565 414.287 455.235 413.921 454.868 L 415.041 452.878 C 415.334 453.145 415.791 453.421 416.411 453.708 C 417.037 453.995 417.637 454.138 418.211 454.138 C 418.951 454.138 419.554 453.961 420.021 453.608 C 420.494 453.261 420.731 452.778 420.731 452.158 C 420.731 451.685 420.604 451.271 420.351 450.918 C 420.097 450.571 419.791 450.281 419.431 450.048 C 419.064 449.821 418.544 449.538 417.871 449.198 C 417.071 448.805 416.524 448.511 416.231 448.318 C 414.877 447.411 414.201 446.151 414.201 444.538 C 414.201 443.205 414.641 442.185 415.521 441.478 C 416.401 440.771 417.514 440.418 418.861 440.418 C 420.301 440.418 421.524 440.831 422.531 441.658 L 421.421 443.568 C 421.154 443.288 420.781 443.048 420.301 442.848 C 419.814 442.641 419.297 442.538 418.751 442.538 C 418.051 442.538 417.501 442.698 417.101 443.018 C 416.707 443.331 416.511 443.795 416.511 444.408 C 416.511 444.841 416.634 445.231 416.881 445.578 C 417.134 445.918 417.454 446.215 417.841 446.468 C 418.227 446.721 418.747 447.031 419.401 447.398 C 420.034 447.745 420.517 448.021 420.851 448.228 C 421.191 448.428 421.507 448.668 421.801 448.948 C 422.207 449.315 422.537 449.748 422.791 450.248 C 423.037 450.755 423.161 451.308 423.161 451.908 C 423.161 452.848 422.947 453.645 422.521 454.298 C 422.094 454.958 421.507 455.458 420.761 455.798 C 420.014 456.131 419.164 456.298 418.211 456.298 Z" transform="matrix(1, 0, 0, 1, 0, 0)" style="fill: rgb(195, 195, 195); text-transform: uppercase; white-space: pre;"/>
  </g>
</svg>