<?xml version="1.0" encoding="utf-8"?>
<svg viewBox="0 0 748 450" xmlns="http://www.w3.org/2000/svg">
  <defs>
    <filter id="drop-shadow-filter-0" x="-500%" y="-500%" width="1000%" height="1000%">
      <feGaussianBlur in="SourceAlpha" stdDeviation="8"/>
      <feOffset dx="3" dy="2"/>
      <feComponentTransfer result="offsetblur">
        <feFuncA id="spread-ctrl" type="linear" slope="1"/>
      </feComponentTransfer>
      <feFlood flood-color="rgba(0,0,0,0.3)" x="10" y="10"/>
      <feComposite in2="offsetblur" operator="in"/>
      <feMerge>
        <feMergeNode/>
        <feMergeNode in="SourceGraphic"/>
      </feMerge>
    </filter>
  </defs>
  <path d="M 59.706 25 L 688.294 25 C 708.013 25 724 40.986 724 60.706 L 724 389.294 C 724 409.014 708.013 425 688.294 425 L 59.706 425 C 39.986 425 24 409.014 24 389.294 L 24 60.706 C 24 40.986 39.986 25 59.706 25 Z" style="fill: rgb(255, 255, 255); filter: url(#drop-shadow-filter-0);">
    <title>Card</title>
  </path>
  <g style="">
    <title>Kindling Sample</title>
    <path d="M 346.938 117.852 C 346.655 101.215 353.735 91.591 353.735 91.591 C 356.804 106.311 362.507 106.37 362.507 106.37 C 362.507 106.37 359.42 100.886 359.611 91.965 C 359.833 81.583 369.014 63.541 381.053 63.171 C 378.749 66.377 377.775 69.567 377.775 74.257 C 377.775 91.337 401.07 96.241 401.07 118.241 C 401.07 137.905 384.937 141.532 373.497 141.532 C 362.049 141.532 347.222 134.489 346.938 117.852 Z M 357.229 122.041 C 357.229 130.496 366.945 135.248 374.914 135.14 C 383.041 135.028 383.881 133.488 384.18 133.672 C 387.058 135.392 391.378 134.509 391.378 134.509 C 391.378 134.509 388.579 133.184 389.291 130.3 C 389.379 129.943 392.541 128.206 392.599 122.041 C 392.676 113.587 382.884 108.941 374.914 108.941 C 366.941 108.941 357.229 113.587 357.229 122.041 Z" style="fill: rgb(118, 52, 148);">
      <title>Kindling Logo</title>
    </path>
    <path d="M -2.332 186.712 L 3.298 200.062 L 8.228 186.822 L 11.558 186.822 L 3.548 207.402 L 3.158 207.402 L -2.442 194.072 L -8.012 207.372 L -8.412 207.372 L -16.412 186.822 L -13.082 186.822 L -8.152 200.062 L -2.502 186.712 L -2.332 186.712 ZM 12.617 207.402 L 12.617 186.822 L 15.557 186.822 L 15.557 194.552 L 15.447 196.932 C 15.8 196.145 16.367 195.495 17.147 194.982 C 17.933 194.469 18.85 194.212 19.897 194.212 C 21.223 194.212 22.24 194.489 22.947 195.042 C 23.653 195.589 24.13 196.359 24.377 197.352 C 24.617 198.339 24.737 199.625 24.737 201.212 L 24.737 207.402 L 21.747 207.402 L 21.747 201.182 C 21.747 200.102 21.683 199.255 21.557 198.642 C 21.437 198.022 21.197 197.555 20.837 197.242 C 20.47 196.922 19.94 196.762 19.247 196.762 C 18.687 196.762 18.123 196.929 17.557 197.262 C 16.99 197.602 16.52 198.092 16.147 198.732 C 15.773 199.379 15.587 200.142 15.587 201.022 L 15.587 207.402 L 12.617 207.402 ZM 34.254 207.682 C 33.101 207.682 32.034 207.405 31.054 206.852 C 30.074 206.305 29.287 205.522 28.694 204.502 C 28.107 203.489 27.814 202.299 27.814 200.932 C 27.814 199.592 28.071 198.415 28.584 197.402 C 29.097 196.395 29.831 195.612 30.784 195.052 C 31.737 194.492 32.857 194.212 34.144 194.212 C 34.891 194.212 35.591 194.342 36.244 194.602 C 36.897 194.869 37.447 195.192 37.894 195.572 C 38.341 195.952 38.641 196.329 38.794 196.702 L 38.844 194.552 L 41.734 194.552 L 41.734 207.402 L 38.874 207.402 L 38.824 205.132 C 38.504 205.805 37.924 206.399 37.084 206.912 C 36.244 207.425 35.301 207.682 34.254 207.682 Z M 34.764 205.162 C 35.824 205.162 36.717 204.792 37.444 204.052 C 38.177 203.319 38.544 202.355 38.544 201.162 L 38.544 200.962 C 38.544 200.162 38.374 199.442 38.034 198.802 C 37.701 198.169 37.244 197.675 36.664 197.322 C 36.084 196.969 35.451 196.792 34.764 196.792 C 33.564 196.792 32.637 197.179 31.984 197.952 C 31.331 198.725 31.004 199.729 31.004 200.962 C 31.004 202.215 31.327 203.229 31.974 204.002 C 32.621 204.775 33.551 205.162 34.764 205.162 ZM 46.911 207.402 L 46.911 197.012 L 44.641 197.012 L 44.641 194.552 L 46.911 194.552 L 46.911 189.312 L 49.961 188.642 L 49.961 194.552 L 52.931 194.552 L 52.931 197.012 L 49.961 197.012 L 49.961 207.402 L 46.911 207.402 ZM 54.663 192.142 L 55.303 183.772 L 58.273 183.772 L 57.433 192.142 L 54.663 192.142 ZM 63.704 207.682 C 62.811 207.682 61.884 207.565 60.924 207.332 C 59.958 207.099 59.271 206.822 58.864 206.502 L 59.874 204.122 C 60.994 204.909 62.271 205.302 63.704 205.302 C 65.144 205.302 65.864 204.882 65.864 204.042 C 65.864 203.669 65.714 203.379 65.414 203.172 C 65.114 202.965 64.581 202.722 63.814 202.442 L 62.754 202.052 C 61.634 201.605 60.748 201.069 60.094 200.442 C 59.441 199.815 59.114 198.989 59.114 197.962 C 59.114 196.789 59.578 195.872 60.504 195.212 C 61.424 194.545 62.661 194.212 64.214 194.212 C 64.974 194.212 65.724 194.295 66.464 194.462 C 67.204 194.635 67.768 194.852 68.154 195.112 L 67.064 197.522 C 66.824 197.275 66.438 197.065 65.904 196.892 C 65.371 196.712 64.778 196.622 64.124 196.622 C 62.798 196.622 62.134 197.022 62.134 197.822 C 62.134 198.275 62.314 198.619 62.674 198.852 C 63.028 199.085 63.604 199.342 64.404 199.622 C 64.478 199.635 64.768 199.735 65.274 199.922 C 66.468 200.389 67.354 200.922 67.934 201.522 C 68.514 202.122 68.804 202.889 68.804 203.822 C 68.804 205.089 68.324 206.049 67.364 206.702 C 66.398 207.355 65.178 207.682 63.704 207.682 ZM 84.787 207.682 C 83.46 207.682 82.284 207.382 81.257 206.782 C 80.23 206.189 79.437 205.379 78.877 204.352 C 78.317 203.325 78.037 202.185 78.037 200.932 C 78.037 199.699 78.314 198.569 78.867 197.542 C 79.414 196.515 80.2 195.705 81.227 195.112 C 82.254 194.512 83.44 194.212 84.787 194.212 C 86.134 194.212 87.314 194.512 88.327 195.112 C 89.347 195.705 90.13 196.515 90.677 197.542 C 91.23 198.569 91.507 199.699 91.507 200.932 C 91.507 202.185 91.227 203.325 90.667 204.352 C 90.107 205.379 89.317 206.189 88.297 206.782 C 87.284 207.382 86.114 207.682 84.787 207.682 Z M 84.867 205.222 C 85.954 205.222 86.81 204.819 87.437 204.012 C 88.057 203.212 88.367 202.205 88.367 200.992 C 88.367 199.779 88.034 198.755 87.367 197.922 C 86.694 197.095 85.807 196.682 84.707 196.682 C 83.64 196.682 82.784 197.092 82.137 197.912 C 81.497 198.732 81.177 199.759 81.177 200.992 C 81.177 202.185 81.52 203.189 82.207 204.002 C 82.9 204.815 83.787 205.222 84.867 205.222 ZM 94.726 207.402 L 94.726 194.552 L 97.696 194.552 L 97.716 196.902 C 98.076 196.115 98.636 195.472 99.396 194.972 C 100.163 194.465 101.059 194.212 102.086 194.212 C 103.413 194.212 104.429 194.489 105.136 195.042 C 105.849 195.589 106.326 196.359 106.566 197.352 C 106.813 198.339 106.936 199.625 106.936 201.212 L 106.936 207.402 L 103.906 207.402 L 103.906 201.302 C 103.906 199.675 103.749 198.502 103.436 197.782 C 103.116 197.062 102.463 196.702 101.476 196.702 C 100.916 196.702 100.346 196.875 99.766 197.222 C 99.186 197.569 98.706 198.069 98.326 198.722 C 97.939 199.375 97.746 200.142 97.746 201.022 L 97.746 207.402 L 94.726 207.402 ZM 116.893 207.682 C 115.366 207.682 114.09 207.379 113.063 206.772 C 112.036 206.165 111.28 205.352 110.793 204.332 C 110.306 203.319 110.063 202.205 110.063 200.992 C 110.063 199.625 110.35 198.429 110.923 197.402 C 111.49 196.375 112.276 195.589 113.283 195.042 C 114.29 194.489 115.43 194.212 116.703 194.212 C 118.683 194.212 120.153 194.759 121.113 195.852 C 122.073 196.945 122.553 198.482 122.553 200.462 C 122.553 200.962 122.526 201.482 122.473 202.022 L 113.233 202.022 C 113.433 203.162 113.836 203.985 114.443 204.492 C 115.05 204.992 115.896 205.242 116.983 205.242 C 117.876 205.242 118.613 205.169 119.193 205.022 C 119.773 204.875 120.306 204.669 120.793 204.402 L 121.713 206.562 C 121.246 206.862 120.613 207.122 119.813 207.342 C 119.006 207.569 118.033 207.682 116.893 207.682 Z M 113.233 199.922 L 119.613 199.922 C 119.633 198.769 119.38 197.952 118.853 197.472 C 118.333 196.999 117.586 196.762 116.613 196.762 C 114.653 196.762 113.526 197.815 113.233 199.922 ZM 132.575 207.402 L 132.575 194.552 L 135.595 194.552 L 135.595 196.872 C 136.009 195.999 136.612 195.335 137.405 194.882 C 138.199 194.435 139.109 194.212 140.135 194.212 C 142.429 194.232 143.839 195.025 144.365 196.592 C 144.772 195.865 145.385 195.289 146.205 194.862 C 147.032 194.429 147.902 194.212 148.815 194.212 C 150.155 194.212 151.172 194.469 151.865 194.982 C 152.559 195.495 153.022 196.225 153.255 197.172 C 153.489 198.112 153.605 199.375 153.605 200.962 L 153.605 207.402 L 150.545 207.402 L 150.545 200.932 C 150.545 199.419 150.392 198.335 150.085 197.682 C 149.779 197.029 149.185 196.702 148.305 196.702 C 147.132 196.702 146.242 197.099 145.635 197.892 C 145.029 198.685 144.725 199.729 144.725 201.022 L 144.725 207.402 L 141.705 207.402 L 141.705 200.482 C 141.705 199.495 141.665 198.759 141.585 198.272 C 141.512 197.785 141.309 197.402 140.975 197.122 C 140.635 196.842 140.092 196.702 139.345 196.702 C 138.692 196.702 138.082 196.899 137.515 197.292 C 136.949 197.685 136.492 198.212 136.145 198.872 C 135.799 199.539 135.625 200.255 135.625 201.022 L 135.625 207.402 L 132.575 207.402 ZM 163.533 207.682 C 162.006 207.682 160.729 207.379 159.703 206.772 C 158.676 206.165 157.919 205.352 157.433 204.332 C 156.946 203.319 156.703 202.205 156.703 200.992 C 156.703 199.625 156.989 198.429 157.563 197.402 C 158.129 196.375 158.916 195.589 159.923 195.042 C 160.929 194.489 162.069 194.212 163.343 194.212 C 165.323 194.212 166.793 194.759 167.753 195.852 C 168.713 196.945 169.193 198.482 169.193 200.462 C 169.193 200.962 169.166 201.482 169.113 202.022 L 159.873 202.022 C 160.073 203.162 160.476 203.985 161.083 204.492 C 161.689 204.992 162.536 205.242 163.623 205.242 C 164.516 205.242 165.253 205.169 165.833 205.022 C 166.413 204.875 166.946 204.669 167.433 204.402 L 168.353 206.562 C 167.886 206.862 167.253 207.122 166.453 207.342 C 165.646 207.569 164.673 207.682 163.533 207.682 Z M 159.873 199.922 L 166.253 199.922 C 166.273 198.769 166.019 197.952 165.493 197.472 C 164.973 196.999 164.226 196.762 163.253 196.762 C 161.293 196.762 160.166 197.815 159.873 199.922 ZM 172.356 207.402 L 172.356 194.552 L 175.376 194.552 L 175.376 196.872 C 175.789 195.999 176.393 195.335 177.186 194.882 C 177.979 194.435 178.889 194.212 179.916 194.212 C 182.209 194.232 183.619 195.025 184.146 196.592 C 184.553 195.865 185.166 195.289 185.986 194.862 C 186.813 194.429 187.683 194.212 188.596 194.212 C 189.936 194.212 190.953 194.469 191.646 194.982 C 192.339 195.495 192.803 196.225 193.036 197.172 C 193.269 198.112 193.386 199.375 193.386 200.962 L 193.386 207.402 L 190.326 207.402 L 190.326 200.932 C 190.326 199.419 190.173 198.335 189.866 197.682 C 189.559 197.029 188.966 196.702 188.086 196.702 C 186.913 196.702 186.023 197.099 185.416 197.892 C 184.809 198.685 184.506 199.729 184.506 201.022 L 184.506 207.402 L 181.486 207.402 L 181.486 200.482 C 181.486 199.495 181.446 198.759 181.366 198.272 C 181.293 197.785 181.089 197.402 180.756 197.122 C 180.416 196.842 179.873 196.702 179.126 196.702 C 178.473 196.702 177.863 196.899 177.296 197.292 C 176.729 197.685 176.273 198.212 175.926 198.872 C 175.579 199.539 175.406 200.255 175.406 201.022 L 175.406 207.402 L 172.356 207.402 ZM 203.234 207.682 C 201.907 207.682 200.73 207.382 199.704 206.782 C 198.677 206.189 197.884 205.379 197.324 204.352 C 196.764 203.325 196.484 202.185 196.484 200.932 C 196.484 199.699 196.76 198.569 197.314 197.542 C 197.86 196.515 198.647 195.705 199.674 195.112 C 200.7 194.512 201.887 194.212 203.234 194.212 C 204.58 194.212 205.76 194.512 206.774 195.112 C 207.794 195.705 208.577 196.515 209.124 197.542 C 209.677 198.569 209.954 199.699 209.954 200.932 C 209.954 202.185 209.674 203.325 209.114 204.352 C 208.554 205.379 207.764 206.189 206.744 206.782 C 205.73 207.382 204.56 207.682 203.234 207.682 Z M 203.314 205.222 C 204.4 205.222 205.257 204.819 205.884 204.012 C 206.504 203.212 206.814 202.205 206.814 200.992 C 206.814 199.779 206.48 198.755 205.814 197.922 C 205.14 197.095 204.254 196.682 203.154 196.682 C 202.087 196.682 201.23 197.092 200.584 197.912 C 199.944 198.732 199.624 199.759 199.624 200.992 C 199.624 202.185 199.967 203.189 200.654 204.002 C 201.347 204.815 202.234 205.222 203.314 205.222 ZM 213.083 207.402 L 213.083 194.552 L 216.113 194.552 L 216.113 197.072 C 216.413 196.212 216.896 195.522 217.563 195.002 C 218.236 194.475 219.003 194.212 219.863 194.212 C 220.463 194.212 220.873 194.269 221.093 194.382 L 220.673 197.432 C 220.506 197.319 220.143 197.262 219.583 197.262 C 218.703 197.262 217.906 197.542 217.193 198.102 C 216.473 198.662 216.113 199.559 216.113 200.792 L 216.113 207.402 L 213.083 207.402 ZM 224.143 214.462 L 226.913 207.792 L 221.593 194.552 L 225.013 194.552 L 227.753 202.722 L 228.373 204.712 L 228.993 202.722 L 231.873 194.552 L 235.173 194.552 L 227.283 214.462 L 224.143 214.462 Z" transform="matrix(1.678157091140747, 0, 0, 1.678157091140747, 190.2811279296875, -127.16388702392578)" style="fill: rgb(51, 51, 51); white-space: pre;"/>
    <path d="M -22.563 242.462 L -19.793 235.792 L -25.113 222.552 L -21.693 222.552 L -18.953 230.722 L -18.333 232.712 L -17.713 230.722 L -14.833 222.552 L -11.533 222.552 L -19.423 242.462 L -22.563 242.462 ZM -3.579 235.682 C -4.906 235.682 -6.083 235.382 -7.109 234.782 C -8.136 234.189 -8.929 233.379 -9.489 232.352 C -10.049 231.325 -10.329 230.185 -10.329 228.932 C -10.329 227.699 -10.053 226.569 -9.499 225.542 C -8.953 224.515 -8.166 223.705 -7.139 223.112 C -6.113 222.512 -4.926 222.212 -3.579 222.212 C -2.233 222.212 -1.053 222.512 -0.039 223.112 C 0.981 223.705 1.764 224.515 2.311 225.542 C 2.864 226.569 3.141 227.699 3.141 228.932 C 3.141 230.185 2.861 231.325 2.301 232.352 C 1.741 233.379 0.951 234.189 -0.069 234.782 C -1.083 235.382 -2.253 235.682 -3.579 235.682 Z M -3.499 233.222 C -2.413 233.222 -1.556 232.819 -0.929 232.012 C -0.309 231.212 0.001 230.205 0.001 228.992 C 0.001 227.779 -0.333 226.755 -0.999 225.922 C -1.673 225.095 -2.559 224.682 -3.659 224.682 C -4.726 224.682 -5.583 225.092 -6.229 225.912 C -6.869 226.732 -7.189 227.759 -7.189 228.992 C -7.189 230.185 -6.846 231.189 -6.159 232.002 C -5.466 232.815 -4.579 233.222 -3.499 233.222 ZM 10.81 235.682 C 9.036 235.682 7.82 235.159 7.16 234.112 C 6.493 233.065 6.16 231.609 6.16 229.742 L 6.16 222.552 L 9.19 222.552 L 9.19 228.992 C 9.19 230.052 9.25 230.879 9.37 231.472 C 9.49 232.059 9.733 232.492 10.1 232.772 C 10.46 233.052 11.003 233.192 11.73 233.192 C 12.256 233.192 12.763 233.042 13.25 232.742 C 13.73 232.442 14.126 232.035 14.44 231.522 C 14.746 231.009 14.9 230.445 14.9 229.832 L 14.9 222.552 L 17.89 222.552 L 17.89 235.402 L 15.43 235.402 L 15.09 233.522 C 14.623 234.255 14.04 234.799 13.34 235.152 C 12.64 235.505 11.796 235.682 10.81 235.682 ZM 40.434 235.402 L 36.624 228.262 L 32.814 235.402 L 32.284 235.402 L 26.874 222.552 L 30.124 222.552 L 32.894 230.022 L 36.564 222.552 L 36.674 222.552 L 40.374 229.972 L 43.144 222.552 L 46.334 222.552 L 40.964 235.402 L 40.434 235.402 ZM 48.628 235.402 L 48.628 222.552 L 51.768 222.552 L 51.768 235.402 L 48.628 235.402 Z M 50.168 220.142 C 49.588 220.142 49.105 219.945 48.718 219.552 C 48.325 219.159 48.128 218.675 48.128 218.102 C 48.128 217.575 48.325 217.125 48.718 216.752 C 49.105 216.379 49.588 216.192 50.168 216.192 C 50.728 216.192 51.205 216.379 51.598 216.752 C 51.992 217.125 52.188 217.575 52.188 218.102 C 52.188 218.675 51.995 219.159 51.608 219.552 C 51.228 219.945 50.748 220.142 50.168 220.142 ZM 56.217 235.402 L 56.217 214.822 L 59.217 214.822 L 59.217 235.402 L 56.217 235.402 ZM 63.72 235.402 L 63.72 214.822 L 66.72 214.822 L 66.72 235.402 L 63.72 235.402 ZM 77.831 235.402 L 77.831 222.552 L 80.801 222.552 L 80.821 224.902 C 81.181 224.115 81.741 223.472 82.501 222.972 C 83.268 222.465 84.164 222.212 85.191 222.212 C 86.518 222.212 87.534 222.489 88.241 223.042 C 88.954 223.589 89.431 224.359 89.671 225.352 C 89.918 226.339 90.041 227.625 90.041 229.212 L 90.041 235.402 L 87.011 235.402 L 87.011 229.302 C 87.011 227.675 86.854 226.502 86.541 225.782 C 86.221 225.062 85.568 224.702 84.581 224.702 C 84.021 224.702 83.451 224.875 82.871 225.222 C 82.291 225.569 81.811 226.069 81.431 226.722 C 81.044 227.375 80.851 228.142 80.851 229.022 L 80.851 235.402 L 77.831 235.402 ZM 99.998 235.682 C 98.471 235.682 97.195 235.379 96.168 234.772 C 95.141 234.165 94.385 233.352 93.898 232.332 C 93.411 231.319 93.168 230.205 93.168 228.992 C 93.168 227.625 93.455 226.429 94.028 225.402 C 94.595 224.375 95.381 223.589 96.388 223.042 C 97.395 222.489 98.535 222.212 99.808 222.212 C 101.788 222.212 103.258 222.759 104.218 223.852 C 105.178 224.945 105.658 226.482 105.658 228.462 C 105.658 228.962 105.631 229.482 105.578 230.022 L 96.338 230.022 C 96.538 231.162 96.941 231.985 97.548 232.492 C 98.155 232.992 99.001 233.242 100.088 233.242 C 100.981 233.242 101.718 233.169 102.298 233.022 C 102.878 232.875 103.411 232.669 103.898 232.402 L 104.818 234.562 C 104.351 234.862 103.718 235.122 102.918 235.342 C 102.111 235.569 101.138 235.682 99.998 235.682 Z M 96.338 227.922 L 102.718 227.922 C 102.738 226.769 102.485 225.952 101.958 225.472 C 101.438 224.999 100.691 224.762 99.718 224.762 C 97.758 224.762 96.631 225.815 96.338 227.922 ZM 113.551 235.402 L 106.771 222.552 L 110.221 222.552 L 112.991 228.342 L 113.891 230.672 L 114.781 228.342 L 117.531 222.552 L 120.891 222.552 L 114.141 235.402 L 113.551 235.402 ZM 128.553 235.682 C 127.026 235.682 125.75 235.379 124.723 234.772 C 123.696 234.165 122.94 233.352 122.453 232.332 C 121.966 231.319 121.723 230.205 121.723 228.992 C 121.723 227.625 122.01 226.429 122.583 225.402 C 123.15 224.375 123.936 223.589 124.943 223.042 C 125.95 222.489 127.09 222.212 128.363 222.212 C 130.343 222.212 131.813 222.759 132.773 223.852 C 133.733 224.945 134.213 226.482 134.213 228.462 C 134.213 228.962 134.186 229.482 134.133 230.022 L 124.893 230.022 C 125.093 231.162 125.496 231.985 126.103 232.492 C 126.71 232.992 127.556 233.242 128.643 233.242 C 129.536 233.242 130.273 233.169 130.853 233.022 C 131.433 232.875 131.966 232.669 132.453 232.402 L 133.373 234.562 C 132.906 234.862 132.273 235.122 131.473 235.342 C 130.666 235.569 129.693 235.682 128.553 235.682 Z M 124.893 227.922 L 131.273 227.922 C 131.293 226.769 131.04 225.952 130.513 225.472 C 129.993 224.999 129.246 224.762 128.273 224.762 C 126.313 224.762 125.186 225.815 124.893 227.922 ZM 137.286 235.402 L 137.286 222.552 L 140.316 222.552 L 140.316 225.072 C 140.616 224.212 141.1 223.522 141.766 223.002 C 142.44 222.475 143.206 222.212 144.066 222.212 C 144.666 222.212 145.076 222.269 145.296 222.382 L 144.876 225.432 C 144.71 225.319 144.346 225.262 143.786 225.262 C 142.906 225.262 142.11 225.542 141.396 226.102 C 140.676 226.662 140.316 227.559 140.316 228.792 L 140.316 235.402 L 137.286 235.402 ZM 155.485 235.402 L 155.485 224.962 L 153.415 224.962 L 153.415 222.552 L 155.485 222.552 L 155.485 219.782 C 155.485 218.102 155.892 216.799 156.705 215.872 C 157.519 214.945 158.709 214.482 160.275 214.482 C 160.909 214.482 161.629 214.662 162.435 215.022 L 161.845 217.872 C 161.712 217.725 161.512 217.582 161.245 217.442 C 160.972 217.302 160.675 217.232 160.355 217.232 C 159.109 217.232 158.475 218.042 158.455 219.662 L 158.455 222.552 L 161.475 222.552 L 161.475 224.962 L 158.455 224.962 L 158.455 235.402 L 155.485 235.402 ZM 170.41 235.682 C 169.083 235.682 167.906 235.382 166.88 234.782 C 165.853 234.189 165.06 233.379 164.5 232.352 C 163.94 231.325 163.66 230.185 163.66 228.932 C 163.66 227.699 163.936 226.569 164.49 225.542 C 165.036 224.515 165.823 223.705 166.85 223.112 C 167.876 222.512 169.063 222.212 170.41 222.212 C 171.756 222.212 172.936 222.512 173.95 223.112 C 174.97 223.705 175.753 224.515 176.3 225.542 C 176.853 226.569 177.13 227.699 177.13 228.932 C 177.13 230.185 176.85 231.325 176.29 232.352 C 175.73 233.379 174.94 234.189 173.92 234.782 C 172.906 235.382 171.736 235.682 170.41 235.682 Z M 170.49 233.222 C 171.576 233.222 172.433 232.819 173.06 232.012 C 173.68 231.212 173.99 230.205 173.99 228.992 C 173.99 227.779 173.656 226.755 172.99 225.922 C 172.316 225.095 171.43 224.682 170.33 224.682 C 169.263 224.682 168.406 225.092 167.76 225.912 C 167.12 226.732 166.8 227.759 166.8 228.992 C 166.8 230.185 167.143 231.189 167.83 232.002 C 168.523 232.815 169.41 233.222 170.49 233.222 ZM 180.259 235.402 L 180.259 222.552 L 183.289 222.552 L 183.289 225.072 C 183.589 224.212 184.072 223.522 184.739 223.002 C 185.412 222.475 186.179 222.212 187.039 222.212 C 187.639 222.212 188.049 222.269 188.269 222.382 L 187.849 225.432 C 187.682 225.319 187.319 225.262 186.759 225.262 C 185.879 225.262 185.082 225.542 184.369 226.102 C 183.649 226.662 183.289 227.559 183.289 228.792 L 183.289 235.402 L 180.259 235.402 ZM 196.639 242.122 C 195.686 242.122 194.749 241.992 193.829 241.732 C 192.902 241.472 192.242 241.229 191.849 241.002 L 192.529 238.202 C 193.756 239.002 195.099 239.402 196.559 239.402 C 197.679 239.402 198.622 239.132 199.389 238.592 C 200.149 238.052 200.539 236.999 200.559 235.432 L 200.559 233.132 C 200.166 233.859 199.532 234.465 198.659 234.952 C 197.779 235.439 196.809 235.682 195.749 235.682 C 194.629 235.682 193.602 235.405 192.669 234.852 C 191.736 234.305 190.996 233.519 190.449 232.492 C 189.909 231.465 189.639 230.269 189.639 228.902 C 189.639 227.595 189.896 226.435 190.409 225.422 C 190.922 224.402 191.656 223.612 192.609 223.052 C 193.562 222.492 194.672 222.212 195.939 222.212 C 196.686 222.212 197.386 222.342 198.039 222.602 C 198.692 222.869 199.249 223.192 199.709 223.572 C 200.162 223.952 200.466 224.329 200.619 224.702 L 200.669 222.552 L 203.529 222.552 L 203.529 235.322 C 203.529 237.502 202.969 239.182 201.849 240.362 C 200.729 241.535 198.992 242.122 196.639 242.122 Z M 196.589 233.132 C 197.649 233.132 198.542 232.765 199.269 232.032 C 200.002 231.292 200.369 230.325 200.369 229.132 L 200.369 228.932 C 200.369 228.132 200.199 227.415 199.859 226.782 C 199.526 226.142 199.069 225.645 198.489 225.292 C 197.909 224.939 197.276 224.762 196.589 224.762 C 195.389 224.762 194.462 225.149 193.809 225.922 C 193.156 226.695 192.829 227.699 192.829 228.932 C 192.829 230.185 193.152 231.199 193.799 231.972 C 194.446 232.745 195.376 233.132 196.589 233.132 ZM 213.462 235.682 C 211.935 235.682 210.658 235.379 209.632 234.772 C 208.605 234.165 207.848 233.352 207.362 232.332 C 206.875 231.319 206.632 230.205 206.632 228.992 C 206.632 227.625 206.918 226.429 207.492 225.402 C 208.058 224.375 208.845 223.589 209.852 223.042 C 210.858 222.489 211.998 222.212 213.272 222.212 C 215.252 222.212 216.722 222.759 217.682 223.852 C 218.642 224.945 219.122 226.482 219.122 228.462 C 219.122 228.962 219.095 229.482 219.042 230.022 L 209.802 230.022 C 210.002 231.162 210.405 231.985 211.012 232.492 C 211.618 232.992 212.465 233.242 213.552 233.242 C 214.445 233.242 215.182 233.169 215.762 233.022 C 216.342 232.875 216.875 232.669 217.362 232.402 L 218.282 234.562 C 217.815 234.862 217.182 235.122 216.382 235.342 C 215.575 235.569 214.602 235.682 213.462 235.682 Z M 209.802 227.922 L 216.182 227.922 C 216.202 226.769 215.948 225.952 215.422 225.472 C 214.902 224.999 214.155 224.762 213.182 224.762 C 211.222 224.762 210.095 225.815 209.802 227.922 ZM 223.405 235.402 L 223.405 225.012 L 221.135 225.012 L 221.135 222.552 L 223.405 222.552 L 223.405 217.312 L 226.455 216.642 L 226.455 222.552 L 229.425 222.552 L 229.425 225.012 L 226.455 225.012 L 226.455 235.402 L 223.405 235.402 ZM 234.737 229.042 C 234.631 228.655 234.577 228.229 234.577 227.762 C 234.577 226.862 234.794 226.122 235.227 225.542 C 235.667 224.969 236.317 224.335 237.177 223.642 C 237.977 222.989 238.581 222.402 238.987 221.882 C 239.387 221.355 239.587 220.709 239.587 219.942 C 239.587 219.182 239.321 218.552 238.787 218.052 C 238.254 217.559 237.511 217.312 236.557 217.312 C 235.984 217.312 235.481 217.429 235.047 217.662 C 234.621 217.895 234.281 218.165 234.027 218.472 C 233.774 218.785 233.611 219.062 233.537 219.302 L 230.737 217.902 C 231.037 217.382 231.351 216.905 231.677 216.472 C 232.004 216.045 232.597 215.609 233.457 215.162 C 234.311 214.709 235.401 214.482 236.727 214.482 C 237.921 214.482 238.991 214.712 239.937 215.172 C 240.877 215.632 241.611 216.259 242.137 217.052 C 242.657 217.845 242.917 218.715 242.917 219.662 C 242.917 220.542 242.767 221.299 242.467 221.932 C 242.167 222.565 241.807 223.092 241.387 223.512 C 240.967 223.932 240.424 224.405 239.757 224.932 C 239.011 225.512 238.467 225.995 238.127 226.382 C 237.794 226.775 237.627 227.262 237.627 227.842 C 237.627 228.215 237.644 228.615 237.677 229.042 L 234.737 229.042 Z M 236.477 235.682 C 235.897 235.682 235.417 235.492 235.037 235.112 C 234.651 234.725 234.457 234.252 234.457 233.692 C 234.457 233.112 234.651 232.632 235.037 232.252 C 235.417 231.872 235.897 231.682 236.477 231.682 C 237.037 231.682 237.514 231.872 237.907 232.252 C 238.301 232.632 238.497 233.112 238.497 233.692 C 238.497 234.252 238.301 234.725 237.907 235.112 C 237.514 235.492 237.037 235.682 236.477 235.682 Z" transform="matrix(1.678157091140747, 0, 0, 1.678157091140747, 190.2811279296875, -127.16388702392578)" style="fill: rgb(51, 51, 51); white-space: pre;"/>
    <path d="M 308.677 358.891 L 303.957 351.981 L 302.697 353.531 L 302.697 358.891 L 300.387 358.891 L 300.387 343.451 L 302.697 343.451 L 302.697 350.341 L 307.987 343.451 L 310.797 343.451 L 305.487 350.241 L 311.557 358.891 L 308.677 358.891 ZM 321.252 358.891 L 321.252 343.451 L 323.602 343.451 L 323.602 358.891 L 321.252 358.891 ZM 346.576 358.891 L 337.546 348.891 L 337.606 350.571 L 337.606 358.891 L 335.256 358.891 L 335.256 343.431 L 335.546 343.431 L 344.616 353.561 L 344.536 351.791 L 344.536 343.451 L 346.886 343.451 L 346.886 358.891 L 346.576 358.891 ZM 358.265 358.891 L 358.265 343.451 L 361.985 343.451 C 365.092 343.451 367.265 344.188 368.505 345.661 C 369.739 347.128 370.355 348.878 370.355 350.911 C 370.355 352.324 370.092 353.631 369.565 354.831 C 369.032 356.024 368.152 357.001 366.925 357.761 C 365.699 358.514 364.092 358.891 362.105 358.891 L 358.265 358.891 Z M 360.615 356.811 L 362.355 356.811 C 364.289 356.811 365.692 356.261 366.565 355.161 C 367.445 354.061 367.885 352.678 367.885 351.011 C 367.885 349.391 367.442 348.071 366.555 347.051 C 365.675 346.024 364.275 345.511 362.355 345.511 L 360.615 345.511 L 360.615 356.811 ZM 380.814 358.891 L 380.814 343.451 L 383.184 343.451 L 383.184 356.791 L 387.614 356.791 L 387.614 358.891 L 380.814 358.891 ZM 398.256 358.891 L 398.256 343.451 L 400.606 343.451 L 400.606 358.891 L 398.256 358.891 ZM 423.58 358.891 L 414.55 348.891 L 414.61 350.571 L 414.61 358.891 L 412.26 358.891 L 412.26 343.431 L 412.55 343.431 L 421.62 353.561 L 421.54 351.791 L 421.54 343.451 L 423.89 343.451 L 423.89 358.891 L 423.58 358.891 ZM 442.469 359.101 C 440.943 359.101 439.579 358.751 438.379 358.051 C 437.173 357.351 436.229 356.388 435.549 355.161 C 434.869 353.934 434.529 352.561 434.529 351.041 C 434.529 349.554 434.873 348.214 435.559 347.021 C 436.246 345.834 437.199 344.904 438.419 344.231 C 439.639 343.558 441.009 343.221 442.529 343.221 C 443.356 343.221 444.103 343.294 444.769 343.441 C 445.436 343.588 445.979 343.758 446.399 343.951 C 446.819 344.138 447.106 344.301 447.259 344.441 L 446.339 346.421 C 445.466 345.721 444.183 345.371 442.489 345.371 C 441.369 345.371 440.396 345.614 439.569 346.101 C 438.743 346.594 438.113 347.261 437.679 348.101 C 437.246 348.941 437.029 349.878 437.029 350.911 C 437.029 352.084 437.266 353.134 437.739 354.061 C 438.206 354.988 438.856 355.704 439.689 356.211 C 440.523 356.724 441.463 356.981 442.509 356.981 C 443.169 356.981 443.799 356.901 444.399 356.741 C 445.006 356.581 445.519 356.324 445.939 355.971 L 445.939 352.991 L 442.759 352.991 L 442.759 350.831 L 448.269 350.831 L 448.269 356.871 C 447.763 357.504 447.003 358.034 445.989 358.461 C 444.976 358.888 443.803 359.101 442.469 359.101 Z" transform="matrix(1, 0, 0, 1, 0, 0)" style="fill: rgb(195, 195, 195); text-transform: uppercase; white-space: pre;"/>
  </g>
</svg>