<svg xmlns="http://www.w3.org/2000/svg" viewBox="0 0 388 292">
  <defs>
    <filter id="akc" width="1000%" height="1000%" x="-500%" y="-500%">
      <feGaussianBlur in="SourceAlpha" stdDeviation="5"/>
      <feOffset dx="2" dy="2"/>
      <feComponentTransfer result="offsetblur">
        <feFuncA slope="1.7" type="linear"/>
      </feComponentTransfer>
      <feFlood x="10" y="10" flood-color="rgba(0,0,0,0.3)"/>
      <feComposite in2="offsetblur" operator="in"/>
      <feMerge>
        <feMergeNode/>
        <feMergeNode in="SourceGraphic"/>
      </feMerge>
    </filter>
  </defs>
  <rect width="336" height="240" x="26" y="26" fill="#fff" filter="url(#akc)" pointer-events="none" rx="25.4" ry="25.4" vector-effect="non-scaling-stroke"/>
  <g transform="translate(6 39) scale(.50035)">
    <path fill="#763494" d="M 346.632 77.779 C 346.349 61.142 353.429 51.518 353.429 51.518 C 356.498 66.238 362.201 66.297 362.201 66.297 C 362.201 66.297 359.114 60.813 359.305 51.892 C 359.527 41.51 368.708 23.468 380.747 23.098 C 378.443 26.304 377.469 29.494 377.469 34.184 C 377.469 51.264 400.764 56.168 400.764 78.168 C 400.764 97.832 384.631 101.459 373.191 101.459 C 361.743 101.459 346.916 94.416 346.632 77.779 Z M 356.923 81.968 C 356.923 90.423 366.639 95.175 374.608 95.067 C 382.735 94.955 383.575 93.415 383.874 93.599 C 386.752 95.319 391.072 94.436 391.072 94.436 C 391.072 94.436 388.273 93.111 388.985 90.227 C 389.073 89.87 392.235 88.133 392.293 81.968 C 392.37 73.514 382.578 68.868 374.608 68.868 C 366.635 68.868 356.923 73.514 356.923 81.968 Z"/>
    <path fill="#333" d="M-.997 186.952L4.563 200.152 9.433 187.062 12.733 187.062 4.813 207.402 4.423 207.402-1.107 194.232-6.617 207.372-7.007 207.372-14.917 187.062-11.627 187.062-6.757 200.152-1.167 186.952-.997 186.952zM13.764 207.402L13.764 187.062 16.674 187.062 16.674 194.702 16.564 197.052C16.911 196.279 17.474 195.639 18.254 195.132 19.028 194.625 19.931 194.372 20.964 194.372 22.271 194.372 23.278 194.642 23.984 195.182 24.684 195.729 25.154 196.489 25.394 197.462 25.634 198.442 25.754 199.715 25.754 201.282L25.754 207.402 22.794 207.402 22.794 201.262C22.794 200.189 22.734 199.349 22.614 198.742 22.494 198.129 22.254 197.665 21.894 197.352 21.534 197.039 21.011 196.882 20.324 196.882 19.771 196.882 19.214 197.049 18.654 197.382 18.088 197.715 17.621 198.199 17.254 198.832 16.888 199.472 16.704 200.225 16.704 201.092L16.704 207.402 13.764 207.402zM35.15 207.682C34.01 207.682 32.953 207.409 31.98 206.862 31.013 206.315 30.24 205.542 29.66 204.542 29.08 203.535 28.79 202.359 28.79 201.012 28.79 199.679 29.043 198.515 29.55 197.522 30.057 196.529 30.78 195.755 31.72 195.202 32.66 194.649 33.767 194.372 35.04 194.372 35.78 194.372 36.473 194.499 37.12 194.752 37.767 195.012 38.31 195.332 38.75 195.712 39.19 196.085 39.487 196.459 39.64 196.832L39.69 194.702 42.54 194.702 42.54 207.402 39.72 207.402 39.66 205.162C39.347 205.822 38.777 206.409 37.95 206.922 37.117 207.429 36.183 207.682 35.15 207.682zM35.65 205.192C36.703 205.192 37.59 204.825 38.31 204.092 39.03 203.365 39.39 202.412 39.39 201.232L39.39 201.032C39.39 200.239 39.223 199.529 38.89 198.902 38.557 198.275 38.103 197.789 37.53 197.442 36.963 197.089 36.337 196.912 35.65 196.912 34.47 196.912 33.557 197.295 32.91 198.062 32.263 198.829 31.94 199.819 31.94 201.032 31.94 202.272 32.26 203.275 32.9 204.042 33.533 204.809 34.45 205.192 35.65 205.192zM47.652 207.402L47.652 197.132 45.412 197.132 45.412 194.702 47.652 194.702 47.652 189.522 50.672 188.862 50.672 194.702 53.602 194.702 53.602 197.132 50.672 197.132 50.672 207.402 47.652 207.402zM55.32 192.322L55.95 184.042 58.89 184.042 58.06 192.322 55.32 192.322zM64.255 207.682C63.369 207.682 62.449 207.565 61.495 207.332 60.549 207.099 59.872 206.825 59.465 206.512L60.465 204.162C61.572 204.935 62.835 205.322 64.255 205.322 65.675 205.322 66.385 204.909 66.385 204.082 66.385 203.715 66.239 203.429 65.945 203.222 65.645 203.022 65.119 202.782 64.365 202.502L63.315 202.112C62.209 201.672 61.332 201.142 60.685 200.522 60.039 199.909 59.715 199.092 59.715 198.072 59.715 196.912 60.172 196.005 61.085 195.352 61.999 194.699 63.222 194.372 64.755 194.372 65.509 194.372 66.249 194.452 66.975 194.612 67.709 194.779 68.269 194.992 68.655 195.252L67.575 197.632C67.335 197.392 66.952 197.185 66.425 197.012 65.899 196.839 65.312 196.752 64.665 196.752 63.359 196.752 62.705 197.149 62.705 197.942 62.705 198.382 62.879 198.719 63.225 198.952 63.579 199.179 64.152 199.432 64.945 199.712 65.019 199.725 65.305 199.825 65.805 200.012 66.985 200.472 67.862 200.999 68.435 201.592 69.002 202.179 69.285 202.935 69.285 203.862 69.285 205.115 68.812 206.065 67.865 206.712 66.912 207.359 65.709 207.682 64.255 207.682zM85.086 207.682C83.772 207.682 82.609 207.385 81.596 206.792 80.582 206.205 79.799 205.402 79.246 204.382 78.692 203.369 78.416 202.245 78.416 201.012 78.416 199.792 78.686 198.675 79.226 197.662 79.772 196.649 80.552 195.845 81.566 195.252 82.579 194.665 83.752 194.372 85.086 194.372 86.412 194.372 87.579 194.665 88.586 195.252 89.592 195.845 90.366 196.649 90.906 197.662 91.452 198.675 91.726 199.792 91.726 201.012 91.726 202.245 91.449 203.369 90.896 204.382 90.342 205.402 89.562 206.205 88.556 206.792 87.549 207.385 86.392 207.682 85.086 207.682zM85.166 205.242C86.239 205.242 87.082 204.845 87.696 204.052 88.316 203.259 88.626 202.262 88.626 201.062 88.626 199.862 88.292 198.852 87.626 198.032 86.966 197.212 86.089 196.802 84.996 196.802 83.949 196.802 83.106 197.209 82.466 198.022 81.832 198.835 81.516 199.849 81.516 201.062 81.516 202.242 81.856 203.235 82.536 204.042 83.222 204.842 84.099 205.242 85.166 205.242zM94.895 207.402L94.895 194.702 97.835 194.702 97.865 197.022C98.212 196.249 98.765 195.612 99.525 195.112 100.278 194.619 101.162 194.372 102.175 194.372 103.488 194.372 104.495 194.642 105.195 195.182 105.895 195.729 106.365 196.489 106.605 197.462 106.845 198.442 106.965 199.715 106.965 201.282L106.965 207.402 103.975 207.402 103.975 201.372C103.975 199.765 103.818 198.605 103.505 197.892 103.192 197.185 102.545 196.832 101.565 196.832 101.012 196.832 100.452 197.002 99.885 197.342 99.312 197.682 98.835 198.175 98.455 198.822 98.075 199.469 97.885 200.225 97.885 201.092L97.885 207.402 94.895 207.402zM116.811 207.682C115.297 207.682 114.034 207.382 113.021 206.782 112.007 206.182 111.261 205.379 110.781 204.372 110.301 203.365 110.061 202.262 110.061 201.062 110.061 199.715 110.341 198.535 110.901 197.522 111.467 196.509 112.247 195.729 113.241 195.182 114.234 194.642 115.361 194.372 116.621 194.372 118.574 194.372 120.027 194.909 120.981 195.982 121.927 197.062 122.401 198.582 122.401 200.542 122.401 201.035 122.374 201.552 122.321 202.092L113.181 202.092C113.387 203.212 113.791 204.022 114.391 204.522 114.991 205.022 115.824 205.272 116.891 205.272 117.777 205.272 118.507 205.199 119.081 205.052 119.654 204.905 120.181 204.702 120.661 204.442L121.571 206.572C121.111 206.865 120.484 207.122 119.691 207.342 118.897 207.569 117.937 207.682 116.811 207.682zM113.181 200.012L119.491 200.012C119.511 198.865 119.264 198.059 118.751 197.592 118.231 197.119 117.491 196.882 116.531 196.882 114.597 196.882 113.481 197.925 113.181 200.012zM132.294 207.402L132.294 194.702 135.284 194.702 135.284 196.992C135.691 196.125 136.287 195.472 137.074 195.032 137.861 194.592 138.761 194.372 139.774 194.372 142.041 194.385 143.434 195.169 143.954 196.722 144.361 196.002 144.967 195.429 145.774 195.002 146.587 194.582 147.447 194.372 148.354 194.372 149.681 194.372 150.684 194.625 151.364 195.132 152.051 195.639 152.507 196.355 152.734 197.282 152.967 198.215 153.084 199.465 153.084 201.032L153.084 207.402 150.064 207.402 150.064 201.012C150.064 199.519 149.914 198.449 149.614 197.802 149.307 197.155 148.721 196.832 147.854 196.832 146.687 196.832 145.807 197.222 145.214 198.002 144.614 198.789 144.314 199.819 144.314 201.092L144.314 207.402 141.324 207.402 141.324 200.562C141.324 199.589 141.287 198.862 141.214 198.382 141.141 197.902 140.937 197.522 140.604 197.242 140.271 196.969 139.734 196.832 138.994 196.832 138.347 196.832 137.744 197.025 137.184 197.412 136.624 197.799 136.171 198.319 135.824 198.972 135.484 199.632 135.314 200.339 135.314 201.092L135.314 207.402 132.294 207.402zM162.896 207.682C161.382 207.682 160.119 207.382 159.106 206.782 158.092 206.182 157.346 205.379 156.866 204.372 156.386 203.365 156.146 202.262 156.146 201.062 156.146 199.715 156.426 198.535 156.986 197.522 157.552 196.509 158.332 195.729 159.326 195.182 160.319 194.642 161.446 194.372 162.706 194.372 164.659 194.372 166.112 194.909 167.066 195.982 168.012 197.062 168.486 198.582 168.486 200.542 168.486 201.035 168.459 201.552 168.406 202.092L159.266 202.092C159.472 203.212 159.876 204.022 160.476 204.522 161.076 205.022 161.909 205.272 162.976 205.272 163.862 205.272 164.592 205.199 165.166 205.052 165.739 204.905 166.266 204.702 166.746 204.442L167.656 206.572C167.196 206.865 166.569 207.122 165.776 207.342 164.982 207.569 164.022 207.682 162.896 207.682zM159.266 200.012L165.576 200.012C165.596 198.865 165.349 198.059 164.836 197.592 164.316 197.119 163.576 196.882 162.616 196.882 160.682 196.882 159.566 197.925 159.266 200.012zM171.602 207.402L171.602 194.702 174.592 194.702 174.592 196.992C174.998 196.125 175.595 195.472 176.382 195.032 177.168 194.592 178.068 194.372 179.082 194.372 181.348 194.385 182.742 195.169 183.262 196.722 183.668 196.002 184.275 195.429 185.082 195.002 185.895 194.582 186.755 194.372 187.662 194.372 188.988 194.372 189.992 194.625 190.672 195.132 191.358 195.639 191.815 196.355 192.042 197.282 192.275 198.215 192.392 199.465 192.392 201.032L192.392 207.402 189.372 207.402 189.372 201.012C189.372 199.519 189.222 198.449 188.922 197.802 188.615 197.155 188.028 196.832 187.162 196.832 185.995 196.832 185.115 197.222 184.522 198.002 183.922 198.789 183.622 199.819 183.622 201.092L183.622 207.402 180.632 207.402 180.632 200.562C180.632 199.589 180.595 198.862 180.522 198.382 180.448 197.902 180.245 197.522 179.912 197.242 179.578 196.969 179.042 196.832 178.302 196.832 177.655 196.832 177.052 197.025 176.492 197.412 175.932 197.799 175.478 198.319 175.132 198.972 174.792 199.632 174.622 200.339 174.622 201.092L174.622 207.402 171.602 207.402zM202.123 207.682C200.81 207.682 199.646 207.385 198.633 206.792 197.62 206.205 196.836 205.402 196.283 204.382 195.73 203.369 195.453 202.245 195.453 201.012 195.453 199.792 195.723 198.675 196.263 197.662 196.81 196.649 197.59 195.845 198.603 195.252 199.616 194.665 200.79 194.372 202.123 194.372 203.45 194.372 204.616 194.665 205.623 195.252 206.63 195.845 207.403 196.649 207.943 197.662 208.49 198.675 208.763 199.792 208.763 201.012 208.763 202.245 208.486 203.369 207.933 204.382 207.38 205.402 206.6 206.205 205.593 206.792 204.586 207.385 203.43 207.682 202.123 207.682zM202.203 205.242C203.276 205.242 204.12 204.845 204.733 204.052 205.353 203.259 205.663 202.262 205.663 201.062 205.663 199.862 205.33 198.852 204.663 198.032 204.003 197.212 203.126 196.802 202.033 196.802 200.986 196.802 200.143 197.209 199.503 198.022 198.87 198.835 198.553 199.849 198.553 201.062 198.553 202.242 198.893 203.235 199.573 204.042 200.26 204.842 201.136 205.242 202.203 205.242zM211.853 207.402L211.853 194.702 214.843 194.702 214.843 197.192C215.136 196.339 215.616 195.655 216.283 195.142 216.949 194.629 217.706 194.372 218.553 194.372 219.139 194.372 219.546 194.425 219.773 194.532L219.353 197.552C219.186 197.439 218.826 197.382 218.273 197.382 217.406 197.382 216.619 197.659 215.913 198.212 215.199 198.765 214.843 199.652 214.843 200.872L214.843 207.402 211.853 207.402zM222.783 214.372L225.523 207.792 220.263 194.702 223.643 194.702 226.353 202.782 226.963 204.742 227.573 202.782 230.423 194.702 233.683 194.702 225.883 214.372 222.783 214.372zM-20.987 242.047L-18.247 235.467-23.507 222.377-20.127 222.377-17.417 230.457-16.807 232.417-16.197 230.457-13.347 222.377-10.087 222.377-17.887 242.047-20.987 242.047zM-2.229 235.357C-3.543 235.357-4.706 235.06-5.719 234.467-6.733 233.88-7.516 233.077-8.069 232.057-8.623 231.044-8.899 229.92-8.899 228.687-8.899 227.467-8.629 226.35-8.089 225.337-7.543 224.324-6.763 223.52-5.749 222.927-4.736 222.34-3.563 222.047-2.229 222.047-.903 222.047.264 222.34 1.271 222.927 2.277 223.52 3.051 224.324 3.591 225.337 4.137 226.35 4.411 227.467 4.411 228.687 4.411 229.92 4.134 231.044 3.581 232.057 3.027 233.077 2.247 233.88 1.241 234.467.234 235.06-.923 235.357-2.229 235.357zM-2.149 232.917C-1.076 232.917-.233 232.52.381 231.727 1.001 230.934 1.311 229.937 1.311 228.737 1.311 227.537.977 226.527.311 225.707-.349 224.887-1.226 224.477-2.319 224.477-3.366 224.477-4.209 224.884-4.849 225.697-5.483 226.51-5.799 227.524-5.799 228.737-5.799 229.917-5.459 230.91-4.779 231.717-4.093 232.517-3.216 232.917-2.149 232.917zM11.99 235.357C10.237 235.357 9.03 234.84 8.37 233.807 7.717 232.774 7.39 231.334 7.39 229.487L7.39 222.377 10.38 222.377 10.38 228.737C10.38 229.79 10.44 230.607 10.56 231.187 10.68 231.767 10.92 232.197 11.28 232.477 11.64 232.75 12.18 232.887 12.9 232.887 13.414 232.887 13.91 232.74 14.39 232.447 14.87 232.154 15.264 231.754 15.57 231.247 15.877 230.74 16.03 230.18 16.03 229.567L16.03 222.377 18.99 222.377 18.99 235.077 16.55 235.077 16.22 233.227C15.76 233.947 15.184 234.48 14.49 234.827 13.797 235.18 12.964 235.357 11.99 235.357zM41.258 235.077L37.488 228.017 33.728 235.077 33.198 235.077 27.858 222.377 31.068 222.377 33.808 229.767 37.438 222.377 37.548 222.377 41.198 229.707 43.938 222.377 47.098 222.377 41.778 235.077 41.258 235.077zM49.359 235.077L49.359 222.377 52.459 222.377 52.459 235.077 49.359 235.077zM50.879 219.997C50.305 219.997 49.825 219.804 49.439 219.417 49.052 219.024 48.859 218.544 48.859 217.977 48.859 217.457 49.052 217.014 49.439 216.647 49.825 216.274 50.305 216.087 50.879 216.087 51.432 216.087 51.902 216.274 52.289 216.647 52.675 217.014 52.869 217.457 52.869 217.977 52.869 218.544 52.679 219.024 52.299 219.417 51.925 219.804 51.452 219.997 50.879 219.997zM56.847 235.077L56.847 214.737 59.817 214.737 59.817 235.077 56.847 235.077zM64.261 235.077L64.261 214.737 67.231 214.737 67.231 235.077 64.261 235.077zM78.201 235.077L78.201 222.377 81.141 222.377 81.171 224.697C81.518 223.924 82.071 223.287 82.831 222.787 83.585 222.294 84.468 222.047 85.481 222.047 86.795 222.047 87.801 222.317 88.501 222.857 89.201 223.404 89.671 224.164 89.911 225.137 90.151 226.117 90.271 227.39 90.271 228.957L90.271 235.077 87.281 235.077 87.281 229.047C87.281 227.44 87.125 226.28 86.811 225.567 86.498 224.86 85.851 224.507 84.871 224.507 84.318 224.507 83.758 224.677 83.191 225.017 82.618 225.357 82.141 225.85 81.761 226.497 81.381 227.144 81.191 227.9 81.191 228.767L81.191 235.077 78.201 235.077zM100.117 235.357C98.603 235.357 97.34 235.057 96.327 234.457 95.313 233.857 94.567 233.054 94.087 232.047 93.607 231.04 93.367 229.937 93.367 228.737 93.367 227.39 93.647 226.21 94.207 225.197 94.773 224.184 95.553 223.404 96.547 222.857 97.54 222.317 98.667 222.047 99.927 222.047 101.88 222.047 103.333 222.584 104.287 223.657 105.233 224.737 105.707 226.257 105.707 228.217 105.707 228.71 105.68 229.227 105.627 229.767L96.487 229.767C96.693 230.887 97.097 231.697 97.697 232.197 98.297 232.697 99.13 232.947 100.197 232.947 101.083 232.947 101.813 232.874 102.387 232.727 102.96 232.58 103.487 232.377 103.967 232.117L104.877 234.247C104.417 234.54 103.79 234.797 102.997 235.017 102.203 235.244 101.243 235.357 100.117 235.357zM96.487 227.687L102.797 227.687C102.817 226.54 102.57 225.734 102.057 225.267 101.537 224.794 100.797 224.557 99.837 224.557 97.903 224.557 96.787 225.6 96.487 227.687zM113.503 235.077L106.803 222.377 110.213 222.377 112.953 228.107 113.833 230.397 114.723 228.107 117.433 222.377 120.753 222.377 114.083 235.077 113.503 235.077zM128.332 235.357C126.819 235.357 125.555 235.057 124.542 234.457 123.529 233.857 122.782 233.054 122.302 232.047 121.822 231.04 121.582 229.937 121.582 228.737 121.582 227.39 121.862 226.21 122.422 225.197 122.989 224.184 123.769 223.404 124.762 222.857 125.755 222.317 126.882 222.047 128.142 222.047 130.095 222.047 131.549 222.584 132.502 223.657 133.449 224.737 133.922 226.257 133.922 228.217 133.922 228.71 133.895 229.227 133.842 229.767L124.702 229.767C124.909 230.887 125.312 231.697 125.912 232.197 126.512 232.697 127.345 232.947 128.412 232.947 129.299 232.947 130.029 232.874 130.602 232.727 131.175 232.58 131.702 232.377 132.182 232.117L133.092 234.247C132.632 234.54 132.005 234.797 131.212 235.017 130.419 235.244 129.459 235.357 128.332 235.357zM124.702 227.687L131.012 227.687C131.032 226.54 130.785 225.734 130.272 225.267 129.752 224.794 129.012 224.557 128.052 224.557 126.119 224.557 125.002 225.6 124.702 227.687zM136.958 235.077L136.958 222.377 139.948 222.377 139.948 224.867C140.241 224.014 140.721 223.33 141.388 222.817 142.055 222.304 142.811 222.047 143.658 222.047 144.245 222.047 144.651 222.1 144.878 222.207L144.458 225.227C144.291 225.114 143.931 225.057 143.378 225.057 142.511 225.057 141.725 225.334 141.018 225.887 140.305 226.44 139.948 227.327 139.948 228.547L139.948 235.077 136.958 235.077zM154.936 235.077L154.936 224.757 152.896 224.757 152.896 222.377 154.936 222.377 154.936 219.637C154.936 217.977 155.339 216.69 156.146 215.777 156.946 214.864 158.123 214.407 159.676 214.407 160.303 214.407 161.013 214.58 161.806 214.927L161.226 217.757C161.093 217.604 160.893 217.46 160.626 217.327 160.359 217.187 160.069 217.117 159.756 217.117 158.523 217.117 157.896 217.92 157.876 219.527L157.876 222.377 160.866 222.377 160.866 224.757 157.876 224.757 157.876 235.077 154.936 235.077zM169.69 235.357C168.376 235.357 167.213 235.06 166.2 234.467 165.186 233.88 164.403 233.077 163.85 232.057 163.296 231.044 163.02 229.92 163.02 228.687 163.02 227.467 163.29 226.35 163.83 225.337 164.376 224.324 165.156 223.52 166.17 222.927 167.183 222.34 168.356 222.047 169.69 222.047 171.016 222.047 172.183 222.34 173.19 222.927 174.196 223.52 174.97 224.324 175.51 225.337 176.056 226.35 176.33 227.467 176.33 228.687 176.33 229.92 176.053 231.044 175.5 232.057 174.946 233.077 174.166 233.88 173.16 234.467 172.153 235.06 170.996 235.357 169.69 235.357zM169.77 232.917C170.843 232.917 171.686 232.52 172.3 231.727 172.92 230.934 173.23 229.937 173.23 228.737 173.23 227.537 172.896 226.527 172.23 225.707 171.57 224.887 170.693 224.477 169.6 224.477 168.553 224.477 167.71 224.884 167.07 225.697 166.436 226.51 166.12 227.524 166.12 228.737 166.12 229.917 166.46 230.91 167.14 231.717 167.826 232.517 168.703 232.917 169.77 232.917zM179.419 235.077L179.419 222.377 182.409 222.377 182.409 224.867C182.702 224.014 183.182 223.33 183.849 222.817 184.516 222.304 185.272 222.047 186.119 222.047 186.706 222.047 187.112 222.1 187.339 222.207L186.919 225.227C186.752 225.114 186.392 225.057 185.839 225.057 184.972 225.057 184.186 225.334 183.479 225.887 182.766 226.44 182.409 227.327 182.409 228.547L182.409 235.077 179.419 235.077zM195.61 241.717C194.67 241.717 193.743 241.587 192.83 241.327 191.916 241.074 191.263 240.837 190.87 240.617L191.54 237.847C192.753 238.64 194.08 239.037 195.52 239.037 196.626 239.037 197.56 238.767 198.32 238.227 199.073 237.694 199.46 236.654 199.48 235.107L199.48 232.837C199.093 233.557 198.466 234.157 197.6 234.637 196.733 235.117 195.773 235.357 194.72 235.357 193.613 235.357 192.6 235.084 191.68 234.537 190.753 233.99 190.023 233.21 189.49 232.197 188.956 231.184 188.69 230.004 188.69 228.657 188.69 227.364 188.943 226.214 189.45 225.207 189.956 224.207 190.68 223.43 191.62 222.877 192.56 222.324 193.656 222.047 194.91 222.047 195.65 222.047 196.343 222.174 196.99 222.427 197.636 222.687 198.186 223.007 198.64 223.387 199.086 223.76 199.386 224.134 199.54 224.507L199.59 222.377 202.41 222.377 202.41 234.997C202.41 237.15 201.856 238.81 200.75 239.977 199.643 241.137 197.93 241.717 195.61 241.717zM195.55 232.837C196.603 232.837 197.49 232.474 198.21 231.747 198.93 231.014 199.29 230.057 199.29 228.877L199.29 228.687C199.29 227.894 199.123 227.184 198.79 226.557 198.456 225.93 198.003 225.44 197.43 225.087 196.863 224.734 196.236 224.557 195.55 224.557 194.37 224.557 193.456 224.94 192.81 225.707 192.163 226.474 191.84 227.467 191.84 228.687 191.84 229.92 192.16 230.92 192.8 231.687 193.433 232.454 194.35 232.837 195.55 232.837zM212.231 235.357C210.717 235.357 209.454 235.057 208.441 234.457 207.427 233.857 206.681 233.054 206.201 232.047 205.721 231.04 205.481 229.937 205.481 228.737 205.481 227.39 205.761 226.21 206.321 225.197 206.887 224.184 207.667 223.404 208.661 222.857 209.654 222.317 210.781 222.047 212.041 222.047 213.994 222.047 215.447 222.584 216.401 223.657 217.347 224.737 217.821 226.257 217.821 228.217 217.821 228.71 217.794 229.227 217.741 229.767L208.601 229.767C208.807 230.887 209.211 231.697 209.811 232.197 210.411 232.697 211.244 232.947 212.311 232.947 213.197 232.947 213.927 232.874 214.501 232.727 215.074 232.58 215.601 232.377 216.081 232.117L216.991 234.247C216.531 234.54 215.904 234.797 215.111 235.017 214.317 235.244 213.357 235.357 212.231 235.357zM208.601 227.687L214.911 227.687C214.931 226.54 214.684 225.734 214.171 225.267 213.651 224.794 212.911 224.557 211.951 224.557 210.017 224.557 208.901 225.6 208.601 227.687zM222.047 235.077L222.047 224.807 219.807 224.807 219.807 222.377 222.047 222.377 222.047 217.197 225.067 216.537 225.067 222.377 227.997 222.377 227.997 224.807 225.067 224.807 225.067 235.077 222.047 235.077zM233.255 228.797C233.141 228.41 233.085 227.984 233.085 227.517 233.085 226.637 233.301 225.91 233.735 225.337 234.168 224.764 234.811 224.137 235.665 223.457 236.458 222.81 237.051 222.227 237.445 221.707 237.845 221.194 238.045 220.557 238.045 219.797 238.045 219.044 237.781 218.424 237.255 217.937 236.728 217.444 235.995 217.197 235.055 217.197 234.481 217.197 233.981 217.314 233.555 217.547 233.135 217.774 232.798 218.04 232.545 218.347 232.298 218.654 232.138 218.927 232.065 219.167L229.295 217.777C229.588 217.264 229.898 216.794 230.225 216.367 230.545 215.947 231.128 215.514 231.975 215.067 232.828 214.627 233.908 214.407 235.215 214.407 236.395 214.407 237.451 214.63 238.385 215.077 239.318 215.53 240.041 216.15 240.555 216.937 241.075 217.724 241.335 218.587 241.335 219.527 241.335 220.394 241.188 221.14 240.895 221.767 240.595 222.394 240.238 222.914 239.825 223.327 239.411 223.74 238.871 224.207 238.205 224.727 237.465 225.3 236.931 225.78 236.605 226.167 236.271 226.554 236.105 227.034 236.105 227.607 236.105 227.974 236.121 228.37 236.155 228.797L233.255 228.797zM234.965 235.357C234.398 235.357 233.925 235.167 233.545 234.787 233.165 234.407 232.975 233.94 232.975 233.387 232.975 232.814 233.165 232.34 233.545 231.967 233.925 231.587 234.398 231.397 234.965 231.397 235.518 231.397 235.991 231.587 236.385 231.967 236.771 232.34 236.965 232.814 236.965 233.387 236.965 233.94 236.771 234.407 236.385 234.787 235.991 235.167 235.518 235.357 234.965 235.357z" transform="translate(208 -94) scale(1.51654)"/>
    <path fill="#c3c3c3" d="M 310.707 399.322 L 305.987 392.412 L 304.727 393.962 L 304.727 399.322 L 302.417 399.322 L 302.417 383.882 L 304.727 383.882 L 304.727 390.772 L 310.017 383.882 L 312.827 383.882 L 307.517 390.672 L 313.587 399.322 L 310.707 399.322 ZM 323.273 399.322 L 323.273 383.882 L 325.623 383.882 L 325.623 399.322 L 323.273 399.322 ZM 348.592 399.322 L 339.562 389.322 L 339.622 391.002 L 339.622 399.322 L 337.272 399.322 L 337.272 383.862 L 337.562 383.862 L 346.632 393.992 L 346.552 392.222 L 346.552 383.882 L 348.902 383.882 L 348.902 399.322 L 348.592 399.322 ZM 360.272 399.322 L 360.272 383.882 L 363.992 383.882 C 367.099 383.882 369.272 384.619 370.512 386.092 C 371.745 387.559 372.362 389.309 372.362 391.342 C 372.362 392.755 372.099 394.062 371.572 395.262 C 371.039 396.455 370.159 397.432 368.932 398.192 C 367.705 398.945 366.099 399.322 364.112 399.322 L 360.272 399.322 Z M 362.622 397.242 L 364.362 397.242 C 366.295 397.242 367.699 396.692 368.572 395.592 C 369.452 394.492 369.892 393.109 369.892 391.442 C 369.892 389.822 369.449 388.502 368.562 387.482 C 367.682 386.455 366.282 385.942 364.362 385.942 L 362.622 385.942 L 362.622 397.242 ZM 382.81 399.322 L 382.81 383.882 L 385.18 383.882 L 385.18 397.222 L 389.61 397.222 L 389.61 399.322 L 382.81 399.322 ZM 400.245 399.322 L 400.245 383.882 L 402.595 383.882 L 402.595 399.322 L 400.245 399.322 ZM 425.565 399.322 L 416.535 389.322 L 416.595 391.002 L 416.595 399.322 L 414.245 399.322 L 414.245 383.862 L 414.535 383.862 L 423.605 393.992 L 423.525 392.222 L 423.525 383.882 L 425.875 383.882 L 425.875 399.322 L 425.565 399.322 ZM 444.444 399.532 C 442.918 399.532 441.554 399.182 440.354 398.482 C 439.148 397.782 438.204 396.819 437.524 395.592 C 436.844 394.365 436.504 392.992 436.504 391.472 C 436.504 389.985 436.848 388.645 437.534 387.452 C 438.221 386.265 439.174 385.335 440.394 384.662 C 441.614 383.989 442.984 383.652 444.504 383.652 C 445.331 383.652 446.078 383.725 446.744 383.872 C 447.411 384.019 447.954 384.189 448.374 384.382 C 448.794 384.569 449.081 384.732 449.234 384.872 L 448.314 386.852 C 447.441 386.152 446.158 385.802 444.464 385.802 C 443.344 385.802 442.371 386.045 441.544 386.532 C 440.718 387.025 440.088 387.692 439.654 388.532 C 439.221 389.372 439.004 390.309 439.004 391.342 C 439.004 392.515 439.241 393.565 439.714 394.492 C 440.181 395.419 440.831 396.135 441.664 396.642 C 442.498 397.155 443.438 397.412 444.484 397.412 C 445.144 397.412 445.774 397.332 446.374 397.172 C 446.981 397.012 447.494 396.755 447.914 396.402 L 447.914 393.422 L 444.734 393.422 L 444.734 391.262 L 450.244 391.262 L 450.244 397.302 C 449.738 397.935 448.978 398.465 447.964 398.892 C 446.951 399.319 445.778 399.532 444.444 399.532 Z"/>
  </g>
</svg>
