<?xml version="1.0" encoding="utf-8"?>
<svg viewBox="22.264 11.32 349 93" xmlns="http://www.w3.org/2000/svg">
  <path d="M 157.19 20.807 C 158.417 22.142 159.033 23.822 159.033 25.855 C 159.033 27.723 158.239 30.567 156.652 34.381 C 155.576 37.078 153.965 39.546 151.816 41.79 C 148.947 44.833 146.048 46.207 143.102 45.912 C 142.104 45.7 141 45.165 139.8 44.312 C 138.572 43.43 137.64 42.883 136.997 42.669 C 136.846 42.591 136.768 42.44 136.768 42.229 C 136.768 41.698 137.562 40.64 139.146 39.065 C 140.35 37.892 141.53 36.744 142.679 35.622 C 146.777 31.138 148.823 27.802 148.823 25.613 C 148.823 25.241 148.743 24.944 148.592 24.731 C 147.671 23.983 146.556 23.608 145.25 23.608 C 142.823 23.608 140.031 24.771 136.884 27.096 C 132.149 30.59 128.82 33.809 126.903 36.744 C 121.297 45.181 117.919 50.411 116.768 52.44 C 113.417 58.795 111.74 64.733 111.74 70.26 C 111.74 72.128 111.919 73.955 112.277 75.745 C 112.995 77.535 114.747 78.657 117.535 79.11 C 121.987 78.657 126.928 76.746 132.351 73.382 C 136.806 70.389 149.973 64.029 154.425 61.117 C 154.349 62.078 154.536 64.294 155.072 65.974 C 155.613 67.656 151.579 69.445 151.579 70.139 C 151.579 71.312 153.986 67.832 153.112 68.821 C 146.023 78.753 130.512 90.2 120.991 90.2 C 119.56 90.2 118.15 90.093 116.768 89.88 C 115.696 89.719 114.554 89.16 113.354 88.199 C 111.328 86.706 110.294 85.918 110.241 85.835 C 107.508 85.996 105.06 85.168 102.911 83.353 C 99.839 79.11 98.306 74.224 98.306 68.697 C 98.306 61.143 101.771 50.891 108.708 37.945 C 118.968 23.369 129.869 14.67 141.413 11.836 C 141.901 11.679 142.437 11.597 143.025 11.597 C 145.099 11.597 147.172 12.427 149.242 14.081 C 150.883 15.413 151.921 16.615 152.355 17.683 C 152.584 18.272 153.378 18.856 154.733 19.445 C 156.09 20.059 156.909 20.516 157.19 20.807 Z" style="white-space: pre;" transform="matrix(0.998942, 0.04598, -0.04598, 0.998942, 2.4764, -5.862394)"/>
  <path d="M 187.37 53.041 C 187.477 53.21 187.432 53.502 187.233 53.918 C 186.82 54.616 186.59 55.068 186.556 55.274 C 186.049 56.689 183.873 60.882 180.023 67.856 C 176.428 74.302 174.631 77.939 174.631 78.768 C 174.631 79.673 175.288 79.964 176.609 79.645 C 177.313 79.285 178.18 78.59 179.211 77.553 C 180.26 76.515 180.981 75.847 181.38 75.545 C 178.705 80.032 176.203 82.802 173.872 83.858 C 173.673 83.951 173.473 83.999 173.276 83.999 C 172.97 83.999 172.227 83.34 171.052 82.019 C 170.763 81.547 170.492 81.276 170.24 81.199 C 169.987 81.124 169.707 81.058 169.401 81.002 C 168.893 80.626 168.641 79.862 168.641 78.712 C 168.641 78.071 168.741 77.12 168.94 75.856 C 169.082 74.858 169.109 74.274 169.02 74.103 C 168.913 74.01 168.813 73.963 168.721 73.963 C 168.215 73.963 167.25 74.755 165.822 76.337 C 163.961 78.45 162.848 79.654 162.488 79.957 C 160.266 81.858 158.296 82.811 156.58 82.811 C 155.91 82.811 155.252 82.706 154.602 82.5 C 154.404 82.444 154.194 82.182 153.978 81.708 C 153.781 81.236 153.428 80.841 152.921 80.521 C 150.339 78.882 149.073 77.193 149.126 75.461 C 149.181 73.502 149.308 72.21 149.507 71.588 C 152.035 62.504 157.753 55.266 166.662 49.875 C 168.324 48.877 170.167 48.377 172.191 48.377 C 175.336 48.377 177.414 49.669 178.424 52.249 C 178.424 52.249 178.499 52.702 178.641 53.607 C 178.75 54.135 179.056 54.371 179.563 54.313 C 180.125 54.257 180.683 53.897 181.243 53.24 C 181.786 52.581 182.238 52.174 182.598 52.023 C 184.929 51.91 186.521 52.249 187.37 53.041 Z M 176.825 56.463 C 176.682 55.465 175.951 55.04 174.631 55.191 C 170.024 56.566 165.017 60.815 159.616 67.94 C 157.176 71.107 155.957 73.585 155.957 75.375 C 155.957 75.791 156.012 76.188 156.119 76.564 C 156.318 76.978 156.797 76.922 157.556 76.394 C 161.493 73.757 165.316 70.749 169.02 67.375 C 174.585 62.362 177.186 58.723 176.825 56.463 Z" style="white-space: pre;" transform="matrix(0.998942, 0.04598, -0.04598, 0.998942, 3.221301, -7.667304)"/>
  <path d="M 239.651 57.006 C 238.641 59.062 236.109 63.416 232.063 70.068 C 228.81 75.516 227.184 78.635 227.184 79.426 C 227.184 79.785 227.617 79.963 228.484 79.963 C 229.244 79.963 230.309 79.568 231.684 78.776 C 233.654 77.624 234.765 76.995 235.017 76.882 C 234.15 78.671 232.451 80.33 229.921 81.858 C 228.315 82.875 227.002 83.384 225.991 83.384 C 225.578 83.384 225.296 83.251 225.152 82.989 C 224.23 82.139 223.316 81.291 222.415 80.444 C 221.005 78.974 220.3 77.581 220.3 76.259 C 220.3 75.828 220.373 75.375 220.517 74.903 C 221.892 71.416 223.309 68.485 224.773 66.109 C 224.826 65.903 224.746 65.8 224.529 65.8 C 224.021 65.8 223.316 66.3 222.415 67.298 C 222.109 67.56 221.573 68.118 220.816 68.965 C 218.701 71.491 216.58 74.025 214.445 76.57 C 211.808 79.738 209.377 82.055 207.155 83.525 C 206.849 83.695 206.551 83.78 206.261 83.78 C 205.7 83.78 205.103 83.517 204.473 82.989 C 203.841 82.459 203.218 81.95 202.603 81.461 C 202.258 81.103 201.708 80.896 200.949 80.839 C 200.643 80.839 200.406 80.736 200.244 80.529 C 199.9 79.738 199.729 78.918 199.729 78.068 C 199.729 76.749 200.21 75.109 201.166 73.15 C 202.431 70.568 203.198 68.965 203.469 68.343 C 203.759 67.702 204.229 66.62 204.879 65.092 C 204.934 64.886 204.906 64.753 204.797 64.697 C 204.653 64.639 204.48 64.639 204.282 64.697 C 204.085 64.79 203.903 64.922 203.741 65.092 C 200.361 69.051 195.021 75.015 187.722 82.989 C 187.017 83.723 186.185 83.828 185.229 83.3 C 185.031 82.657 184.173 81.97 182.654 81.236 C 181.443 80.65 180.939 79.757 181.137 78.549 C 181.733 75.008 183.297 70.811 185.825 65.969 C 189.782 58.467 191.862 54.454 192.058 53.925 C 192.168 53.718 192.222 53.509 192.222 53.302 C 192.222 52.661 191.59 52.532 190.325 52.907 C 190.162 52.944 189.592 53.295 188.616 53.953 C 187.622 54.612 187.027 54.944 186.828 54.944 C 186.721 54.905 186.666 54.858 186.666 54.802 C 186.666 54.633 186.89 54.236 187.343 53.613 C 190.181 51.034 192.384 49.74 193.956 49.74 C 194.606 49.74 195.238 49.89 195.853 50.193 C 198.022 51.946 199.033 53.397 198.889 54.547 C 198.691 56.094 197.931 58.202 196.613 60.88 C 195.293 63.575 194.633 64.95 194.633 65.008 C 194.688 65.536 194.87 65.8 195.176 65.8 C 195.575 65.8 196.152 65.431 196.91 64.697 C 199.295 62.152 201.672 59.616 204.038 57.092 C 206.93 54.189 209.765 52.266 212.55 51.324 C 212.746 51.268 212.947 51.24 213.145 51.24 C 214.012 51.24 214.953 51.796 215.964 52.907 C 216.776 53.905 217.219 54.652 217.292 55.141 C 217.365 55.65 217.401 56.139 217.401 56.611 C 217.401 58.626 216.47 60.928 214.609 63.508 C 212.475 66.469 211.229 68.712 210.869 70.238 C 210.834 70.444 210.86 70.549 210.949 70.549 C 211.058 70.605 211.158 70.577 211.247 70.463 C 219.506 61.869 226.135 55.641 231.141 51.776 C 232.207 50.985 233.418 50.59 234.773 50.59 C 235.443 50.59 236.055 50.701 236.616 50.929 C 236.616 51.191 236.969 51.721 237.674 52.511 C 239.28 53.566 240.085 54.51 240.085 55.339 C 240.085 55.828 239.941 56.384 239.651 57.006 Z" style="white-space: pre;" transform="matrix(0.998942, 0.04598, -0.04598, 0.998942, 3.292355, -9.612328)"/>
  <path d="M 267.086 56.338 C 267.176 57.28 267.221 58.205 267.221 59.11 C 267.221 64.01 265.533 69.391 262.153 75.252 C 259.625 79.627 256.861 82.737 253.86 84.582 C 253.1 84.958 252.27 85.147 251.366 85.147 C 249.795 85.147 248.376 84.724 247.11 83.876 C 246.264 83.084 245.655 82.481 245.295 82.065 C 244.645 81.331 244.239 80.568 244.077 79.776 C 243.985 79.55 243.812 79.437 243.561 79.437 C 243.308 79.494 243.128 79.627 243.018 79.833 C 240.941 84.902 237.706 92.479 233.316 102.563 L 232.693 102.563 C 232.549 102.357 231.662 101.694 230.036 100.584 C 228.972 99.793 228.419 98.868 228.384 97.814 C 229.034 93.063 230.551 87.786 232.937 81.982 C 235.104 76.969 237.3 71.982 239.522 67.027 C 242.159 60.75 243.479 56.735 243.479 54.982 C 243.479 54.831 243.452 54.728 243.399 54.671 C 242.496 54.464 240.979 55.256 238.844 57.046 C 239.15 55.838 240.046 54.55 241.529 53.173 C 243.028 51.795 244.157 51.136 244.916 51.194 C 246.632 51.287 248.123 52.239 249.389 54.048 C 249.64 54.728 249.767 55.49 249.767 56.338 C 249.767 57.45 249.341 59.428 248.493 62.276 C 248.44 62.54 248.513 62.72 248.711 62.812 C 248.853 62.926 249.035 62.907 249.252 62.756 C 250.968 60.589 252.659 58.451 254.32 56.338 C 256.544 53.645 258.665 52.297 260.691 52.297 C 261.359 52.297 262.018 52.4 262.668 52.606 C 262.723 52.984 263.257 53.512 264.267 54.19 C 264.883 54.396 265.46 54.587 266.003 54.756 C 266.616 55.074 266.977 55.604 267.086 56.338 Z M 259.172 61.173 C 259.226 60.911 259.126 60.692 258.873 60.523 C 258.676 60.43 258.449 60.43 258.196 60.523 C 255.358 62.636 251.944 66.299 247.952 71.52 C 247.085 73.104 246.65 74.244 246.65 74.941 C 246.65 75.471 246.777 75.939 247.03 76.355 C 247.952 78.052 248.764 78.814 249.469 78.645 C 254.726 74.593 257.961 68.769 259.172 61.173 Z" style="white-space: pre;" transform="matrix(0.998942, 0.04598, -0.04598, 0.998942, 3.79688, -11.312657)"/>
  <path d="M 296.38 33.56 C 296.631 35.051 296.551 36.847 296.136 38.961 C 295.737 41.278 295.08 42.937 294.158 43.935 C 294.122 43.407 294.211 42.588 294.428 41.476 C 294.664 40.382 294.781 39.59 294.781 39.1 C 294.781 38.006 294.32 37.199 293.399 36.669 C 292.605 36.351 289.975 41.201 285.511 51.229 C 285.511 51.965 285.972 52.227 286.894 52.021 C 288.502 51.759 291.033 51.673 294.482 51.768 C 293.506 55.574 291.049 57.684 287.11 58.1 C 286.045 58.27 284.978 58.43 283.912 58.581 C 282.612 58.901 281.78 59.561 281.419 60.559 C 281.31 60.766 280.072 64.066 277.706 70.454 C 275.266 76.993 273.37 81.452 272.015 83.827 C 271.851 84.146 271.03 83.875 269.547 83.008 C 268.049 82.139 267.326 81.338 267.38 80.604 C 267.632 77.587 268.673 73.31 270.496 67.77 C 272.104 62.757 272.909 60.248 272.909 60.248 C 272.656 60.042 271.472 59.647 269.358 59.061 C 267.93 58.686 267.244 57.922 267.298 56.772 C 267.46 53.811 268.573 51.598 270.633 50.128 C 270.542 50.43 270.442 50.712 270.334 50.976 C 270.245 51.352 270.3 51.673 270.496 51.937 C 271.201 52.465 272.312 52.729 273.831 52.729 C 275.204 52.729 275.991 52.566 276.189 52.248 C 278.212 48.233 280.261 44.227 282.341 40.231 C 284.869 35.689 287.824 32.41 291.202 30.394 C 291.401 30.3 291.629 30.253 291.88 30.253 C 292.694 30.253 293.661 30.697 294.781 31.581 C 295.737 32.429 296.271 33.088 296.38 33.56 Z" style="white-space: pre;" transform="matrix(0.998942, 0.04598, -0.04598, 0.998942, 2.92383, -12.901777)"/>
  <path d="M 312.876 32.863 C 313.02 34.749 312.425 36.728 311.088 38.801 C 309.751 40.856 308.622 41.882 307.701 41.882 C 307.158 41.824 306.38 41.506 305.37 40.921 C 303.853 40.073 303.093 38.752 303.093 36.962 C 303.093 36.548 303.166 36.151 303.31 35.775 C 303.926 34.891 304.863 33.599 306.129 31.902 C 306.834 30.734 307.89 30.148 309.3 30.148 C 311.232 30.148 312.425 31.054 312.876 32.863 Z M 305.668 52.569 C 305.16 56.356 303.545 60.522 300.817 65.065 C 297.056 71.305 294.855 75.187 294.203 76.713 C 294.059 77.129 294.591 77.335 295.802 77.335 C 296.399 77.277 297.266 76.854 298.404 76.062 C 299.542 75.271 300.32 74.799 300.735 74.648 C 299.779 77.23 297.067 79.313 292.604 80.897 C 292.152 81.067 291.702 80.86 291.249 80.275 C 290.797 79.689 290.362 79.135 289.949 78.607 C 289.695 78.494 289.344 78.231 288.89 77.815 C 288.186 76.873 287.834 75.742 287.834 74.423 C 287.834 72.577 288.872 69.749 290.95 65.94 C 291.041 65.792 292.407 63.472 295.044 58.985 C 296.616 56.348 297.799 53.974 298.593 51.861 C 298.703 51.691 298.73 51.558 298.675 51.466 C 298.586 51.41 298.431 51.41 298.215 51.466 C 296.698 51.994 295.179 52.803 293.662 53.897 C 296.244 50.165 298.857 48.299 301.494 48.299 C 302.001 48.299 302.478 48.376 302.929 48.526 C 303.237 48.676 303.771 49.26 304.53 50.279 C 305.288 51.277 305.668 52.039 305.668 52.569 Z" style="white-space: pre;" transform="matrix(0.998942, 0.04598, -0.04598, 0.998942, 2.871926, -13.75206)"/>
  <path d="M 332.419 54.679 C 331.315 57.694 329.771 62.263 327.784 68.389 C 327.748 68.595 327.602 68.7 327.351 68.7 C 327.187 68.7 326.815 68.608 326.238 68.419 C 325.661 68.228 325.244 68.136 324.992 68.136 C 324.794 68.136 324.586 68.192 324.368 68.305 C 324.171 68.398 324.024 68.447 323.934 68.447 C 323.574 68.447 323.195 68.144 322.796 67.541 C 322.383 66.94 322.173 66.402 322.173 65.93 C 322.173 65.498 322.29 64.743 322.525 63.668 C 322.743 62.595 322.851 61.945 322.851 61.717 C 322.851 61.511 322.778 61.464 322.634 61.576 C 321.368 62.632 320.079 64.213 318.759 66.327 C 316.679 69.642 315.596 71.359 315.506 71.471 C 314.042 73.64 311.766 76.749 308.675 80.801 C 308.424 80.971 308.142 81.056 307.836 81.056 C 306.625 81.056 305.938 80.659 305.776 79.868 C 305.632 79.076 304.864 78.462 303.472 78.031 C 302.083 77.615 301.413 76.851 301.467 75.741 C 302.172 72.78 303.762 68.559 306.237 63.076 C 308.712 57.591 310.283 53.471 310.953 50.72 C 310.953 50.304 310.473 50.097 309.517 50.097 C 309.01 50.097 308.459 50.325 307.863 50.777 C 307.286 51.209 306.77 51.616 306.319 51.992 C 305.161 52.84 304.656 53.265 304.8 53.265 C 304.747 53.209 304.72 53.123 304.72 53.009 C 305.133 52.069 305.858 51.172 306.887 50.325 C 307.918 49.477 308.919 48.685 309.895 47.949 C 311.161 47.271 312.343 46.932 313.447 46.932 C 314.062 46.932 314.441 47.044 314.585 47.271 C 314.747 47.517 315.1 47.872 315.641 48.346 C 316.056 48.722 316.59 49.41 317.24 50.409 C 317.493 51.087 317.621 51.803 317.621 52.558 C 317.621 53.612 317.329 55.009 316.752 56.741 C 316.175 58.475 315.858 59.69 315.805 60.389 C 315.75 60.651 315.823 60.784 316.022 60.784 C 316.238 60.784 316.419 60.7 316.563 60.531 C 318.134 58.325 319.708 56.14 321.279 53.971 C 323.195 51.447 325.093 49.496 326.97 48.119 C 327.314 47.857 327.668 47.724 328.028 47.724 C 328.535 47.724 329.201 48.1 330.033 48.855 C 330.866 49.625 331.488 50.089 331.904 50.239 C 332.445 50.615 332.716 51.277 332.716 52.218 C 332.716 52.537 332.616 53.357 332.419 54.679 Z" style="white-space: pre;" transform="matrix(0.998942, 0.04598, -0.04598, 0.998942, 3.277813, -14.512122)"/>
  <path d="M 357.873 53.428 C 358.416 58.666 355.779 63.181 349.961 66.971 C 348.353 68.025 346.309 68.524 343.834 68.469 C 343.166 68.469 342.425 68.074 341.613 67.282 C 340.819 66.49 340.21 65.649 339.797 64.765 C 339.544 64.179 339.262 63.889 338.956 63.889 C 338.162 63.889 337.202 65.31 336.084 68.157 C 335.073 70.739 334.538 72.588 334.485 73.698 C 334.43 73.962 334.403 74.2 334.403 74.406 C 334.403 75.423 334.836 76.11 335.703 76.469 C 336.211 76.582 336.714 76.64 337.222 76.64 C 338.287 76.64 339.526 76.348 340.935 75.763 C 342.108 75.177 343.274 74.623 344.432 74.095 C 345.046 73.831 346.022 73.211 347.358 72.228 C 348.695 71.267 349.742 70.625 350.502 70.306 C 350.7 70.136 350.955 70.372 351.261 71.013 C 351.567 71.655 351.722 72.342 351.722 73.078 C 351.722 73.436 351.667 73.747 351.56 74.009 C 350.962 75.387 349.751 76.687 347.927 77.911 C 346.41 78.853 344.918 79.797 343.456 80.739 C 342.986 80.908 342.245 81.171 341.232 81.531 C 340.691 81.793 340.141 81.926 339.58 81.926 C 338.821 81.926 338 81.651 337.113 81.106 C 336.228 80.561 335.379 80.024 334.565 79.494 C 334.059 79.119 333.527 78.9 332.966 78.844 C 332.405 78.788 332.054 78.739 331.91 78.703 C 329.579 77.741 328.313 74.992 328.115 70.447 C 328.007 68.561 328.413 66.537 329.335 64.37 C 329.533 63.936 330.466 62.164 332.127 59.054 C 336.228 52.928 342.046 49.027 349.58 47.35 C 351.206 46.973 353.058 47.838 355.136 49.951 C 356.961 51.741 357.873 52.9 357.873 53.428 Z M 352.237 55.803 C 352.454 55.331 352.561 54.833 352.561 54.305 C 352.561 53.25 352.128 52.855 351.261 53.117 C 348.28 54.022 344.838 56.765 340.935 61.344 C 340.536 61.834 340.691 62.447 341.396 63.181 C 342.297 63.803 343.408 63.775 344.729 63.097 C 347.621 61.57 350.123 59.138 352.237 55.803 Z" style="white-space: pre;" transform="matrix(0.998942, 0.04598, -0.04598, 0.998942, 3.332876, -15.70376)"/>
  <path d="M 28.448 65.885 C 28.165 49.248 35.245 39.624 35.245 39.624 C 38.314 54.344 44.017 54.403 44.017 54.403 C 44.017 54.403 40.93 48.919 41.121 39.998 C 41.343 29.616 50.524 11.574 62.563 11.204 C 60.259 14.41 59.285 17.6 59.285 22.29 C 59.285 39.37 82.58 44.274 82.58 66.274 C 82.58 85.938 66.447 89.565 55.007 89.565 C 43.559 89.565 28.732 82.522 28.448 65.885 Z M 38.739 70.074 C 38.739 78.529 48.455 83.281 56.424 83.173 C 64.551 83.061 65.391 81.521 65.69 81.705 C 68.568 83.425 72.888 82.542 72.888 82.542 C 72.888 82.542 70.089 81.217 70.801 78.333 C 70.889 77.976 74.051 76.239 74.109 70.074 C 74.186 61.62 64.394 56.974 56.424 56.974 C 48.451 56.974 38.739 61.62 38.739 70.074 Z" style=""/>
</svg>