<?xml version="1.0" encoding="utf-8"?>
<svg viewBox="0.622 11.674 196.11 79.897" xmlns="http://www.w3.org/2000/svg">
  <defs>
    <filter id="drop-shadow-filter-2" x="-500%" y="-500%" width="1000%" height="1000%">
      <feGaussianBlur in="SourceAlpha" stdDeviation="0"/>
      <feOffset dx="-1" dy="-1"/>
      <feComponentTransfer result="offsetblur">
        <feFuncA id="spread-ctrl" type="linear" slope="1"/>
      </feComponentTransfer>
      <feFlood flood-color="rgba(0,0,0,1)" x="10" y="10"/>
      <feComposite in2="offsetblur" operator="in"/>
      <feMerge>
        <feMergeNode/>
        <feMergeNode in="SourceGraphic"/>
      </feMerge>
    </filter>
    <filter id="drop-shadow-filter-0" x="-500%" y="-500%" width="1000%" height="1000%">
      <feGaussianBlur in="SourceAlpha" stdDeviation="0"/>
      <feOffset dx="-2" dy="-2"/>
      <feComponentTransfer result="offsetblur">
        <feFuncA id="spread-ctrl" type="linear" slope="0"/>
      </feComponentTransfer>
      <feFlood flood-color="rgba(93,44,116,1)" x="10" y="10"/>
      <feComposite in2="offsetblur" operator="in"/>
      <feMerge>
        <feMergeNode/>
        <feMergeNode in="SourceGraphic"/>
      </feMerge>
    </filter>
  </defs>
  <rect width="256" height="102.974" style="visibility: hidden;"/>
  <g transform="matrix(0.694719, 0, 0, 0.694719, -399.569641, -618.723206)" style="filter: none;">
    <ellipse style="fill: rgb(255, 255, 255); visibility: hidden;" cx="899.844" cy="979.301" rx="27.523" ry="20.411"/>
    <path d="M 861.574 971.242 C 861.203 949.413 870.493 936.784 870.493 936.784 C 874.521 956.099 882.004 956.177 882.004 956.177 C 882.004 956.177 877.953 948.981 878.204 937.275 C 878.495 923.653 890.542 899.978 906.339 899.493 C 903.315 903.7 902.038 907.885 902.038 914.04 C 902.038 936.452 932.604 942.886 932.604 971.753 C 932.604 997.555 911.435 1002.315 896.424 1002.315 C 881.403 1002.315 861.947 993.073 861.574 971.242 Z M 875.077 976.739 C 875.077 987.834 887.826 994.07 898.284 993.928 C 908.948 993.781 910.049 991.76 910.442 992.002 C 914.218 994.258 919.887 993.1 919.887 993.1 C 919.887 993.1 916.213 991.36 917.148 987.577 C 917.264 987.109 921.412 984.829 921.489 976.739 C 921.59 965.646 908.742 959.55 898.284 959.55 C 887.821 959.55 875.077 965.646 875.077 976.739 Z" style="fill: rgb(239, 156, 92); visibility: hidden;"/>
    <g style="filter: url(#drop-shadow-filter-2);">
      <g transform="matrix(1, 0, 0, 1, -259.185608, 960.842957)" style="filter: url(#drop-shadow-filter-0);">
        <title>Logo</title>
        <path d="M 905.953 -26.201 C 907.18 -24.866 907.796 -23.186 907.796 -21.153 C 907.796 -19.285 907.002 -16.441 905.415 -12.627 C 904.339 -9.93 902.728 -7.462 900.579 -5.218 C 897.71 -2.175 894.811 -0.801 891.865 -1.096 C 890.867 -1.308 889.763 -1.843 888.563 -2.696 C 887.335 -3.578 886.403 -4.125 885.76 -4.339 C 885.609 -4.417 885.531 -4.568 885.531 -4.779 C 885.531 -5.31 886.325 -6.368 887.909 -7.943 C 889.113 -9.116 890.293 -10.264 891.442 -11.386 C 895.54 -15.87 897.586 -19.206 897.586 -21.395 C 897.586 -21.767 897.506 -22.064 897.355 -22.277 C 896.434 -23.025 895.319 -23.4 894.013 -23.4 C 891.586 -23.4 888.794 -22.237 885.647 -19.912 C 880.912 -16.418 877.583 -13.199 875.666 -10.264 C 870.06 -1.827 866.682 3.403 865.531 5.432 C 862.18 11.787 860.503 17.725 860.503 23.252 C 860.503 25.12 860.682 26.947 861.04 28.737 C 861.758 30.527 863.51 31.649 866.298 32.102 C 870.75 31.649 875.691 29.738 881.114 26.374 C 885.569 23.381 898.736 17.021 903.188 14.109 C 903.112 15.07 903.299 17.286 903.835 18.966 C 904.376 20.648 900.342 22.437 900.342 23.131 C 900.342 24.304 902.749 20.824 901.875 21.813 C 894.786 31.745 879.275 43.192 869.754 43.192 C 868.323 43.192 866.913 43.085 865.531 42.872 C 864.459 42.711 863.317 42.152 862.117 41.191 C 860.091 39.698 859.057 38.91 859.004 38.827 C 856.271 38.988 853.823 38.16 851.674 36.345 C 848.602 32.102 847.069 27.216 847.069 21.689 C 847.069 14.135 850.534 3.883 857.471 -9.063 C 867.731 -23.639 878.632 -32.338 890.176 -35.172 C 890.664 -35.329 891.2 -35.411 891.788 -35.411 C 893.862 -35.411 895.935 -34.581 898.005 -32.927 C 899.646 -31.595 900.684 -30.393 901.118 -29.325 C 901.347 -28.736 902.141 -28.152 903.496 -27.563 C 904.853 -26.949 905.672 -26.492 905.953 -26.201 Z" style="white-space: pre; fill: rgb(255, 255, 255);" transform="matrix(0.998942, 0.04598, -0.04598, 0.998942, 1.106893, -40.340251)"/>
        <path d="M 936.133 6.033 C 936.24 6.202 936.195 6.494 935.996 6.91 C 935.583 7.608 935.353 8.06 935.319 8.266 C 934.812 9.681 932.636 13.874 928.786 20.848 C 925.191 27.294 923.394 30.931 923.394 31.76 C 923.394 32.665 924.051 32.956 925.372 32.637 C 926.076 32.277 926.943 31.582 927.974 30.545 C 929.023 29.507 929.744 28.839 930.143 28.537 C 927.468 33.024 924.966 35.794 922.635 36.85 C 922.436 36.943 922.236 36.991 922.039 36.991 C 921.733 36.991 920.99 36.332 919.815 35.011 C 919.526 34.539 919.255 34.268 919.003 34.191 C 918.75 34.116 918.47 34.05 918.164 33.994 C 917.656 33.618 917.404 32.854 917.404 31.704 C 917.404 31.063 917.504 30.112 917.703 28.848 C 917.845 27.85 917.872 27.266 917.783 27.095 C 917.676 27.002 917.576 26.955 917.484 26.955 C 916.978 26.955 916.013 27.747 914.585 29.329 C 912.724 31.442 911.611 32.646 911.251 32.949 C 909.029 34.85 907.059 35.803 905.343 35.803 C 904.673 35.803 904.015 35.698 903.365 35.492 C 903.167 35.436 902.957 35.174 902.741 34.7 C 902.544 34.228 902.191 33.833 901.684 33.513 C 899.102 31.874 897.836 30.185 897.889 28.453 C 897.944 26.494 898.071 25.202 898.27 24.58 C 900.798 15.496 906.516 8.258 915.425 2.867 C 917.087 1.869 918.93 1.369 920.954 1.369 C 924.099 1.369 926.177 2.661 927.187 5.241 C 927.187 5.241 927.262 5.694 927.404 6.599 C 927.513 7.127 927.819 7.363 928.326 7.305 C 928.888 7.249 929.446 6.889 930.006 6.232 C 930.549 5.573 931.001 5.166 931.361 5.015 C 933.692 4.902 935.284 5.241 936.133 6.033 Z M 925.588 9.455 C 925.445 8.457 924.714 8.032 923.394 8.183 C 918.787 9.558 913.78 13.807 908.379 20.932 C 905.939 24.099 904.72 26.577 904.72 28.367 C 904.72 28.783 904.775 29.18 904.882 29.556 C 905.081 29.97 905.56 29.914 906.319 29.386 C 910.256 26.749 914.079 23.741 917.783 20.367 C 923.348 15.354 925.949 11.715 925.588 9.455 Z" style="white-space: pre; fill: rgb(255, 255, 255);" transform="matrix(0.998942, 0.04598, -0.04598, 0.998942, 1.851794, -42.14516)"/>
        <path d="M 988.414 9.998 C 987.404 12.054 984.872 16.408 980.826 23.06 C 977.573 28.508 975.947 31.627 975.947 32.418 C 975.947 32.777 976.38 32.955 977.247 32.955 C 978.007 32.955 979.072 32.56 980.447 31.768 C 982.417 30.616 983.528 29.987 983.78 29.874 C 982.913 31.663 981.214 33.322 978.684 34.85 C 977.078 35.867 975.765 36.376 974.754 36.376 C 974.341 36.376 974.059 36.243 973.915 35.981 C 972.993 35.131 972.079 34.283 971.178 33.436 C 969.768 31.966 969.063 30.573 969.063 29.251 C 969.063 28.82 969.136 28.367 969.28 27.895 C 970.655 24.408 972.072 21.477 973.536 19.101 C 973.589 18.895 973.509 18.792 973.292 18.792 C 972.784 18.792 972.079 19.292 971.178 20.29 C 970.872 20.552 970.336 21.11 969.579 21.957 C 967.464 24.483 965.343 27.017 963.208 29.562 C 960.571 32.73 958.14 35.047 955.918 36.517 C 955.612 36.687 955.314 36.772 955.024 36.772 C 954.463 36.772 953.866 36.509 953.236 35.981 C 952.604 35.451 951.981 34.942 951.366 34.453 C 951.021 34.095 950.471 33.888 949.712 33.831 C 949.406 33.831 949.169 33.728 949.007 33.521 C 948.663 32.73 948.492 31.91 948.492 31.06 C 948.492 29.741 948.973 28.101 949.929 26.142 C 951.194 23.56 951.961 21.957 952.232 21.335 C 952.522 20.694 952.992 19.612 953.642 18.084 C 953.697 17.878 953.669 17.745 953.56 17.689 C 953.416 17.631 953.243 17.631 953.045 17.689 C 952.848 17.782 952.666 17.914 952.504 18.084 C 949.124 22.043 943.784 28.007 936.485 35.981 C 935.78 36.715 934.948 36.82 933.992 36.292 C 933.794 35.649 932.936 34.962 931.417 34.228 C 930.206 33.642 929.702 32.749 929.9 31.541 C 930.496 28 932.06 23.803 934.588 18.961 C 938.545 11.459 940.625 7.446 940.821 6.917 C 940.931 6.71 940.985 6.501 940.985 6.294 C 940.985 5.653 940.353 5.524 939.088 5.899 C 938.925 5.936 938.355 6.287 937.379 6.945 C 936.385 7.604 935.79 7.936 935.591 7.936 C 935.484 7.897 935.429 7.85 935.429 7.794 C 935.429 7.625 935.653 7.228 936.106 6.605 C 938.944 4.026 941.147 2.732 942.719 2.732 C 943.369 2.732 944.001 2.882 944.616 3.185 C 946.785 4.938 947.796 6.389 947.652 7.539 C 947.454 9.086 946.694 11.194 945.376 13.872 C 944.056 16.567 943.396 17.942 943.396 18 C 943.451 18.528 943.633 18.792 943.939 18.792 C 944.338 18.792 944.915 18.423 945.673 17.689 C 948.058 15.144 950.435 12.608 952.801 10.084 C 955.693 7.181 958.528 5.258 961.313 4.316 C 961.509 4.26 961.71 4.232 961.908 4.232 C 962.775 4.232 963.716 4.788 964.727 5.899 C 965.539 6.897 965.982 7.644 966.055 8.133 C 966.128 8.642 966.164 9.131 966.164 9.603 C 966.164 11.618 965.233 13.92 963.372 16.5 C 961.238 19.461 959.992 21.704 959.632 23.23 C 959.597 23.436 959.623 23.541 959.712 23.541 C 959.821 23.597 959.921 23.569 960.01 23.455 C 968.269 14.861 974.898 8.633 979.904 4.768 C 980.97 3.977 982.181 3.582 983.536 3.582 C 984.206 3.582 984.818 3.693 985.379 3.921 C 985.379 4.183 985.732 4.713 986.437 5.503 C 988.043 6.558 988.848 7.502 988.848 8.331 C 988.848 8.82 988.704 9.376 988.414 9.998 Z" style="white-space: pre; fill: rgb(255, 255, 255);" transform="matrix(0.998942, 0.04598, -0.04598, 0.998942, 1.922848, -44.090186)"/>
        <path d="M 1015.849 9.33 C 1015.939 10.272 1015.984 11.197 1015.984 12.102 C 1015.984 17.002 1014.296 22.383 1010.916 28.244 C 1008.388 32.619 1005.624 35.729 1002.623 37.574 C 1001.863 37.95 1001.033 38.139 1000.129 38.139 C 998.558 38.139 997.139 37.716 995.873 36.868 C 995.027 36.076 994.418 35.473 994.058 35.057 C 993.408 34.323 993.002 33.56 992.84 32.768 C 992.748 32.542 992.575 32.429 992.324 32.429 C 992.071 32.486 991.891 32.619 991.781 32.825 C 989.704 37.894 986.469 45.471 982.079 55.555 L 981.456 55.555 C 981.312 55.349 980.425 54.686 978.799 53.576 C 977.735 52.785 977.182 51.86 977.147 50.806 C 977.797 46.055 979.314 40.778 981.7 34.974 C 983.867 29.961 986.063 24.974 988.285 20.019 C 990.922 13.742 992.242 9.727 992.242 7.974 C 992.242 7.823 992.215 7.72 992.162 7.663 C 991.259 7.456 989.742 8.248 987.607 10.038 C 987.913 8.83 988.809 7.542 990.292 6.165 C 991.791 4.787 992.92 4.128 993.679 4.186 C 995.395 4.279 996.886 5.231 998.152 7.04 C 998.403 7.72 998.53 8.482 998.53 9.33 C 998.53 10.442 998.104 12.42 997.256 15.268 C 997.203 15.532 997.276 15.712 997.474 15.804 C 997.616 15.918 997.798 15.899 998.015 15.748 C 999.731 13.581 1001.422 11.443 1003.083 9.33 C 1005.307 6.637 1007.428 5.289 1009.454 5.289 C 1010.122 5.289 1010.781 5.392 1011.431 5.598 C 1011.486 5.976 1012.02 6.504 1013.03 7.182 C 1013.646 7.388 1014.223 7.579 1014.766 7.748 C 1015.379 8.066 1015.74 8.596 1015.849 9.33 Z M 1007.935 14.165 C 1007.989 13.903 1007.889 13.684 1007.636 13.515 C 1007.439 13.422 1007.212 13.422 1006.959 13.515 C 1004.121 15.628 1000.707 19.291 996.715 24.512 C 995.848 26.096 995.413 27.236 995.413 27.933 C 995.413 28.463 995.54 28.931 995.793 29.347 C 996.715 31.044 997.527 31.806 998.232 31.637 C 1003.489 27.585 1006.724 21.761 1007.935 14.165 Z" style="white-space: pre; fill: rgb(255, 255, 255);" transform="matrix(0.998942, 0.04598, -0.04598, 0.998942, 2.427373, -45.790513)"/>
        <path d="M 1045.143 -13.448 C 1045.394 -11.957 1045.314 -10.161 1044.899 -8.047 C 1044.5 -5.73 1043.843 -4.071 1042.921 -3.073 C 1042.885 -3.601 1042.974 -4.42 1043.191 -5.532 C 1043.427 -6.626 1043.544 -7.418 1043.544 -7.908 C 1043.544 -9.002 1043.083 -9.809 1042.162 -10.339 C 1041.368 -10.657 1038.738 -5.807 1034.274 4.221 C 1034.274 4.957 1034.735 5.219 1035.657 5.013 C 1037.265 4.751 1039.796 4.665 1043.245 4.76 C 1042.269 8.566 1039.812 10.676 1035.873 11.092 C 1034.808 11.262 1033.741 11.422 1032.675 11.573 C 1031.375 11.893 1030.543 12.553 1030.182 13.551 C 1030.073 13.758 1028.835 17.058 1026.469 23.446 C 1024.029 29.985 1022.133 34.444 1020.778 36.819 C 1020.614 37.138 1019.793 36.867 1018.31 36 C 1016.812 35.131 1016.089 34.33 1016.143 33.596 C 1016.395 30.579 1017.436 26.302 1019.259 20.762 C 1020.867 15.749 1021.672 13.24 1021.672 13.24 C 1021.419 13.034 1020.235 12.639 1018.121 12.053 C 1016.693 11.678 1016.007 10.914 1016.061 9.764 C 1016.223 6.803 1017.336 4.59 1019.396 3.12 C 1019.305 3.422 1019.205 3.704 1019.097 3.968 C 1019.008 4.344 1019.063 4.665 1019.259 4.929 C 1019.964 5.457 1021.075 5.721 1022.594 5.721 C 1023.967 5.721 1024.754 5.558 1024.952 5.24 C 1026.975 1.225 1029.024 -2.781 1031.104 -6.777 C 1033.632 -11.319 1036.587 -14.598 1039.965 -16.614 C 1040.164 -16.708 1040.392 -16.755 1040.643 -16.755 C 1041.457 -16.755 1042.424 -16.311 1043.544 -15.427 C 1044.5 -14.579 1045.034 -13.92 1045.143 -13.448 Z" style="white-space: pre; fill: rgb(255, 255, 255);" transform="matrix(0.998942, 0.04598, -0.04598, 0.998942, 1.554323, -47.379633)"/>
        <path d="M 1061.639 -14.145 C 1061.783 -12.259 1061.188 -10.28 1059.851 -8.207 C 1058.514 -6.152 1057.385 -5.126 1056.464 -5.126 C 1055.921 -5.184 1055.143 -5.502 1054.133 -6.087 C 1052.616 -6.935 1051.856 -8.256 1051.856 -10.046 C 1051.856 -10.46 1051.929 -10.857 1052.073 -11.233 C 1052.689 -12.117 1053.626 -13.409 1054.892 -15.106 C 1055.597 -16.274 1056.653 -16.86 1058.063 -16.86 C 1059.995 -16.86 1061.188 -15.954 1061.639 -14.145 Z M 1054.431 5.561 C 1053.923 9.348 1052.308 13.514 1049.58 18.057 C 1045.819 24.297 1043.618 28.179 1042.966 29.705 C 1042.822 30.121 1043.354 30.327 1044.565 30.327 C 1045.162 30.269 1046.029 29.846 1047.167 29.054 C 1048.305 28.263 1049.083 27.791 1049.498 27.64 C 1048.542 30.222 1045.83 32.305 1041.367 33.889 C 1040.915 34.059 1040.465 33.852 1040.012 33.267 C 1039.56 32.681 1039.125 32.127 1038.712 31.599 C 1038.458 31.486 1038.107 31.223 1037.653 30.807 C 1036.949 29.865 1036.597 28.734 1036.597 27.415 C 1036.597 25.569 1037.635 22.741 1039.713 18.932 C 1039.804 18.784 1041.17 16.464 1043.807 11.977 C 1045.379 9.34 1046.562 6.966 1047.356 4.853 C 1047.466 4.683 1047.493 4.55 1047.438 4.458 C 1047.349 4.402 1047.194 4.402 1046.978 4.458 C 1045.461 4.986 1043.942 5.795 1042.425 6.889 C 1045.007 3.157 1047.62 1.291 1050.257 1.291 C 1050.764 1.291 1051.241 1.368 1051.692 1.518 C 1052 1.668 1052.534 2.252 1053.293 3.271 C 1054.051 4.269 1054.431 5.031 1054.431 5.561 Z" style="white-space: pre; fill: rgb(255, 255, 255);" transform="matrix(0.998942, 0.04598, -0.04598, 0.998942, 1.502419, -48.229918)"/>
        <path d="M 1081.182 7.671 C 1080.078 10.686 1078.534 15.255 1076.547 21.381 C 1076.511 21.587 1076.365 21.692 1076.114 21.692 C 1075.95 21.692 1075.578 21.6 1075.001 21.411 C 1074.424 21.22 1074.007 21.128 1073.755 21.128 C 1073.557 21.128 1073.349 21.184 1073.131 21.297 C 1072.934 21.39 1072.787 21.439 1072.697 21.439 C 1072.337 21.439 1071.958 21.136 1071.559 20.533 C 1071.146 19.932 1070.936 19.394 1070.936 18.922 C 1070.936 18.49 1071.053 17.735 1071.288 16.66 C 1071.506 15.587 1071.614 14.937 1071.614 14.709 C 1071.614 14.503 1071.541 14.456 1071.397 14.568 C 1070.131 15.624 1068.842 17.205 1067.522 19.319 C 1065.442 22.634 1064.359 24.351 1064.269 24.463 C 1062.805 26.632 1060.529 29.741 1057.438 33.793 C 1057.187 33.963 1056.905 34.048 1056.599 34.048 C 1055.388 34.048 1054.701 33.651 1054.539 32.86 C 1054.395 32.068 1053.627 31.454 1052.235 31.023 C 1050.846 30.607 1050.176 29.843 1050.23 28.733 C 1050.935 25.772 1052.525 21.551 1055 16.068 C 1057.475 10.583 1059.046 6.463 1059.716 3.712 C 1059.716 3.296 1059.236 3.089 1058.28 3.089 C 1057.773 3.089 1057.222 3.317 1056.626 3.769 C 1056.049 4.201 1055.533 4.608 1055.082 4.984 C 1053.924 5.832 1053.419 6.257 1053.563 6.257 C 1053.51 6.201 1053.483 6.115 1053.483 6.001 C 1053.896 5.061 1054.621 4.164 1055.65 3.317 C 1056.681 2.469 1057.682 1.677 1058.658 0.941 C 1059.924 0.263 1061.106 -0.076 1062.21 -0.076 C 1062.825 -0.076 1063.204 0.036 1063.348 0.263 C 1063.51 0.509 1063.863 0.864 1064.404 1.338 C 1064.819 1.714 1065.353 2.402 1066.003 3.401 C 1066.256 4.079 1066.384 4.795 1066.384 5.55 C 1066.384 6.604 1066.092 8.001 1065.515 9.733 C 1064.938 11.467 1064.621 12.682 1064.568 13.381 C 1064.513 13.643 1064.586 13.776 1064.785 13.776 C 1065.001 13.776 1065.182 13.692 1065.326 13.523 C 1066.897 11.317 1068.471 9.132 1070.042 6.963 C 1071.958 4.439 1073.856 2.488 1075.733 1.111 C 1076.077 0.849 1076.431 0.716 1076.791 0.716 C 1077.298 0.716 1077.964 1.092 1078.796 1.847 C 1079.629 2.617 1080.251 3.081 1080.667 3.231 C 1081.208 3.607 1081.479 4.269 1081.479 5.21 C 1081.479 5.529 1081.379 6.349 1081.182 7.671 Z" style="white-space: pre; fill: rgb(255, 255, 255);" transform="matrix(0.998942, 0.04598, -0.04598, 0.998942, 1.908306, -48.989978)"/>
        <path d="M 1106.636 6.42 C 1107.179 11.658 1104.542 16.173 1098.724 19.963 C 1097.116 21.017 1095.072 21.516 1092.597 21.461 C 1091.929 21.461 1091.188 21.066 1090.376 20.274 C 1089.582 19.482 1088.973 18.641 1088.56 17.757 C 1088.307 17.171 1088.025 16.881 1087.719 16.881 C 1086.925 16.881 1085.965 18.302 1084.847 21.149 C 1083.836 23.731 1083.301 25.58 1083.248 26.69 C 1083.193 26.954 1083.166 27.192 1083.166 27.398 C 1083.166 28.415 1083.599 29.102 1084.466 29.461 C 1084.974 29.574 1085.477 29.632 1085.985 29.632 C 1087.05 29.632 1088.289 29.34 1089.698 28.755 C 1090.871 28.169 1092.037 27.615 1093.195 27.087 C 1093.809 26.823 1094.785 26.203 1096.121 25.22 C 1097.458 24.259 1098.505 23.617 1099.265 23.298 C 1099.463 23.128 1099.718 23.364 1100.024 24.005 C 1100.33 24.647 1100.485 25.334 1100.485 26.07 C 1100.485 26.428 1100.43 26.739 1100.323 27.001 C 1099.725 28.379 1098.514 29.679 1096.69 30.903 C 1095.173 31.845 1093.681 32.789 1092.219 33.731 C 1091.749 33.9 1091.008 34.163 1089.995 34.523 C 1089.454 34.785 1088.904 34.918 1088.343 34.918 C 1087.584 34.918 1086.763 34.643 1085.876 34.098 C 1084.991 33.553 1084.142 33.016 1083.328 32.486 C 1082.822 32.111 1082.29 31.892 1081.729 31.836 C 1081.168 31.78 1080.817 31.731 1080.673 31.695 C 1078.342 30.733 1077.076 27.984 1076.878 23.439 C 1076.77 21.553 1077.176 19.529 1078.098 17.362 C 1078.296 16.928 1079.229 15.156 1080.89 12.046 C 1084.991 5.92 1090.809 2.019 1098.343 0.342 C 1099.969 -0.035 1101.821 0.83 1103.899 2.943 C 1105.724 4.733 1106.636 5.892 1106.636 6.42 Z M 1101 8.795 C 1101.217 8.323 1101.324 7.825 1101.324 7.297 C 1101.324 6.242 1100.891 5.847 1100.024 6.109 C 1097.043 7.014 1093.601 9.757 1089.698 14.336 C 1089.299 14.826 1089.454 15.439 1090.159 16.173 C 1091.06 16.795 1092.171 16.767 1093.492 16.089 C 1096.384 14.562 1098.886 12.13 1101 8.795 Z" style="white-space: pre; fill: rgb(255, 255, 255);" transform="matrix(0.998942, 0.04598, -0.04598, 0.998942, 1.963369, -50.181621)"/>
      </g>
      <path d="M 739.75 1023.68 C 738.757 1023.68 737.863 1023.463 737.07 1023.03 C 736.277 1022.603 735.643 1021.983 735.17 1021.17 C 734.703 1020.363 734.47 1019.41 734.47 1018.31 C 734.47 1017.277 734.687 1016.37 735.12 1015.59 C 735.553 1014.81 736.16 1014.207 736.94 1013.78 C 737.72 1013.36 738.62 1013.15 739.64 1013.15 C 740.413 1013.15 741.083 1013.247 741.65 1013.44 C 742.21 1013.64 742.65 1013.883 742.97 1014.17 L 741.92 1016.08 C 741.307 1015.467 740.613 1015.16 739.84 1015.16 C 738.907 1015.16 738.193 1015.443 737.7 1016.01 C 737.213 1016.583 736.97 1017.343 736.97 1018.29 C 736.97 1019.37 737.223 1020.21 737.73 1020.81 C 738.23 1021.41 738.933 1021.71 739.84 1021.71 C 740.293 1021.71 740.733 1021.643 741.16 1021.51 C 741.593 1021.377 741.927 1021.223 742.16 1021.05 L 743.01 1022.72 C 742.69 1022.967 742.243 1023.187 741.67 1023.38 C 741.09 1023.58 740.45 1023.68 739.75 1023.68 ZM 749.81 1023.68 C 748.903 1023.68 748.067 1023.463 747.3 1023.03 C 746.533 1022.603 745.92 1021.99 745.46 1021.19 C 745 1020.397 744.77 1019.467 744.77 1018.4 C 744.77 1017.347 744.973 1016.427 745.38 1015.64 C 745.78 1014.853 746.35 1014.24 747.09 1013.8 C 747.837 1013.367 748.713 1013.15 749.72 1013.15 C 750.307 1013.15 750.857 1013.25 751.37 1013.45 C 751.877 1013.657 752.307 1013.91 752.66 1014.21 C 753.007 1014.51 753.24 1014.803 753.36 1015.09 L 753.4 1013.41 L 755.66 1013.41 L 755.66 1023.46 L 753.42 1023.46 L 753.38 1021.69 C 753.133 1022.21 752.68 1022.673 752.02 1023.08 C 751.367 1023.48 750.63 1023.68 749.81 1023.68 Z M 750.2 1021.71 C 751.033 1021.71 751.737 1021.42 752.31 1020.84 C 752.877 1020.267 753.16 1019.513 753.16 1018.58 L 753.16 1018.42 C 753.16 1017.793 753.03 1017.233 752.77 1016.74 C 752.503 1016.24 752.143 1015.853 751.69 1015.58 C 751.243 1015.3 750.747 1015.16 750.2 1015.16 C 749.267 1015.16 748.547 1015.463 748.04 1016.07 C 747.527 1016.677 747.27 1017.46 747.27 1018.42 C 747.27 1019.4 747.523 1020.193 748.03 1020.8 C 748.53 1021.407 749.253 1021.71 750.2 1021.71 ZM 758.922 1023.46 L 758.922 1013.41 L 761.292 1013.41 L 761.292 1015.23 C 761.612 1014.543 762.082 1014.023 762.702 1013.67 C 763.322 1013.323 764.035 1013.15 764.842 1013.15 C 766.635 1013.163 767.735 1013.783 768.142 1015.01 C 768.468 1014.437 768.952 1013.983 769.592 1013.65 C 770.232 1013.317 770.912 1013.15 771.632 1013.15 C 772.678 1013.15 773.472 1013.35 774.012 1013.75 C 774.552 1014.15 774.915 1014.72 775.102 1015.46 C 775.282 1016.193 775.372 1017.18 775.372 1018.42 L 775.372 1023.46 L 772.982 1023.46 L 772.982 1018.4 C 772.982 1017.22 772.862 1016.373 772.622 1015.86 C 772.382 1015.347 771.918 1015.09 771.232 1015.09 C 770.312 1015.09 769.615 1015.4 769.142 1016.02 C 768.668 1016.647 768.432 1017.463 768.432 1018.47 L 768.432 1023.46 L 766.062 1023.46 L 766.062 1018.05 C 766.062 1017.277 766.035 1016.7 765.982 1016.32 C 765.922 1015.94 765.758 1015.64 765.492 1015.42 C 765.232 1015.2 764.808 1015.09 764.222 1015.09 C 763.715 1015.09 763.238 1015.243 762.792 1015.55 C 762.345 1015.857 761.988 1016.27 761.722 1016.79 C 761.448 1017.31 761.312 1017.87 761.312 1018.47 L 761.312 1023.46 L 758.922 1023.46 ZM 778.531 1028.78 L 778.531 1013.41 L 780.811 1013.41 L 780.811 1015.27 C 781.611 1013.857 782.864 1013.15 784.571 1013.15 C 785.991 1013.15 787.137 1013.597 788.011 1014.49 C 788.891 1015.39 789.331 1016.687 789.331 1018.38 C 789.331 1019.433 789.114 1020.36 788.681 1021.16 C 788.247 1021.967 787.664 1022.587 786.931 1023.02 C 786.191 1023.46 785.367 1023.68 784.461 1023.68 C 783.614 1023.68 782.881 1023.53 782.261 1023.23 C 781.641 1022.93 781.157 1022.503 780.811 1021.95 L 780.831 1028.78 L 778.531 1028.78 Z M 783.921 1021.69 C 784.867 1021.69 785.597 1021.387 786.111 1020.78 C 786.617 1020.173 786.871 1019.393 786.871 1018.44 C 786.871 1017.453 786.621 1016.663 786.121 1016.07 C 785.614 1015.477 784.881 1015.18 783.921 1015.18 C 783.394 1015.18 782.901 1015.31 782.441 1015.57 C 781.981 1015.823 781.614 1016.187 781.341 1016.66 C 781.074 1017.133 780.941 1017.683 780.941 1018.31 L 780.941 1018.47 C 780.941 1019.097 781.074 1019.653 781.341 1020.14 C 781.614 1020.633 781.977 1021.013 782.431 1021.28 C 782.884 1021.553 783.381 1021.69 783.921 1021.69 ZM 792.883 1023.46 L 792.883 1015.29 L 791.263 1015.29 L 791.263 1013.41 L 792.883 1013.41 L 792.883 1011.24 C 792.883 1009.927 793.199 1008.907 793.833 1008.18 C 794.466 1007.46 795.396 1007.1 796.623 1007.1 C 797.123 1007.1 797.686 1007.24 798.313 1007.52 L 797.853 1009.75 C 797.746 1009.637 797.589 1009.523 797.383 1009.41 C 797.169 1009.303 796.939 1009.25 796.693 1009.25 C 795.713 1009.25 795.216 1009.883 795.203 1011.15 L 795.203 1013.41 L 797.563 1013.41 L 797.563 1015.29 L 795.203 1015.29 L 795.203 1023.46 L 792.883 1023.46 ZM 800.136 1023.46 L 800.136 1013.41 L 802.586 1013.41 L 802.586 1023.46 L 800.136 1023.46 Z M 801.336 1011.52 C 800.89 1011.52 800.513 1011.367 800.206 1011.06 C 799.9 1010.753 799.746 1010.377 799.746 1009.93 C 799.746 1009.517 799.9 1009.163 800.206 1008.87 C 800.513 1008.583 800.89 1008.44 801.336 1008.44 C 801.776 1008.44 802.15 1008.583 802.456 1008.87 C 802.763 1009.163 802.916 1009.517 802.916 1009.93 C 802.916 1010.377 802.766 1010.753 802.466 1011.06 C 802.166 1011.367 801.79 1011.52 801.336 1011.52 ZM 805.906 1023.46 L 805.906 1013.41 L 808.266 1013.41 L 808.266 1015.38 C 808.5 1014.707 808.88 1014.167 809.406 1013.76 C 809.933 1013.353 810.533 1013.15 811.206 1013.15 C 811.673 1013.15 811.993 1013.193 812.166 1013.28 L 811.836 1015.66 C 811.71 1015.573 811.426 1015.53 810.986 1015.53 C 810.3 1015.53 809.676 1015.75 809.116 1016.19 C 808.55 1016.63 808.266 1017.33 808.266 1018.29 L 808.266 1023.46 L 805.906 1023.46 ZM 818.684 1023.68 C 817.484 1023.68 816.484 1023.443 815.684 1022.97 C 814.878 1022.497 814.284 1021.86 813.904 1021.06 C 813.524 1020.267 813.334 1019.393 813.334 1018.44 C 813.334 1017.38 813.558 1016.447 814.004 1015.64 C 814.451 1014.84 815.068 1014.223 815.854 1013.79 C 816.641 1013.363 817.531 1013.15 818.524 1013.15 C 820.078 1013.15 821.228 1013.577 821.974 1014.43 C 822.728 1015.283 823.104 1016.483 823.104 1018.03 C 823.104 1018.423 823.084 1018.833 823.044 1019.26 L 815.814 1019.26 C 815.974 1020.147 816.291 1020.787 816.764 1021.18 C 817.238 1021.573 817.898 1021.77 818.744 1021.77 C 819.444 1021.77 820.021 1021.713 820.474 1021.6 C 820.928 1021.48 821.344 1021.32 821.724 1021.12 L 822.444 1022.8 C 822.084 1023.033 821.588 1023.24 820.954 1023.42 C 820.328 1023.593 819.571 1023.68 818.684 1023.68 Z M 815.814 1017.61 L 820.804 1017.61 C 820.818 1016.703 820.621 1016.067 820.214 1015.7 C 819.808 1015.327 819.224 1015.14 818.464 1015.14 C 816.931 1015.14 816.048 1015.963 815.814 1017.61 ZM 833.649 1028.78 L 833.669 1021.95 C 833.316 1022.503 832.826 1022.93 832.199 1023.23 C 831.572 1023.53 830.829 1023.68 829.969 1023.68 C 829.062 1023.68 828.236 1023.46 827.489 1023.02 C 826.749 1022.587 826.162 1021.967 825.729 1021.16 C 825.296 1020.36 825.079 1019.433 825.079 1018.38 C 825.079 1017.24 825.299 1016.28 825.739 1015.5 C 826.179 1014.72 826.766 1014.133 827.499 1013.74 C 828.239 1013.347 829.062 1013.15 829.969 1013.15 C 831.662 1013.15 832.896 1013.85 833.669 1015.25 L 833.689 1013.41 L 835.969 1013.41 L 835.969 1028.78 L 833.649 1028.78 Z M 830.509 1021.71 C 831.342 1021.71 832.046 1021.42 832.619 1020.84 C 833.186 1020.267 833.469 1019.513 833.469 1018.58 L 833.469 1018.42 C 833.469 1017.793 833.339 1017.233 833.079 1016.74 C 832.812 1016.24 832.452 1015.853 831.999 1015.58 C 831.552 1015.3 831.056 1015.16 830.509 1015.16 C 829.576 1015.16 828.856 1015.463 828.349 1016.07 C 827.836 1016.677 827.579 1017.46 827.579 1018.42 C 827.579 1019.4 827.832 1020.193 828.339 1020.8 C 828.839 1021.407 829.562 1021.71 830.509 1021.71 ZM 842.677 1023.68 C 841.29 1023.68 840.337 1023.27 839.817 1022.45 C 839.297 1021.637 839.037 1020.5 839.037 1019.04 L 839.037 1013.41 L 841.407 1013.41 L 841.407 1018.44 C 841.407 1019.273 841.453 1019.92 841.547 1020.38 C 841.64 1020.84 841.83 1021.18 842.117 1021.4 C 842.403 1021.62 842.83 1021.73 843.397 1021.73 C 843.803 1021.73 844.197 1021.613 844.577 1021.38 C 844.957 1021.147 845.267 1020.83 845.507 1020.43 C 845.747 1020.023 845.867 1019.58 845.867 1019.1 L 845.867 1013.41 L 848.217 1013.41 L 848.217 1023.46 L 846.287 1023.46 L 846.027 1021.99 C 845.66 1022.563 845.203 1022.987 844.657 1023.26 C 844.11 1023.54 843.45 1023.68 842.677 1023.68 ZM 856.217 1023.68 C 855.017 1023.68 854.017 1023.443 853.217 1022.97 C 852.41 1022.497 851.817 1021.86 851.437 1021.06 C 851.057 1020.267 850.867 1019.393 850.867 1018.44 C 850.867 1017.38 851.09 1016.447 851.537 1015.64 C 851.983 1014.84 852.6 1014.223 853.387 1013.79 C 854.173 1013.363 855.063 1013.15 856.057 1013.15 C 857.61 1013.15 858.76 1013.577 859.507 1014.43 C 860.26 1015.283 860.637 1016.483 860.637 1018.03 C 860.637 1018.423 860.617 1018.833 860.577 1019.26 L 853.347 1019.26 C 853.507 1020.147 853.823 1020.787 854.297 1021.18 C 854.77 1021.573 855.43 1021.77 856.277 1021.77 C 856.977 1021.77 857.553 1021.713 858.007 1021.6 C 858.46 1021.48 858.877 1021.32 859.257 1021.12 L 859.977 1022.8 C 859.617 1023.033 859.12 1023.24 858.487 1023.42 C 857.86 1023.593 857.103 1023.68 856.217 1023.68 Z M 853.347 1017.61 L 858.337 1017.61 C 858.35 1016.703 858.153 1016.067 857.747 1015.7 C 857.34 1015.327 856.757 1015.14 855.997 1015.14 C 854.463 1015.14 853.58 1015.963 853.347 1017.61 ZM 866.671 1023.68 C 865.965 1023.68 865.238 1023.59 864.491 1023.41 C 863.738 1023.223 863.201 1023.007 862.881 1022.76 L 863.661 1020.9 C 864.541 1021.513 865.545 1021.82 866.671 1021.82 C 867.791 1021.82 868.351 1021.49 868.351 1020.83 C 868.351 1020.537 868.235 1020.31 868.001 1020.15 C 867.768 1019.99 867.351 1019.8 866.751 1019.58 L 865.921 1019.28 C 865.048 1018.927 864.355 1018.507 863.841 1018.02 C 863.328 1017.527 863.071 1016.88 863.071 1016.08 C 863.071 1015.16 863.435 1014.44 864.161 1013.92 C 864.881 1013.407 865.848 1013.15 867.061 1013.15 C 867.661 1013.15 868.248 1013.213 868.821 1013.34 C 869.401 1013.473 869.845 1013.643 870.151 1013.85 L 869.291 1015.73 C 869.105 1015.537 868.801 1015.373 868.381 1015.24 C 867.968 1015.1 867.505 1015.03 866.991 1015.03 C 865.958 1015.03 865.441 1015.343 865.441 1015.97 C 865.441 1016.323 865.578 1016.59 865.851 1016.77 C 866.131 1016.95 866.585 1017.15 867.211 1017.37 C 867.271 1017.383 867.498 1017.463 867.891 1017.61 C 868.825 1017.977 869.518 1018.393 869.971 1018.86 C 870.425 1019.327 870.651 1019.927 870.651 1020.66 C 870.651 1021.653 870.275 1022.403 869.521 1022.91 C 868.775 1023.423 867.825 1023.68 866.671 1023.68 ZM 874.075 1023.46 L 874.075 1015.34 L 872.305 1015.34 L 872.305 1013.41 L 874.075 1013.41 L 874.075 1009.31 L 876.465 1008.79 L 876.465 1013.41 L 878.785 1013.41 L 878.785 1015.34 L 876.465 1015.34 L 876.465 1023.46 L 874.075 1023.46 ZM 880.983 1023.46 L 880.983 1013.41 L 883.433 1013.41 L 883.433 1023.46 L 880.983 1023.46 Z M 882.183 1011.52 C 881.736 1011.52 881.36 1011.367 881.053 1011.06 C 880.746 1010.753 880.593 1010.377 880.593 1009.93 C 880.593 1009.517 880.746 1009.163 881.053 1008.87 C 881.36 1008.583 881.736 1008.44 882.183 1008.44 C 882.623 1008.44 882.996 1008.583 883.303 1008.87 C 883.61 1009.163 883.763 1009.517 883.763 1009.93 C 883.763 1010.377 883.613 1010.753 883.313 1011.06 C 883.013 1011.367 882.636 1011.52 882.183 1011.52 ZM 891.503 1023.68 C 890.47 1023.68 889.55 1023.447 888.743 1022.98 C 887.943 1022.513 887.323 1021.877 886.883 1021.07 C 886.443 1020.27 886.223 1019.38 886.223 1018.4 C 886.223 1017.44 886.44 1016.557 886.873 1015.75 C 887.306 1014.95 887.923 1014.317 888.723 1013.85 C 889.523 1013.383 890.45 1013.15 891.503 1013.15 C 892.556 1013.15 893.48 1013.383 894.273 1013.85 C 895.073 1014.317 895.686 1014.95 896.113 1015.75 C 896.546 1016.557 896.763 1017.44 896.763 1018.4 C 896.763 1019.38 896.543 1020.27 896.103 1021.07 C 895.663 1021.877 895.046 1022.513 894.253 1022.98 C 893.46 1023.447 892.543 1023.68 891.503 1023.68 Z M 891.573 1021.75 C 892.42 1021.75 893.086 1021.437 893.573 1020.81 C 894.06 1020.183 894.303 1019.393 894.303 1018.44 C 894.303 1017.493 894.043 1016.697 893.523 1016.05 C 892.996 1015.397 892.303 1015.07 891.443 1015.07 C 890.61 1015.07 889.94 1015.393 889.433 1016.04 C 888.933 1016.68 888.683 1017.48 888.683 1018.44 C 888.683 1019.38 888.953 1020.167 889.493 1020.8 C 890.033 1021.433 890.726 1021.75 891.573 1021.75 ZM 899.368 1023.46 L 899.368 1013.41 L 901.698 1013.41 L 901.718 1015.25 C 901.991 1014.637 902.428 1014.133 903.028 1013.74 C 903.628 1013.347 904.328 1013.15 905.128 1013.15 C 906.168 1013.15 906.964 1013.363 907.518 1013.79 C 908.071 1014.223 908.444 1014.827 908.638 1015.6 C 908.824 1016.373 908.918 1017.38 908.918 1018.62 L 908.918 1023.46 L 906.558 1023.46 L 906.558 1018.69 C 906.558 1017.417 906.434 1016.5 906.188 1015.94 C 905.934 1015.373 905.421 1015.09 904.648 1015.09 C 904.214 1015.09 903.771 1015.227 903.318 1015.5 C 902.864 1015.767 902.488 1016.157 902.188 1016.67 C 901.888 1017.183 901.738 1017.783 901.738 1018.47 L 901.738 1023.46 L 899.368 1023.46 ZM 915.523 1023.68 C 914.817 1023.68 914.09 1023.59 913.343 1023.41 C 912.59 1023.223 912.053 1023.007 911.733 1022.76 L 912.513 1020.9 C 913.393 1021.513 914.397 1021.82 915.523 1021.82 C 916.643 1021.82 917.203 1021.49 917.203 1020.83 C 917.203 1020.537 917.087 1020.31 916.853 1020.15 C 916.62 1019.99 916.203 1019.8 915.603 1019.58 L 914.773 1019.28 C 913.9 1018.927 913.207 1018.507 912.693 1018.02 C 912.18 1017.527 911.923 1016.88 911.923 1016.08 C 911.923 1015.16 912.287 1014.44 913.013 1013.92 C 913.733 1013.407 914.7 1013.15 915.913 1013.15 C 916.513 1013.15 917.1 1013.213 917.673 1013.34 C 918.253 1013.473 918.697 1013.643 919.003 1013.85 L 918.143 1015.73 C 917.957 1015.537 917.653 1015.373 917.233 1015.24 C 916.82 1015.1 916.357 1015.03 915.843 1015.03 C 914.81 1015.03 914.293 1015.343 914.293 1015.97 C 914.293 1016.323 914.43 1016.59 914.703 1016.77 C 914.983 1016.95 915.437 1017.15 916.063 1017.37 C 916.123 1017.383 916.35 1017.463 916.743 1017.61 C 917.677 1017.977 918.37 1018.393 918.823 1018.86 C 919.277 1019.327 919.503 1019.927 919.503 1020.66 C 919.503 1021.653 919.127 1022.403 918.373 1022.91 C 917.627 1023.423 916.677 1023.68 915.523 1023.68 ZM 923.677 1023.68 C 923.237 1023.68 922.864 1023.53 922.557 1023.23 C 922.25 1022.93 922.097 1022.56 922.097 1022.12 C 922.097 1021.673 922.247 1021.3 922.547 1021 C 922.847 1020.7 923.224 1020.55 923.677 1020.55 C 924.124 1020.55 924.497 1020.7 924.797 1021 C 925.097 1021.3 925.247 1021.673 925.247 1022.12 C 925.247 1022.56 925.097 1022.93 924.797 1023.23 C 924.497 1023.53 924.124 1023.68 923.677 1023.68 ZM 932.769 1023.68 C 931.776 1023.68 930.882 1023.463 930.089 1023.03 C 929.296 1022.603 928.662 1021.983 928.189 1021.17 C 927.722 1020.363 927.489 1019.41 927.489 1018.31 C 927.489 1017.277 927.706 1016.37 928.139 1015.59 C 928.572 1014.81 929.179 1014.207 929.959 1013.78 C 930.739 1013.36 931.639 1013.15 932.659 1013.15 C 933.432 1013.15 934.102 1013.247 934.669 1013.44 C 935.229 1013.64 935.669 1013.883 935.989 1014.17 L 934.939 1016.08 C 934.326 1015.467 933.632 1015.16 932.859 1015.16 C 931.926 1015.16 931.212 1015.443 930.719 1016.01 C 930.232 1016.583 929.989 1017.343 929.989 1018.29 C 929.989 1019.37 930.242 1020.21 930.749 1020.81 C 931.249 1021.41 931.952 1021.71 932.859 1021.71 C 933.312 1021.71 933.752 1021.643 934.179 1021.51 C 934.612 1021.377 934.946 1021.223 935.179 1021.05 L 936.029 1022.72 C 935.709 1022.967 935.262 1023.187 934.689 1023.38 C 934.109 1023.58 933.469 1023.68 932.769 1023.68 ZM 943.069 1023.68 C 942.036 1023.68 941.116 1023.447 940.309 1022.98 C 939.509 1022.513 938.889 1021.877 938.449 1021.07 C 938.009 1020.27 937.789 1019.38 937.789 1018.4 C 937.789 1017.44 938.006 1016.557 938.439 1015.75 C 938.872 1014.95 939.489 1014.317 940.289 1013.85 C 941.089 1013.383 942.016 1013.15 943.069 1013.15 C 944.122 1013.15 945.046 1013.383 945.839 1013.85 C 946.639 1014.317 947.252 1014.95 947.679 1015.75 C 948.112 1016.557 948.329 1017.44 948.329 1018.4 C 948.329 1019.38 948.109 1020.27 947.669 1021.07 C 947.229 1021.877 946.612 1022.513 945.819 1022.98 C 945.026 1023.447 944.109 1023.68 943.069 1023.68 Z M 943.139 1021.75 C 943.986 1021.75 944.652 1021.437 945.139 1020.81 C 945.626 1020.183 945.869 1019.393 945.869 1018.44 C 945.869 1017.493 945.609 1016.697 945.089 1016.05 C 944.562 1015.397 943.869 1015.07 943.009 1015.07 C 942.176 1015.07 941.506 1015.393 940.999 1016.04 C 940.499 1016.68 940.249 1017.48 940.249 1018.44 C 940.249 1019.38 940.519 1020.167 941.059 1020.8 C 941.599 1021.433 942.292 1021.75 943.139 1021.75 ZM 950.934 1023.46 L 950.934 1013.41 L 953.304 1013.41 L 953.304 1015.23 C 953.624 1014.543 954.094 1014.023 954.714 1013.67 C 955.334 1013.323 956.047 1013.15 956.854 1013.15 C 958.647 1013.163 959.747 1013.783 960.154 1015.01 C 960.48 1014.437 960.964 1013.983 961.604 1013.65 C 962.244 1013.317 962.924 1013.15 963.644 1013.15 C 964.69 1013.15 965.484 1013.35 966.024 1013.75 C 966.564 1014.15 966.927 1014.72 967.114 1015.46 C 967.294 1016.193 967.384 1017.18 967.384 1018.42 L 967.384 1023.46 L 964.994 1023.46 L 964.994 1018.4 C 964.994 1017.22 964.874 1016.373 964.634 1015.86 C 964.394 1015.347 963.93 1015.09 963.244 1015.09 C 962.324 1015.09 961.627 1015.4 961.154 1016.02 C 960.68 1016.647 960.444 1017.463 960.444 1018.47 L 960.444 1023.46 L 958.074 1023.46 L 958.074 1018.05 C 958.074 1017.277 958.047 1016.7 957.994 1016.32 C 957.934 1015.94 957.77 1015.64 957.504 1015.42 C 957.244 1015.2 956.82 1015.09 956.234 1015.09 C 955.727 1015.09 955.25 1015.243 954.804 1015.55 C 954.357 1015.857 954 1016.27 953.734 1016.79 C 953.46 1017.31 953.324 1017.87 953.324 1018.47 L 953.324 1023.46 L 950.934 1023.46 Z" transform="matrix(0.8604550361633301, 0, 0, 1.1380820274353027, 98.03823852539062, -138.0233612060547)" style="fill: rgb(255, 255, 255); visibility: hidden; white-space: pre;"/>
    </g>
  </g>
</svg>