<svg xmlns="http://www.w3.org/2000/svg" viewBox="150 0 1000 600">
  <g>
    <path fill="#5d2c74" d="M600 402l-24 83h169l-24-83h13l-26-84h13l-23-80h10l-23-83h11L659 25l-34 130h9l-22 83h11l-23 80h12l-25 84h13z" class="fil0"/>
    <path fill="#5d2c74" d="M690 427l-24 84h169l-24-84h13l-25-83h12l-23-80h11l-24-84h11L750 50l-35 130h9l-21 84h10l-23 80h13l-26 83h13z" class="fil0"/>
    <path fill="#5d2c74" d="M838 442l-23 84h168l-23-84h12l-25-83h13l-24-80h11l-24-84h11L898 65l-34 130h8l-21 84h11l-24 80h13l-26 83h13zM318 425l-23 83h168l-23-83h13l-26-84h13l-23-80h10l-23-83h10L378 48l-34 130h9l-22 83h11l-24 80h13l-25 84h12z" class="fil0"/>
    <path fill="#5d2c74" d="M212 453l-23 84h168l-23-84h13l-26-83h13l-23-81h10l-23-83h10L272 76l-34 130h9l-22 83h11l-24 81h13l-25 83h12z" class="fil0"/>
    <path fill="#5d2c74" d="M86 401l-23 83h168l-23-83h12l-25-84h13l-24-80h11l-24-84h11L146 24l-34 129h8l-21 84h10l-23 80h13l-26 84h13z" class="fil0"/>
  </g>
</svg>
