<?xml version="1.0" encoding="utf-8"?>
<svg viewBox="0 0 748 450" xmlns="http://www.w3.org/2000/svg">
  <defs>
    <filter id="drop-shadow-filter-0" x="-500%" y="-500%" width="1000%" height="1000%">
      <feGaussianBlur in="SourceAlpha" stdDeviation="8"/>
      <feOffset dx="3" dy="2"/>
      <feComponentTransfer result="offsetblur">
        <feFuncA id="spread-ctrl" type="linear" slope="1"/>
      </feComponentTransfer>
      <feFlood flood-color="rgba(0,0,0,0.3)" x="10" y="10"/>
      <feComposite in2="offsetblur" operator="in"/>
      <feMerge>
        <feMergeNode/>
        <feMergeNode in="SourceGraphic"/>
      </feMerge>
    </filter>
  </defs>
  <path d="M 59.706 25 L 688.294 25 C 708.013 25 724 40.986 724 60.706 L 724 389.294 C 724 409.014 708.013 425 688.294 425 L 59.706 425 C 39.986 425 24 409.014 24 389.294 L 24 60.706 C 24 40.986 39.986 25 59.706 25 Z" style="fill: rgb(255, 255, 255); filter: url(#drop-shadow-filter-0);">
    <title>Card</title>
  </path>
  <g style="">
    <title>Sparks Sample</title>
    <path d="M 346.938 118.243 C 346.655 101.606 353.735 91.982 353.735 91.982 C 356.804 106.702 362.507 106.761 362.507 106.761 C 362.507 106.761 359.42 101.277 359.611 92.356 C 359.833 81.974 369.014 63.932 381.053 63.562 C 378.749 66.768 377.775 69.958 377.775 74.648 C 377.775 91.728 401.07 96.632 401.07 118.632 C 401.07 138.296 384.937 141.923 373.497 141.923 C 362.049 141.923 347.222 134.88 346.938 118.243 Z M 357.229 122.432 C 357.229 130.887 366.945 135.639 374.914 135.531 C 383.041 135.419 383.881 133.879 384.18 134.063 C 387.058 135.783 391.378 134.9 391.378 134.9 C 391.378 134.9 388.579 133.575 389.291 130.691 C 389.379 130.334 392.541 128.597 392.599 122.432 C 392.676 113.978 382.884 109.332 374.914 109.332 C 366.941 109.332 357.229 113.978 357.229 122.432 Z" style="fill: rgb(247, 196, 67);">
      <title>Sparks Logo</title>
    </path>
    <path d="M 16.424 186.712 L 22.054 200.062 L 26.984 186.822 L 30.314 186.822 L 22.304 207.402 L 21.914 207.402 L 16.314 194.072 L 10.744 207.372 L 10.344 207.372 L 2.344 186.822 L 5.674 186.822 L 10.604 200.062 L 16.254 186.712 L 16.424 186.712 ZM 31.373 207.402 L 31.373 186.822 L 34.313 186.822 L 34.313 194.552 L 34.203 196.932 C 34.557 196.145 35.123 195.495 35.903 194.982 C 36.69 194.469 37.607 194.212 38.653 194.212 C 39.98 194.212 40.997 194.489 41.703 195.042 C 42.41 195.589 42.887 196.359 43.133 197.352 C 43.373 198.339 43.493 199.625 43.493 201.212 L 43.493 207.402 L 40.503 207.402 L 40.503 201.182 C 40.503 200.102 40.44 199.255 40.313 198.642 C 40.193 198.022 39.953 197.555 39.593 197.242 C 39.227 196.922 38.697 196.762 38.003 196.762 C 37.443 196.762 36.88 196.929 36.313 197.262 C 35.747 197.602 35.277 198.092 34.903 198.732 C 34.53 199.379 34.343 200.142 34.343 201.022 L 34.343 207.402 L 31.373 207.402 ZM 53.01 207.682 C 51.857 207.682 50.79 207.405 49.81 206.852 C 48.83 206.305 48.044 205.522 47.45 204.502 C 46.864 203.489 46.57 202.299 46.57 200.932 C 46.57 199.592 46.827 198.415 47.34 197.402 C 47.854 196.395 48.587 195.612 49.54 195.052 C 50.494 194.492 51.614 194.212 52.9 194.212 C 53.647 194.212 54.347 194.342 55 194.602 C 55.654 194.869 56.204 195.192 56.65 195.572 C 57.097 195.952 57.397 196.329 57.55 196.702 L 57.6 194.552 L 60.49 194.552 L 60.49 207.402 L 57.63 207.402 L 57.58 205.132 C 57.26 205.805 56.68 206.399 55.84 206.912 C 55 207.425 54.057 207.682 53.01 207.682 Z M 53.52 205.162 C 54.58 205.162 55.474 204.792 56.2 204.052 C 56.934 203.319 57.3 202.355 57.3 201.162 L 57.3 200.962 C 57.3 200.162 57.13 199.442 56.79 198.802 C 56.457 198.169 56 197.675 55.42 197.322 C 54.84 196.969 54.207 196.792 53.52 196.792 C 52.32 196.792 51.394 197.179 50.74 197.952 C 50.087 198.725 49.76 199.729 49.76 200.962 C 49.76 202.215 50.084 203.229 50.73 204.002 C 51.377 204.775 52.307 205.162 53.52 205.162 ZM 65.667 207.402 L 65.667 197.012 L 63.397 197.012 L 63.397 194.552 L 65.667 194.552 L 65.667 189.312 L 68.717 188.642 L 68.717 194.552 L 71.687 194.552 L 71.687 197.012 L 68.717 197.012 L 68.717 207.402 L 65.667 207.402 ZM 92.658 207.402 L 88.848 200.262 L 85.038 207.402 L 84.508 207.402 L 79.098 194.552 L 82.348 194.552 L 85.118 202.022 L 88.788 194.552 L 88.898 194.552 L 92.598 201.972 L 95.368 194.552 L 98.558 194.552 L 93.188 207.402 L 92.658 207.402 ZM 106.313 207.682 C 105.16 207.682 104.093 207.405 103.113 206.852 C 102.133 206.305 101.346 205.522 100.753 204.502 C 100.166 203.489 99.873 202.299 99.873 200.932 C 99.873 199.592 100.13 198.415 100.643 197.402 C 101.156 196.395 101.89 195.612 102.843 195.052 C 103.796 194.492 104.916 194.212 106.203 194.212 C 106.95 194.212 107.65 194.342 108.303 194.602 C 108.956 194.869 109.506 195.192 109.953 195.572 C 110.4 195.952 110.7 196.329 110.853 196.702 L 110.903 194.552 L 113.793 194.552 L 113.793 207.402 L 110.933 207.402 L 110.883 205.132 C 110.563 205.805 109.983 206.399 109.143 206.912 C 108.303 207.425 107.36 207.682 106.313 207.682 Z M 106.823 205.162 C 107.883 205.162 108.776 204.792 109.503 204.052 C 110.236 203.319 110.603 202.355 110.603 201.162 L 110.603 200.962 C 110.603 200.162 110.433 199.442 110.093 198.802 C 109.76 198.169 109.303 197.675 108.723 197.322 C 108.143 196.969 107.51 196.792 106.823 196.792 C 105.623 196.792 104.696 197.179 104.043 197.952 C 103.39 198.725 103.063 199.729 103.063 200.962 C 103.063 202.215 103.386 203.229 104.033 204.002 C 104.68 204.775 105.61 205.162 106.823 205.162 ZM 122.27 207.682 C 121.377 207.682 120.45 207.565 119.49 207.332 C 118.523 207.099 117.837 206.822 117.43 206.502 L 118.44 204.122 C 119.56 204.909 120.837 205.302 122.27 205.302 C 123.71 205.302 124.43 204.882 124.43 204.042 C 124.43 203.669 124.28 203.379 123.98 203.172 C 123.68 202.965 123.147 202.722 122.38 202.442 L 121.32 202.052 C 120.2 201.605 119.313 201.069 118.66 200.442 C 118.007 199.815 117.68 198.989 117.68 197.962 C 117.68 196.789 118.143 195.872 119.07 195.212 C 119.99 194.545 121.227 194.212 122.78 194.212 C 123.54 194.212 124.29 194.295 125.03 194.462 C 125.77 194.635 126.333 194.852 126.72 195.112 L 125.63 197.522 C 125.39 197.275 125.003 197.065 124.47 196.892 C 123.937 196.712 123.343 196.622 122.69 196.622 C 121.363 196.622 120.7 197.022 120.7 197.822 C 120.7 198.275 120.88 198.619 121.24 198.852 C 121.593 199.085 122.17 199.342 122.97 199.622 C 123.043 199.635 123.333 199.735 123.84 199.922 C 125.033 200.389 125.92 200.922 126.5 201.522 C 127.08 202.122 127.37 202.889 127.37 203.822 C 127.37 205.089 126.89 206.049 125.93 206.702 C 124.963 207.355 123.743 207.682 122.27 207.682 ZM 143.042 207.682 C 141.889 207.682 140.822 207.405 139.842 206.852 C 138.862 206.305 138.076 205.522 137.482 204.502 C 136.896 203.489 136.602 202.299 136.602 200.932 C 136.602 199.592 136.859 198.415 137.372 197.402 C 137.886 196.395 138.619 195.612 139.572 195.052 C 140.526 194.492 141.646 194.212 142.932 194.212 C 143.679 194.212 144.379 194.342 145.032 194.602 C 145.686 194.869 146.236 195.192 146.682 195.572 C 147.129 195.952 147.429 196.329 147.582 196.702 L 147.632 194.552 L 150.522 194.552 L 150.522 207.402 L 147.662 207.402 L 147.612 205.132 C 147.292 205.805 146.712 206.399 145.872 206.912 C 145.032 207.425 144.089 207.682 143.042 207.682 Z M 143.552 205.162 C 144.612 205.162 145.506 204.792 146.232 204.052 C 146.966 203.319 147.332 202.355 147.332 201.162 L 147.332 200.962 C 147.332 200.162 147.162 199.442 146.822 198.802 C 146.489 198.169 146.032 197.675 145.452 197.322 C 144.872 196.969 144.239 196.792 143.552 196.792 C 142.352 196.792 141.426 197.179 140.772 197.952 C 140.119 198.725 139.792 199.729 139.792 200.962 C 139.792 202.215 140.116 203.229 140.762 204.002 C 141.409 204.775 142.339 205.162 143.552 205.162 ZM 162.558 207.402 L 162.558 197.012 L 160.288 197.012 L 160.288 194.552 L 162.558 194.552 L 162.558 189.312 L 165.608 188.642 L 165.608 194.552 L 168.578 194.552 L 168.578 197.012 L 165.608 197.012 L 165.608 207.402 L 162.558 207.402 ZM 171.26 207.402 L 171.26 194.552 L 174.4 194.552 L 174.4 207.402 L 171.26 207.402 Z M 172.8 192.142 C 172.22 192.142 171.737 191.945 171.35 191.552 C 170.957 191.159 170.76 190.675 170.76 190.102 C 170.76 189.575 170.957 189.125 171.35 188.752 C 171.737 188.379 172.22 188.192 172.8 188.192 C 173.36 188.192 173.837 188.379 174.23 188.752 C 174.624 189.125 174.82 189.575 174.82 190.102 C 174.82 190.675 174.627 191.159 174.24 191.552 C 173.86 191.945 173.38 192.142 172.8 192.142 ZM 178.599 207.402 L 178.599 194.552 L 181.619 194.552 L 181.619 196.872 C 182.032 195.999 182.636 195.335 183.429 194.882 C 184.222 194.435 185.132 194.212 186.159 194.212 C 188.452 194.232 189.862 195.025 190.389 196.592 C 190.796 195.865 191.409 195.289 192.229 194.862 C 193.056 194.429 193.926 194.212 194.839 194.212 C 196.179 194.212 197.196 194.469 197.889 194.982 C 198.582 195.495 199.046 196.225 199.279 197.172 C 199.512 198.112 199.629 199.375 199.629 200.962 L 199.629 207.402 L 196.569 207.402 L 196.569 200.932 C 196.569 199.419 196.416 198.335 196.109 197.682 C 195.802 197.029 195.209 196.702 194.329 196.702 C 193.156 196.702 192.266 197.099 191.659 197.892 C 191.052 198.685 190.749 199.729 190.749 201.022 L 190.749 207.402 L 187.729 207.402 L 187.729 200.482 C 187.729 199.495 187.689 198.759 187.609 198.272 C 187.536 197.785 187.332 197.402 186.999 197.122 C 186.659 196.842 186.116 196.702 185.369 196.702 C 184.716 196.702 184.106 196.899 183.539 197.292 C 182.972 197.685 182.516 198.212 182.169 198.872 C 181.822 199.539 181.649 200.255 181.649 201.022 L 181.649 207.402 L 178.599 207.402 ZM 209.556 207.682 C 208.03 207.682 206.753 207.379 205.726 206.772 C 204.7 206.165 203.943 205.352 203.456 204.332 C 202.97 203.319 202.726 202.205 202.726 200.992 C 202.726 199.625 203.013 198.429 203.586 197.402 C 204.153 196.375 204.94 195.589 205.946 195.042 C 206.953 194.489 208.093 194.212 209.366 194.212 C 211.346 194.212 212.816 194.759 213.776 195.852 C 214.736 196.945 215.216 198.482 215.216 200.462 C 215.216 200.962 215.19 201.482 215.136 202.022 L 205.896 202.022 C 206.096 203.162 206.5 203.985 207.106 204.492 C 207.713 204.992 208.56 205.242 209.646 205.242 C 210.54 205.242 211.276 205.169 211.856 205.022 C 212.436 204.875 212.97 204.669 213.456 204.402 L 214.376 206.562 C 213.91 206.862 213.276 207.122 212.476 207.342 C 211.67 207.569 210.696 207.682 209.556 207.682 Z M 205.896 199.922 L 212.276 199.922 C 212.296 198.769 212.043 197.952 211.516 197.472 C 210.996 196.999 210.25 196.762 209.276 196.762 C 207.316 196.762 206.19 197.815 205.896 199.922 Z" transform="matrix(1.678157091140747, 0, 0, 1.678157091140747, 190.2811279296875, -150.6580810546875)" style="fill: rgb(51, 51, 51); white-space: pre;"/>
    <path d="M -3.046 235.402 L -3.046 225.012 L -5.316 225.012 L -5.316 222.552 L -3.046 222.552 L -3.046 217.312 L 0.004 216.642 L 0.004 222.552 L 2.974 222.552 L 2.974 225.012 L 0.004 225.012 L 0.004 235.402 L -3.046 235.402 ZM 5.576 235.402 L 5.576 214.822 L 8.516 214.822 L 8.516 222.552 L 8.406 224.932 C 8.759 224.145 9.326 223.495 10.106 222.982 C 10.893 222.469 11.809 222.212 12.856 222.212 C 14.183 222.212 15.199 222.489 15.906 223.042 C 16.613 223.589 17.089 224.359 17.336 225.352 C 17.576 226.339 17.696 227.625 17.696 229.212 L 17.696 235.402 L 14.706 235.402 L 14.706 229.182 C 14.706 228.102 14.643 227.255 14.516 226.642 C 14.396 226.022 14.156 225.555 13.796 225.242 C 13.429 224.922 12.899 224.762 12.206 224.762 C 11.646 224.762 11.083 224.929 10.516 225.262 C 9.949 225.602 9.479 226.092 9.106 226.732 C 8.733 227.379 8.546 228.142 8.546 229.022 L 8.546 235.402 L 5.576 235.402 ZM 27.213 235.682 C 26.06 235.682 24.993 235.405 24.013 234.852 C 23.033 234.305 22.246 233.522 21.653 232.502 C 21.066 231.489 20.773 230.299 20.773 228.932 C 20.773 227.592 21.03 226.415 21.543 225.402 C 22.056 224.395 22.79 223.612 23.743 223.052 C 24.696 222.492 25.816 222.212 27.103 222.212 C 27.85 222.212 28.55 222.342 29.203 222.602 C 29.856 222.869 30.406 223.192 30.853 223.572 C 31.3 223.952 31.6 224.329 31.753 224.702 L 31.803 222.552 L 34.693 222.552 L 34.693 235.402 L 31.833 235.402 L 31.783 233.132 C 31.463 233.805 30.883 234.399 30.043 234.912 C 29.203 235.425 28.26 235.682 27.213 235.682 Z M 27.723 233.162 C 28.783 233.162 29.676 232.792 30.403 232.052 C 31.136 231.319 31.503 230.355 31.503 229.162 L 31.503 228.962 C 31.503 228.162 31.333 227.442 30.993 226.802 C 30.66 226.169 30.203 225.675 29.623 225.322 C 29.043 224.969 28.41 224.792 27.723 224.792 C 26.523 224.792 25.596 225.179 24.943 225.952 C 24.29 226.725 23.963 227.729 23.963 228.962 C 23.963 230.215 24.286 231.229 24.933 232.002 C 25.58 232.775 26.51 233.162 27.723 233.162 ZM 39.87 235.402 L 39.87 225.012 L 37.6 225.012 L 37.6 222.552 L 39.87 222.552 L 39.87 217.312 L 42.92 216.642 L 42.92 222.552 L 45.89 222.552 L 45.89 225.012 L 42.92 225.012 L 42.92 235.402 L 39.87 235.402 ZM 56.131 242.462 L 58.901 235.792 L 53.581 222.552 L 57.001 222.552 L 59.741 230.722 L 60.361 232.712 L 60.981 230.722 L 63.861 222.552 L 67.161 222.552 L 59.271 242.462 L 56.131 242.462 ZM 75.115 235.682 C 73.788 235.682 72.611 235.382 71.585 234.782 C 70.558 234.189 69.765 233.379 69.205 232.352 C 68.645 231.325 68.365 230.185 68.365 228.932 C 68.365 227.699 68.641 226.569 69.195 225.542 C 69.741 224.515 70.528 223.705 71.555 223.112 C 72.581 222.512 73.768 222.212 75.115 222.212 C 76.461 222.212 77.641 222.512 78.655 223.112 C 79.675 223.705 80.458 224.515 81.005 225.542 C 81.558 226.569 81.835 227.699 81.835 228.932 C 81.835 230.185 81.555 231.325 80.995 232.352 C 80.435 233.379 79.645 234.189 78.625 234.782 C 77.611 235.382 76.441 235.682 75.115 235.682 Z M 75.195 233.222 C 76.281 233.222 77.138 232.819 77.765 232.012 C 78.385 231.212 78.695 230.205 78.695 228.992 C 78.695 227.779 78.361 226.755 77.695 225.922 C 77.021 225.095 76.135 224.682 75.035 224.682 C 73.968 224.682 73.111 225.092 72.465 225.912 C 71.825 226.732 71.505 227.759 71.505 228.992 C 71.505 230.185 71.848 231.189 72.535 232.002 C 73.228 232.815 74.115 233.222 75.195 233.222 ZM 89.504 235.682 C 87.73 235.682 86.514 235.159 85.854 234.112 C 85.187 233.065 84.854 231.609 84.854 229.742 L 84.854 222.552 L 87.884 222.552 L 87.884 228.992 C 87.884 230.052 87.944 230.879 88.064 231.472 C 88.184 232.059 88.427 232.492 88.794 232.772 C 89.154 233.052 89.697 233.192 90.424 233.192 C 90.95 233.192 91.457 233.042 91.944 232.742 C 92.424 232.442 92.82 232.035 93.134 231.522 C 93.44 231.009 93.594 230.445 93.594 229.832 L 93.594 222.552 L 96.584 222.552 L 96.584 235.402 L 94.124 235.402 L 93.784 233.522 C 93.317 234.255 92.734 234.799 92.034 235.152 C 91.334 235.505 90.49 235.682 89.504 235.682 ZM 115.088 235.682 C 114.048 235.682 113.111 235.425 112.278 234.912 C 111.444 234.399 110.871 233.805 110.558 233.132 L 110.498 235.402 L 107.588 235.402 L 107.588 214.822 L 110.558 214.822 L 110.558 222.742 L 110.418 224.932 C 110.731 224.185 111.351 223.545 112.278 223.012 C 113.204 222.479 114.208 222.212 115.288 222.212 C 116.554 222.212 117.661 222.499 118.608 223.072 C 119.548 223.639 120.271 224.432 120.778 225.452 C 121.278 226.465 121.528 227.645 121.528 228.992 C 121.528 230.352 121.234 231.535 120.648 232.542 C 120.061 233.555 119.278 234.332 118.298 234.872 C 117.318 235.412 116.248 235.682 115.088 235.682 Z M 114.588 233.162 C 115.801 233.162 116.734 232.775 117.388 232.002 C 118.041 231.229 118.368 230.225 118.368 228.992 C 118.368 227.739 118.044 226.725 117.398 225.952 C 116.758 225.179 115.821 224.792 114.588 224.792 C 113.521 224.792 112.624 225.159 111.898 225.892 C 111.171 226.632 110.808 227.599 110.808 228.792 L 110.808 228.992 C 110.808 229.792 110.981 230.509 111.328 231.142 C 111.674 231.782 112.131 232.279 112.698 232.632 C 113.264 232.985 113.894 233.162 114.588 233.162 ZM 124.661 235.402 L 124.661 222.552 L 127.691 222.552 L 127.691 225.072 C 127.991 224.212 128.474 223.522 129.141 223.002 C 129.814 222.475 130.581 222.212 131.441 222.212 C 132.041 222.212 132.451 222.269 132.671 222.382 L 132.251 225.432 C 132.084 225.319 131.721 225.262 131.161 225.262 C 130.281 225.262 129.484 225.542 128.771 226.102 C 128.051 226.662 127.691 227.559 127.691 228.792 L 127.691 235.402 L 124.661 235.402 ZM 140.791 235.682 C 139.464 235.682 138.287 235.382 137.261 234.782 C 136.234 234.189 135.441 233.379 134.881 232.352 C 134.321 231.325 134.041 230.185 134.041 228.932 C 134.041 227.699 134.317 226.569 134.871 225.542 C 135.417 224.515 136.204 223.705 137.231 223.112 C 138.257 222.512 139.444 222.212 140.791 222.212 C 142.137 222.212 143.317 222.512 144.331 223.112 C 145.351 223.705 146.134 224.515 146.681 225.542 C 147.234 226.569 147.511 227.699 147.511 228.932 C 147.511 230.185 147.231 231.325 146.671 232.352 C 146.111 233.379 145.321 234.189 144.301 234.782 C 143.287 235.382 142.117 235.682 140.791 235.682 Z M 140.871 233.222 C 141.957 233.222 142.814 232.819 143.441 232.012 C 144.061 231.212 144.371 230.205 144.371 228.992 C 144.371 227.779 144.037 226.755 143.371 225.922 C 142.697 225.095 141.811 224.682 140.711 224.682 C 139.644 224.682 138.787 225.092 138.141 225.912 C 137.501 226.732 137.181 227.759 137.181 228.992 C 137.181 230.185 137.524 231.189 138.211 232.002 C 138.904 232.815 139.791 233.222 140.871 233.222 ZM 157.48 227.922 L 162.35 235.402 L 158.79 235.402 L 156.19 231.202 L 155.46 229.772 L 153.78 231.592 L 153.78 235.402 L 150.87 235.402 L 150.87 214.822 L 153.75 214.822 L 153.75 226.102 L 153.7 228.292 L 158.6 222.552 L 162.32 222.552 L 157.48 227.922 ZM 170.825 235.682 C 169.299 235.682 168.022 235.379 166.995 234.772 C 165.969 234.165 165.212 233.352 164.725 232.332 C 164.239 231.319 163.995 230.205 163.995 228.992 C 163.995 227.625 164.282 226.429 164.855 225.402 C 165.422 224.375 166.209 223.589 167.215 223.042 C 168.222 222.489 169.362 222.212 170.635 222.212 C 172.615 222.212 174.085 222.759 175.045 223.852 C 176.005 224.945 176.485 226.482 176.485 228.462 C 176.485 228.962 176.459 229.482 176.405 230.022 L 167.165 230.022 C 167.365 231.162 167.769 231.985 168.375 232.492 C 168.982 232.992 169.829 233.242 170.915 233.242 C 171.809 233.242 172.545 233.169 173.125 233.022 C 173.705 232.875 174.239 232.669 174.725 232.402 L 175.645 234.562 C 175.179 234.862 174.545 235.122 173.745 235.342 C 172.939 235.569 171.965 235.682 170.825 235.682 Z M 167.165 227.922 L 173.545 227.922 C 173.565 226.769 173.312 225.952 172.785 225.472 C 172.265 224.999 171.519 224.762 170.545 224.762 C 168.585 224.762 167.459 225.815 167.165 227.922 ZM 187.628 235.402 L 187.628 225.012 L 185.358 225.012 L 185.358 222.552 L 187.628 222.552 L 187.628 217.312 L 190.678 216.642 L 190.678 222.552 L 193.648 222.552 L 193.648 225.012 L 190.678 225.012 L 190.678 235.402 L 187.628 235.402 ZM 196.25 235.402 L 196.25 214.822 L 199.19 214.822 L 199.19 222.552 L 199.08 224.932 C 199.433 224.145 200 223.495 200.78 222.982 C 201.566 222.469 202.483 222.212 203.53 222.212 C 204.856 222.212 205.873 222.489 206.58 223.042 C 207.286 223.589 207.763 224.359 208.01 225.352 C 208.25 226.339 208.37 227.625 208.37 229.212 L 208.37 235.402 L 205.38 235.402 L 205.38 229.182 C 205.38 228.102 205.316 227.255 205.19 226.642 C 205.07 226.022 204.83 225.555 204.47 225.242 C 204.103 224.922 203.573 224.762 202.88 224.762 C 202.32 224.762 201.756 224.929 201.19 225.262 C 200.623 225.602 200.153 226.092 199.78 226.732 C 199.406 227.379 199.22 228.142 199.22 229.022 L 199.22 235.402 L 196.25 235.402 ZM 218.277 235.682 C 216.75 235.682 215.474 235.379 214.447 234.772 C 213.42 234.165 212.664 233.352 212.177 232.332 C 211.69 231.319 211.447 230.205 211.447 228.992 C 211.447 227.625 211.734 226.429 212.307 225.402 C 212.874 224.375 213.66 223.589 214.667 223.042 C 215.674 222.489 216.814 222.212 218.087 222.212 C 220.067 222.212 221.537 222.759 222.497 223.852 C 223.457 224.945 223.937 226.482 223.937 228.462 C 223.937 228.962 223.91 229.482 223.857 230.022 L 214.617 230.022 C 214.817 231.162 215.22 231.985 215.827 232.492 C 216.434 232.992 217.28 233.242 218.367 233.242 C 219.26 233.242 219.997 233.169 220.577 233.022 C 221.157 232.875 221.69 232.669 222.177 232.402 L 223.097 234.562 C 222.63 234.862 221.997 235.122 221.197 235.342 C 220.39 235.569 219.417 235.682 218.277 235.682 Z M 214.617 227.922 L 220.997 227.922 C 221.017 226.769 220.764 225.952 220.237 225.472 C 219.717 224.999 218.97 224.762 217.997 224.762 C 216.037 224.762 214.91 225.815 214.617 227.922 Z" transform="matrix(1.678157091140747, 0, 0, 1.678157091140747, 190.2811279296875, -150.6580810546875)" style="fill: rgb(51, 51, 51); white-space: pre;"/>
    <path d="M -0.715 263.402 L -0.715 250.552 L 2.315 250.552 L 2.315 253.072 C 2.615 252.212 3.098 251.522 3.765 251.002 C 4.438 250.475 5.205 250.212 6.065 250.212 C 6.665 250.212 7.075 250.269 7.295 250.382 L 6.875 253.432 C 6.708 253.319 6.345 253.262 5.785 253.262 C 4.905 253.262 4.108 253.542 3.395 254.102 C 2.675 254.662 2.315 255.559 2.315 256.792 L 2.315 263.402 L -0.715 263.402 ZM 13.875 263.682 C 12.102 263.682 10.885 263.159 10.225 262.112 C 9.559 261.065 9.225 259.609 9.225 257.742 L 9.225 250.552 L 12.255 250.552 L 12.255 256.992 C 12.255 258.052 12.315 258.879 12.435 259.472 C 12.555 260.059 12.799 260.492 13.165 260.772 C 13.525 261.052 14.069 261.192 14.795 261.192 C 15.322 261.192 15.829 261.042 16.315 260.742 C 16.795 260.442 17.192 260.035 17.505 259.522 C 17.812 259.009 17.965 258.445 17.965 257.832 L 17.965 250.552 L 20.955 250.552 L 20.955 263.402 L 18.495 263.402 L 18.155 261.522 C 17.689 262.255 17.105 262.799 16.405 263.152 C 15.705 263.505 14.862 263.682 13.875 263.682 ZM 25.24 263.402 L 25.24 242.822 L 28.24 242.822 L 28.24 263.402 L 25.24 263.402 ZM 38.563 263.682 C 37.036 263.682 35.76 263.379 34.733 262.772 C 33.706 262.165 32.95 261.352 32.463 260.332 C 31.976 259.319 31.733 258.205 31.733 256.992 C 31.733 255.625 32.02 254.429 32.593 253.402 C 33.16 252.375 33.946 251.589 34.953 251.042 C 35.96 250.489 37.1 250.212 38.373 250.212 C 40.353 250.212 41.823 250.759 42.783 251.852 C 43.743 252.945 44.223 254.482 44.223 256.462 C 44.223 256.962 44.196 257.482 44.143 258.022 L 34.903 258.022 C 35.103 259.162 35.506 259.985 36.113 260.492 C 36.72 260.992 37.566 261.242 38.653 261.242 C 39.546 261.242 40.283 261.169 40.863 261.022 C 41.443 260.875 41.976 260.669 42.463 260.402 L 43.383 262.562 C 42.916 262.862 42.283 263.122 41.483 263.342 C 40.676 263.569 39.703 263.682 38.563 263.682 Z M 34.903 255.922 L 41.283 255.922 C 41.303 254.769 41.05 253.952 40.523 253.472 C 40.003 252.999 39.256 252.762 38.283 252.762 C 36.323 252.762 35.196 253.815 34.903 255.922 ZM 51.806 263.682 C 50.913 263.682 49.986 263.565 49.026 263.332 C 48.06 263.099 47.373 262.822 46.966 262.502 L 47.976 260.122 C 49.096 260.909 50.373 261.302 51.806 261.302 C 53.246 261.302 53.966 260.882 53.966 260.042 C 53.966 259.669 53.816 259.379 53.516 259.172 C 53.216 258.965 52.683 258.722 51.916 258.442 L 50.856 258.052 C 49.736 257.605 48.85 257.069 48.196 256.442 C 47.543 255.815 47.216 254.989 47.216 253.962 C 47.216 252.789 47.68 251.872 48.606 251.212 C 49.526 250.545 50.763 250.212 52.316 250.212 C 53.076 250.212 53.826 250.295 54.566 250.462 C 55.306 250.635 55.87 250.852 56.256 251.112 L 55.166 253.522 C 54.926 253.275 54.54 253.065 54.006 252.892 C 53.473 252.712 52.88 252.622 52.226 252.622 C 50.9 252.622 50.236 253.022 50.236 253.822 C 50.236 254.275 50.416 254.619 50.776 254.852 C 51.13 255.085 51.706 255.342 52.506 255.622 C 52.58 255.635 52.87 255.735 53.376 255.922 C 54.57 256.389 55.456 256.922 56.036 257.522 C 56.616 258.122 56.906 258.889 56.906 259.822 C 56.906 261.089 56.426 262.049 55.466 262.702 C 54.5 263.355 53.28 263.682 51.806 263.682 ZM 72.889 263.682 C 71.562 263.682 70.386 263.382 69.359 262.782 C 68.332 262.189 67.539 261.379 66.979 260.352 C 66.419 259.325 66.139 258.185 66.139 256.932 C 66.139 255.699 66.416 254.569 66.969 253.542 C 67.516 252.515 68.302 251.705 69.329 251.112 C 70.356 250.512 71.542 250.212 72.889 250.212 C 74.236 250.212 75.416 250.512 76.429 251.112 C 77.449 251.705 78.232 252.515 78.779 253.542 C 79.332 254.569 79.609 255.699 79.609 256.932 C 79.609 258.185 79.329 259.325 78.769 260.352 C 78.209 261.379 77.419 262.189 76.399 262.782 C 75.386 263.382 74.216 263.682 72.889 263.682 Z M 72.969 261.222 C 74.056 261.222 74.912 260.819 75.539 260.012 C 76.159 259.212 76.469 258.205 76.469 256.992 C 76.469 255.779 76.136 254.755 75.469 253.922 C 74.796 253.095 73.909 252.682 72.809 252.682 C 71.742 252.682 70.886 253.092 70.239 253.912 C 69.599 254.732 69.279 255.759 69.279 256.992 C 69.279 258.185 69.622 259.189 70.309 260.002 C 71.002 260.815 71.889 261.222 72.969 261.222 ZM 82.828 263.402 L 82.828 250.552 L 85.798 250.552 L 85.818 252.902 C 86.178 252.115 86.738 251.472 87.498 250.972 C 88.265 250.465 89.161 250.212 90.188 250.212 C 91.515 250.212 92.531 250.489 93.238 251.042 C 93.951 251.589 94.428 252.359 94.668 253.352 C 94.915 254.339 95.038 255.625 95.038 257.212 L 95.038 263.402 L 92.008 263.402 L 92.008 257.302 C 92.008 255.675 91.851 254.502 91.538 253.782 C 91.218 253.062 90.565 252.702 89.578 252.702 C 89.018 252.702 88.448 252.875 87.868 253.222 C 87.288 253.569 86.808 254.069 86.428 254.722 C 86.041 255.375 85.848 256.142 85.848 257.022 L 85.848 263.402 L 82.828 263.402 ZM 105.834 270.202 L 105.834 250.552 L 108.754 250.552 L 108.754 252.932 C 109.781 251.119 111.384 250.212 113.564 250.212 C 115.377 250.212 116.844 250.785 117.964 251.932 C 119.084 253.085 119.644 254.742 119.644 256.902 C 119.644 258.249 119.367 259.435 118.814 260.462 C 118.267 261.489 117.521 262.282 116.574 262.842 C 115.634 263.402 114.584 263.682 113.424 263.682 C 112.344 263.682 111.407 263.492 110.614 263.112 C 109.821 262.725 109.201 262.179 108.754 261.472 L 108.774 270.202 L 105.834 270.202 Z M 112.724 261.132 C 113.937 261.132 114.871 260.745 115.524 259.972 C 116.177 259.199 116.504 258.205 116.504 256.992 C 116.504 255.719 116.184 254.705 115.544 253.952 C 114.897 253.199 113.957 252.822 112.724 252.822 C 112.051 252.822 111.421 252.985 110.834 253.312 C 110.247 253.639 109.781 254.105 109.434 254.712 C 109.087 255.319 108.914 256.022 108.914 256.822 L 108.914 257.022 C 108.914 257.822 109.087 258.535 109.434 259.162 C 109.781 259.789 110.244 260.272 110.824 260.612 C 111.404 260.959 112.037 261.132 112.724 261.132 ZM 127.311 263.682 C 125.538 263.682 124.321 263.159 123.661 262.112 C 122.994 261.065 122.661 259.609 122.661 257.742 L 122.661 250.552 L 125.691 250.552 L 125.691 256.992 C 125.691 258.052 125.751 258.879 125.871 259.472 C 125.991 260.059 126.234 260.492 126.601 260.772 C 126.961 261.052 127.504 261.192 128.231 261.192 C 128.758 261.192 129.264 261.042 129.751 260.742 C 130.231 260.442 130.628 260.035 130.941 259.522 C 131.248 259.009 131.401 258.445 131.401 257.832 L 131.401 250.552 L 134.391 250.552 L 134.391 263.402 L 131.931 263.402 L 131.591 261.522 C 131.124 262.255 130.541 262.799 129.841 263.152 C 129.141 263.505 128.298 263.682 127.311 263.682 ZM 138.336 263.402 L 138.336 250.552 L 141.366 250.552 L 141.366 253.072 C 141.666 252.212 142.149 251.522 142.816 251.002 C 143.489 250.475 144.256 250.212 145.116 250.212 C 145.716 250.212 146.126 250.269 146.346 250.382 L 145.926 253.432 C 145.759 253.319 145.396 253.262 144.836 253.262 C 143.956 253.262 143.159 253.542 142.446 254.102 C 141.726 254.662 141.366 255.559 141.366 256.792 L 141.366 263.402 L 138.336 263.402 ZM 148.526 270.202 L 148.526 250.552 L 151.446 250.552 L 151.446 252.932 C 152.473 251.119 154.076 250.212 156.256 250.212 C 158.07 250.212 159.536 250.785 160.656 251.932 C 161.776 253.085 162.336 254.742 162.336 256.902 C 162.336 258.249 162.06 259.435 161.506 260.462 C 160.96 261.489 160.213 262.282 159.266 262.842 C 158.326 263.402 157.276 263.682 156.116 263.682 C 155.036 263.682 154.1 263.492 153.306 263.112 C 152.513 262.725 151.893 262.179 151.446 261.472 L 151.466 270.202 L 148.526 270.202 Z M 155.416 261.132 C 156.63 261.132 157.563 260.745 158.216 259.972 C 158.87 259.199 159.196 258.205 159.196 256.992 C 159.196 255.719 158.876 254.705 158.236 253.952 C 157.59 253.199 156.65 252.822 155.416 252.822 C 154.743 252.822 154.113 252.985 153.526 253.312 C 152.94 253.639 152.473 254.105 152.126 254.712 C 151.78 255.319 151.606 256.022 151.606 256.822 L 151.606 257.022 C 151.606 257.822 151.78 258.535 152.126 259.162 C 152.473 259.789 152.936 260.272 153.516 260.612 C 154.096 260.959 154.73 261.132 155.416 261.132 ZM 171.543 263.682 C 170.217 263.682 169.04 263.382 168.013 262.782 C 166.987 262.189 166.193 261.379 165.633 260.352 C 165.073 259.325 164.793 258.185 164.793 256.932 C 164.793 255.699 165.07 254.569 165.623 253.542 C 166.17 252.515 166.957 251.705 167.983 251.112 C 169.01 250.512 170.197 250.212 171.543 250.212 C 172.89 250.212 174.07 250.512 175.083 251.112 C 176.103 251.705 176.887 252.515 177.433 253.542 C 177.987 254.569 178.263 255.699 178.263 256.932 C 178.263 258.185 177.983 259.325 177.423 260.352 C 176.863 261.379 176.073 262.189 175.053 262.782 C 174.04 263.382 172.87 263.682 171.543 263.682 Z M 171.623 261.222 C 172.71 261.222 173.567 260.819 174.193 260.012 C 174.813 259.212 175.123 258.205 175.123 256.992 C 175.123 255.779 174.79 254.755 174.123 253.922 C 173.45 253.095 172.563 252.682 171.463 252.682 C 170.397 252.682 169.54 253.092 168.893 253.912 C 168.253 254.732 167.933 255.759 167.933 256.992 C 167.933 258.185 168.277 259.189 168.963 260.002 C 169.657 260.815 170.543 261.222 171.623 261.222 ZM 185.902 263.682 C 185.009 263.682 184.082 263.565 183.122 263.332 C 182.156 263.099 181.469 262.822 181.062 262.502 L 182.072 260.122 C 183.192 260.909 184.469 261.302 185.902 261.302 C 187.342 261.302 188.062 260.882 188.062 260.042 C 188.062 259.669 187.912 259.379 187.612 259.172 C 187.312 258.965 186.779 258.722 186.012 258.442 L 184.952 258.052 C 183.832 257.605 182.946 257.069 182.292 256.442 C 181.639 255.815 181.312 254.989 181.312 253.962 C 181.312 252.789 181.776 251.872 182.702 251.212 C 183.622 250.545 184.859 250.212 186.412 250.212 C 187.172 250.212 187.922 250.295 188.662 250.462 C 189.402 250.635 189.966 250.852 190.352 251.112 L 189.262 253.522 C 189.022 253.275 188.636 253.065 188.102 252.892 C 187.569 252.712 186.976 252.622 186.322 252.622 C 184.996 252.622 184.332 253.022 184.332 253.822 C 184.332 254.275 184.512 254.619 184.872 254.852 C 185.226 255.085 185.802 255.342 186.602 255.622 C 186.676 255.635 186.966 255.735 187.472 255.922 C 188.666 256.389 189.552 256.922 190.132 257.522 C 190.712 258.122 191.002 258.889 191.002 259.822 C 191.002 261.089 190.522 262.049 189.562 262.702 C 188.596 263.355 187.376 263.682 185.902 263.682 ZM 200.206 263.682 C 198.68 263.682 197.403 263.379 196.376 262.772 C 195.35 262.165 194.593 261.352 194.106 260.332 C 193.62 259.319 193.376 258.205 193.376 256.992 C 193.376 255.625 193.663 254.429 194.236 253.402 C 194.803 252.375 195.59 251.589 196.596 251.042 C 197.603 250.489 198.743 250.212 200.016 250.212 C 201.996 250.212 203.466 250.759 204.426 251.852 C 205.386 252.945 205.866 254.482 205.866 256.462 C 205.866 256.962 205.84 257.482 205.786 258.022 L 196.546 258.022 C 196.746 259.162 197.15 259.985 197.756 260.492 C 198.363 260.992 199.21 261.242 200.296 261.242 C 201.19 261.242 201.926 261.169 202.506 261.022 C 203.086 260.875 203.62 260.669 204.106 260.402 L 205.026 262.562 C 204.56 262.862 203.926 263.122 203.126 263.342 C 202.32 263.569 201.346 263.682 200.206 263.682 Z M 196.546 255.922 L 202.926 255.922 C 202.946 254.769 202.693 253.952 202.166 253.472 C 201.646 252.999 200.9 252.762 199.926 252.762 C 197.966 252.762 196.84 253.815 196.546 255.922 ZM 211.88 257.042 C 211.773 256.655 211.72 256.229 211.72 255.762 C 211.72 254.862 211.936 254.122 212.37 253.542 C 212.81 252.969 213.46 252.335 214.32 251.642 C 215.12 250.989 215.723 250.402 216.13 249.882 C 216.53 249.355 216.73 248.709 216.73 247.942 C 216.73 247.182 216.463 246.552 215.93 246.052 C 215.396 245.559 214.653 245.312 213.7 245.312 C 213.126 245.312 212.623 245.429 212.19 245.662 C 211.763 245.895 211.423 246.165 211.17 246.472 C 210.916 246.785 210.753 247.062 210.68 247.302 L 207.88 245.902 C 208.18 245.382 208.493 244.905 208.82 244.472 C 209.146 244.045 209.74 243.609 210.6 243.162 C 211.453 242.709 212.543 242.482 213.87 242.482 C 215.063 242.482 216.133 242.712 217.08 243.172 C 218.02 243.632 218.753 244.259 219.28 245.052 C 219.8 245.845 220.06 246.715 220.06 247.662 C 220.06 248.542 219.91 249.299 219.61 249.932 C 219.31 250.565 218.95 251.092 218.53 251.512 C 218.11 251.932 217.566 252.405 216.9 252.932 C 216.153 253.512 215.61 253.995 215.27 254.382 C 214.936 254.775 214.77 255.262 214.77 255.842 C 214.77 256.215 214.786 256.615 214.82 257.042 L 211.88 257.042 Z M 213.62 263.682 C 213.04 263.682 212.56 263.492 212.18 263.112 C 211.793 262.725 211.6 262.252 211.6 261.692 C 211.6 261.112 211.793 260.632 212.18 260.252 C 212.56 259.872 213.04 259.682 213.62 259.682 C 214.18 259.682 214.656 259.872 215.05 260.252 C 215.443 260.632 215.64 261.112 215.64 261.692 C 215.64 262.252 215.443 262.725 215.05 263.112 C 214.656 263.492 214.18 263.682 213.62 263.682 Z" transform="matrix(1.678157091140747, 0, 0, 1.678157091140747, 190.2811279296875, -150.6580810546875)" style="fill: rgb(51, 51, 51); white-space: pre;"/>
    <path d="M 323.088 358.487 C 322.248 358.487 321.414 358.34 320.588 358.047 C 319.761 357.754 319.164 357.424 318.798 357.057 L 319.918 355.067 C 320.211 355.334 320.668 355.61 321.288 355.897 C 321.914 356.184 322.514 356.327 323.088 356.327 C 323.828 356.327 324.431 356.15 324.898 355.797 C 325.371 355.45 325.608 354.967 325.608 354.347 C 325.608 353.874 325.481 353.46 325.228 353.107 C 324.974 352.76 324.668 352.47 324.308 352.237 C 323.941 352.01 323.421 351.727 322.748 351.387 C 321.948 350.994 321.401 350.7 321.108 350.507 C 319.754 349.6 319.078 348.34 319.078 346.727 C 319.078 345.394 319.518 344.374 320.398 343.667 C 321.278 342.96 322.391 342.607 323.738 342.607 C 325.178 342.607 326.401 343.02 327.408 343.847 L 326.298 345.757 C 326.031 345.477 325.658 345.237 325.178 345.037 C 324.691 344.83 324.174 344.727 323.628 344.727 C 322.928 344.727 322.378 344.887 321.978 345.207 C 321.584 345.52 321.388 345.984 321.388 346.597 C 321.388 347.03 321.511 347.42 321.758 347.767 C 322.011 348.107 322.331 348.404 322.718 348.657 C 323.104 348.91 323.624 349.22 324.278 349.587 C 324.911 349.934 325.394 350.21 325.728 350.417 C 326.068 350.617 326.384 350.857 326.678 351.137 C 327.084 351.504 327.414 351.937 327.668 352.437 C 327.914 352.944 328.038 353.497 328.038 354.097 C 328.038 355.037 327.824 355.834 327.398 356.487 C 326.971 357.147 326.384 357.647 325.638 357.987 C 324.891 358.32 324.041 358.487 323.088 358.487 ZM 338.663 358.277 L 338.663 342.837 L 342.063 342.837 C 343.983 342.837 345.386 343.247 346.273 344.067 C 347.159 344.887 347.603 346.01 347.603 347.437 C 347.603 349.09 347.119 350.357 346.153 351.237 C 345.193 352.124 343.759 352.567 341.853 352.567 L 341.033 352.567 L 341.033 358.277 L 338.663 358.277 Z M 341.033 350.487 L 341.913 350.487 C 343.146 350.487 344.009 350.214 344.503 349.667 C 344.989 349.12 345.233 348.464 345.233 347.697 C 345.233 346.87 344.996 346.197 344.523 345.677 C 344.043 345.157 343.243 344.897 342.123 344.897 L 341.033 344.897 L 341.033 350.487 ZM 362.158 342.817 L 362.388 342.817 L 369.818 358.277 L 367.108 358.277 L 365.788 355.257 L 358.708 355.257 L 357.388 358.277 L 354.758 358.277 L 362.158 342.817 Z M 362.258 347.297 L 361.338 349.397 L 359.658 353.127 L 364.868 353.127 L 363.208 349.417 L 362.298 347.297 L 362.258 347.297 ZM 389.632 358.277 L 386.932 358.277 L 383.822 352.437 C 383.176 352.464 382.602 352.477 382.102 352.477 L 381.512 352.477 L 381.512 358.277 L 379.222 358.277 L 379.222 342.837 L 382.732 342.837 C 384.506 342.837 385.966 343.207 387.112 343.947 C 388.266 344.68 388.842 345.874 388.842 347.527 C 388.842 348.56 388.599 349.454 388.112 350.207 C 387.632 350.954 386.916 351.53 385.962 351.937 L 389.632 358.277 Z M 381.512 350.567 L 383.002 350.567 C 384.376 350.567 385.316 350.27 385.822 349.677 C 386.336 349.084 386.592 348.374 386.592 347.547 C 386.592 345.714 385.366 344.797 382.912 344.797 L 381.512 344.797 L 381.512 350.567 ZM 408.422 358.277 L 403.702 351.367 L 402.442 352.917 L 402.442 358.277 L 400.132 358.277 L 400.132 342.837 L 402.442 342.837 L 402.442 349.727 L 407.732 342.837 L 410.542 342.837 L 405.232 349.627 L 411.302 358.277 L 408.422 358.277 ZM 424.277 358.487 C 423.437 358.487 422.604 358.34 421.777 358.047 C 420.951 357.754 420.354 357.424 419.987 357.057 L 421.107 355.067 C 421.401 355.334 421.857 355.61 422.477 355.897 C 423.104 356.184 423.704 356.327 424.277 356.327 C 425.017 356.327 425.621 356.15 426.087 355.797 C 426.561 355.45 426.797 354.967 426.797 354.347 C 426.797 353.874 426.671 353.46 426.417 353.107 C 426.164 352.76 425.857 352.47 425.497 352.237 C 425.131 352.01 424.611 351.727 423.937 351.387 C 423.137 350.994 422.591 350.7 422.297 350.507 C 420.944 349.6 420.267 348.34 420.267 346.727 C 420.267 345.394 420.707 344.374 421.587 343.667 C 422.467 342.96 423.581 342.607 424.927 342.607 C 426.367 342.607 427.591 343.02 428.597 343.847 L 427.487 345.757 C 427.221 345.477 426.847 345.237 426.367 345.037 C 425.881 344.83 425.364 344.727 424.817 344.727 C 424.117 344.727 423.567 344.887 423.167 345.207 C 422.774 345.52 422.577 345.984 422.577 346.597 C 422.577 347.03 422.701 347.42 422.947 347.767 C 423.201 348.107 423.521 348.404 423.907 348.657 C 424.294 348.91 424.814 349.22 425.467 349.587 C 426.101 349.934 426.584 350.21 426.917 350.417 C 427.257 350.617 427.574 350.857 427.867 351.137 C 428.274 351.504 428.604 351.937 428.857 352.437 C 429.104 352.944 429.227 353.497 429.227 354.097 C 429.227 355.037 429.014 355.834 428.587 356.487 C 428.161 357.147 427.574 357.647 426.827 357.987 C 426.081 358.32 425.231 358.487 424.277 358.487 Z" transform="matrix(1, 0, 0, 1, 0, 0)" style="fill: rgb(195, 195, 195); text-transform: uppercase; white-space: pre;"/>
  </g>
</svg>