<?xml version="1.0" encoding="utf-8"?>
<svg viewBox="0 0 388 292" xmlns="http://www.w3.org/2000/svg">
  <defs>
    <filter id="drop-shadow-filter-sparks" x="-500%" y="-500%" width="1000%" height="1000%">
      <feGaussianBlur in="SourceAlpha" stdDeviation="5"/>
      <feOffset dx="2" dy="2"/>
      <feComponentTransfer result="offsetblur">
        <feFuncA id="spread-ctrl" type="linear" slope="1.7"/>
      </feComponentTransfer>
      <feFlood flood-color="rgba(0,0,0,0.3)" x="10" y="10"/>
      <feComposite in2="offsetblur" operator="in"/>
      <feMerge>
        <feMergeNode/>
        <feMergeNode in="SourceGraphic"/>
      </feMerge>
    </filter>
  </defs>
  <rect x="26" y="26" width="336" height="240" style="fill: rgb(255, 255, 255); vector-effect: non-scaling-stroke; filter: url(#drop-shadow-filter-sparks); pointer-events: none;" rx="25.36" ry="25.36">
    <title>Card Background</title>
  </rect>
  <g style="" transform="matrix(0.500352, 0, 0, 0.500352, 10.185728, 10.335123)">
    <title>Sparks Sample</title>
    <path d="M 340.303 134.667 C 340.02 118.03 347.1 108.406 347.1 108.406 C 350.169 123.126 355.872 123.185 355.872 123.185 C 355.872 123.185 352.785 117.701 352.976 108.78 C 353.198 98.398 362.379 80.356 374.418 79.986 C 372.114 83.192 371.14 86.382 371.14 91.072 C 371.14 108.152 394.435 113.056 394.435 135.056 C 394.435 154.72 378.302 158.347 366.862 158.347 C 355.414 158.347 340.587 151.304 340.303 134.667 Z M 350.594 138.856 C 350.594 147.311 360.31 152.063 368.279 151.955 C 376.406 151.843 377.246 150.303 377.545 150.487 C 380.423 152.207 384.743 151.324 384.743 151.324 C 384.743 151.324 381.944 149.999 382.656 147.115 C 382.744 146.758 385.906 145.021 385.964 138.856 C 386.041 130.402 376.249 125.756 368.279 125.756 C 360.306 125.756 350.594 130.402 350.594 138.856 Z" style="fill: rgb(247, 196, 67);">
      <title>Sparks Logo</title>
    </path>
    <path d="M -23.456 188.922 L -18.426 200.852 L -14.026 189.022 L -11.056 189.022 L -18.206 207.402 L -18.556 207.402 L -23.556 195.502 L -28.536 207.372 L -28.886 207.372 L -36.036 189.022 L -33.056 189.022 L -28.656 200.852 L -23.606 188.922 L -23.456 188.922 ZM -10.113 207.402 L -10.113 189.022 L -7.483 189.022 L -7.483 195.922 L -7.583 198.052 C -7.27 197.352 -6.763 196.772 -6.063 196.312 C -5.363 195.852 -4.546 195.622 -3.613 195.622 C -2.426 195.622 -1.516 195.869 -0.883 196.362 C -0.25 196.855 0.174 197.542 0.387 198.422 C 0.607 199.309 0.717 200.459 0.717 201.872 L 0.717 207.402 L -1.963 207.402 L -1.963 201.852 C -1.963 200.885 -2.016 200.125 -2.123 199.572 C -2.23 199.025 -2.446 198.609 -2.773 198.322 C -3.1 198.042 -3.57 197.902 -4.183 197.902 C -4.683 197.902 -5.19 198.052 -5.703 198.352 C -6.21 198.652 -6.63 199.089 -6.963 199.662 C -7.296 200.235 -7.463 200.915 -7.463 201.702 L -7.463 207.402 L -10.113 207.402 ZM 9.211 207.652 C 8.178 207.652 7.224 207.405 6.351 206.912 C 5.478 206.419 4.778 205.719 4.251 204.812 C 3.724 203.905 3.461 202.842 3.461 201.622 C 3.461 200.422 3.691 199.372 4.151 198.472 C 4.611 197.572 5.264 196.872 6.111 196.372 C 6.964 195.872 7.964 195.622 9.111 195.622 C 9.778 195.622 10.404 195.739 10.991 195.972 C 11.571 196.205 12.061 196.492 12.461 196.832 C 12.861 197.179 13.128 197.519 13.261 197.852 L 13.311 195.922 L 15.891 195.922 L 15.891 207.402 L 13.341 207.402 L 13.291 205.372 C 13.004 205.972 12.488 206.502 11.741 206.962 C 10.988 207.422 10.144 207.652 9.211 207.652 Z M 9.661 205.402 C 10.614 205.402 11.414 205.072 12.061 204.412 C 12.714 203.752 13.041 202.889 13.041 201.822 L 13.041 201.652 C 13.041 200.932 12.891 200.289 12.591 199.722 C 12.291 199.155 11.881 198.715 11.361 198.402 C 10.848 198.082 10.281 197.922 9.661 197.922 C 8.594 197.922 7.771 198.269 7.191 198.962 C 6.604 199.655 6.311 200.552 6.311 201.652 C 6.311 202.765 6.598 203.669 7.171 204.362 C 7.751 205.055 8.581 205.402 9.661 205.402 ZM 20.515 207.402 L 20.515 198.122 L 18.485 198.122 L 18.485 195.922 L 20.515 195.922 L 20.515 191.242 L 23.235 190.642 L 23.235 195.922 L 25.885 195.922 L 25.885 198.122 L 23.235 198.122 L 23.235 207.402 L 20.515 207.402 ZM 44.613 207.402 L 41.213 201.022 L 37.813 207.402 L 37.333 207.402 L 32.513 195.922 L 35.413 195.922 L 37.883 202.602 L 41.163 195.922 L 41.263 195.922 L 44.563 202.552 L 47.043 195.922 L 49.893 195.922 L 45.083 207.402 L 44.613 207.402 ZM 56.807 207.652 C 55.774 207.652 54.82 207.405 53.947 206.912 C 53.074 206.419 52.374 205.719 51.847 204.812 C 51.32 203.905 51.057 202.842 51.057 201.622 C 51.057 200.422 51.287 199.372 51.747 198.472 C 52.207 197.572 52.86 196.872 53.707 196.372 C 54.56 195.872 55.56 195.622 56.707 195.622 C 57.374 195.622 58 195.739 58.587 195.972 C 59.167 196.205 59.657 196.492 60.057 196.832 C 60.457 197.179 60.724 197.519 60.857 197.852 L 60.907 195.922 L 63.487 195.922 L 63.487 207.402 L 60.937 207.402 L 60.887 205.372 C 60.6 205.972 60.084 206.502 59.337 206.962 C 58.584 207.422 57.74 207.652 56.807 207.652 Z M 57.257 205.402 C 58.21 205.402 59.01 205.072 59.657 204.412 C 60.31 203.752 60.637 202.889 60.637 201.822 L 60.637 201.652 C 60.637 200.932 60.487 200.289 60.187 199.722 C 59.887 199.155 59.477 198.715 58.957 198.402 C 58.444 198.082 57.877 197.922 57.257 197.922 C 56.19 197.922 55.367 198.269 54.787 198.962 C 54.2 199.655 53.907 200.552 53.907 201.652 C 53.907 202.765 54.194 203.669 54.767 204.362 C 55.347 205.055 56.177 205.402 57.257 205.402 ZM 71.061 207.652 C 70.261 207.652 69.431 207.549 68.571 207.342 C 67.711 207.129 67.097 206.882 66.731 206.602 L 67.631 204.472 C 68.631 205.172 69.774 205.522 71.061 205.522 C 72.341 205.522 72.981 205.149 72.981 204.402 C 72.981 204.069 72.847 203.809 72.581 203.622 C 72.314 203.442 71.841 203.225 71.161 202.972 L 70.211 202.622 C 69.211 202.222 68.417 201.745 67.831 201.192 C 67.251 200.632 66.961 199.892 66.961 198.972 C 66.961 197.925 67.371 197.105 68.191 196.512 C 69.017 195.919 70.124 195.622 71.511 195.622 C 72.191 195.622 72.861 195.699 73.521 195.852 C 74.181 195.999 74.684 196.189 75.031 196.422 L 74.061 198.572 C 73.841 198.359 73.494 198.172 73.021 198.012 C 72.547 197.852 72.017 197.772 71.431 197.772 C 70.251 197.772 69.661 198.132 69.661 198.852 C 69.661 199.252 69.817 199.555 70.131 199.762 C 70.451 199.969 70.967 200.199 71.681 200.452 C 71.747 200.465 72.007 200.555 72.461 200.722 C 73.527 201.142 74.317 201.619 74.831 202.152 C 75.351 202.685 75.611 203.369 75.611 204.202 C 75.611 205.335 75.181 206.192 74.321 206.772 C 73.461 207.359 72.374 207.652 71.061 207.652 ZM 89.604 207.652 C 88.571 207.652 87.618 207.405 86.744 206.912 C 85.871 206.419 85.171 205.719 84.644 204.812 C 84.118 203.905 83.854 202.842 83.854 201.622 C 83.854 200.422 84.084 199.372 84.544 198.472 C 85.004 197.572 85.658 196.872 86.504 196.372 C 87.358 195.872 88.358 195.622 89.504 195.622 C 90.171 195.622 90.798 195.739 91.384 195.972 C 91.964 196.205 92.454 196.492 92.854 196.832 C 93.254 197.179 93.521 197.519 93.654 197.852 L 93.704 195.922 L 96.284 195.922 L 96.284 207.402 L 93.734 207.402 L 93.684 205.372 C 93.398 205.972 92.881 206.502 92.134 206.962 C 91.381 207.422 90.538 207.652 89.604 207.652 Z M 90.054 205.402 C 91.008 205.402 91.808 205.072 92.454 204.412 C 93.108 203.752 93.434 202.889 93.434 201.822 L 93.434 201.652 C 93.434 200.932 93.284 200.289 92.984 199.722 C 92.684 199.155 92.274 198.715 91.754 198.402 C 91.241 198.082 90.674 197.922 90.054 197.922 C 88.988 197.922 88.164 198.269 87.584 198.962 C 86.998 199.655 86.704 200.552 86.704 201.652 C 86.704 202.765 86.991 203.669 87.564 204.362 C 88.144 205.055 88.974 205.402 90.054 205.402 ZM 107.032 207.402 L 107.032 198.122 L 105.002 198.122 L 105.002 195.922 L 107.032 195.922 L 107.032 191.242 L 109.752 190.642 L 109.752 195.922 L 112.402 195.922 L 112.402 198.122 L 109.752 198.122 L 109.752 207.402 L 107.032 207.402 ZM 114.807 207.402 L 114.807 195.922 L 117.607 195.922 L 117.607 207.402 L 114.807 207.402 Z M 116.177 193.772 C 115.663 193.772 115.23 193.595 114.877 193.242 C 114.53 192.895 114.357 192.462 114.357 191.942 C 114.357 191.475 114.53 191.075 114.877 190.742 C 115.23 190.409 115.663 190.242 116.177 190.242 C 116.677 190.242 117.103 190.409 117.457 190.742 C 117.803 191.075 117.977 191.475 117.977 191.942 C 117.977 192.462 117.807 192.895 117.467 193.242 C 117.127 193.595 116.697 193.772 116.177 193.772 ZM 121.356 207.402 L 121.356 195.922 L 124.056 195.922 L 124.056 198.002 C 124.423 197.215 124.959 196.622 125.666 196.222 C 126.373 195.822 127.186 195.622 128.106 195.622 C 130.153 195.642 131.409 196.352 131.876 197.752 C 132.249 197.099 132.803 196.582 133.536 196.202 C 134.269 195.815 135.043 195.622 135.856 195.622 C 137.056 195.622 137.966 195.852 138.586 196.312 C 139.199 196.772 139.613 197.422 139.826 198.262 C 140.033 199.102 140.136 200.232 140.136 201.652 L 140.136 207.402 L 137.406 207.402 L 137.406 201.622 C 137.406 200.275 137.269 199.309 136.996 198.722 C 136.723 198.142 136.193 197.852 135.406 197.852 C 134.359 197.852 133.563 198.205 133.016 198.912 C 132.476 199.619 132.206 200.549 132.206 201.702 L 132.206 207.402 L 129.506 207.402 L 129.506 201.222 C 129.506 200.342 129.473 199.685 129.406 199.252 C 129.339 198.819 129.156 198.475 128.856 198.222 C 128.556 197.975 128.073 197.852 127.406 197.852 C 126.819 197.852 126.273 198.025 125.766 198.372 C 125.259 198.725 124.849 199.195 124.536 199.782 C 124.229 200.375 124.076 201.015 124.076 201.702 L 124.076 207.402 L 121.356 207.402 ZM 148.999 207.652 C 147.633 207.652 146.493 207.382 145.579 206.842 C 144.659 206.295 143.983 205.569 143.549 204.662 C 143.116 203.755 142.899 202.759 142.899 201.672 C 142.899 200.459 143.153 199.392 143.659 198.472 C 144.173 197.559 144.879 196.855 145.779 196.362 C 146.679 195.869 147.696 195.622 148.829 195.622 C 150.596 195.622 151.909 196.109 152.769 197.082 C 153.623 198.062 154.049 199.435 154.049 201.202 C 154.049 201.649 154.026 202.115 153.979 202.602 L 145.729 202.602 C 145.909 203.615 146.269 204.349 146.809 204.802 C 147.356 205.249 148.113 205.472 149.079 205.472 C 149.879 205.472 150.536 205.405 151.049 205.272 C 151.569 205.139 152.046 204.955 152.479 204.722 L 153.299 206.652 C 152.886 206.919 152.319 207.152 151.599 207.352 C 150.886 207.552 150.019 207.652 148.999 207.652 Z M 145.729 200.722 L 151.429 200.722 C 151.443 199.689 151.216 198.959 150.749 198.532 C 150.283 198.112 149.616 197.902 148.749 197.902 C 147.003 197.902 145.996 198.842 145.729 200.722 ZM 164.003 207.402 L 164.003 198.122 L 161.973 198.122 L 161.973 195.922 L 164.003 195.922 L 164.003 191.242 L 166.723 190.642 L 166.723 195.922 L 169.373 195.922 L 169.373 198.122 L 166.723 198.122 L 166.723 207.402 L 164.003 207.402 ZM 171.697 207.402 L 171.697 189.022 L 174.327 189.022 L 174.327 195.922 L 174.227 198.052 C 174.54 197.352 175.047 196.772 175.747 196.312 C 176.447 195.852 177.264 195.622 178.197 195.622 C 179.384 195.622 180.294 195.869 180.927 196.362 C 181.56 196.855 181.984 197.542 182.197 198.422 C 182.417 199.309 182.527 200.459 182.527 201.872 L 182.527 207.402 L 179.847 207.402 L 179.847 201.852 C 179.847 200.885 179.794 200.125 179.687 199.572 C 179.58 199.025 179.364 198.609 179.037 198.322 C 178.71 198.042 178.24 197.902 177.627 197.902 C 177.127 197.902 176.62 198.052 176.107 198.352 C 175.6 198.652 175.18 199.089 174.847 199.662 C 174.514 200.235 174.347 200.915 174.347 201.702 L 174.347 207.402 L 171.697 207.402 ZM 191.021 207.652 C 189.988 207.652 189.034 207.405 188.161 206.912 C 187.288 206.419 186.588 205.719 186.061 204.812 C 185.534 203.905 185.271 202.842 185.271 201.622 C 185.271 200.422 185.501 199.372 185.961 198.472 C 186.421 197.572 187.074 196.872 187.921 196.372 C 188.774 195.872 189.774 195.622 190.921 195.622 C 191.588 195.622 192.214 195.739 192.801 195.972 C 193.381 196.205 193.871 196.492 194.271 196.832 C 194.671 197.179 194.938 197.519 195.071 197.852 L 195.121 195.922 L 197.701 195.922 L 197.701 207.402 L 195.151 207.402 L 195.101 205.372 C 194.814 205.972 194.298 206.502 193.551 206.962 C 192.798 207.422 191.954 207.652 191.021 207.652 Z M 191.471 205.402 C 192.424 205.402 193.224 205.072 193.871 204.412 C 194.524 203.752 194.851 202.889 194.851 201.822 L 194.851 201.652 C 194.851 200.932 194.701 200.289 194.401 199.722 C 194.101 199.155 193.691 198.715 193.171 198.402 C 192.658 198.082 192.091 197.922 191.471 197.922 C 190.404 197.922 189.581 198.269 189.001 198.962 C 188.414 199.655 188.121 200.552 188.121 201.652 C 188.121 202.765 188.408 203.669 188.981 204.362 C 189.561 205.055 190.391 205.402 191.471 205.402 ZM 202.325 207.402 L 202.325 198.122 L 200.295 198.122 L 200.295 195.922 L 202.325 195.922 L 202.325 191.242 L 205.045 190.642 L 205.045 195.922 L 207.695 195.922 L 207.695 198.122 L 205.045 198.122 L 205.045 207.402 L 202.325 207.402 ZM 216.843 213.702 L 219.323 207.752 L 214.573 195.922 L 217.623 195.922 L 220.073 203.222 L 220.623 205.002 L 221.173 203.222 L 223.743 195.922 L 226.693 195.922 L 219.643 213.702 L 216.843 213.702 ZM 233.797 207.652 C 232.611 207.652 231.561 207.385 230.647 206.852 C 229.727 206.319 229.017 205.592 228.517 204.672 C 228.017 203.759 227.767 202.742 227.767 201.622 C 227.767 200.522 228.014 199.515 228.507 198.602 C 229.001 197.682 229.704 196.955 230.617 196.422 C 231.537 195.889 232.597 195.622 233.797 195.622 C 234.997 195.622 236.051 195.889 236.957 196.422 C 237.864 196.955 238.564 197.682 239.057 198.602 C 239.551 199.515 239.797 200.522 239.797 201.622 C 239.797 202.742 239.547 203.759 239.047 204.672 C 238.547 205.592 237.844 206.319 236.937 206.852 C 236.024 207.385 234.977 207.652 233.797 207.652 Z M 233.867 205.452 C 234.834 205.452 235.597 205.092 236.157 204.372 C 236.717 203.659 236.997 202.759 236.997 201.672 C 236.997 200.592 236.697 199.679 236.097 198.932 C 235.497 198.192 234.704 197.822 233.717 197.822 C 232.771 197.822 232.007 198.189 231.427 198.922 C 230.854 199.655 230.567 200.572 230.567 201.672 C 230.567 202.739 230.877 203.635 231.497 204.362 C 232.111 205.089 232.901 205.452 233.867 205.452 ZM 246.641 207.652 C 245.061 207.652 243.974 207.185 243.381 206.252 C 242.788 205.319 242.491 204.019 242.491 202.352 L 242.491 195.922 L 245.191 195.922 L 245.191 201.672 C 245.191 202.625 245.244 203.365 245.351 203.892 C 245.464 204.412 245.681 204.799 246.001 205.052 C 246.328 205.299 246.818 205.422 247.471 205.422 C 247.938 205.422 248.388 205.289 248.821 205.022 C 249.254 204.755 249.608 204.395 249.881 203.942 C 250.154 203.482 250.291 202.975 250.291 202.422 L 250.291 195.922 L 252.971 195.922 L 252.971 207.402 L 250.771 207.402 L 250.471 205.722 C 250.051 206.375 249.531 206.859 248.911 207.172 C 248.284 207.492 247.528 207.652 246.641 207.652 Z" transform="matrix(1.678157091140747, 0, 0, 1.678157091140747, 181.6521453857422, -74.64280700683594)" style="fill: rgb(51, 51, 51); line-height: 40.0158px; white-space: pre;"/>
    <path d="M -38.505 237.664 C -39.438 237.664 -40.278 237.434 -41.025 236.974 C -41.765 236.514 -42.275 235.984 -42.555 235.384 L -42.605 237.414 L -45.205 237.414 L -45.205 219.034 L -42.555 219.034 L -42.555 226.114 L -42.685 228.064 C -42.398 227.397 -41.845 226.824 -41.025 226.344 C -40.198 225.87 -39.302 225.634 -38.335 225.634 C -37.202 225.634 -36.212 225.887 -35.365 226.394 C -34.525 226.907 -33.878 227.617 -33.425 228.524 C -32.978 229.43 -32.755 230.484 -32.755 231.684 C -32.755 232.904 -33.018 233.964 -33.545 234.864 C -34.072 235.764 -34.772 236.454 -35.645 236.934 C -36.518 237.42 -37.472 237.664 -38.505 237.664 Z M -38.955 235.414 C -37.875 235.414 -37.042 235.067 -36.455 234.374 C -35.875 233.68 -35.585 232.784 -35.585 231.684 C -35.585 230.57 -35.872 229.667 -36.445 228.974 C -37.018 228.28 -37.855 227.934 -38.955 227.934 C -39.908 227.934 -40.708 228.264 -41.355 228.924 C -42.008 229.584 -42.335 230.447 -42.335 231.514 L -42.335 231.684 C -42.335 232.404 -42.182 233.047 -41.875 233.614 C -41.562 234.18 -41.152 234.62 -40.645 234.934 C -40.138 235.254 -39.575 235.414 -38.955 235.414 ZM -29.961 237.414 L -29.961 225.934 L -27.261 225.934 L -27.261 228.184 C -26.995 227.417 -26.561 226.8 -25.961 226.334 C -25.361 225.867 -24.678 225.634 -23.911 225.634 C -23.378 225.634 -23.011 225.684 -22.811 225.784 L -23.181 228.514 C -23.335 228.414 -23.661 228.364 -24.161 228.364 C -24.941 228.364 -25.655 228.614 -26.301 229.114 C -26.941 229.614 -27.261 230.414 -27.261 231.514 L -27.261 237.414 L -29.961 237.414 ZM -15.557 237.664 C -16.744 237.664 -17.794 237.397 -18.707 236.864 C -19.627 236.33 -20.337 235.604 -20.837 234.684 C -21.337 233.77 -21.587 232.754 -21.587 231.634 C -21.587 230.534 -21.34 229.527 -20.847 228.614 C -20.354 227.694 -19.65 226.967 -18.737 226.434 C -17.817 225.9 -16.757 225.634 -15.557 225.634 C -14.357 225.634 -13.304 225.9 -12.397 226.434 C -11.49 226.967 -10.79 227.694 -10.297 228.614 C -9.804 229.527 -9.557 230.534 -9.557 231.634 C -9.557 232.754 -9.807 233.77 -10.307 234.684 C -10.807 235.604 -11.51 236.33 -12.417 236.864 C -13.33 237.397 -14.377 237.664 -15.557 237.664 Z M -15.487 235.464 C -14.52 235.464 -13.757 235.104 -13.197 234.384 C -12.637 233.67 -12.357 232.77 -12.357 231.684 C -12.357 230.604 -12.657 229.69 -13.257 228.944 C -13.857 228.204 -14.65 227.834 -15.637 227.834 C -16.584 227.834 -17.347 228.2 -17.927 228.934 C -18.5 229.667 -18.787 230.584 -18.787 231.684 C -18.787 232.75 -18.477 233.647 -17.857 234.374 C -17.244 235.1 -16.454 235.464 -15.487 235.464 ZM -0.663 230.734 L 3.687 237.414 L 0.517 237.414 L -1.813 233.664 L -2.463 232.384 L -3.963 234.014 L -3.963 237.414 L -6.563 237.414 L -6.563 219.034 L -3.983 219.034 L -3.983 229.114 L -4.033 231.064 L 0.337 225.934 L 3.667 225.934 L -0.663 230.734 ZM 11.261 237.664 C 9.894 237.664 8.754 237.394 7.841 236.854 C 6.921 236.307 6.244 235.58 5.811 234.674 C 5.377 233.767 5.161 232.77 5.161 231.684 C 5.161 230.47 5.414 229.404 5.921 228.484 C 6.434 227.57 7.141 226.867 8.041 226.374 C 8.941 225.88 9.957 225.634 11.091 225.634 C 12.857 225.634 14.171 226.12 15.031 227.094 C 15.884 228.074 16.311 229.447 16.311 231.214 C 16.311 231.66 16.287 232.127 16.241 232.614 L 7.991 232.614 C 8.171 233.627 8.531 234.36 9.071 234.814 C 9.617 235.26 10.374 235.484 11.341 235.484 C 12.141 235.484 12.797 235.417 13.311 235.284 C 13.831 235.15 14.307 234.967 14.741 234.734 L 15.561 236.664 C 15.147 236.93 14.581 237.164 13.861 237.364 C 13.147 237.564 12.281 237.664 11.261 237.664 Z M 7.991 230.734 L 13.691 230.734 C 13.704 229.7 13.477 228.97 13.011 228.544 C 12.544 228.124 11.877 227.914 11.011 227.914 C 9.264 227.914 8.257 228.854 7.991 230.734 ZM 26.264 237.414 L 26.264 228.134 L 24.234 228.134 L 24.234 225.934 L 26.264 225.934 L 26.264 221.254 L 28.984 220.654 L 28.984 225.934 L 31.634 225.934 L 31.634 228.134 L 28.984 228.134 L 28.984 237.414 L 26.264 237.414 ZM 33.958 237.414 L 33.958 219.034 L 36.588 219.034 L 36.588 225.934 L 36.488 228.064 C 36.802 227.364 37.308 226.784 38.008 226.324 C 38.708 225.864 39.525 225.634 40.458 225.634 C 41.645 225.634 42.555 225.88 43.188 226.374 C 43.822 226.867 44.245 227.554 44.458 228.434 C 44.678 229.32 44.788 230.47 44.788 231.884 L 44.788 237.414 L 42.108 237.414 L 42.108 231.864 C 42.108 230.897 42.055 230.137 41.948 229.584 C 41.842 229.037 41.625 228.62 41.298 228.334 C 40.972 228.054 40.502 227.914 39.888 227.914 C 39.388 227.914 38.882 228.064 38.368 228.364 C 37.862 228.664 37.442 229.1 37.108 229.674 C 36.775 230.247 36.608 230.927 36.608 231.714 L 36.608 237.414 L 33.958 237.414 ZM 53.632 237.664 C 52.266 237.664 51.126 237.394 50.212 236.854 C 49.292 236.307 48.616 235.58 48.182 234.674 C 47.749 233.767 47.532 232.77 47.532 231.684 C 47.532 230.47 47.786 229.404 48.292 228.484 C 48.806 227.57 49.512 226.867 50.412 226.374 C 51.312 225.88 52.329 225.634 53.462 225.634 C 55.229 225.634 56.542 226.12 57.402 227.094 C 58.256 228.074 58.682 229.447 58.682 231.214 C 58.682 231.66 58.659 232.127 58.612 232.614 L 50.362 232.614 C 50.542 233.627 50.902 234.36 51.442 234.814 C 51.989 235.26 52.746 235.484 53.712 235.484 C 54.512 235.484 55.169 235.417 55.682 235.284 C 56.202 235.15 56.679 234.967 57.112 234.734 L 57.932 236.664 C 57.519 236.93 56.952 237.164 56.232 237.364 C 55.519 237.564 54.652 237.664 53.632 237.664 Z M 50.362 230.734 L 56.062 230.734 C 56.076 229.7 55.849 228.97 55.382 228.544 C 54.916 228.124 54.249 227.914 53.382 227.914 C 51.636 227.914 50.629 228.854 50.362 230.734 ZM 67.556 237.414 L 67.556 225.934 L 70.256 225.934 L 70.256 228.184 C 70.522 227.417 70.956 226.8 71.556 226.334 C 72.156 225.867 72.839 225.634 73.606 225.634 C 74.139 225.634 74.506 225.684 74.706 225.784 L 74.336 228.514 C 74.182 228.414 73.856 228.364 73.356 228.364 C 72.576 228.364 71.862 228.614 71.216 229.114 C 70.576 229.614 70.256 230.414 70.256 231.514 L 70.256 237.414 L 67.556 237.414 ZM 80.58 237.664 C 79 237.664 77.913 237.197 77.32 236.264 C 76.727 235.33 76.43 234.03 76.43 232.364 L 76.43 225.934 L 79.13 225.934 L 79.13 231.684 C 79.13 232.637 79.183 233.377 79.29 233.904 C 79.403 234.424 79.62 234.81 79.94 235.064 C 80.267 235.31 80.757 235.434 81.41 235.434 C 81.877 235.434 82.327 235.3 82.76 235.034 C 83.193 234.767 83.547 234.407 83.82 233.954 C 84.093 233.494 84.23 232.987 84.23 232.434 L 84.23 225.934 L 86.91 225.934 L 86.91 237.414 L 84.71 237.414 L 84.41 235.734 C 83.99 236.387 83.47 236.87 82.85 237.184 C 82.223 237.504 81.467 237.664 80.58 237.664 ZM 90.729 237.414 L 90.729 219.034 L 93.409 219.034 L 93.409 237.414 L 90.729 237.414 ZM 102.628 237.664 C 101.261 237.664 100.121 237.394 99.208 236.854 C 98.288 236.307 97.611 235.58 97.178 234.674 C 96.745 233.767 96.528 232.77 96.528 231.684 C 96.528 230.47 96.781 229.404 97.288 228.484 C 97.801 227.57 98.508 226.867 99.408 226.374 C 100.308 225.88 101.325 225.634 102.458 225.634 C 104.225 225.634 105.538 226.12 106.398 227.094 C 107.251 228.074 107.678 229.447 107.678 231.214 C 107.678 231.66 107.655 232.127 107.608 232.614 L 99.358 232.614 C 99.538 233.627 99.898 234.36 100.438 234.814 C 100.985 235.26 101.741 235.484 102.708 235.484 C 103.508 235.484 104.165 235.417 104.678 235.284 C 105.198 235.15 105.675 234.967 106.108 234.734 L 106.928 236.664 C 106.515 236.93 105.948 237.164 105.228 237.364 C 104.515 237.564 103.648 237.664 102.628 237.664 Z M 99.358 230.734 L 105.058 230.734 C 105.071 229.7 104.845 228.97 104.378 228.544 C 103.911 228.124 103.245 227.914 102.378 227.914 C 100.631 227.914 99.625 228.854 99.358 230.734 ZM 114.457 237.664 C 113.657 237.664 112.827 237.56 111.967 237.354 C 111.107 237.14 110.494 236.894 110.127 236.614 L 111.027 234.484 C 112.027 235.184 113.17 235.534 114.457 235.534 C 115.737 235.534 116.377 235.16 116.377 234.414 C 116.377 234.08 116.244 233.82 115.977 233.634 C 115.71 233.454 115.237 233.237 114.557 232.984 L 113.607 232.634 C 112.607 232.234 111.814 231.757 111.227 231.204 C 110.647 230.644 110.357 229.904 110.357 228.984 C 110.357 227.937 110.767 227.117 111.587 226.524 C 112.414 225.93 113.52 225.634 114.907 225.634 C 115.587 225.634 116.257 225.71 116.917 225.864 C 117.577 226.01 118.08 226.2 118.427 226.434 L 117.457 228.584 C 117.237 228.37 116.89 228.184 116.417 228.024 C 115.944 227.864 115.414 227.784 114.827 227.784 C 113.647 227.784 113.057 228.144 113.057 228.864 C 113.057 229.264 113.214 229.567 113.527 229.774 C 113.847 229.98 114.364 230.21 115.077 230.464 C 115.144 230.477 115.404 230.567 115.857 230.734 C 116.924 231.154 117.714 231.63 118.227 232.164 C 118.747 232.697 119.007 233.38 119.007 234.214 C 119.007 235.347 118.577 236.204 117.717 236.784 C 116.857 237.37 115.77 237.664 114.457 237.664 ZM 133.281 237.664 C 132.094 237.664 131.044 237.397 130.131 236.864 C 129.211 236.33 128.501 235.604 128.001 234.684 C 127.501 233.77 127.251 232.754 127.251 231.634 C 127.251 230.534 127.497 229.527 127.991 228.614 C 128.484 227.694 129.187 226.967 130.101 226.434 C 131.021 225.9 132.081 225.634 133.281 225.634 C 134.481 225.634 135.534 225.9 136.441 226.434 C 137.347 226.967 138.047 227.694 138.541 228.614 C 139.034 229.527 139.281 230.534 139.281 231.634 C 139.281 232.754 139.031 233.77 138.531 234.684 C 138.031 235.604 137.327 236.33 136.421 236.864 C 135.507 237.397 134.461 237.664 133.281 237.664 Z M 133.351 235.464 C 134.317 235.464 135.081 235.104 135.641 234.384 C 136.201 233.67 136.481 232.77 136.481 231.684 C 136.481 230.604 136.181 229.69 135.581 228.944 C 134.981 228.204 134.187 227.834 133.201 227.834 C 132.254 227.834 131.491 228.2 130.911 228.934 C 130.337 229.667 130.051 230.584 130.051 231.684 C 130.051 232.75 130.361 233.647 130.981 234.374 C 131.594 235.1 132.384 235.464 133.351 235.464 ZM 142.154 237.414 L 142.154 225.934 L 144.804 225.934 L 144.824 228.034 C 145.144 227.334 145.644 226.76 146.324 226.314 C 147.011 225.86 147.811 225.634 148.724 225.634 C 149.911 225.634 150.821 225.88 151.454 226.374 C 152.088 226.867 152.511 227.554 152.724 228.434 C 152.944 229.32 153.054 230.47 153.054 231.884 L 153.054 237.414 L 150.354 237.414 L 150.354 231.964 C 150.354 230.51 150.211 229.464 149.924 228.824 C 149.644 228.184 149.061 227.864 148.174 227.864 C 147.674 227.864 147.168 228.017 146.654 228.324 C 146.134 228.63 145.704 229.077 145.364 229.664 C 145.024 230.244 144.854 230.927 144.854 231.714 L 144.854 237.414 L 142.154 237.414 ZM 162.703 243.494 L 162.703 225.934 L 165.303 225.934 L 165.303 228.064 C 166.216 226.444 167.649 225.634 169.603 225.634 C 171.216 225.634 172.523 226.147 173.523 227.174 C 174.529 228.2 175.033 229.68 175.033 231.614 C 175.033 232.814 174.786 233.87 174.293 234.784 C 173.799 235.704 173.133 236.414 172.293 236.914 C 171.446 237.414 170.506 237.664 169.473 237.664 C 168.506 237.664 167.669 237.494 166.963 237.154 C 166.256 236.807 165.703 236.317 165.303 235.684 L 165.323 243.494 L 162.703 243.494 Z M 168.853 235.384 C 169.933 235.384 170.766 235.04 171.353 234.354 C 171.933 233.66 172.223 232.77 172.223 231.684 C 172.223 230.55 171.936 229.647 171.363 228.974 C 170.789 228.3 169.953 227.964 168.853 227.964 C 168.253 227.964 167.689 228.107 167.163 228.394 C 166.636 228.687 166.219 229.104 165.913 229.644 C 165.606 230.19 165.453 230.82 165.453 231.534 L 165.453 231.714 C 165.453 232.427 165.606 233.064 165.913 233.624 C 166.219 234.184 166.633 234.617 167.153 234.924 C 167.666 235.23 168.233 235.384 168.853 235.384 ZM 181.871 237.664 C 180.291 237.664 179.205 237.197 178.611 236.264 C 178.018 235.33 177.721 234.03 177.721 232.364 L 177.721 225.934 L 180.421 225.934 L 180.421 231.684 C 180.421 232.637 180.475 233.377 180.581 233.904 C 180.695 234.424 180.911 234.81 181.231 235.064 C 181.558 235.31 182.048 235.434 182.701 235.434 C 183.168 235.434 183.618 235.3 184.051 235.034 C 184.485 234.767 184.838 234.407 185.111 233.954 C 185.385 233.494 185.521 232.987 185.521 232.434 L 185.521 225.934 L 188.201 225.934 L 188.201 237.414 L 186.001 237.414 L 185.701 235.734 C 185.281 236.387 184.761 236.87 184.141 237.184 C 183.515 237.504 182.758 237.664 181.871 237.664 ZM 191.72 237.414 L 191.72 225.934 L 194.42 225.934 L 194.42 228.184 C 194.687 227.417 195.12 226.8 195.72 226.334 C 196.32 225.867 197.004 225.634 197.77 225.634 C 198.304 225.634 198.67 225.684 198.87 225.784 L 198.5 228.514 C 198.347 228.414 198.02 228.364 197.52 228.364 C 196.74 228.364 196.027 228.614 195.38 229.114 C 194.74 229.614 194.42 230.414 194.42 231.514 L 194.42 237.414 L 191.72 237.414 ZM 200.825 243.494 L 200.825 225.934 L 203.425 225.934 L 203.425 228.064 C 204.338 226.444 205.771 225.634 207.725 225.634 C 209.338 225.634 210.645 226.147 211.645 227.174 C 212.651 228.2 213.155 229.68 213.155 231.614 C 213.155 232.814 212.908 233.87 212.415 234.784 C 211.921 235.704 211.255 236.414 210.415 236.914 C 209.568 237.414 208.628 237.664 207.595 237.664 C 206.628 237.664 205.791 237.494 205.085 237.154 C 204.378 236.807 203.825 236.317 203.425 235.684 L 203.445 243.494 L 200.825 243.494 Z M 206.975 235.384 C 208.055 235.384 208.888 235.04 209.475 234.354 C 210.055 233.66 210.345 232.77 210.345 231.684 C 210.345 230.55 210.058 229.647 209.485 228.974 C 208.911 228.3 208.075 227.964 206.975 227.964 C 206.375 227.964 205.811 228.107 205.285 228.394 C 204.758 228.687 204.341 229.104 204.035 229.644 C 203.728 230.19 203.575 230.82 203.575 231.534 L 203.575 231.714 C 203.575 232.427 203.728 233.064 204.035 233.624 C 204.341 234.184 204.755 234.617 205.275 234.924 C 205.788 235.23 206.355 235.384 206.975 235.384 ZM 221.373 237.664 C 220.187 237.664 219.137 237.397 218.223 236.864 C 217.303 236.33 216.593 235.604 216.093 234.684 C 215.593 233.77 215.343 232.754 215.343 231.634 C 215.343 230.534 215.59 229.527 216.083 228.614 C 216.577 227.694 217.28 226.967 218.193 226.434 C 219.113 225.9 220.173 225.634 221.373 225.634 C 222.573 225.634 223.627 225.9 224.533 226.434 C 225.44 226.967 226.14 227.694 226.633 228.614 C 227.127 229.527 227.373 230.534 227.373 231.634 C 227.373 232.754 227.123 233.77 226.623 234.684 C 226.123 235.604 225.42 236.33 224.513 236.864 C 223.6 237.397 222.553 237.664 221.373 237.664 Z M 221.443 235.464 C 222.41 235.464 223.173 235.104 223.733 234.384 C 224.293 233.67 224.573 232.77 224.573 231.684 C 224.573 230.604 224.273 229.69 223.673 228.944 C 223.073 228.204 222.28 227.834 221.293 227.834 C 220.347 227.834 219.583 228.2 219.003 228.934 C 218.43 229.667 218.143 230.584 218.143 231.684 C 218.143 232.75 218.453 233.647 219.073 234.374 C 219.687 235.1 220.477 235.464 221.443 235.464 ZM 234.197 237.664 C 233.397 237.664 232.567 237.56 231.707 237.354 C 230.847 237.14 230.234 236.894 229.867 236.614 L 230.767 234.484 C 231.767 235.184 232.91 235.534 234.197 235.534 C 235.477 235.534 236.117 235.16 236.117 234.414 C 236.117 234.08 235.984 233.82 235.717 233.634 C 235.45 233.454 234.977 233.237 234.297 232.984 L 233.347 232.634 C 232.347 232.234 231.554 231.757 230.967 231.204 C 230.387 230.644 230.097 229.904 230.097 228.984 C 230.097 227.937 230.507 227.117 231.327 226.524 C 232.154 225.93 233.26 225.634 234.647 225.634 C 235.327 225.634 235.997 225.71 236.657 225.864 C 237.317 226.01 237.82 226.2 238.167 226.434 L 237.197 228.584 C 236.977 228.37 236.63 228.184 236.157 228.024 C 235.684 227.864 235.154 227.784 234.567 227.784 C 233.387 227.784 232.797 228.144 232.797 228.864 C 232.797 229.264 232.954 229.567 233.267 229.774 C 233.587 229.98 234.104 230.21 234.817 230.464 C 234.884 230.477 235.144 230.567 235.597 230.734 C 236.664 231.154 237.454 231.63 237.967 232.164 C 238.487 232.697 238.747 233.38 238.747 234.214 C 238.747 235.347 238.317 236.204 237.457 236.784 C 236.597 237.37 235.51 237.664 234.197 237.664 ZM 246.966 237.664 C 245.599 237.664 244.459 237.394 243.546 236.854 C 242.626 236.307 241.949 235.58 241.516 234.674 C 241.083 233.767 240.866 232.77 240.866 231.684 C 240.866 230.47 241.119 229.404 241.626 228.484 C 242.139 227.57 242.846 226.867 243.746 226.374 C 244.646 225.88 245.663 225.634 246.796 225.634 C 248.563 225.634 249.876 226.12 250.736 227.094 C 251.589 228.074 252.016 229.447 252.016 231.214 C 252.016 231.66 251.993 232.127 251.946 232.614 L 243.696 232.614 C 243.876 233.627 244.236 234.36 244.776 234.814 C 245.323 235.26 246.079 235.484 247.046 235.484 C 247.846 235.484 248.503 235.417 249.016 235.284 C 249.536 235.15 250.013 234.967 250.446 234.734 L 251.266 236.664 C 250.853 236.93 250.286 237.164 249.566 237.364 C 248.853 237.564 247.986 237.664 246.966 237.664 Z M 243.696 230.734 L 249.396 230.734 C 249.409 229.7 249.183 228.97 248.716 228.544 C 248.249 228.124 247.583 227.914 246.716 227.914 C 244.969 227.914 243.963 228.854 243.696 230.734 ZM 257.395 231.734 C 257.295 231.387 257.245 231.004 257.245 230.584 C 257.245 229.784 257.438 229.127 257.825 228.614 C 258.218 228.094 258.798 227.527 259.565 226.914 C 260.285 226.327 260.825 225.8 261.185 225.334 C 261.538 224.867 261.715 224.29 261.715 223.604 C 261.715 222.924 261.478 222.364 261.005 221.924 C 260.532 221.477 259.868 221.254 259.015 221.254 C 258.502 221.254 258.052 221.36 257.665 221.574 C 257.285 221.78 256.982 222.02 256.755 222.294 C 256.528 222.567 256.382 222.814 256.315 223.034 L 253.815 221.784 C 254.082 221.317 254.362 220.89 254.655 220.504 C 254.948 220.124 255.478 219.734 256.245 219.334 C 257.012 218.934 257.985 218.734 259.165 218.734 C 260.232 218.734 261.188 218.937 262.035 219.344 C 262.875 219.75 263.528 220.31 263.995 221.024 C 264.462 221.73 264.695 222.507 264.695 223.354 C 264.695 224.14 264.562 224.817 264.295 225.384 C 264.028 225.95 263.708 226.42 263.335 226.794 C 262.955 227.174 262.465 227.597 261.865 228.064 C 261.198 228.577 260.715 229.01 260.415 229.364 C 260.115 229.71 259.965 230.144 259.965 230.664 C 259.965 230.997 259.982 231.354 260.015 231.734 L 257.395 231.734 Z M 258.945 237.664 C 258.425 237.664 257.995 237.494 257.655 237.154 C 257.315 236.807 257.145 236.384 257.145 235.884 C 257.145 235.37 257.315 234.944 257.655 234.604 C 257.995 234.257 258.425 234.084 258.945 234.084 C 259.445 234.084 259.868 234.257 260.215 234.604 C 260.568 234.944 260.745 235.37 260.745 235.884 C 260.745 236.384 260.568 236.807 260.215 237.154 C 259.868 237.494 259.445 237.664 258.945 237.664 Z" transform="matrix(1.678157091140747, 0, 0, 1.678157091140747, 181.6521453857422, -74.64280700683594)" style="fill: rgb(51, 51, 51); line-height: 40.0158px; white-space: pre;"/>
    <path d="M 316.474 456.87 C 315.634 456.87 314.8 456.723 313.974 456.43 C 313.147 456.137 312.55 455.807 312.184 455.44 L 313.304 453.45 C 313.597 453.717 314.054 453.993 314.674 454.28 C 315.3 454.567 315.9 454.71 316.474 454.71 C 317.214 454.71 317.817 454.533 318.284 454.18 C 318.757 453.833 318.994 453.35 318.994 452.73 C 318.994 452.257 318.867 451.843 318.614 451.49 C 318.36 451.143 318.054 450.853 317.694 450.62 C 317.327 450.393 316.807 450.11 316.134 449.77 C 315.334 449.377 314.787 449.083 314.494 448.89 C 313.14 447.983 312.464 446.723 312.464 445.11 C 312.464 443.777 312.904 442.757 313.784 442.05 C 314.664 441.343 315.777 440.99 317.124 440.99 C 318.564 440.99 319.787 441.403 320.794 442.23 L 319.684 444.14 C 319.417 443.86 319.044 443.62 318.564 443.42 C 318.077 443.213 317.56 443.11 317.014 443.11 C 316.314 443.11 315.764 443.27 315.364 443.59 C 314.97 443.903 314.774 444.367 314.774 444.98 C 314.774 445.413 314.897 445.803 315.144 446.15 C 315.397 446.49 315.717 446.787 316.104 447.04 C 316.49 447.293 317.01 447.603 317.664 447.97 C 318.297 448.317 318.78 448.593 319.114 448.8 C 319.454 449 319.77 449.24 320.064 449.52 C 320.47 449.887 320.8 450.32 321.054 450.82 C 321.3 451.327 321.424 451.88 321.424 452.48 C 321.424 453.42 321.21 454.217 320.784 454.87 C 320.357 455.53 319.77 456.03 319.024 456.37 C 318.277 456.703 317.427 456.87 316.474 456.87 ZM 332.041 456.66 L 332.041 441.22 L 335.441 441.22 C 337.361 441.22 338.764 441.63 339.651 442.45 C 340.538 443.27 340.981 444.393 340.981 445.82 C 340.981 447.473 340.498 448.74 339.531 449.62 C 338.571 450.507 337.138 450.95 335.231 450.95 L 334.411 450.95 L 334.411 456.66 L 332.041 456.66 Z M 334.411 448.87 L 335.291 448.87 C 336.524 448.87 337.388 448.597 337.881 448.05 C 338.368 447.503 338.611 446.847 338.611 446.08 C 338.611 445.253 338.374 444.58 337.901 444.06 C 337.421 443.54 336.621 443.28 335.501 443.28 L 334.411 443.28 L 334.411 448.87 ZM 355.529 441.2 L 355.759 441.2 L 363.189 456.66 L 360.479 456.66 L 359.159 453.64 L 352.079 453.64 L 350.759 456.66 L 348.129 456.66 L 355.529 441.2 Z M 355.629 445.68 L 354.709 447.78 L 353.029 451.51 L 358.239 451.51 L 356.579 447.8 L 355.669 445.68 L 355.629 445.68 ZM 382.994 456.66 L 380.294 456.66 L 377.184 450.82 C 376.537 450.847 375.964 450.86 375.464 450.86 L 374.874 450.86 L 374.874 456.66 L 372.584 456.66 L 372.584 441.22 L 376.094 441.22 C 377.867 441.22 379.327 441.59 380.474 442.33 C 381.627 443.063 382.204 444.257 382.204 445.91 C 382.204 446.943 381.96 447.837 381.474 448.59 C 380.994 449.337 380.277 449.913 379.324 450.32 L 382.994 456.66 Z M 374.874 448.95 L 376.364 448.95 C 377.737 448.95 378.677 448.653 379.184 448.06 C 379.697 447.467 379.954 446.757 379.954 445.93 C 379.954 444.097 378.727 443.18 376.274 443.18 L 374.874 443.18 L 374.874 448.95 ZM 401.775 456.66 L 397.055 449.75 L 395.795 451.3 L 395.795 456.66 L 393.485 456.66 L 393.485 441.22 L 395.795 441.22 L 395.795 448.11 L 401.085 441.22 L 403.895 441.22 L 398.585 448.01 L 404.655 456.66 L 401.775 456.66 ZM 417.621 456.87 C 416.781 456.87 415.948 456.723 415.121 456.43 C 414.294 456.137 413.698 455.807 413.331 455.44 L 414.451 453.45 C 414.744 453.717 415.201 453.993 415.821 454.28 C 416.448 454.567 417.048 454.71 417.621 454.71 C 418.361 454.71 418.964 454.533 419.431 454.18 C 419.904 453.833 420.141 453.35 420.141 452.73 C 420.141 452.257 420.014 451.843 419.761 451.49 C 419.508 451.143 419.201 450.853 418.841 450.62 C 418.474 450.393 417.954 450.11 417.281 449.77 C 416.481 449.377 415.934 449.083 415.641 448.89 C 414.288 447.983 413.611 446.723 413.611 445.11 C 413.611 443.777 414.051 442.757 414.931 442.05 C 415.811 441.343 416.924 440.99 418.271 440.99 C 419.711 440.99 420.934 441.403 421.941 442.23 L 420.831 444.14 C 420.564 443.86 420.191 443.62 419.711 443.42 C 419.224 443.213 418.708 443.11 418.161 443.11 C 417.461 443.11 416.911 443.27 416.511 443.59 C 416.118 443.903 415.921 444.367 415.921 444.98 C 415.921 445.413 416.044 445.803 416.291 446.15 C 416.544 446.49 416.864 446.787 417.251 447.04 C 417.638 447.293 418.158 447.603 418.811 447.97 C 419.444 448.317 419.928 448.593 420.261 448.8 C 420.601 449 420.918 449.24 421.211 449.52 C 421.618 449.887 421.948 450.32 422.201 450.82 C 422.448 451.327 422.571 451.88 422.571 452.48 C 422.571 453.42 422.358 454.217 421.931 454.87 C 421.504 455.53 420.918 456.03 420.171 456.37 C 419.424 456.703 418.574 456.87 417.621 456.87 Z" transform="matrix(1, 0, 0, 1, 0, 0)" style="fill: rgb(195, 195, 195); text-transform: uppercase; white-space: pre;"/>
  </g>
</svg>